<svg xmlns="http://www.w3.org/2000/svg" width="72" height="72" viewBox="0 0 72 72"><g transform="translate(5.318 10.229)"><circle cx="36" cy="36" r="36" transform="translate(-5.318 -10.229)" fill="#fcfcfc"/><path d="M98.058,93.84h-26.7a1.224,1.224,0,0,1-1.225-1.225V57.893a1.225,1.225,0,0,1,1.225-1.225h26.7a1.225,1.225,0,0,1,1.225,1.225V92.615A1.224,1.224,0,0,1,98.058,93.84Zm0,0" transform="translate(-54.902 -48.169)" fill="#ffded5"/><path d="M98.041,56.668H96.387V91.137a1.241,1.241,0,0,1-1.241,1.241H70.132v.22a1.241,1.241,0,0,0,1.241,1.241H98.041A1.241,1.241,0,0,0,99.282,92.6V57.909a1.241,1.241,0,0,0-1.241-1.241Zm0,0" transform="translate(-54.901 -48.169)" fill="#f7c6ba"/><path d="M125.075,30.424H120.73V27.917a1.3,1.3,0,0,1,1.3-1.3h1.753a1.3,1.3,0,0,1,1.3,1.3Zm0,0" transform="translate(-101.368 -20.575)" fill="#1dc2ff"/><path d="M330.5,30.424h-4.345V27.917a1.3,1.3,0,0,1,1.3-1.3h1.753a1.3,1.3,0,0,1,1.3,1.3Zm0,0" transform="translate(-290.024 -20.575)" fill="#1dc2ff"/><path d="M140.363,3.83a.62.62,0,0,1-.621-.621V.621a.62.62,0,1,1,1.241,0V3.209A.62.62,0,0,1,140.363,3.83Zm0,0" transform="translate(-118.828 3.873)" fill="#00a2ff"/><path d="M345.785,3.83a.62.62,0,0,1-.621-.621V.621a.621.621,0,1,1,1.241,0V3.209A.62.62,0,0,1,345.785,3.83Zm0,0" transform="translate(-307.48 3.873)" fill="#00a2ff"/><path d="M328.347,112.779H319.1a1.224,1.224,0,0,1-1.225-1.225v-4.08a1.224,1.224,0,0,1,1.225-1.225h9.247a1.224,1.224,0,0,1,1.225,1.225v4.08A1.224,1.224,0,0,1,328.347,112.779Zm0,0" transform="translate(-282.419 -93.704)" fill="#1dc2ff"/><path d="M427.951,106.25h-1.6a1.241,1.241,0,0,1,1.241,1.241v4.047a1.241,1.241,0,0,1-1.241,1.241h1.6a1.241,1.241,0,0,0,1.241-1.241v-4.047A1.241,1.241,0,0,0,427.951,106.25Zm0,0" transform="translate(-382.039 -93.704)" fill="#00a2ff"/><path d="M24.054,213.287H3.855l-3.53-1.07a.549.549,0,0,1-.006-1l3.536-1.106h20.2a1.587,1.587,0,1,1,0,3.174Zm0,0" transform="translate(9.505 -189.087)" fill="#1dc2ff"/><path d="M24.273,210.2c0,.031,0,.062,0,.093a1.587,1.587,0,0,1-1.587,1.587H.078A.541.541,0,0,0,.4,212.3l3.53,1.07h20.2a1.587,1.587,0,0,0,.148-3.167Zm0,0" transform="translate(9.434 -189.17)" fill="#00a2ff"/><path d="M116.358,138.265H103.613a.62.62,0,1,1,0-1.241h12.745a.62.62,0,1,1,0,1.241Zm0,0" transform="translate(-85.078 -121.965)" fill="#32e4ff"/><path d="M112.222,166.643h-8.61a.621.621,0,1,1,0-1.241h8.61a.621.621,0,0,1,0,1.241Zm0,0" transform="translate(-85.077 -148.026)" fill="#32e4ff"/><path d="M4.534,210.113H3.856L.32,211.218a.549.549,0,0,0,.006,1l3.53,1.07h.678v-3.174Zm0,0" transform="translate(9.504 -189.087)" fill="#ffded5"/><path d="M.094,230.848a.54.54,0,0,0,.316.412l3.53,1.07h.678v-1.481Zm0,0" transform="translate(9.42 -208.13)" fill="#f7cdc4"/><path d="M2.62,214.84l-2.3.719a.549.549,0,0,0,.006,1l2.3.7Zm0,0" transform="translate(9.506 -193.429)" fill="#00a2ff"/><path d="M102.544,294.272a3.1,3.1,0,1,1-3.1-3.1A3.1,3.1,0,0,1,102.544,294.272Zm0,0" transform="translate(-78.98 -263.532)" fill="#1dc2ff"/><path d="M218.826,306.054H196.9a1.225,1.225,0,0,1-1.225-1.225V292.58a1.225,1.225,0,0,1,1.225-1.225h21.929a1.225,1.225,0,0,1,1.225,1.225v12.25A1.225,1.225,0,0,1,218.826,306.054Zm0,0" transform="translate(-170.192 -263.697)" fill="#1dc2ff"/><path d="M223.691,327.07l-11.834-12.425L200.023,327.07a1.237,1.237,0,0,0,.886.373h21.9a1.239,1.239,0,0,0,.886-.373Zm0,0" transform="translate(-174.188 -285.086)" fill="#00a2ff"/><path d="M222.806,291.355h-.674V302.8a1.241,1.241,0,0,1-1.241,1.241H201.582l-1.557,1.635.04.038.037.034.043.035.042.032.043.03c.027.018.054.034.083.05h0c.033.018.067.035.1.05l.005,0h0c.033.014.066.026.1.037l.015.005c.032.01.064.018.1.025l.021.005h0c.032.007.064.011.1.015h0l.025,0a1.215,1.215,0,0,0,.128.007h21.9a1.241,1.241,0,0,0,1.241-1.241V292.6a1.241,1.241,0,0,0-1.241-1.241Zm0,0" transform="translate(-174.189 -263.697)" fill="#00a2ff"/><path d="M222.962,444.594c.032,0,.065-.009.1-.015l.023-.006c.033-.007.065-.015.1-.026l.014-.005c.034-.011.068-.024.1-.038l.006,0a1.249,1.249,0,0,0,.391-.269l-1.914-2.01a1.237,1.237,0,0,1-.887.374H201.581l-1.557,1.635a1.254,1.254,0,0,0,.288.219c.033.018.068.035.1.05a1.248,1.248,0,0,0,.5.1h21.9a1.2,1.2,0,0,0,.128-.006l.028,0Zm0,0" transform="translate(-174.189 -402.248)" fill="#08f"/><g transform="translate(17.372 27.643)"><path d="M212.84,299.4l11.747-7.749a1.234,1.234,0,0,0-.8-.292h-21.9a1.234,1.234,0,0,0-.8.292Zm0,0" transform="translate(-192.543 -291.34)" fill="#32e4ff"/><path d="M96.352,294.272a3.083,3.083,0,0,0,.3,1.339,3.1,3.1,0,0,0,4.132-4.132,3.1,3.1,0,0,0-4.435,2.793Zm0,0" transform="translate(-96.352 -291.175)" fill="#32e4ff"/></g></g></svg>