<svg xmlns="http://www.w3.org/2000/svg" width="680" height="564" viewBox="0 0 680 564"><g transform="translate(620.008 501.104)"><circle cx="36" cy="36" r="36" transform="translate(-620.008 -501.104)" fill="#fcfcfc"/><circle cx="36" cy="36" r="36" transform="translate(-12.008 -9.104)" fill="#fcfcfc"/><path d="M27.244,2.36V16.917a2.393,2.393,0,0,1-2.36,2.36H12.392L3.147,24.1V19.277H2.36A2.393,2.393,0,0,1,0,16.917V2.36A2.393,2.393,0,0,1,2.36,0H24.982A2.31,2.31,0,0,1,27.244,2.36Z" transform="translate(1.594 6.594)" fill="#f3705a"/><g transform="translate(5.43 13.676)"><ellipse cx="2.557" cy="2.557" rx="2.557" ry="2.557" transform="translate(0 -0.001)" fill="#fff"/><ellipse cx="2.557" cy="2.557" rx="2.557" ry="2.557" transform="translate(7.278 -0.001)" fill="#fff"/><ellipse cx="2.557" cy="2.557" rx="2.557" ry="2.557" transform="translate(14.556 -0.001)" fill="#fff"/></g><path d="M216.533,65.293V79.751a2.393,2.393,0,0,0,2.36,2.36h12.589l9.245,4.819V82.112h.688a2.393,2.393,0,0,0,2.36-2.36V65.293a2.393,2.393,0,0,0-2.36-2.36H218.8A2.31,2.31,0,0,0,216.533,65.293Z" transform="translate(-194.974 -50.537)" fill="#ffd15c"/><g transform="translate(25.297 19.478)"><ellipse cx="2.557" cy="2.557" rx="2.557" ry="2.557" transform="translate(14.556 0)" fill="#fff"/><ellipse cx="2.557" cy="2.557" rx="2.557" ry="2.557" transform="translate(7.278 0)" fill="#fff"/><ellipse cx="2.557" cy="2.557" rx="2.557" ry="2.557" transform="translate(0 0)" fill="#fff"/></g><path d="M102.977,254.093V268.65a2.393,2.393,0,0,1-2.36,2.36h-7.77l-3.541,4.721-3.541-4.819H78.093a2.393,2.393,0,0,1-2.36-2.36V254.093a2.393,2.393,0,0,1,2.36-2.36h22.621A2.31,2.31,0,0,1,102.977,254.093Z" transform="translate(-67.156 -221.928)" fill="#66c6b9"/><g transform="translate(12.413 36.886)"><ellipse cx="2.557" cy="2.557" rx="2.557" ry="2.557" transform="translate(14.458 0)" fill="#fff"/><ellipse cx="2.557" cy="2.557" rx="2.557" ry="2.557" transform="translate(7.278 0)" fill="#fff"/><ellipse cx="2.557" cy="2.557" rx="2.557" ry="2.557" transform="translate(0 0)" fill="#fff"/></g></g></svg>