<svg xmlns="http://www.w3.org/2000/svg" width="968.336" height="679.652" viewBox="0 0 968.336 679.652"><g transform="translate(-425.607 -3146.138)"><g transform="translate(435.049 3313.75)"><path d="M146.9,471.193H125.252a1.665,1.665,0,0,1-1.666-1.666h0a1.665,1.665,0,0,1,1.666-1.666H146.9a1.665,1.665,0,0,1,1.666,1.666h0A1.665,1.665,0,0,1,146.9,471.193Z" transform="translate(-111.927 -424.557)" fill="#e7eced"/><path d="M172.221,381.252v-1.666h-8.328v1.666c0,3.683-1.314,6.662-5,6.662h18.321C173.535,387.914,172.221,384.934,172.221,381.252Z" transform="translate(-143.906 -344.609)" fill="#afb6bb"/><path d="M45.8,325.288H2.5a2.5,2.5,0,0,1-2.5-2.5v-5H48.3v5A2.5,2.5,0,0,1,45.8,325.288Z" transform="translate(0 -288.646)" fill="#e7eced"/><path d="M226.519,354.769h-5a.833.833,0,1,1,0-1.666h5a.833.833,0,1,1,0,1.666Z" transform="translate(-199.869 -320.624)" fill="#afb6bb"/><path d="M41.639,8.827H2.5a2.5,2.5,0,0,0-2.5,2.5V38.807H48.3V11.326a2.5,2.5,0,0,0-2.5-2.5H41.639Z" transform="translate(0 -8.827)" fill="#495d72"/><rect width="22.485" height="26.649" transform="translate(22.485 3.331)" fill="#28384c"/><rect width="20.82" height="26.649" transform="translate(3.331 3.331)" fill="#ebba16"/><g transform="translate(5.829 5.829)"><path d="M124.411,236.181a.832.832,0,0,1-.745-1.205l2.5-5a.833.833,0,0,1,1.49.745l-2.5,5A.832.832,0,0,1,124.411,236.181Z" transform="translate(-117.75 -214.529)" fill="#fff"/><path d="M62.624,233.679a.833.833,0,0,1-.589-1.422l2.5-2.5a.833.833,0,0,1,1.178,1.178l-2.5,2.5A.831.831,0,0,1,62.624,233.679Z" transform="translate(-61.791 -214.525)" fill="#fff"/><path d="M65.122,260.162a.831.831,0,0,1-.589-.244l-2.5-2.5a.833.833,0,1,1,1.178-1.178l2.5,2.5a.833.833,0,0,1-.589,1.422Z" transform="translate(-61.791 -238.51)" fill="#fff"/><path d="M188.708,233.679a.83.83,0,0,1-.589-.244l-2.5-2.5a.833.833,0,0,1,1.178-1.178l2.5,2.5a.833.833,0,0,1-.589,1.422Z" transform="translate(-173.718 -214.525)" fill="#fff"/><path d="M186.21,260.162a.833.833,0,0,1-.589-1.422l2.5-2.5a.833.833,0,0,1,1.178,1.178l-2.5,2.5A.831.831,0,0,1,186.21,260.162Z" transform="translate(-173.718 -238.51)" fill="#fff"/><path d="M142.074,78.115a.833.833,0,0,1-.833-.833V71.453a.833.833,0,1,1,1.666,0v5.829A.833.833,0,0,1,142.074,78.115Z" transform="translate(-133.746 -70.62)" fill="#fff"/><path d="M142.074,171.054a.833.833,0,0,1-.833-.833v-1.666a.833.833,0,0,1,1.666,0v1.666A.833.833,0,0,1,142.074,171.054Z" transform="translate(-133.746 -158.562)" fill="#fff"/></g><path d="M291.643,72.286h-8.328a.833.833,0,1,1,0-1.666h8.328a.833.833,0,0,1,0,1.666Z" transform="translate(-255.833 -64.791)" fill="#dd352e"/><path d="M409.4,72.286h-2.5a.833.833,0,1,1,0-1.666h2.5a.833.833,0,1,1,0,1.666Z" transform="translate(-367.76 -64.791)" fill="#366db6"/><path d="M353.436,107.6h-8.328a.833.833,0,1,1,0-1.666h8.328a.833.833,0,1,1,0,1.666Z" transform="translate(-311.796 -96.769)" fill="#75348b"/><path d="M285.813,107.6h-2.5a.833.833,0,1,1,0-1.666h2.5a.833.833,0,1,1,0,1.666Z" transform="translate(-255.833 -96.769)" fill="#57abc1"/><path d="M291.643,142.907h-8.328a.833.833,0,0,1,0-1.666h8.328a.833.833,0,0,1,0,1.666Z" transform="translate(-255.833 -128.749)" fill="#25ae88"/><path d="M409.4,142.907h-2.5a.833.833,0,1,1,0-1.666h2.5a.833.833,0,1,1,0,1.666Z" transform="translate(-367.76 -128.749)" fill="#f76363"/><path d="M353.436,178.217h-8.328a.833.833,0,1,1,0-1.666h8.328a.833.833,0,0,1,0,1.666Z" transform="translate(-311.796 -160.728)" fill="#bf5a45"/><path d="M285.813,178.217h-2.5a.833.833,0,1,1,0-1.666h2.5a.833.833,0,1,1,0,1.666Z" transform="translate(-255.833 -160.728)" fill="#f2ecbf"/><path d="M353.436,284.148h-8.328a.833.833,0,1,1,0-1.666h8.328a.833.833,0,0,1,0,1.666Z" transform="translate(-311.796 -256.666)" fill="#25ae88"/><path d="M285.813,284.148h-2.5a.833.833,0,1,1,0-1.666h2.5a.833.833,0,1,1,0,1.666Z" transform="translate(-255.833 -256.666)" fill="#dd352e"/><path d="M291.643,213.527h-8.328a.833.833,0,0,1,0-1.666h8.328a.833.833,0,0,1,0,1.666Z" transform="translate(-255.833 -192.707)" fill="#75348b"/><path d="M409.4,213.527h-2.5a.833.833,0,1,1,0-1.666h2.5a.833.833,0,1,1,0,1.666Z" transform="translate(-367.76 -192.707)" fill="#ebba16"/><path d="M353.436,248.838h-8.328a.833.833,0,1,1,0-1.666h8.328a.833.833,0,1,1,0,1.666Z" transform="translate(-311.796 -224.687)" fill="#ed8a19"/><path d="M285.813,248.838h-2.5a.833.833,0,1,1,0-1.666h2.5a.833.833,0,1,1,0,1.666Z" transform="translate(-255.833 -224.687)" fill="#c5411e"/></g><g transform="translate(710.301 3148.505)"><path d="M45.593,204.612H43.6a6.648,6.648,0,0,0-4.629-11.421H36.2a10.563,10.563,0,0,0-21.1,0H12.322a6.648,6.648,0,0,0-4.629,11.421H5.7a5.7,5.7,0,0,0,0,11.4H45.593a5.7,5.7,0,1,0,0-11.4Z" transform="translate(0 -164.2)" fill="#e28086"/><g transform="translate(0 18.933)"><path d="M28.932,183.653a10.565,10.565,0,0,0-7.27,9.537H19.449a6.557,6.557,0,0,0-6.491,5.622l-.025.176a6.583,6.583,0,0,0,6.528,7.471l-5.246.031a4.763,4.763,0,0,0,0,9.525H5.705A5.7,5.7,0,0,1,0,210.3a5.757,5.757,0,0,1,5.787-5.688H7.7a6.625,6.625,0,0,1-2.021-4.84,6.707,6.707,0,0,1,6.738-6.581H15.1a10.569,10.569,0,0,1,13.832-9.537Z" transform="translate(-0.004 -183.133)" fill="#dd636e"/><path d="M269.124,363.68v0h-4.8A8.288,8.288,0,0,1,256,355.56a8.221,8.221,0,0,1,8.22-8.319h2.072a.274.274,0,0,1,.094.532,8.221,8.221,0,0,0,2.737,15.907Z" transform="translate(-230.353 -330.8)" fill="#dd636e"/><path d="M151.25,437.516h-4.9c-1.862,0-1.661-3.947-3.04-4.991-1.982-1.5-5.181-.552-5.181-3.23a8.22,8.22,0,0,1-8.221,8.22H151.25Z" transform="translate(-112.479 -404.633)" fill="#dd636e"/><path d="M256.774,334.665a.774.774,0,0,1-.774-.774v-9.848a.774.774,0,0,1,1.548,0v9.848A.774.774,0,0,1,256.774,334.665Z" transform="translate(-230.353 -309.23)" fill="#dd636e"/></g><g transform="translate(18.875 0.651)"><path d="M212,3.219V6.7H200.97V3.219A2.567,2.567,0,0,1,203.536.652h5.894A2.567,2.567,0,0,1,212,3.219Z" transform="translate(-199.711 -0.652)" fill="#e28086"/><path d="M206.553.651a2.567,2.567,0,0,0-2.566,2.567V6.694H200.97V3.218A2.567,2.567,0,0,1,203.536.651h3.017Z" transform="translate(-199.711 -0.651)" fill="#dd636e"/><path d="M212,77.549V93.014c-.393-.439-.965.825-1.6.825-.869,0-5.129.281-5.523.727-.141.159-3.51-1.991-3.9-1.552V77.549Z" transform="translate(-199.712 -69.845)" fill="#8eaadf"/><path d="M204.874,94.566c-.141.159-3.51-1.991-3.9-1.552V77.549h3.557V93.56Z" transform="translate(-199.711 -69.845)" fill="#698ed5"/><path d="M212,225.495l-3.533,6.9H204.5l-3.533-6.9a2.149,2.149,0,0,1,3.557.546,2.149,2.149,0,0,1,3.913,0,2.149,2.149,0,0,1,3.557-.546Z" transform="translate(-199.711 -202.326)" fill="#f6eeda"/><path d="M206.136,232.4H204.5l-3.533-6.9a2.149,2.149,0,0,1,3.557.546L206,230.324Z" transform="translate(-199.711 -202.326)" fill="#efe1c1"/><path d="M200.395,56.6H189.95a1.55,1.55,0,0,1,0-3.1h10.445a1.55,1.55,0,0,1,0,3.1Z" transform="translate(-188.4 -48.202)" fill="#ffe07d"/><path d="M193.836,56.592h-3.885a1.55,1.55,0,1,1,0-3.1h3.885a1.55,1.55,0,0,0,0,3.1Z" transform="translate(-188.4 -48.197)" fill="#ffd064"/><path d="M240.2,281.509v2.778a.845.845,0,0,1-1.207.764l-1.256-.6-.667-.316a1.455,1.455,0,0,1-.831-1.314v-1.317a1.98,1.98,0,1,1,3.96,0Z" transform="translate(-231.445 -251.589)" fill="#4a80aa"/><path d="M237.734,280.12v4.868l-.667-.316a1.455,1.455,0,0,1-.831-1.314v-1.317A1.981,1.981,0,0,1,237.734,280.12Z" transform="translate(-231.444 -252.122)" fill="#407093"/></g><g transform="translate(1.06 7.691)"><g transform="translate(35.964 0)"><path d="M381.116,82.128l-9.543,5.58a.8.8,0,0,1-1.071-1.145l3.868-5.707-4.062-1.664a1.2,1.2,0,0,1-.442-1.916l5.3-5.944a1.22,1.22,0,0,1,1.373-.317l5.471,2.241a1.22,1.22,0,0,1,.248,2.12l-4.552,3.264,3.256,1.334A1.2,1.2,0,0,1,381.116,82.128Z" transform="translate(-369.559 -70.923)" fill="#ffe07d"/></g><path d="M12.236,82.128l9.543,5.58a.8.8,0,0,0,1.071-1.145l-3.868-5.707,4.062-1.664a1.2,1.2,0,0,0,.442-1.916l-5.3-5.944a1.22,1.22,0,0,0-1.373-.317L11.34,73.256a1.22,1.22,0,0,0-.248,2.12l4.552,3.264-3.256,1.334a1.2,1.2,0,0,0-.151,2.154Z" transform="translate(-10.582 -70.923)" fill="#ffe07d"/></g></g><g transform="translate(1087.548 3146.138)"><path d="M14.539,71H12.313A1.3,1.3,0,0,0,11,72.259v46.573a1.307,1.307,0,0,0,1.314,1.263H45.729a1.242,1.242,0,0,0,1.235-1.263v-2.048Z" transform="translate(-9.744 -62.894)" fill="#a5e2fb"/><path d="M45,44h-2.7A1.313,1.313,0,0,0,41,45.29V91.745a1.267,1.267,0,0,0,1.293,1.235H75.709a1.235,1.235,0,0,0,1.256-1.236V89.213Z" transform="translate(-36.319 -38.976)" fill="#8ebfce"/><path fill="#a5e2fb"/><path d="M100.106,11.1l-24.8-.047A1.3,1.3,0,0,0,74,12.31v46.7a1.288,1.288,0,0,0,1.307,1.247H108.6a1.242,1.242,0,0,0,1.252-1.247V20.752Z" transform="translate(-65.551 -9.791)" fill="#a5e2fb"/><path d="M312.631,21.082h-5.363a4.252,4.252,0,0,1-4.248-4.255V11.36a1.268,1.268,0,0,1,.581.34l8.77,8.988a1.233,1.233,0,0,1,.26.394Z" transform="translate(-268.423 -10.063)" fill="#8ebfce"/><path d="M199.1,285l.556,1.941H204.3l.556-1.941Z" transform="translate(-176.368 -252.461)" fill="#4a5160"/><path d="M173.208,121.9a7.169,7.169,0,0,1-2.923,5.73,3.756,3.756,0,0,0-1.5,2.746h-6.261A3.75,3.75,0,0,0,161,127.611a7.093,7.093,0,0,1-2.906-5.737,7.565,7.565,0,0,1,15.118.025Z" transform="translate(-140.04 -101.549)" fill="#f3ce7d"/><path d="M164.421,127.553a7.067,7.067,0,0,1-2.906-5.724,7.387,7.387,0,0,1,5.848-7.039,7.9,7.9,0,0,0-2.189-.173,7.444,7.444,0,0,0-7.084,7.224A7.042,7.042,0,0,0,161,127.553a3.824,3.824,0,0,1,1.523,2.738h3.425A3.822,3.822,0,0,0,164.421,127.553Z" transform="translate(-140.04 -101.518)" fill="#c1a263"/><path d="M192,251h7.307v4H192Z" transform="translate(-170.079 -222.342)" fill="#6d7486"/><path d="M192,251h3.425v4H192Z" transform="translate(-170.079 -222.342)" fill="#5e6470"/><g transform="translate(14.045 38.477)"><path d="M248,338.375h-8.12a.685.685,0,1,1,0-1.37H248a.685.685,0,0,1,0,1.37Z" transform="translate(-225.929 -337.005)" fill="#8ebfce"/><path d="M160.234,338.375h-7.3a.685.685,0,0,1,0-1.37h7.3a.685.685,0,0,1,0,1.37Z" transform="translate(-148.909 -337.005)" fill="#8ebfce"/><path d="M124.413,338.375H123.7a.685.685,0,0,1,0-1.37h.713a.685.685,0,0,1,0,1.37Z" transform="translate(-123.015 -337.005)" fill="#8ebfce"/><path d="M208.494,390.238h-7.8a.685.685,0,0,1,0-1.37h7.8a.685.685,0,1,1,0,1.37Z" transform="translate(-191.22 -382.947)" fill="#8ebfce"/><path d="M154.745,390.238h-2.879a.685.685,0,1,1,0-1.37h2.879a.685.685,0,1,1,0,1.37Z" transform="translate(-147.965 -382.947)" fill="#8ebfce"/><path d="M124.177,390.238H123.7a.685.685,0,1,1,0-1.37h.477a.685.685,0,1,1,0,1.37Z" transform="translate(-123.015 -382.947)" fill="#8ebfce"/></g><path d="M99.193,49.447a.685.685,0,0,1-.685-.685v-.293a.685.685,0,0,1,1.37,0v.293A.685.685,0,0,1,99.193,49.447Z" transform="translate(-87.261 -42.328)" fill="#f4f8fc"/><path d="M99.193,82.083a.685.685,0,0,1-.685-.685V72.011a.685.685,0,0,1,1.37,0V81.4A.685.685,0,0,1,99.193,82.083Z" transform="translate(-87.261 -63.182)" fill="#f4f8fc"/><path d="M218.985,69.653a.685.685,0,0,1-.685-.685V66.047a.685.685,0,1,1,1.37,0v2.921A.685.685,0,0,1,218.985,69.653Z" transform="translate(-193.376 -57.899)" fill="#f3ce7d"/><path d="M303.138,173.555h-2.921a.685.685,0,0,1,0-1.37h2.921a.685.685,0,1,1,0,1.37Z" transform="translate(-265.333 -152.526)" fill="#f3ce7d"/><path d="M115.081,173.555H112.16a.685.685,0,0,1,0-1.37h2.921a.685.685,0,0,1,0,1.37Z" transform="translate(-98.748 -152.526)" fill="#f3ce7d"/><path d="M276.428,100.086a.685.685,0,0,1-.484-1.169l2.066-2.066a.685.685,0,1,1,.969.969l-2.066,2.066A.683.683,0,0,1,276.428,100.086Z" transform="translate(-244.261 -85.616)" fill="#f3ce7d"/><path d="M145.513,100.086a.683.683,0,0,1-.484-.2l-2.066-2.065a.685.685,0,1,1,.969-.969L146,98.917a.685.685,0,0,1-.484,1.169Z" transform="translate(-126.463 -85.616)" fill="#f3ce7d"/><path d="M462.018,253.243a3,3,0,0,0-4.157-.86l-.251.164,3.3,5.017.251-.164A3,3,0,0,0,462.018,253.243Z" transform="translate(-405.363 -223.131)" fill="#6994fe"/><path d="M0,0H22.953V3H0Z" transform="matrix(0.836, -0.549, 0.549, 0.836, 34.716, 44.529)" fill="#bc5c71"/><path d="M308.747,257.65l-19.187,12.6,1.649,2.51,19.186-12.6Z" transform="translate(-256.5 -228.233)" fill="#e87187"/><path d="M268.309,368l-2.739,5.175,6.035-.158Z" transform="translate(-235.249 -325.984)" fill="#c79a83"/></g><g transform="translate(1343.164 3327.194)"><path d="M4.616,0H46.162a4.616,4.616,0,0,1,4.616,4.616V46.162a4.616,4.616,0,0,1-4.616,4.616H4.616A4.616,4.616,0,0,1,0,46.162V4.616A4.616,4.616,0,0,1,4.616,0Z" fill="#f2edf9"/><g transform="translate(16.157 9.233)"><path d="M151.645,85.337H167.8a2.308,2.308,0,0,1,2.308,2.308V94.57a2.308,2.308,0,0,1-2.308,2.308H151.645a2.308,2.308,0,0,1-2.308-2.308V87.645A2.308,2.308,0,0,1,151.645,85.337Z" transform="translate(-149.337 -85.337)" fill="#f7b236"/><path d="M151.645,277.337H167.8a2.308,2.308,0,0,1,2.308,2.308v6.925a2.308,2.308,0,0,1-2.308,2.308H151.645a2.308,2.308,0,0,1-2.308-2.308v-6.925A2.308,2.308,0,0,1,151.645,277.337Z" transform="translate(-149.337 -256.564)" fill="#f7b236"/></g><g transform="translate(4.616 4.616)"><path d="M150.491,213.337h9.233a1.154,1.154,0,0,1,1.154,1.154h0a1.154,1.154,0,0,1-1.154,1.154h-9.233a1.154,1.154,0,0,1-1.154-1.154h0A1.154,1.154,0,0,1,150.491,213.337Z" transform="translate(-137.796 -194.872)" fill="#5628b4"/><path d="M278.491,213.337h4.616a1.154,1.154,0,0,1,1.154,1.154h0a1.154,1.154,0,0,1-1.154,1.154h-4.616a1.154,1.154,0,0,1-1.154-1.154h0A1.154,1.154,0,0,1,278.491,213.337Z" transform="translate(-251.947 -194.872)" fill="#5628b4"/><path d="M150.491,405.337H152.8a1.154,1.154,0,0,1,1.154,1.154h0a1.154,1.154,0,0,1-1.154,1.154h-2.308a1.154,1.154,0,0,1-1.154-1.154h0A1.154,1.154,0,0,1,150.491,405.337Z" transform="translate(-137.796 -366.099)" fill="#5628b4"/><path d="M214.491,405.337h11.541a1.154,1.154,0,0,1,1.154,1.154h0a1.154,1.154,0,0,1-1.154,1.154H214.491a1.154,1.154,0,0,1-1.154-1.154h0A1.154,1.154,0,0,1,214.491,405.337Z" transform="translate(-194.872 -366.099)" fill="#5628b4"/><path d="M43.821,42.667h6.924A1.154,1.154,0,0,1,51.9,43.821h0a1.154,1.154,0,0,1-1.154,1.154H43.821a1.154,1.154,0,0,1-1.154-1.154h0A1.154,1.154,0,0,1,43.821,42.667Z" transform="translate(-42.667 -42.667)" fill="#5628b4"/></g><g transform="translate(4.616 18.465)"><path d="M43.821,170.667h4.616a1.154,1.154,0,0,1,1.154,1.154h0a1.154,1.154,0,0,1-1.154,1.154H43.821a1.154,1.154,0,0,1-1.154-1.154h0A1.154,1.154,0,0,1,43.821,170.667Z" transform="translate(-42.667 -170.667)" fill="#815ec7"/><path d="M43.821,213.337h2.308a1.154,1.154,0,0,1,1.154,1.154h0a1.154,1.154,0,0,1-1.154,1.154H43.821a1.154,1.154,0,0,1-1.154-1.154h0A1.154,1.154,0,0,1,43.821,213.337Z" transform="translate(-42.667 -208.72)" fill="#815ec7"/></g><g transform="translate(27.697 4.616)"><path d="M321.151,42.667h2.308a1.154,1.154,0,0,1,1.154,1.154h0a1.154,1.154,0,0,1-1.154,1.154h-2.308A1.154,1.154,0,0,1,320,43.821h0A1.154,1.154,0,0,1,321.151,42.667Z" transform="translate(-313.073 -42.667)" fill="#5628b4"/><path d="M257.151,42.667h2.308a1.154,1.154,0,0,1,1.154,1.154h0a1.154,1.154,0,0,1-1.154,1.154h-2.308A1.154,1.154,0,0,1,256,43.821h0A1.154,1.154,0,0,1,257.151,42.667Z" transform="translate(-255.997 -42.667)" fill="#5628b4"/><path d="M385.151,42.667h2.308a1.154,1.154,0,0,1,1.154,1.154h0a1.154,1.154,0,0,1-1.154,1.154h-2.308A1.154,1.154,0,0,1,384,43.821h0A1.154,1.154,0,0,1,385.151,42.667Z" transform="translate(-370.148 -42.667)" fill="#5628b4"/></g><path d="M44.975,85.337h2.308a2.308,2.308,0,0,1,2.308,2.308v2.308a2.308,2.308,0,0,1-2.308,2.308H44.975a2.308,2.308,0,0,1-2.308-2.308V87.645A2.308,2.308,0,0,1,44.975,85.337Z" transform="translate(-38.051 -76.104)" fill="#f7b236"/><g transform="translate(4.616 39.238)"><path d="M43.821,362.667h4.616a1.154,1.154,0,0,1,1.154,1.154h0a1.154,1.154,0,0,1-1.154,1.154H43.821a1.154,1.154,0,0,1-1.154-1.154h0A1.154,1.154,0,0,1,43.821,362.667Z" transform="translate(-42.667 -362.667)" fill="#815ec7"/><path d="M43.821,405.337h2.308a1.154,1.154,0,0,1,1.154,1.154h0a1.154,1.154,0,0,1-1.154,1.154H43.821a1.154,1.154,0,0,1-1.154-1.154h0A1.154,1.154,0,0,1,43.821,405.337Z" transform="translate(-42.667 -400.72)" fill="#815ec7"/></g><g transform="translate(4.616 9.233)"><path d="M44.975,277.337h2.308a2.308,2.308,0,0,1,2.308,2.308v2.308a2.308,2.308,0,0,1-2.308,2.308H44.975a2.308,2.308,0,0,1-2.308-2.308v-2.308A2.308,2.308,0,0,1,44.975,277.337Z" transform="translate(-42.667 -256.564)" fill="#f7b236"/><path d="M364.975,85.337h2.308a2.308,2.308,0,0,1,2.308,2.308v2.308a2.308,2.308,0,0,1-2.308,2.308h-2.308a2.308,2.308,0,0,1-2.308-2.308V87.645A2.308,2.308,0,0,1,364.975,85.337Z" transform="translate(-328.045 -85.337)" fill="#f7b236"/><path d="M364.975,170.667h2.308a2.308,2.308,0,0,1,2.308,2.308v2.308a2.308,2.308,0,0,1-2.308,2.308h-2.308a2.308,2.308,0,0,1-2.308-2.308v-2.308A2.308,2.308,0,0,1,364.975,170.667Z" transform="translate(-328.045 -161.435)" fill="#f7b236"/><path d="M364.975,256h2.308a2.308,2.308,0,0,1,2.308,2.308v2.308a2.308,2.308,0,0,1-2.308,2.308h-2.308a2.308,2.308,0,0,1-2.308-2.308v-2.308A2.308,2.308,0,0,1,364.975,256Z" transform="translate(-328.045 -237.533)" fill="#f7b236"/><path d="M364.975,341.337h2.308a2.308,2.308,0,0,1,2.308,2.308v2.308a2.308,2.308,0,0,1-2.308,2.308h-2.308a2.308,2.308,0,0,1-2.308-2.308v-2.308A2.308,2.308,0,0,1,364.975,341.337Z" transform="translate(-328.045 -313.64)" fill="#f7b236"/></g><path d="M87.675,42.667a1.154,1.154,0,0,0-1.154,1.154h0V84.213a2.308,2.308,0,0,1-2.308,2.308H43.821a1.154,1.154,0,1,0,0,2.308H84.213a4.616,4.616,0,0,0,4.616-4.616V43.821a1.154,1.154,0,0,0-1.154-1.154Z" transform="translate(-38.051 -38.051)" fill="#e0d5f1"/><g transform="translate(2.308 2.308)"><path d="M38.645,21.334h-15a2.308,2.308,0,0,0-2.308,2.308V34.029a1.154,1.154,0,0,0,2.308,0V24.8A1.154,1.154,0,0,1,24.8,23.642H38.645a1.154,1.154,0,0,0,0-2.308Z" transform="translate(-21.334 -21.334)" fill="#f9f6fc"/><path d="M214.491,21.334h4.616a1.154,1.154,0,0,1,1.154,1.154h0a1.154,1.154,0,0,1-1.154,1.154h-4.616a1.154,1.154,0,0,1-1.154-1.154h0A1.154,1.154,0,0,1,214.491,21.334Z" transform="translate(-192.564 -21.334)" fill="#f9f6fc"/></g></g><g transform="translate(1317.044 3584.041)"><g transform="translate(20.378)"><path d="M430.6,54.541H426.16V47.249H430.6a1.819,1.819,0,0,1,1.819,1.819v3.655A1.819,1.819,0,0,1,430.6,54.541Z" transform="translate(-387.369 -42.732)" fill="#ffd064"/><path d="M430.6,130.826H426.16v-7.292H430.6a1.819,1.819,0,0,1,1.819,1.819v3.655A1.819,1.819,0,0,1,430.6,130.826Z" transform="translate(-387.369 -111.725)" fill="#dd5790"/><path d="M430.6,207.11H426.16v-7.293H430.6a1.819,1.819,0,0,1,1.819,1.819v3.655A1.819,1.819,0,0,1,430.6,207.11Z" transform="translate(-387.369 -180.715)" fill="#a0f2bf"/><g transform="translate(0)"><g transform="translate(3.388)"><path d="M90.84,48.945H59.321a3.507,3.507,0,0,1-3.507-3.507V3.507A3.507,3.507,0,0,1,59.321,0H90.84a3.507,3.507,0,0,1,3.507,3.507V45.439A3.507,3.507,0,0,1,90.84,48.945Z" transform="translate(-55.814)" fill="#9bc4f9"/></g><path d="M359.863,0h-6.59a3.507,3.507,0,0,1,3.507,3.507V45.439a3.507,3.507,0,0,1-3.507,3.507h6.59a3.507,3.507,0,0,0,3.507-3.507V3.507A3.507,3.507,0,0,0,359.863,0Z" transform="translate(-321.449)" fill="#7fb2f9"/><g transform="translate(0 6.189)"><path d="M25.281,68.482H22.25a1.872,1.872,0,1,1,0-3.745h3.03a1.872,1.872,0,1,1,0,3.745Z" transform="translate(-20.378 -64.737)" fill="#f9f6f9"/><path d="M25.281,154.32H22.25a1.872,1.872,0,0,1,0-3.745h3.03a1.872,1.872,0,0,1,0,3.745Z" transform="translate(-20.378 -142.369)" fill="#f9f6f9"/><path d="M25.281,240.158H22.25a1.872,1.872,0,1,1,0-3.745h3.03a1.872,1.872,0,1,1,0,3.745Z" transform="translate(-20.378 -220.001)" fill="#f9f6f9"/><path d="M25.281,325.995H22.25a1.872,1.872,0,1,1,0-3.745h3.03a1.872,1.872,0,1,1,0,3.745Z" transform="translate(-20.378 -297.633)" fill="#f9f6f9"/><path d="M25.281,411.833H22.25a1.872,1.872,0,1,1,0-3.745h3.03a1.872,1.872,0,1,1,0,3.745Z" transform="translate(-20.378 -375.265)" fill="#f9f6f9"/></g></g></g><g transform="translate(31.188 11.242)"><g transform="translate(0)"><path d="M154.563,134.033a2.036,2.036,0,0,0-2.726.7l-1.076,1.728a1.359,1.359,0,0,1-2.119.249l-3.91-3.91-.005-.005-.005-.005-3.91-3.91a1.359,1.359,0,0,1,.249-2.119l1.728-1.076a2.036,2.036,0,0,0,.7-2.726l-2.429-4.32a2.036,2.036,0,0,0-2.687-.823l-1.479.741c-2.948,1.607-7.492,6.829,3.875,18.2s16.589,6.823,18.2,3.875l.741-1.479a2.036,2.036,0,0,0-.823-2.687Z" transform="translate(-133.46 -117.599)" fill="#ffd064"/><path d="M169.724,118.538l4.495,8,1.367-.851a2.036,2.036,0,0,0,.7-2.726l-2.429-4.32a2.036,2.036,0,0,0-2.687-.823l-1.446.724Z" transform="translate(-166.257 -117.598)" fill="#ebb044"/><g transform="translate(17.526 16.172)"><path d="M324.785,293.593l-8-4.495.851-1.367a2.036,2.036,0,0,1,2.726-.7l4.321,2.429a2.036,2.036,0,0,1,.823,2.687l-.724,1.446Z" transform="translate(-316.789 -286.771)" fill="#ebb044"/></g></g></g></g><g transform="translate(700.7 3772.007)"><path d="M4.889,0h44a4.889,4.889,0,0,1,4.889,4.889V44.005a4.889,4.889,0,0,1-4.889,4.889h-44A4.889,4.889,0,0,1,0,44.005V4.892A4.889,4.889,0,0,1,4.889,0Z" fill="#f0eaf9"/><path d="M2.444,85.34h48.89a2.444,2.444,0,0,1,2.444,2.445h0a2.444,2.444,0,0,1-2.444,2.445H2.444A2.444,2.444,0,0,1,0,87.785H0A2.444,2.444,0,0,1,2.444,85.34Z" transform="translate(0 -75.558)" fill="#e1d5f3"/><path d="M4.889,0h44A4.889,4.889,0,0,1,53.78,4.892h0v7.334H0V4.892A4.889,4.889,0,0,1,4.889,0Z" fill="#5628b4"/><path d="M23.778,0h44a2.444,2.444,0,0,1,2.445,2.444h0a2.444,2.444,0,0,1-2.445,2.444h-44a2.444,2.444,0,0,1-2.444-2.444h0A2.444,2.444,0,0,1,23.778,0Z" transform="translate(-18.889)" fill="#6f48bf"/><path d="M22.556,85.34H69a1.222,1.222,0,0,1,1.222,1.222h0A1.222,1.222,0,0,1,69,87.785H22.556a1.222,1.222,0,0,1-1.222-1.222h0A1.222,1.222,0,0,1,22.556,85.34Z" transform="translate(-18.889 -75.558)" fill="#421198"/><path d="M317,149.337a1.222,1.222,0,0,0-1.222,1.222h0v25.668a2.444,2.444,0,0,1-2.444,2.445H299.889a1.222,1.222,0,1,0,0,2.445h13.445a4.889,4.889,0,0,0,4.889-4.889V150.559A1.222,1.222,0,0,0,317,149.337Z" transform="translate(-264.443 -132.222)" fill="#d9c9ef"/><path d="M1.222,192h0a1.222,1.222,0,0,1,1.222,1.222v19.556A1.222,1.222,0,0,1,1.222,214h0A1.222,1.222,0,0,1,0,212.779V193.222A1.222,1.222,0,0,1,1.222,192Z" transform="translate(0 -169.997)" fill="#dfd2f2"/><circle cx="1.222" cy="1.222" r="1.222" transform="translate(4.889 4.892)" fill="#f7b236"/><circle cx="1.222" cy="1.222" r="1.222" transform="translate(9.778 4.892)" fill="#b39ddd"/><circle cx="1.222" cy="1.222" r="1.222" transform="translate(14.667 4.892)" fill="#d80e70"/><g transform="translate(4.889 17.115)"><path d="M197.557,166.451H173.111a2.444,2.444,0,0,1-2.445-2.445V151.784a2.444,2.444,0,0,1,2.445-2.444h24.445A2.444,2.444,0,0,1,200,151.784v12.222A2.444,2.444,0,0,1,197.557,166.451Z" transform="translate(-156 -149.34)" fill="#b39ddd"/><path d="M50,159.118H45.111a2.444,2.444,0,0,1-2.444-2.445v-4.889a2.444,2.444,0,0,1,2.444-2.444H50a2.444,2.444,0,0,1,2.444,2.444v4.889A2.444,2.444,0,0,1,50,159.118Z" transform="translate(-42.667 -149.34)" fill="#b39ddd"/><path d="M50,308.448H45.111A2.444,2.444,0,0,1,42.667,306v-4.889a2.444,2.444,0,0,1,2.444-2.445H50a2.444,2.444,0,0,1,2.444,2.445V306A2.444,2.444,0,0,1,50,308.448Z" transform="translate(-42.667 -281.559)" fill="#b39ddd"/><path d="M171.889,320h7.333a1.222,1.222,0,0,1,1.222,1.222h0a1.222,1.222,0,0,1-1.222,1.222h-7.333a1.222,1.222,0,0,1-1.222-1.222h0A1.222,1.222,0,0,1,171.889,320Z" transform="translate(-156 -300.444)" fill="#b39ddd"/><path d="M385.219,320h2.445a1.222,1.222,0,0,1,1.222,1.222h0a1.222,1.222,0,0,1-1.222,1.222h-2.445A1.222,1.222,0,0,1,384,321.222h0A1.222,1.222,0,0,1,385.219,320Z" transform="translate(-344.885 -300.444)" fill="#b39ddd"/><path d="M278.559,320h7.333a1.222,1.222,0,0,1,1.222,1.222h0a1.222,1.222,0,0,1-1.222,1.222h-7.333a1.222,1.222,0,0,1-1.222-1.222h0A1.222,1.222,0,0,1,278.559,320Z" transform="translate(-250.447 -300.444)" fill="#b39ddd"/><path d="M171.889,362.67h9.778a1.222,1.222,0,0,1,1.222,1.222h0a1.222,1.222,0,0,1-1.222,1.222h-9.778a1.222,1.222,0,0,1-1.222-1.222h0A1.222,1.222,0,0,1,171.889,362.67Z" transform="translate(-156 -338.225)" fill="#b39ddd"/><path d="M299.889,362.67h2.444a1.222,1.222,0,0,1,1.222,1.222h0a1.222,1.222,0,0,1-1.222,1.222h-2.444a1.222,1.222,0,0,1-1.222-1.222h0A1.222,1.222,0,0,1,299.889,362.67Z" transform="translate(-269.333 -338.225)" fill="#b39ddd"/><path d="M51.222,258.451H43.889a1.222,1.222,0,0,1-1.222-1.222h0a1.222,1.222,0,0,1,1.222-1.222h7.333a1.222,1.222,0,0,1,1.222,1.222h0A1.222,1.222,0,0,1,51.222,258.451Z" transform="translate(-42.667 -243.783)" fill="#b39ddd"/></g><path d="M83.556,320H81.112a12.223,12.223,0,0,0-12.223,12.223h0v.065a2.456,2.456,0,0,1-2.505,2.38H65.222a1.222,1.222,0,1,0,0,2.445h8.556A12.223,12.223,0,0,0,86,324.892V320H83.556Z" transform="translate(-56.666 -283.332)" fill="#f7b236"/><path d="M86,324.892V320H83.556a12.223,12.223,0,0,1-12.223,12.223H68.889v.065a2.456,2.456,0,0,1-2.505,2.38H65.222a1.222,1.222,0,1,0,0,2.445h8.556A12.223,12.223,0,0,0,86,324.892Z" transform="translate(-56.666 -283.332)" fill="#f58b04"/><path d="M279.626,107.49a2.8,2.8,0,0,0-2.862-.676h0a35.278,35.278,0,0,0-19.8,17.486L256,126.227v4.889h4.889l1.927-.963a35.278,35.278,0,0,0,17.486-19.8h0a2.8,2.8,0,0,0-.676-2.862Z" transform="translate(-226.666 -94.445)" fill="#d80e70"/><ellipse cx="2.444" cy="6.504" rx="2.444" ry="6.504" transform="translate(36.242 30.777) rotate(-135)" fill="#e976af"/><path d="M276.764,106.814c-.423.15-.825.342-1.241.507A22.08,22.08,0,0,1,256,128.613v2.5h4.889l1.927-.964a35.279,35.279,0,0,0,17.486-19.8,2.8,2.8,0,0,0-3.538-3.538Z" transform="translate(-226.666 -94.445)" fill="#a60068"/><path d="M234.667,282.226l2.445,2.445L242,282.226l-4.889-4.889Z" transform="translate(-207.777 -245.555)" fill="#5628b4"/><path d="M240.33,297.334l1.123,1.123,4.889-2.445L244,293.667a2.593,2.593,0,0,0-4.153.674h0a2.593,2.593,0,0,0,.486,2.993Z" transform="translate(-212.119 -259.341)" fill="#420f9b"/><ellipse cx="1.904" cy="4.863" rx="1.904" ry="4.863" transform="translate(16.316 47.605) rotate(-135)" fill="#fbda9e"/></g><g transform="translate(425.607 3587.413)"><path d="M303.474,0h9.615A4.807,4.807,0,0,1,317.9,4.807V9.615a4.807,4.807,0,0,1-4.807,4.807h-9.615a4.807,4.807,0,0,1-4.807-4.807V4.807A4.807,4.807,0,0,1,303.474,0Z" transform="translate(-265.016)" fill="#f2edf9"/><path d="M4.807,85.337h9.615a4.807,4.807,0,0,1,4.807,4.807v24.037a4.807,4.807,0,0,1-4.807,4.807H4.807A4.807,4.807,0,0,1,0,114.181V90.144A4.807,4.807,0,0,1,4.807,85.337Z" transform="translate(0 -75.722)" fill="#f2edf9"/><path d="M55.887,128a1.2,1.2,0,0,0-1.2,1.2h0v22.835a2.4,2.4,0,0,1-2.4,2.4H43.869a1.2,1.2,0,1,0,0,2.4h8.413a4.807,4.807,0,0,0,4.807-4.807V129.2a1.2,1.2,0,0,0-1.2-1.2Z" transform="translate(-37.86 -113.578)" fill="#ddd0ef"/><path d="M303.474,341.337h9.615a4.807,4.807,0,0,1,4.807,4.807v4.807a4.807,4.807,0,0,1-4.807,4.807h-9.615a4.807,4.807,0,0,1-4.807-4.807v-4.807A4.807,4.807,0,0,1,303.474,341.337Z" transform="translate(-265.016 -302.878)" fill="#f2edf9"/><g transform="translate(38.459 4.807)"><path d="M354.553,42.667a1.2,1.2,0,0,0-1.2,1.2h0v3.605a2.4,2.4,0,0,1-2.4,2.4h-8.413a1.2,1.2,0,0,0,0,2.4h8.413a4.808,4.808,0,0,0,4.807-4.807V43.869a1.2,1.2,0,0,0-1.2-1.2Z" transform="translate(-341.333 -42.667)" fill="#ddd0ef"/><path d="M354.553,384a1.2,1.2,0,0,0-1.2,1.2h0v3.605a2.4,2.4,0,0,1-2.4,2.4h-8.413a1.2,1.2,0,0,0,0,2.4h8.413a4.808,4.808,0,0,0,4.807-4.807V385.2a1.2,1.2,0,0,0-1.2-1.2Z" transform="translate(-341.333 -345.542)" fill="#ddd0ef"/></g><g transform="translate(2.404 12.018)"><path d="M23.738,106.667a2.4,2.4,0,0,1,2.4,2.4h0a2.4,2.4,0,0,1-4.807,0h0a2.4,2.4,0,0,1,2.4-2.4Z" transform="translate(-21.334 -106.667)" fill="#5628b4"/><path d="M86.539,106.667h4.807a1.2,1.2,0,0,1,1.2,1.2h0a1.2,1.2,0,0,1-1.2,1.2H86.539a1.2,1.2,0,0,1-1.2-1.2h0A1.2,1.2,0,0,1,86.539,106.667Z" transform="translate(-78.126 -106.667)" fill="#5628b4"/><path d="M22.536,298.667h4.807a1.2,1.2,0,0,1,1.2,1.2h0a1.2,1.2,0,0,1-1.2,1.2H22.536a1.2,1.2,0,0,1-1.2-1.2h0A1.2,1.2,0,0,1,22.536,298.667Z" transform="translate(-21.334 -277.034)" fill="#5628b4"/><path d="M107.869,298.667h2.4a1.2,1.2,0,0,1,1.2,1.2h0a1.2,1.2,0,0,1-1.2,1.2h-2.4a1.2,1.2,0,0,1-1.2-1.2h0A1.2,1.2,0,0,1,107.869,298.667Z" transform="translate(-97.052 -277.034)" fill="#5628b4"/><path d="M86.539,341.337h4.807a1.2,1.2,0,0,1,1.2,1.2h0a1.2,1.2,0,0,1-1.2,1.2H86.539a1.2,1.2,0,0,1-1.2-1.2h0A1.2,1.2,0,0,1,86.539,341.337Z" transform="translate(-78.126 -314.896)" fill="#5628b4"/><path d="M23.738,170.667h9.615a2.4,2.4,0,0,1,2.4,2.4v7.211a2.4,2.4,0,0,1-2.4,2.4H23.738a2.4,2.4,0,0,1-2.4-2.4v-7.211A2.4,2.4,0,0,1,23.738,170.667Z" transform="translate(-21.334 -163.456)" fill="#5628b4"/><path d="M303.474,170.667h9.615a4.807,4.807,0,0,1,4.807,4.807v4.807a4.807,4.807,0,0,1-4.807,4.807h-9.615a4.807,4.807,0,0,1-4.807-4.807v-4.807A4.807,4.807,0,0,1,303.474,170.667Z" transform="translate(-267.419 -163.456)" fill="#5628b4"/></g><g transform="translate(7.211 7.211)"><path d="M129.2,106.667h9.615a1.2,1.2,0,0,1,1.2,1.2h0a1.2,1.2,0,0,1-1.2,1.2H129.2a1.2,1.2,0,0,1-1.2-1.2h0A1.2,1.2,0,0,1,129.2,106.667Z" transform="translate(-120.786 -101.859)" fill="#f7b236"/><path d="M214.539,64h0a1.2,1.2,0,0,1,1.2,1.2v4.807a1.2,1.2,0,0,1-1.2,1.2h0a1.2,1.2,0,0,1-1.2-1.2V65.2A1.2,1.2,0,0,1,214.539,64Z" transform="translate(-196.511 -63.997)" fill="#f7b236"/><path d="M214.539,64h4.807a1.2,1.2,0,0,1,1.2,1.2h0a1.2,1.2,0,0,1-1.2,1.2h-4.807a1.2,1.2,0,0,1-1.2-1.2h0A1.2,1.2,0,0,1,214.539,64Z" transform="translate(-196.511 -63.997)" fill="#f7b236"/><path d="M65.2,213.337H86.831a1.2,1.2,0,0,1,1.2,1.2h0a1.2,1.2,0,0,1-1.2,1.2H65.2a1.2,1.2,0,0,1-1.2-1.2h0A1.2,1.2,0,0,1,65.2,213.337Z" transform="translate(-63.997 -196.511)" fill="#f7b236"/></g><g transform="translate(7.211 12.018)"><path d="M65.2,213.337H76.015a1.2,1.2,0,0,1,1.2,1.2h0a1.2,1.2,0,0,1-1.2,1.2H65.2a1.2,1.2,0,0,1-1.2-1.2h0A1.2,1.2,0,0,1,65.2,213.337Z" transform="translate(-63.997 -201.318)" fill="#f58f00"/><path d="M129.2,106.667h6.009a1.2,1.2,0,0,1,1.2,1.2h0a1.2,1.2,0,0,1-1.2,1.2H129.2a1.2,1.2,0,0,1-1.2-1.2h0A1.2,1.2,0,0,1,129.2,106.667Z" transform="translate(-120.786 -106.667)" fill="#f58f00"/></g><g transform="translate(14.422 38.459)"><path d="M214.539,341.337h0a1.2,1.2,0,0,1,1.2,1.2v4.807a1.2,1.2,0,0,1-1.2,1.2h0a1.2,1.2,0,0,1-1.2-1.2v-4.807A1.2,1.2,0,0,1,214.539,341.337Z" transform="translate(-203.722 -341.337)" fill="#f7b236"/><path d="M214.539,384h4.807a1.2,1.2,0,0,1,1.2,1.2h0a1.2,1.2,0,0,1-1.2,1.2h-4.807a1.2,1.2,0,0,1-1.2-1.2h0A1.2,1.2,0,0,1,214.539,384Z" transform="translate(-203.722 -379.19)" fill="#f7b236"/><path d="M129.2,341.337h9.615a1.2,1.2,0,0,1,1.2,1.2h0a1.2,1.2,0,0,1-1.2,1.2H129.2a1.2,1.2,0,0,1-1.2-1.2h0A1.2,1.2,0,0,1,129.2,341.337Z" transform="translate(-127.997 -341.337)" fill="#f7b236"/></g><path d="M129.2,341.337h7.211a1.2,1.2,0,0,1,1.2,1.2h0a1.2,1.2,0,0,1-1.2,1.2H129.2a1.2,1.2,0,0,1-1.2-1.2h0A1.2,1.2,0,0,1,129.2,341.337Z" transform="translate(-113.575 -302.878)" fill="#f58f00"/><g transform="translate(36.055 2.404)"><path d="M322.4,21.334h2.4a2.4,2.4,0,0,1,2.4,2.4v4.807a2.4,2.4,0,0,1-2.4,2.4h-2.4a2.4,2.4,0,0,1-2.4-2.4V23.738A2.4,2.4,0,0,1,322.4,21.334Z" transform="translate(-319.997 -21.334)" fill="#5628b4"/><path d="M406.539,21.334h2.4a1.2,1.2,0,0,1,1.2,1.2h0a1.2,1.2,0,0,1-1.2,1.2h-2.4a1.2,1.2,0,0,1-1.2-1.2h0A1.2,1.2,0,0,1,406.539,21.334Z" transform="translate(-395.722 -21.334)" fill="#5628b4"/><path d="M406.535,66.4a1.2,1.2,0,0,1-1.2-1.2h0a1.2,1.2,0,0,1,2.4,0h0a1.2,1.2,0,0,1-1.2,1.2Z" transform="translate(-395.718 -59.193)" fill="#5628b4"/><path d="M321.2,362.667h4.807a1.2,1.2,0,0,1,1.2,1.2h0a1.2,1.2,0,0,1-1.2,1.2H321.2a1.2,1.2,0,0,1-1.2-1.2h0A1.2,1.2,0,0,1,321.2,362.667Z" transform="translate(-319.997 -324.209)" fill="#5628b4"/><path d="M321.2,405.337h7.211a1.2,1.2,0,0,1,1.2,1.2h0a1.2,1.2,0,0,1-1.2,1.2H321.2a1.2,1.2,0,0,1-1.2-1.2h0A1.2,1.2,0,0,1,321.2,405.337Z" transform="translate(-319.997 -362.071)" fill="#5628b4"/><path d="M406.539,362.667h2.4a1.2,1.2,0,0,1,1.2,1.2h0a1.2,1.2,0,0,1-1.2,1.2h-2.4a1.2,1.2,0,0,1-1.2-1.2h0A1.2,1.2,0,0,1,406.539,362.667Z" transform="translate(-395.722 -324.209)" fill="#5628b4"/></g><path d="M321.2,256h12.018a1.2,1.2,0,0,1,1.2,1.2h0a1.2,1.2,0,0,1-1.2,1.2H321.2a1.2,1.2,0,0,1-1.2-1.2h0A1.2,1.2,0,0,1,321.2,256Z" transform="translate(-283.942 -227.153)" fill="#f2edf9"/><circle cx="1.202" cy="1.202" r="1.202" transform="translate(38.458 28.844)" fill="#e7455f"/><path d="M362.667,192v4.807l4.807-2.4Z" transform="translate(-321.805 -170.367)" fill="#f7b236"/><path d="M354.553,213.334a1.2,1.2,0,0,0-1.2,1.2h0v3.605a2.4,2.4,0,0,1-2.4,2.4h-8.413a1.2,1.2,0,0,0,0,2.4h8.413a4.808,4.808,0,0,0,4.807-4.807v-3.605a1.2,1.2,0,0,0-1.2-1.2Z" transform="translate(-302.874 -189.297)" fill="#3a0499"/></g><g transform="translate(1089.33 3773.107)"><path d="M4.69,0H46.895a4.69,4.69,0,0,1,4.69,4.69V46.895a4.69,4.69,0,0,1-4.69,4.69H4.69A4.69,4.69,0,0,1,0,46.895V4.69A4.69,4.69,0,0,1,4.69,0Z" fill="#5628b4"/><path d="M2.345,85.337h46.9a2.345,2.345,0,0,1,2.345,2.345h0a2.345,2.345,0,0,1-2.345,2.345H2.345A2.345,2.345,0,0,1,0,87.682H0A2.345,2.345,0,0,1,2.345,85.337Z" transform="translate(0 -75.958)" fill="#3d068c"/><path d="M4.69,0H46.9a4.69,4.69,0,0,1,4.69,4.69h0v7.034H0V4.69A4.69,4.69,0,0,1,4.69,0Z" fill="#dfd2f2"/><path d="M23.679,0H65.885A2.345,2.345,0,0,1,68.23,2.345h0A2.345,2.345,0,0,1,65.885,4.69H23.679a2.345,2.345,0,0,1-2.345-2.345h0A2.345,2.345,0,0,1,23.679,0Z" transform="translate(-18.989)" fill="#eee7f8"/><path d="M107.839,149.337h32.827a1.172,1.172,0,0,1,1.172,1.172h0a1.172,1.172,0,0,1-1.172,1.172H107.839a1.172,1.172,0,0,1-1.172-1.172h0A1.172,1.172,0,0,1,107.839,149.337Z" transform="translate(-94.943 -132.923)" fill="#b8a4df"/><path d="M107.839,192h11.724a1.172,1.172,0,0,1,1.172,1.172h0a1.172,1.172,0,0,1-1.172,1.172H107.839a1.172,1.172,0,0,1-1.172-1.172h0A1.172,1.172,0,0,1,107.839,192Z" transform="translate(-94.943 -170.894)" fill="#f7b236"/><path d="M107.839,234.667h11.724a1.172,1.172,0,0,1,1.172,1.172h0a1.172,1.172,0,0,1-1.172,1.172H107.839a1.172,1.172,0,0,1-1.172-1.172h0A1.172,1.172,0,0,1,107.839,234.667Z" transform="translate(-94.943 -208.875)" fill="#b8a4df"/><g transform="translate(11.724 30.482)"><path d="M107.839,320h4.689a1.172,1.172,0,0,1,1.172,1.172h0a1.172,1.172,0,0,1-1.172,1.172h-4.689a1.172,1.172,0,0,1-1.172-1.172h0A1.172,1.172,0,0,1,107.839,320Z" transform="translate(-106.667 -315.308)" fill="#7f5cc6"/><path d="M107.839,277.337h4.689a1.172,1.172,0,0,1,1.172,1.172h0a1.172,1.172,0,0,1-1.172,1.172h-4.689a1.172,1.172,0,0,1-1.172-1.172h0A1.172,1.172,0,0,1,107.839,277.337Z" transform="translate(-106.667 -277.337)" fill="#7f5cc6"/></g><g transform="translate(4.69 16.414)"><path d="M43.839,405.337h2.345a1.172,1.172,0,0,1,1.172,1.172h0a1.172,1.172,0,0,1-1.172,1.172H43.839a1.172,1.172,0,0,1-1.172-1.172h0A1.172,1.172,0,0,1,43.839,405.337Z" transform="translate(-42.667 -377.2)" fill="#d80e70"/><path d="M43.839,362.667h2.345a1.172,1.172,0,0,1,1.172,1.172h0a1.172,1.172,0,0,1-1.172,1.172H43.839a1.172,1.172,0,0,1-1.172-1.172h0A1.172,1.172,0,0,1,43.839,362.667Z" transform="translate(-42.667 -339.22)" fill="#d80e70"/><path d="M43.839,277.337h2.345a1.172,1.172,0,0,1,1.172,1.172h0a1.172,1.172,0,0,1-1.172,1.172H43.839a1.172,1.172,0,0,1-1.172-1.172h0A1.172,1.172,0,0,1,43.839,277.337Z" transform="translate(-42.667 -263.268)" fill="#d80e70"/><path d="M43.839,320h2.345a1.172,1.172,0,0,1,1.172,1.172h0a1.172,1.172,0,0,1-1.172,1.172H43.839a1.172,1.172,0,0,1-1.172-1.172h0A1.172,1.172,0,0,1,43.839,320Z" transform="translate(-42.667 -301.24)" fill="#d80e70"/><path d="M43.839,234.667h2.345a1.172,1.172,0,0,1,1.172,1.172h0a1.172,1.172,0,0,1-1.172,1.172H43.839a1.172,1.172,0,0,1-1.172-1.172h0A1.172,1.172,0,0,1,43.839,234.667Z" transform="translate(-42.667 -225.288)" fill="#d80e70"/><path d="M43.839,192h2.345a1.172,1.172,0,0,1,1.172,1.172h0a1.172,1.172,0,0,1-1.172,1.172H43.839a1.172,1.172,0,0,1-1.172-1.172h0A1.172,1.172,0,0,1,43.839,192Z" transform="translate(-42.667 -187.308)" fill="#d80e70"/><path d="M43.839,149.337h2.345a1.172,1.172,0,0,1,1.172,1.172h0a1.172,1.172,0,0,1-1.172,1.172H43.839a1.172,1.172,0,0,1-1.172-1.172h0A1.172,1.172,0,0,1,43.839,149.337Z" transform="translate(-42.667 -149.337)" fill="#d80e70"/></g><path d="M107.839,405.337h2.345a1.172,1.172,0,0,1,1.172,1.172h0a1.172,1.172,0,0,1-1.172,1.172h-2.345a1.172,1.172,0,0,1-1.172-1.172h0A1.172,1.172,0,0,1,107.839,405.337Z" transform="translate(-94.943 -360.786)" fill="#7f5cc6"/><g transform="translate(11.724 25.792)"><path d="M107.839,362.667h7.034a1.172,1.172,0,0,1,1.172,1.172h0a1.172,1.172,0,0,1-1.172,1.172h-7.034a1.172,1.172,0,0,1-1.172-1.172h0A1.172,1.172,0,0,1,107.839,362.667Z" transform="translate(-106.667 -348.598)" fill="#b8a4df"/><path d="M214.509,362.667h7.034a1.172,1.172,0,0,1,1.172,1.172h0a1.172,1.172,0,0,1-1.172,1.172h-7.034a1.172,1.172,0,0,1-1.172-1.172h0A1.172,1.172,0,0,1,214.509,362.667Z" transform="translate(-201.613 -348.598)" fill="#b8a4df"/><path d="M257.169,234.667h11.724a1.172,1.172,0,0,1,1.172,1.172h0a1.172,1.172,0,0,1-1.172,1.172H257.169A1.172,1.172,0,0,1,256,235.839h0A1.172,1.172,0,0,1,257.169,234.667Z" transform="translate(-239.584 -234.667)" fill="#b8a4df"/></g><circle cx="1.172" cy="1.172" r="1.172" transform="translate(4.69 4.69)" fill="#f7b236"/><circle cx="1.172" cy="1.172" r="1.172" transform="translate(9.379 4.69)" fill="#420fab"/><circle cx="1.172" cy="1.172" r="1.172" transform="translate(14.069 4.69)" fill="#d80e70"/><path d="M22.506,85.337H67.057a1.172,1.172,0,0,1,1.172,1.172h0a1.172,1.172,0,0,1-1.172,1.172H22.506a1.172,1.172,0,0,1-1.172-1.172h0A1.172,1.172,0,0,1,22.506,85.337Z" transform="translate(-18.989 -75.958)" fill="#c6afe8"/><path d="M316.253,149.334a1.172,1.172,0,0,0-1.172,1.172h0v29.31a2.345,2.345,0,0,1-2.345,2.345h-12.9a1.172,1.172,0,1,0,0,2.345h12.9a4.69,4.69,0,0,0,4.69-4.69v-29.31a1.172,1.172,0,0,0-1.172-1.172Z" transform="translate(-265.84 -132.921)" fill="#3d068c"/><path d="M1.172,192h0a1.172,1.172,0,0,1,1.172,1.172v18.758A1.172,1.172,0,0,1,1.172,213.1h0A1.172,1.172,0,0,1,0,211.928V193.169A1.172,1.172,0,0,1,1.172,192Z" transform="translate(0 -170.894)" fill="#7047bf"/></g></g></svg>