<svg xmlns="http://www.w3.org/2000/svg" width="1862" height="1551" viewBox="0 0 1862 1551">
  <g id="Home_background" data-name="Home background" transform="translate(-18 500)">
    <g id="ups">
      <circle id="Ellipse_1" data-name="Ellipse 1" cx="17" cy="17" r="17" transform="translate(288 981)" fill="#322bff" opacity="0.32"/>
      <circle id="Ellipse_16" data-name="Ellipse 16" cx="17" cy="17" r="17" transform="translate(1514 940)" fill="#322bff" opacity="0.32"/>
      <circle id="Ellipse_2" data-name="Ellipse 2" cx="4" cy="4" r="4" transform="translate(290 969)" fill="#322bff"/>
      <circle id="Ellipse_17" data-name="Ellipse 17" cx="4" cy="4" r="4" transform="translate(1516 928)" fill="#322bff"/>
      <g id="layout" transform="matrix(0.985, 0.174, -0.174, 0.985, 146.858, 655.446)" opacity="0.77">
        <g id="Group_4" data-name="Group 4" transform="translate(0 62.336)">
          <g id="Group_2" data-name="Group 2">
            <path id="Path_39" data-name="Path 39" d="M48.379,63.309V97.961a.974.974,0,0,1-.973.973H.973A.974.974,0,0,1,0,97.961V63.309a.974.974,0,0,1,.973-.973H47.406A.974.974,0,0,1,48.379,63.309Z" transform="translate(3.473 -57.871)" fill="#322bff" opacity="0.3"/>
            <path id="Path_21" data-name="Path 21" d="M48.379,63.309V97.961a.974.974,0,0,1-.973.973H.973A.974.974,0,0,1,0,97.961V63.309a.974.974,0,0,1,.973-.973H47.406A.974.974,0,0,1,48.379,63.309Z" transform="translate(0 -62.336)" fill="#e8e6ed"/>
            <path id="Path_22" data-name="Path 22" d="M390.936,63.31V97.962a.974.974,0,0,1-.973.973H378.3c10.77-9.322,10.53-31,10.276-36.6h1.383A.974.974,0,0,1,390.936,63.31Z" transform="translate(-342.557 -62.337)" fill="#d1d0d8"/>
            <path id="Path_23" data-name="Path 23" d="M48.379,63.309v5.162H0V63.309a.974.974,0,0,1,.973-.973H47.406A.974.974,0,0,1,48.379,63.309Z" transform="translate(0 -62.336)" fill="#d1d0d8"/>
            <path id="Path_24" data-name="Path 24" d="M489.417,63.31v5.162H487.1c.08-2.673.022-4.837-.037-6.135h1.383A.974.974,0,0,1,489.417,63.31Z" transform="translate(-441.037 -62.337)" fill="#aaaab2"/>
            <g id="Group_1" data-name="Group 1" transform="translate(3.157 2.338)">
              <path id="Path_25" data-name="Path 25" d="M34.153,88.539h-.011a.73.73,0,0,1,0-1.46h.011a.73.73,0,0,1,0,1.46Z" transform="translate(-33.412 -87.079)" fill="#717177"/>
              <path id="Path_26" data-name="Path 26" d="M57.479,88.539h-.011a.73.73,0,0,1,0-1.46h.011a.73.73,0,1,1,0,1.46Z" transform="translate(-54.534 -87.079)" fill="#717177"/>
              <path id="Path_27" data-name="Path 27" d="M80.806,88.539H80.8a.73.73,0,0,1,0-1.46h.011a.73.73,0,0,1,0,1.46Z" transform="translate(-75.657 -87.079)" fill="#717177"/>
              <path id="Path_28" data-name="Path 28" d="M450.848,88.539h-1.358a.73.73,0,1,1,0-1.46h1.358a.73.73,0,1,1,0,1.46Z" transform="translate(-409.513 -87.079)" fill="#717177"/>
            </g>
          </g>
          <path id="Path_29" data-name="Path 29" d="M61.854,170.489v12.478a.973.973,0,0,1-.973.973H48.4a.973.973,0,0,1-.973-.973V170.489a.973.973,0,0,1,.973-.973H60.881A.973.973,0,0,1,61.854,170.489Z" transform="translate(-42.947 -159.389)" fill="#26e4ff"/>
          <path id="Path_30" data-name="Path 30" d="M109.159,170.49v12.478a.973.973,0,0,1-.973.973H99.67c6.537-3.95,6.527-11.422,6.226-14.425h2.29A.973.973,0,0,1,109.159,170.49Z" transform="translate(-90.252 -159.389)" fill="#22d0ff"/>
          <path id="Path_31" data-name="Path 31" d="M61.854,346.887v4.023a.973.973,0,0,1-.973.973H48.4a.973.973,0,0,1-.973-.973v-4.023a.973.973,0,0,1,.973-.973H60.881A.973.973,0,0,1,61.854,346.887Z" transform="translate(-42.947 -319.119)" fill="#ffb800"/>
          <path id="Path_32" data-name="Path 32" d="M147.209,346.887v4.023a.973.973,0,0,1-.973.973h-4.545a12.767,12.767,0,0,0,3.632-5.97h.913A.973.973,0,0,1,147.209,346.887Z" transform="translate(-128.303 -319.119)" fill="#ff9700"/>
          <path id="Path_33" data-name="Path 33" d="M346.189,170.489v3.2a.973.973,0,0,1-.973.973H335.9a.973.973,0,0,1-.973-.973v-3.2a.973.973,0,0,1,.973-.973h9.321A.973.973,0,0,1,346.189,170.489Z" transform="translate(-303.275 -159.388)" fill="#ab8eff"/>
          <path id="Path_34" data-name="Path 34" d="M407.878,170.489v3.2a.973.973,0,0,1-.973.973h-3.857a12.458,12.458,0,0,0,3.52-5.151h.337A.974.974,0,0,1,407.878,170.489Z" transform="translate(-364.964 -159.388)" fill="#8f67ff"/>
          <path id="Path_35" data-name="Path 35" d="M346.189,249.051v13.268a.973.973,0,0,1-.973.974H335.9a.973.973,0,0,1-.973-.974V249.051a.973.973,0,0,1,.973-.973h9.321A.973.973,0,0,1,346.189,249.051Z" transform="translate(-303.275 -230.527)" fill="#2fd92d"/>
          <path id="Path_36" data-name="Path 36" d="M378.5,249.052V262.32a.973.973,0,0,1-.973.973h-6.922c4.971-4.175,5.206-11.575,4.979-15.215h1.943A.973.973,0,0,1,378.5,249.052Z" transform="translate(-335.589 -230.528)" fill="#1fbf33"/>
          <g id="Group_3" data-name="Group 3" transform="translate(21.262 10.128)">
            <path id="Path_37" data-name="Path 37" d="M233.106,170.489v20.691a.973.973,0,0,1-.973.973h-6.147a.973.973,0,0,1-.973-.973V170.489a.973.973,0,0,1,.973-.973h6.147A.973.973,0,0,1,233.106,170.489Z" transform="translate(-225.012 -169.516)" fill="#ff5677"/>
            <path id="Path_38" data-name="Path 38" d="M250.755,170.489v20.691a.973.973,0,0,1-.973.973H244.5c4.791-6.588,4.857-18.778,4.747-22.638h.531A.973.973,0,0,1,250.755,170.489Z" transform="translate(-242.661 -169.516)" fill="#ff2953"/>
          </g>
        </g>
      </g>
      <circle id="Ellipse_3" data-name="Ellipse 3" cx="4" cy="4" r="4" transform="translate(41 490)" fill="#322bff"/>
      <circle id="Ellipse_13" data-name="Ellipse 13" cx="4" cy="4" r="4" transform="translate(582 258)" fill="#322bff"/>
      <circle id="Ellipse_7" data-name="Ellipse 7" cx="9" cy="9" r="9" transform="translate(1701 829)" fill="#322bff"/>
      <circle id="Ellipse_14" data-name="Ellipse 14" cx="9" cy="9" r="9" transform="translate(1250 960)" fill="#322bff" opacity="0.11"/>
      <circle id="Ellipse_18" data-name="Ellipse 18" cx="9" cy="9" r="9" transform="translate(1268 294)" fill="#f2d129"/>
      <circle id="Ellipse_8" data-name="Ellipse 8" cx="9" cy="9" r="9" transform="translate(60 928)" fill="#322bff"/>
      <circle id="Ellipse_9" data-name="Ellipse 9" cx="9" cy="9" r="9" transform="translate(1842 304)" fill="#322bff"/>
      <circle id="Ellipse_4" data-name="Ellipse 4" cx="7" cy="7" r="7" transform="translate(620 955)" fill="#322bff" opacity="0.11"/>
      <circle id="Ellipse_5" data-name="Ellipse 5" cx="17" cy="17" r="17" transform="translate(109 330)" fill="#f2d129"/>
      <circle id="Ellipse_6" data-name="Ellipse 6" cx="17" cy="17" r="17" transform="translate(950 208)" fill="#322bff" opacity="0.11"/>
      <circle id="Ellipse_10" data-name="Ellipse 10" cx="17" cy="17" r="17" transform="translate(26 1017)" fill="#322bff" opacity="0.11"/>
      <circle id="Ellipse_12" data-name="Ellipse 12" cx="7" cy="7" r="7" transform="translate(1611 513)" fill="#f2d129"/>
      <circle id="Ellipse_15" data-name="Ellipse 15" cx="20" cy="20" r="20" transform="translate(1840 978)" fill="#322bff" opacity="0.11"/>
      <text id="_" data-name="&lt;/&gt;" transform="translate(256.249 633.001) rotate(16)" fill="#f2d129" font-size="24" font-family="Nanami-Heavy, Nanami" font-weight="800" letter-spacing="0.1em" opacity="0.6"><tspan x="0" y="0">&lt;/&gt;</tspan></text>
      <text id="_1" data-name="1" transform="translate(500 335)" fill="#322bff" font-size="24" font-family="Nanami-Heavy, Nanami" font-weight="800" letter-spacing="0.1em" opacity="0.28"><tspan x="0" y="0">1</tspan></text>
      <text id="_1-2" data-name="1" transform="translate(100 923)" fill="#f2d129" font-size="24" font-family="Nanami-Heavy, Nanami" font-weight="800" letter-spacing="0.1em" opacity="0.6"><tspan x="0" y="0">1</tspan></text>
      <text id="_1-3" data-name="1" transform="translate(850 181)" fill="#f2d129" font-size="24" font-family="Nanami-Heavy, Nanami" font-weight="800" letter-spacing="0.1em" opacity="0.6"><tspan x="0" y="0">1</tspan></text>
      <text id="_0" data-name="0" transform="translate(305 342)" fill="#f2d129" font-size="24" font-family="Nanami-Heavy, Nanami" font-weight="800" letter-spacing="0.1em" opacity="0.6"><tspan x="0" y="0">0</tspan></text>
      <text id="_0-2" data-name="0" transform="translate(1558 285)" fill="#322bff" font-size="24" font-family="Nanami-Heavy, Nanami" font-weight="800" letter-spacing="0.1em" opacity="0.28"><tspan x="0" y="0">0</tspan></text>
      <text id="_0-3" data-name="0" transform="translate(1130 955)" fill="#f2d129" font-size="24" font-family="Nanami-Heavy, Nanami" font-weight="800" letter-spacing="0.1em" opacity="0.6"><tspan x="0" y="0">0</tspan></text>
      <text id="_0-4" data-name="0" transform="translate(1815 636)" fill="#322bff" font-size="24" font-family="Nanami-Heavy, Nanami" font-weight="800" letter-spacing="0.1em" opacity="0.28"><tspan x="0" y="0">0</tspan></text>
      <text id="_0-5" data-name="0" transform="translate(19 853)" fill="#322bff" font-size="24" font-family="Nanami-Heavy, Nanami" font-weight="800" letter-spacing="0.1em" opacity="0.28"><tspan x="0" y="0">0</tspan></text>
    </g>
    <g id="ups-2" data-name="ups" transform="translate(-1 -118)">
      <circle id="Ellipse_1-2" data-name="Ellipse 1" cx="17" cy="17" r="17" transform="translate(365 37)" fill="#322bff" opacity="0.32"/>
      <circle id="Ellipse_16-2" data-name="Ellipse 16" cx="17" cy="17" r="17" transform="translate(1514 -6)" fill="#322bff" opacity="0.32"/>
      <circle id="Ellipse_2-2" data-name="Ellipse 2" cx="4" cy="4" r="4" transform="translate(290 -179)" fill="#322bff"/>
      <circle id="Ellipse_17-2" data-name="Ellipse 17" cx="4" cy="4" r="4" transform="translate(1516 98)" fill="#322bff"/>
      <g id="layout-2" data-name="layout" transform="matrix(0.985, 0.174, -0.174, 0.985, 146.858, -33.389)" opacity="0.77">
        <g id="Group_4-2" data-name="Group 4" transform="translate(0 62.336)">
          <g id="Group_2-2" data-name="Group 2">
            <path id="Path_39-2" data-name="Path 39" d="M48.379,63.309V97.961a.974.974,0,0,1-.973.973H.973A.974.974,0,0,1,0,97.961V63.309a.974.974,0,0,1,.973-.973H47.406A.974.974,0,0,1,48.379,63.309Z" transform="translate(3.473 -57.871)" fill="#322bff" opacity="0.3"/>
            <path id="Path_21-2" data-name="Path 21" d="M48.379,63.309V97.961a.974.974,0,0,1-.973.973H.973A.974.974,0,0,1,0,97.961V63.309a.974.974,0,0,1,.973-.973H47.406A.974.974,0,0,1,48.379,63.309Z" transform="translate(0 -62.336)" fill="#e8e6ed"/>
            <path id="Path_22-2" data-name="Path 22" d="M390.936,63.31V97.962a.974.974,0,0,1-.973.973H378.3c10.77-9.322,10.53-31,10.276-36.6h1.383A.974.974,0,0,1,390.936,63.31Z" transform="translate(-342.557 -62.337)" fill="#d1d0d8"/>
            <path id="Path_23-2" data-name="Path 23" d="M48.379,63.309v5.162H0V63.309a.974.974,0,0,1,.973-.973H47.406A.974.974,0,0,1,48.379,63.309Z" transform="translate(0 -62.336)" fill="#d1d0d8"/>
            <path id="Path_24-2" data-name="Path 24" d="M489.417,63.31v5.162H487.1c.08-2.673.022-4.837-.037-6.135h1.383A.974.974,0,0,1,489.417,63.31Z" transform="translate(-441.037 -62.337)" fill="#aaaab2"/>
            <g id="Group_1-2" data-name="Group 1" transform="translate(3.157 2.338)">
              <path id="Path_25-2" data-name="Path 25" d="M34.153,88.539h-.011a.73.73,0,0,1,0-1.46h.011a.73.73,0,0,1,0,1.46Z" transform="translate(-33.412 -87.079)" fill="#717177"/>
              <path id="Path_26-2" data-name="Path 26" d="M57.479,88.539h-.011a.73.73,0,0,1,0-1.46h.011a.73.73,0,1,1,0,1.46Z" transform="translate(-54.534 -87.079)" fill="#717177"/>
              <path id="Path_27-2" data-name="Path 27" d="M80.806,88.539H80.8a.73.73,0,0,1,0-1.46h.011a.73.73,0,0,1,0,1.46Z" transform="translate(-75.657 -87.079)" fill="#717177"/>
              <path id="Path_28-2" data-name="Path 28" d="M450.848,88.539h-1.358a.73.73,0,1,1,0-1.46h1.358a.73.73,0,1,1,0,1.46Z" transform="translate(-409.513 -87.079)" fill="#717177"/>
            </g>
          </g>
          <path id="Path_29-2" data-name="Path 29" d="M61.854,170.489v12.478a.973.973,0,0,1-.973.973H48.4a.973.973,0,0,1-.973-.973V170.489a.973.973,0,0,1,.973-.973H60.881A.973.973,0,0,1,61.854,170.489Z" transform="translate(-42.947 -159.389)" fill="#26e4ff"/>
          <path id="Path_30-2" data-name="Path 30" d="M109.159,170.49v12.478a.973.973,0,0,1-.973.973H99.67c6.537-3.95,6.527-11.422,6.226-14.425h2.29A.973.973,0,0,1,109.159,170.49Z" transform="translate(-90.252 -159.389)" fill="#22d0ff"/>
          <path id="Path_31-2" data-name="Path 31" d="M61.854,346.887v4.023a.973.973,0,0,1-.973.973H48.4a.973.973,0,0,1-.973-.973v-4.023a.973.973,0,0,1,.973-.973H60.881A.973.973,0,0,1,61.854,346.887Z" transform="translate(-42.947 -319.119)" fill="#ffb800"/>
          <path id="Path_32-2" data-name="Path 32" d="M147.209,346.887v4.023a.973.973,0,0,1-.973.973h-4.545a12.767,12.767,0,0,0,3.632-5.97h.913A.973.973,0,0,1,147.209,346.887Z" transform="translate(-128.303 -319.119)" fill="#ff9700"/>
          <path id="Path_33-2" data-name="Path 33" d="M346.189,170.489v3.2a.973.973,0,0,1-.973.973H335.9a.973.973,0,0,1-.973-.973v-3.2a.973.973,0,0,1,.973-.973h9.321A.973.973,0,0,1,346.189,170.489Z" transform="translate(-303.275 -159.388)" fill="#ab8eff"/>
          <path id="Path_34-2" data-name="Path 34" d="M407.878,170.489v3.2a.973.973,0,0,1-.973.973h-3.857a12.458,12.458,0,0,0,3.52-5.151h.337A.974.974,0,0,1,407.878,170.489Z" transform="translate(-364.964 -159.388)" fill="#8f67ff"/>
          <path id="Path_35-2" data-name="Path 35" d="M346.189,249.051v13.268a.973.973,0,0,1-.973.974H335.9a.973.973,0,0,1-.973-.974V249.051a.973.973,0,0,1,.973-.973h9.321A.973.973,0,0,1,346.189,249.051Z" transform="translate(-303.275 -230.527)" fill="#2fd92d"/>
          <path id="Path_36-2" data-name="Path 36" d="M378.5,249.052V262.32a.973.973,0,0,1-.973.973h-6.922c4.971-4.175,5.206-11.575,4.979-15.215h1.943A.973.973,0,0,1,378.5,249.052Z" transform="translate(-335.589 -230.528)" fill="#1fbf33"/>
          <g id="Group_3-2" data-name="Group 3" transform="translate(21.262 10.128)">
            <path id="Path_37-2" data-name="Path 37" d="M233.106,170.489v20.691a.973.973,0,0,1-.973.973h-6.147a.973.973,0,0,1-.973-.973V170.489a.973.973,0,0,1,.973-.973h6.147A.973.973,0,0,1,233.106,170.489Z" transform="translate(-225.012 -169.516)" fill="#ff5677"/>
            <path id="Path_38-2" data-name="Path 38" d="M250.755,170.489v20.691a.973.973,0,0,1-.973.973H244.5c4.791-6.588,4.857-18.778,4.747-22.638h.531A.973.973,0,0,1,250.755,170.489Z" transform="translate(-242.661 -169.516)" fill="#ff2953"/>
          </g>
        </g>
      </g>
      <circle id="Ellipse_3-2" data-name="Ellipse 3" cx="4" cy="4" r="4" transform="translate(41 88)" fill="#322bff"/>
      <circle id="Ellipse_13-2" data-name="Ellipse 13" cx="4" cy="4" r="4" transform="translate(582 217)" fill="#322bff"/>
      <circle id="Ellipse_7-2" data-name="Ellipse 7" cx="24" cy="24" r="24" transform="translate(1686 -59)" fill="#322bff"/>
      <circle id="Ellipse_14-2" data-name="Ellipse 14" cx="9" cy="9" r="9" transform="translate(1250 31)" fill="#322bff" opacity="0.11"/>
      <circle id="Ellipse_18-2" data-name="Ellipse 18" cx="9" cy="9" r="9" transform="translate(1268 -82)" fill="#f2d129"/>
      <circle id="Ellipse_8-2" data-name="Ellipse 8" cx="9" cy="9" r="9" transform="translate(60 928)" fill="#322bff"/>
      <circle id="Ellipse_9-2" data-name="Ellipse 9" cx="9" cy="9" r="9" transform="translate(1842 -282)" fill="#322bff"/>
      <circle id="Ellipse_4-2" data-name="Ellipse 4" cx="7" cy="7" r="7" transform="translate(620 955)" fill="#322bff" opacity="0.11"/>
      <circle id="Ellipse_5-2" data-name="Ellipse 5" cx="17" cy="17" r="17" transform="translate(109 58)" fill="#f2d129"/>
      <circle id="Ellipse_6-2" data-name="Ellipse 6" cx="17" cy="17" r="17" transform="translate(950 -382)" fill="#322bff" opacity="0.11"/>
      <circle id="Ellipse_10-2" data-name="Ellipse 10" cx="17" cy="17" r="17" transform="translate(26 -124)" fill="#322bff" opacity="0.11"/>
      <circle id="Ellipse_12-2" data-name="Ellipse 12" cx="7" cy="7" r="7" transform="translate(1611 -238)" fill="#f2d129"/>
      <circle id="Ellipse_15-2" data-name="Ellipse 15" cx="20" cy="20" r="20" transform="translate(1840 978)" fill="#322bff" opacity="0.11"/>
      <text id="_2" data-name="&lt;/&gt;" transform="translate(295.378 -22.999) rotate(16)" fill="#f2d129" font-size="24" font-family="Nanami-Heavy, Nanami" font-weight="800" letter-spacing="0.1em" opacity="0.6"><tspan x="0" y="0">&lt;/&gt;</tspan></text>
      <text id="_1-4" data-name="1" transform="translate(500 335)" fill="#322bff" font-size="24" font-family="Nanami-Heavy, Nanami" font-weight="800" letter-spacing="0.1em" opacity="0.28"><tspan x="0" y="0">1</tspan></text>
      <text id="_1-5" data-name="1" transform="translate(100 923)" fill="#f2d129" font-size="24" font-family="Nanami-Heavy, Nanami" font-weight="800" letter-spacing="0.1em" opacity="0.6"><tspan x="0" y="0">1</tspan></text>
      <text id="_1-6" data-name="1" transform="translate(850 91)" fill="#f2d129" font-size="24" font-family="Nanami-Heavy, Nanami" font-weight="800" letter-spacing="0.1em" opacity="0.6"><tspan x="0" y="0">1</tspan></text>
      <text id="_0-6" data-name="0" transform="translate(187 -31)" fill="#f2d129" font-size="24" font-family="Nanami-Heavy, Nanami" font-weight="800" letter-spacing="0.1em" opacity="0.6"><tspan x="0" y="0">0</tspan></text>
      <text id="_0-7" data-name="0" transform="translate(1558 -309)" fill="#322bff" font-size="24" font-family="Nanami-Heavy, Nanami" font-weight="800" letter-spacing="0.1em" opacity="0.28"><tspan x="0" y="0">0</tspan></text>
      <text id="_0-8" data-name="0" transform="translate(1130 955)" fill="#f2d129" font-size="24" font-family="Nanami-Heavy, Nanami" font-weight="800" letter-spacing="0.1em" opacity="0.6"><tspan x="0" y="0">0</tspan></text>
      <text id="_0-9" data-name="0" transform="translate(1643 -95)" fill="#322bff" font-size="24" font-family="Nanami-Heavy, Nanami" font-weight="800" letter-spacing="0.1em" opacity="0.28"><tspan x="0" y="0">0</tspan></text>
      <text id="_0-10" data-name="0" transform="translate(19 111)" fill="#322bff" font-size="24" font-family="Nanami-Heavy, Nanami" font-weight="800" letter-spacing="0.1em" opacity="0.28"><tspan x="0" y="0">0</tspan></text>
    </g>
  </g>
</svg>
