<svg xmlns="http://www.w3.org/2000/svg" width="23.02" height="26.308" viewBox="0 0 23.02 26.308"><path d="M19.819,10.33,18.15,8.662,9.805,17.006a3.54,3.54,0,1,0,5.007,5.006L24.826,12a5.9,5.9,0,0,0-8.344-8.343L5.968,14.169l-.023.022A8.229,8.229,0,0,0,17.583,25.827L17.6,25.8h0l7.177-7.175-1.67-1.668-7.176,7.175-.022.022a5.868,5.868,0,0,1-8.3-8.3l.023-.022v0L18.15,5.325a3.54,3.54,0,0,1,5.007,5.006L13.143,20.343a1.18,1.18,0,0,1-1.669-1.668l8.345-8.344Z" transform="translate(-3.535 -1.928)" fill="#322bff"/></svg>