<svg xmlns="http://www.w3.org/2000/svg" width="25.324" height="25.319" viewBox="0 0 25.324 25.319"><path d="M12.66,8.406A6.491,6.491,0,1,0,19.151,14.9,6.481,6.481,0,0,0,12.66,8.406Zm0,10.712a4.22,4.22,0,1,1,4.22-4.22,4.228,4.228,0,0,1-4.22,4.22ZM20.931,8.14a1.514,1.514,0,1,1-1.514-1.514A1.511,1.511,0,0,1,20.931,8.14Zm4.3,1.537a7.493,7.493,0,0,0-2.045-5.3,7.542,7.542,0,0,0-5.3-2.045c-2.09-.119-8.356-.119-10.446,0a7.531,7.531,0,0,0-5.3,2.039,7.517,7.517,0,0,0-2.045,5.3c-.119,2.09-.119,8.356,0,10.446a7.493,7.493,0,0,0,2.045,5.3,7.552,7.552,0,0,0,5.3,2.045c2.09.119,8.356.119,10.446,0a7.493,7.493,0,0,0,5.3-2.045,7.542,7.542,0,0,0,2.045-5.3c.119-2.09.119-8.35,0-10.44Zm-2.7,12.683a4.273,4.273,0,0,1-2.407,2.407c-1.667.661-5.621.508-7.463.508s-5.8.147-7.463-.508A4.273,4.273,0,0,1,2.79,22.36c-.661-1.667-.508-5.621-.508-7.463s-.147-5.8.508-7.463A4.273,4.273,0,0,1,5.2,5.027c1.667-.661,5.621-.508,7.463-.508s5.8-.147,7.463.508a4.273,4.273,0,0,1,2.407,2.407c.661,1.667.508,5.621.508,7.463S23.19,20.7,22.529,22.36Z" transform="translate(0.005 -2.237)" fill="#322bff"/></svg>