<svg xmlns="http://www.w3.org/2000/svg" width="1779" height="455" viewBox="0 0 1779 455"><g transform="translate(-62 -199)"><circle cx="7" cy="7" r="7" transform="translate(1340 208)" fill="#322bff"/><circle cx="5" cy="5" r="5" transform="translate(62 221)" fill="#322bff"/><circle cx="5" cy="5" r="5" transform="translate(1424 459)" fill="#322bff"/><circle cx="5" cy="5" r="5" transform="translate(508 283)" fill="#322bff"/><circle cx="5" cy="5" r="5" transform="translate(193 578)" fill="#322bff" opacity="0.48"/><circle cx="4" cy="4" r="4" transform="translate(1012 264)" fill="#322bff" opacity="0.48"/><circle cx="5" cy="5" r="5" transform="translate(1831 644)" fill="#322bff" opacity="0.48"/><circle cx="20" cy="20" r="20" transform="translate(1750 444)" fill="#322bff" opacity="0.48"/><circle cx="22" cy="22" r="22" transform="translate(365 393)" fill="#322bff"/><circle cx="8" cy="8" r="8" transform="translate(157 328)" fill="#322bff" opacity="0.07"/><circle cx="8" cy="8" r="8" transform="translate(1599 301)" fill="#322bff" opacity="0.07"/><circle cx="22" cy="22" r="22" transform="translate(764 199)" fill="#322bff" opacity="0.09"/><text transform="translate(960 434)" fill="#322bff" font-size="78" font-family="Nanami"><tspan x="-238.797" y="0">Hey! Tell us all</tspan><tspan x="-185.172" y="94">the things </tspan></text></g></svg>