<svg xmlns="http://www.w3.org/2000/svg" width="219" height="136.643" viewBox="0 0 219 136.643">
  <g id="Logox" transform="translate(275.044 -119.991) rotate(90)">
    <path id="Path_2414" data-name="Path 2414" d="M0,136.642H45.486c38,0,68.686-30.872,68.686-68.321S83.483,0,45.486,0H0ZM46.582,29.411c22.835,0,38.179,15.893,38.179,38.91s-16.441,38.91-39.275,38.91H29.411V29.411Z" transform="translate(119.991 170.217) rotate(-90)" fill="#322bff"/>
    <path id="Path_2412" data-name="Path 2412" d="M0,136.642H45.486c38,0,68.686-30.872,68.686-68.321S83.483,0,45.486,0H0ZM46.582,29.411c22.835,0,38.179,15.893,38.179,38.91s-16.441,38.91-39.275,38.91H29.411V29.411Z" transform="translate(256.634 160.871) rotate(90)" fill="#322bff"/>
    <g id="Ellipse_305" data-name="Ellipse 305" transform="translate(168.995 97.044)" fill="#322bff" stroke="#322bff" stroke-width="4">
      <ellipse cx="19" cy="18.5" rx="19" ry="18.5" stroke="none"/>
      <ellipse cx="19" cy="18.5" rx="17" ry="16.5" fill="none"/>
    </g>
    <g id="Ellipse_306" data-name="Ellipse 306" transform="translate(168.995 198.044)" fill="#322bff" stroke="#fcfcfc" stroke-width="4">
      <ellipse cx="19" cy="18.5" rx="19" ry="18.5" stroke="none"/>
      <ellipse cx="19" cy="18.5" rx="17" ry="16.5" fill="none"/>
    </g>
  </g>
</svg>
