<svg xmlns="http://www.w3.org/2000/svg" width="133.429" height="233.034" viewBox="0 0 133.429 233.034">
  <g id="logo" transform="translate(17.727 -406)">
    <g id="Layer_1" data-name="Layer 1" transform="translate(-17.727 406)">
      <path id="Path_23" data-name="Path 23" d="M111.233,100.987a175.3,175.3,0,0,1-14.141,23.45c-4.632,6.649-9.641,13.431-14.695,20.369a96.659,96.659,0,0,0-8.666-15.648,34.954,34.954,0,0,0,0-5.364C72.158,102.184,61.7,88.752,51.08,72.129a32.138,32.138,0,0,1,3.568-11.813c2.948,4.433,6.1,8.555,9.132,12.523C67.5,82.746,75.394,98.35,83.329,104.888c.643-.975,1.263-1.928,1.84-2.881A77.752,77.752,0,0,0,95.231,78.734c6.649-28.813-15.714-42.932-33.468-44A70.458,70.458,0,0,1,57.33,23.856c-.288-.887-.621-2.106-.953-3.524s-.687-3.059-1.042-4.832a22.453,22.453,0,0,1-.443-2.438q2.106-.2,4.256-.266c40.627-1.108,60.153,29.478,59.688,58.691a70.216,70.216,0,0,1-7.6,29.5Z" transform="translate(12.287 15.53)" fill="#121639"/>
      <path id="Path_24" data-name="Path 24" d="M69.784,37.487C55,46.131,50.368,64.506,53.183,74.28c-6.317,6.893-11.57,14.407-17.133,19.039A103.262,103.262,0,0,1,31.219,79.4C24.569,54.177,39.8,23.435,68.632,14.06l-.4,1.263a43.771,43.771,0,0,0-.8,4.433A34.353,34.353,0,0,0,67.3,27.27a59.068,59.068,0,0,0,2.482,10.218Z" transform="translate(-13.753 17.103)" fill="#121639"/>
      <path id="Path_25" data-name="Path 25" d="M94.169,115.129a32.56,32.56,0,0,1-8.555,3.524,29.655,29.655,0,0,1-9.575.731c-8.179-15.87-23.45-29.766-35.729-44.86C42.017,67.875,46.959,60.3,52.589,52.05c2.549,4.078,5.209,7.8,7.469,10.971,3.036,4.189,5.452,7.2,6.361,8.312h0l.244.332c2.216,3.147,4.787,6.405,7.4,9.819,3.036,3.945,6.162,8.09,9.109,12.478A88.812,88.812,0,0,1,94.169,115.129Z" transform="translate(-0.814 63.314)" fill="#121639"/>
      <path id="Path_26" data-name="Path 26" d="M74.674,91.84a2.107,2.107,0,0,1-.244.643c-.443,1.175-.931,2.327-1.485,3.458A168.115,168.115,0,0,1,56.81,121.318a40.448,40.448,0,0,0,1.84-3.967c2.416-7.425,4.787-15.182,4.433-22.918A57.76,57.76,0,0,0,74.674,91.84Z" transform="translate(19.257 111.715)" fill="#121639"/>
      <path id="Path_27" data-name="Path 27" d="M90.691,117.47c-2.593-4.034-5.142-7.713-7.381-10.75-3.059-4.189-5.452-7.2-6.361-8.312h0l-.244-.355c-2.216-3.125-4.787-6.383-7.381-9.752-3.036-3.967-6.184-8.134-9.132-12.523A89.365,89.365,0,0,1,49.222,54.524,59.066,59.066,0,0,1,46.74,44.417a34.355,34.355,0,0,1,.133-7.514,43.775,43.775,0,0,1,.8-4.433l.4-1.263a23.259,23.259,0,0,1,.82-2.216c.443-1.175.953-2.216,1.485-3.48A169.248,169.248,0,0,1,66.488,0a38.724,38.724,0,0,0-1.84,3.99c-2.5,7.713-4.965,15.781-4.433,23.849v.776a22.452,22.452,0,0,0,.576,2.416c.288,1.751.621,3.369.953,4.81s.665,2.638.953,3.524a70.46,70.46,0,0,0,4.433,10.883c8,15.515,21.366,29.323,33.468,44A77.751,77.751,0,0,1,90.691,117.47Z" transform="translate(6.831 0)" fill="#ed1c24"/>
      <path id="Path_28" data-name="Path 28" d="M116.422,163.669a57.759,57.759,0,0,1-11.636,2.571c-1.662.177-3.347.288-5.076.355-29.035.8-45.237-16.867-55.211-35.6-4.433-8.378-9.752-21.832-22.009-40.051,27.528-21.654,39.9-41.4,55.543-58.159C80.826,38.2,83.8,43.1,86.766,47.751,97.383,64.374,107,77.805,108.575,99.415a34.951,34.951,0,0,1,0,5.364A32.47,32.47,0,0,1,104.94,117.3c-2.948-4.433-6.073-8.533-9.109-12.478-3.724-9.93-11.636-25.555-19.571-32.116-.665.931-1.308,1.84-1.928,2.748C68.724,83.7,63.76,91.192,62.053,97.93c-7.4,28.414,17.554,43.508,35.662,44.882a29.655,29.655,0,0,0,9.575-.731,32.56,32.56,0,0,0,8.555-3.524c15.36-9,19.77-28.481,16.246-37.9a6.141,6.141,0,0,0-.222-.576,175.3,175.3,0,0,0,14.141-23.45,81.653,81.653,0,0,1,8.4,19.948C161.038,121.912,145.368,153.895,116.422,163.669Z" transform="translate(-22.49 39.886)" fill="#ed1c24"/>
    </g>
  </g>
</svg>
