<svg xmlns="http://www.w3.org/2000/svg" width="636.675" height="475.449" viewBox="0 0 636.675 475.449"><g transform="translate(-496.056 -144.83)"><g transform="translate(496.836 144.83)" opacity="0.5"><path d="M586.956,310.846V242.28c-1.589-23.367-10.834-45.642-26.357-66v68.566c15.523,20.362,24.768,42.637,26.357,66Zm-34.291-75.635V166.647A196.284,196.284,0,0,0,534.51,148.76v68.566a196.267,196.267,0,0,1,18.155,17.885Zm-29.387-27.022V139.623a265.038,265.038,0,0,0-23.136-15.741v68.564a265.059,265.059,0,0,1,23.136,15.743Zm-38.67-4.311V94.79C547.776,128.3,587.2,176.227,587.2,229.25V338.336c0-53.021-39.425-100.947-102.592-134.458Z" transform="translate(48.693 -46.132)" fill="#322bff" opacity="0.502"/><path d="M551.142,178.519v-19.7q-7.229-1.386-14.612-2.576v19.7q7.38,1.19,14.612,2.576ZM524.857,154.5V137.064q-7.492-1.032-15.12-1.863v17.433q7.626.829,15.12,1.863Zm51.581,9.865V140.6q-6.939-1.719-14.046-3.255v23.77q7.1,1.531,14.046,3.252Zm-78.769-12.9V116.37q-7.718-.664-15.559-1.115v35.089q7.839.452,15.559,1.117Zm-56.451-1.978V114.394q-7.933.121-15.774.461v35.089q7.839-.337,15.774-.461Zm-28.042,1.131V106.48q-7.755.509-15.4,1.23v44.131q7.64-.718,15.4-1.227Zm56.537-.843V99.287q-7.087-.25-14.255-.321c-.564,0-1.131-.011-1.695-.013v50.481l1.695.014q7.168.071,14.255.324Zm-83.88,3.331V89.952q-7.549.88-14.972,1.967v63.149q7.421-1.086,14.972-1.967ZM338.7,84.549A536.464,536.464,0,0,1,455.457,73.171c54.824.548,106.18,8.989,150.832,23.4V205.66c-44.653-14.412-96.009-22.855-150.832-23.4A536.462,536.462,0,0,0,338.7,193.634V84.549Z" transform="translate(-133.356 -73.142)" fill="#322bff" opacity="0.502"/><path d="M267.092,215.265V193.3a132.726,132.726,0,0,0-15.5,29.263v65.051a132.675,132.675,0,0,1,15.5-29.263V236.389q2.836-4.08,6-8.065V240.17a177.845,177.845,0,0,1,13.122-14.716V213.609c20.578-20.708,47.984-38.874,80.43-53.5V138.982q-8.662,3.9-16.831,8.139-4.087,2.117-8.045,4.316c-20.834,11.564-38.941,24.747-53.7,39.2q-.937.917-1.857,1.843V180.639a177.862,177.862,0,0,0-13.122,14.718V207.2q-3.159,3.982-6,8.065Zm-19.748-.686C259.749,161.345,311.9,115.5,385.873,86.966V196.052C311.9,224.584,259.749,270.431,247.344,323.665V214.58Z" transform="translate(-247.344 -55.894)" fill="#322bff" opacity="0.502"/><path d="M275.251,163.61q.921-.924,1.857-1.843v21.124a235.737,235.737,0,0,1,38.415-30.122q7.37-4.69,15.282-9.083V122.563q3.958-2.2,8.045-4.316v21.124q8.166-4.231,16.831-8.139v0c-32.446,14.628-59.852,32.794-80.43,53.5V163.61ZM256.13,186.391q2.836-4.08,6-8.065V199.45q-3.159,3.982-6,8.065V186.391Z" transform="translate(-236.382 -27.02)" fill="#322bff" opacity="0.753"/><path d="M292.932,118.247q8.166-4.231,16.831-8.139v21.124q-8.662,3.9-16.831,8.139V118.247Z" transform="translate(-190.464 -27.02)" fill="#322bff" opacity="0.878"/><path d="M265.463,149.812a235.733,235.733,0,0,1,38.415-30.122v21.124a235.736,235.736,0,0,0-38.415,30.122V149.812Z" transform="translate(-224.737 -15.064)" fill="#322bff" opacity="0.878"/><path d="M282.554,124.732q7.37-4.69,15.282-9.083v21.124q-7.91,4.39-15.282,9.083V124.732Z" transform="translate(-203.412 -20.106)" fill="#322bff" opacity="0.973"/><path d="M249.233,163.538a132.727,132.727,0,0,1,15.5-29.263v21.962a132.742,132.742,0,0,0-15.5,29.265v21.124a132.742,132.742,0,0,1,15.5-29.265v21.965a132.676,132.676,0,0,0-15.5,29.263V163.538Z" transform="translate(-244.987 3.133)" fill="#322bff" opacity="0.753"/><path d="M249.233,173.311a132.742,132.742,0,0,1,15.5-29.265V165.17a132.742,132.742,0,0,0-15.5,29.265V173.311Z" transform="translate(-244.987 15.325)" fill="#322bff" opacity="0.878"/><path d="M258.8,176.326a177.858,177.858,0,0,1,13.122-14.716v11.845A177.856,177.856,0,0,0,258.8,188.172V176.326Zm0-32.967a177.872,177.872,0,0,1,13.122-14.718v11.845A177.868,177.868,0,0,0,258.8,155.2V143.359Z" transform="translate(-233.051 -3.896)" fill="#322bff" opacity="0.753"/><path d="M258.8,148.627a177.87,177.87,0,0,1,13.122-14.716v21.124A177.863,177.863,0,0,0,258.8,169.751V148.627Z" transform="translate(-233.051 2.679)" fill="#322bff" opacity="0.878"/><path d="M518.417,131.043c15.523,20.362,24.768,42.637,26.357,66v68.566c-1.589-23.367-10.834-45.642-26.357-66V131.043Z" transform="translate(90.876 -0.899)" fill="#322bff" opacity="0.753"/><path d="M506.81,118.8a196.29,196.29,0,0,1,18.155,17.887v68.564a196.274,196.274,0,0,0-18.155-17.885V118.8Z" transform="translate(76.394 -16.174)" fill="#322bff"/><path d="M491.52,107.733a265.036,265.036,0,0,1,23.136,15.741V192.04A265.058,265.058,0,0,0,491.52,176.3V107.733Z" transform="translate(57.316 -29.983)" fill="#322bff" opacity="0.753"/><path d="M438.221,101.7q7.1,1.534,14.046,3.255v23.767q-6.939-1.719-14.046-3.252V101.7Z" transform="translate(-9.185 -37.506)" fill="#322bff" opacity="0.753"/><path d="M426.715,110.114q7.38,1.19,14.612,2.576v19.7Q434.1,131,426.715,129.813v-19.7Z" transform="translate(-23.541 -27.012)" fill="#322bff" opacity="0.753"/><path d="M414.8,100.752q7.626.829,15.12,1.863v17.433q-7.492-1.032-15.12-1.863V100.752Z" transform="translate(-38.414 -38.694)" fill="#322bff" opacity="0.753"/><path d="M402.5,91.878q7.839.452,15.559,1.115v35.091q-7.717-.664-15.559-1.117V91.878Z" transform="translate(-53.75 -49.766)" fill="#322bff" opacity="0.753"/><path d="M389.892,84.625c.564,0,1.131.009,1.695.013q7.168.071,14.255.321v50.484q-7.087-.253-14.255-.324l-1.695-.013V84.625Z" transform="translate(-69.486 -58.815)" fill="#322bff" opacity="0.753"/><path d="M377.293,91.956q7.839-.341,15.774-.461v35.089q-7.933.121-15.774.461V91.956Z" transform="translate(-85.206 -50.244)" fill="#322bff"/><path d="M364.985,89.2q7.64-.718,15.4-1.23v44.134q-7.755.506-15.4,1.227V89.2Z" transform="translate(-100.562 -54.637)" fill="#322bff" opacity="0.753"/><path d="M353.009,82.588q7.421-1.086,14.972-1.967V143.77q-7.549.88-14.972,1.967V82.588Z" transform="translate(-115.505 -63.811)" fill="#322bff"/></g><g transform="translate(496.056 331.207)" opacity="0.5"><path d="M346.35,369.806V351.375q5.539,2.967,11.322,5.786v18.433q-5.782-2.819-11.322-5.788Zm-36.3-23.03V312.811q4.6,3.466,9.481,6.8V353.58q-4.879-3.334-9.481-6.8Zm17.3,11.953V318.669q5.088,3.227,10.438,6.316v40.063q-5.351-3.088-10.438-6.318Zm-46.42-38.256V276.025q3.533,3.888,7.377,7.662v44.448q-3.844-3.776-7.377-7.662ZM294.54,334V285.85q4.086,3.685,8.465,7.253v48.155q-4.38-3.567-8.465-7.256Zm-34.689-42.6V239.2q2.35,4.241,5.044,8.391v52.208q-2.694-4.15-5.044-8.391Zm9.479,14.844V238.331q2.957,4.076,6.244,8.049V314.3q-3.287-3.975-6.244-8.049ZM252.6,276V199.293q1.709,4.39,3.781,8.7V284.7q-2.07-4.309-3.781-8.7ZM380.96,293.02c-72.981-29.4-123.4-75.849-133.963-129.061V273.045c10.56,53.214,60.983,99.659,133.963,129.061V293.02Z" transform="translate(-246.997 -146.207)" fill="#322bff" opacity="0.502"/><path d="M483.848,336.161V311.553q18.837-1.028,37-3.286v24.608q-18.149,2.249-37,3.286Zm-59.014.115V291.429q11.285.57,22.792.688,7.859.081,15.637-.058V336.9q-7.775.138-15.637.061-11.5-.115-22.792-.688Zm-56.883-5.885V261.825q17.846,2.825,36.492,4.475v68.566q-18.628-1.639-36.492-4.475ZM540.29,330.1V257.685q17.714-2.876,34.559-6.867v72.414q-16.824,3.978-34.559,6.867Zm63.662-103.6c-46.494,14.307-99.823,22.192-156.326,21.625a531.4,531.4,0,0,1-111.581-12.688V344.527a531.7,531.7,0,0,0,111.581,12.688c56.5.566,109.832-7.321,156.326-21.627V226.5Z" transform="translate(-135.891 -68.171)" fill="#322bff" opacity="0.502"/><path d="M499.626,345.592V324.466c50.908-30.056,84.046-70.135,89.463-114.721v21.124c-5.417,44.586-38.555,84.664-89.463,114.723Zm90.2-80.443V156.061c-1.623,53.358-42.864,100.987-107.357,133.826V398.973c64.494-32.839,105.734-80.468,107.357-133.824Z" transform="translate(46.801 -156.061)" fill="#322bff" opacity="0.502"/><path d="M579.564,179.945c-5.417,44.586-38.555,84.664-89.463,114.721v21.126c50.908-30.059,84.046-70.137,89.463-114.723V179.945Z" transform="translate(56.326 -126.261)" fill="#322bff" opacity="0.753"/><path d="M386.732,246.692q-18.628-1.635-36.492-4.475v68.566q17.846,2.825,36.492,4.475V246.692Z" transform="translate(-118.18 -48.563)" fill="#322bff"/><path d="M438.806,262.879q-18.149,2.249-37,3.286v24.608q18.837-1.025,37-3.286V262.879Z" transform="translate(-53.846 -22.783)" fill="#322bff"/><path d="M461.471,237.32q-16.824,3.982-34.558,6.867V316.6q17.714-2.876,34.558-6.867V237.32Z" transform="translate(-22.514 -54.673)" fill="#322bff"/><path d="M413.976,256.017q-7.775.138-15.637.058-11.5-.115-22.792-.688v44.846q11.285.57,22.792.688,7.859.077,15.637-.061V256.017Z" transform="translate(-86.604 -32.13)" fill="#322bff" opacity="0.753"/><path d="M253.272,188.378q-2.07-4.309-3.781-8.7v76.705q1.709,4.39,3.781,8.7V188.378Z" transform="translate(-243.885 -126.593)" fill="#322bff"/><path d="M257.76,205.823q-2.694-4.15-5.044-8.391v52.207q2.35,4.242,5.044,8.391V205.823Z" transform="translate(-239.861 -104.442)" fill="#322bff"/><path d="M263.177,205.1q-3.287-3.972-6.244-8.049v67.917q2.957,4.073,6.244,8.049V205.1Z" transform="translate(-234.6 -104.922)" fill="#322bff" opacity="0.753"/><path d="M269.472,221.479q-3.844-3.776-7.377-7.662v44.448q3.533,3.887,7.377,7.662V221.479Z" transform="translate(-228.159 -83.998)" fill="#322bff"/><path d="M276.614,225.441q-4.38-3.567-8.465-7.253v48.153q4.086,3.689,8.465,7.256V225.441Z" transform="translate(-220.605 -78.545)" fill="#322bff" opacity="0.753"/><path d="M284.53,236.987q-4.879-3.338-9.481-6.8v33.965q4.6,3.466,9.481,6.8V236.987Z" transform="translate(-211.996 -63.578)" fill="#322bff" opacity="0.753"/><path d="M293.185,239.105q-5.351-3.088-10.438-6.316V272.85q5.088,3.23,10.438,6.318V239.105Z" transform="translate(-202.391 -60.327)" fill="#322bff" opacity="0.753"/><path d="M302.521,253.126q-5.782-2.815-11.322-5.786v18.431q5.54,2.97,11.322,5.788V253.126Z" transform="translate(-191.846 -42.171)" fill="#322bff" opacity="0.753"/></g></g></svg>