<svg xmlns="http://www.w3.org/2000/svg" xmlns:xlink="http://www.w3.org/1999/xlink" width="280.133" height="512.731" viewBox="0 0 280.133 512.731"><defs><linearGradient id="a" x1="0.5" y1="0.777" x2="0.5" y2="0.021" gradientUnits="objectBoundingBox"><stop offset="0" stop-color="#c0bff6"/><stop offset="0.294" stop-color="#c4c3f6"/><stop offset="0.64" stop-color="#d2d2f9"/><stop offset="1" stop-color="#e9e9fd"/></linearGradient><linearGradient id="b" x1="0" y1="0.5" x2="1" y2="0.5" xlink:href="#a"/><linearGradient id="c" y1="0.5" x2="1" y2="0.5" gradientUnits="objectBoundingBox"><stop offset="0" stop-color="#5761d7"/><stop offset="0.178" stop-color="#5b65d8"/><stop offset="0.388" stop-color="#6a72de"/><stop offset="0.613" stop-color="#8188e8"/><stop offset="0.849" stop-color="#a2a6f5"/><stop offset="1" stop-color="#bcbeff"/></linearGradient><linearGradient id="j" x1="-0.247" y1="0.5" x2="1.034" y2="0.5" gradientUnits="objectBoundingBox"><stop offset="0" stop-color="#5761d7"/><stop offset="0.164" stop-color="#5e67d9"/><stop offset="0.405" stop-color="#7179e1"/><stop offset="0.692" stop-color="#9197ee"/><stop offset="1" stop-color="#bcbeff"/></linearGradient><linearGradient id="k" y1="0.5" x2="1" y2="0.5" gradientUnits="objectBoundingBox"><stop offset="0" stop-color="#42e8e0"/><stop offset="0.151" stop-color="#42e3df"/><stop offset="0.328" stop-color="#44d4de"/><stop offset="0.52" stop-color="#48bddd"/><stop offset="0.721" stop-color="#4d9bda"/><stop offset="0.927" stop-color="#5471d8"/><stop offset="1" stop-color="#5761d7"/></linearGradient><linearGradient id="p" y1="0.5" x2="1" y2="0.5" gradientUnits="objectBoundingBox"><stop offset="0" stop-color="#42e8e0"/><stop offset="0.151" stop-color="#42e3df"/><stop offset="0.328" stop-color="#44d4de"/><stop offset="0.52" stop-color="#48bddd"/><stop offset="0.721" stop-color="#4d9bda"/><stop offset="0.927" stop-color="#134074"/><stop offset="1" stop-color="#322bff"/></linearGradient></defs><g transform="translate(-664.898 -190.351)"><g transform="translate(455.02 190.351)"><g transform="translate(209.878 40.581)"><path d="M462.183,273.183,322.114,192.315l140.065-80.866,140.069,80.869Z" transform="translate(-322.114 -111.449)" fill="#bcbeff"/><path d="M451.073,255.214,331.019,185.9l120.051-69.311L571.124,185.9Z" transform="translate(-311.004 -105.034)" fill="#453c9e" opacity="0.7"/><path d="M462.183,411.286,322.114,330.418l140.065-80.866L602.248,330.42Z" transform="translate(-322.114 60.864)" fill="#fff"/><path d="M524.5,147.427V457.842L384.431,538.708V228.293Z" transform="translate(-244.362 -66.558)" fill="url(#a)"/><path d="M322.114,147.426V457.841L462.183,538.71V228.294Z" transform="translate(-322.114 -66.559)" fill="#24126a"/><g transform="translate(9.488 101.461)" opacity="0.51"><path d="M326.336,156.588V435.6l121.092,69.912V226.5Z" transform="translate(-326.336 -156.588)" fill="#453c9e"/></g><path d="M491.823,180.794V189L393.778,245.6v-8.2Z" transform="translate(-232.699 -24.926)" fill="#453c9e"/><path d="M491.823,196.228v8.2l-98.045,56.606v-8.205Z" transform="translate(-232.699 -5.669)" fill="#453c9e"/><path d="M491.823,211.662v8.205l-98.045,56.606v-8.2Z" transform="translate(-232.699 13.589)" fill="#453c9e"/><path d="M491.823,227.1v8.2l-98.045,56.606v-8.2Z" transform="translate(-232.699 32.846)" fill="#453c9e"/><path d="M491.823,242.53v8.2l-98.045,56.606v-8.205Z" transform="translate(-232.699 52.103)" fill="#453c9e"/><path d="M491.823,257.964v8.205l-98.045,56.606v-8.2Z" transform="translate(-232.699 71.361)" fill="#453c9e"/><path d="M462.183,226.4,324.39,146.841l-2.276,1.314,140.069,80.869,140.065-80.866-2.276-1.314Z" transform="translate(-322.114 -67.289)" fill="#fff"/><g transform="translate(0 80.866)" opacity="0.51"><path d="M322.114,408.785l140.067-84.57,0-95.921L322.114,147.426Z" transform="translate(-322.114 -147.426)" fill="#453c9e"/></g><g transform="translate(119.402 165.282)"><path d="M389.443,195.393a12.316,12.316,0,0,0-5.574-9.652,3.9,3.9,0,0,0-3.958-.378v0l-3.945,2.308,2.441.085a6.271,6.271,0,0,0-.11,1.2,12.32,12.32,0,0,0,5.572,9.652,6.4,6.4,0,0,0,1.194.537l-1.137,2.124,3.864-2.259v0C388.809,198.437,389.443,197.185,389.443,195.393Z" transform="translate(-374.325 -184.982)" fill="url(#b)"/><path d="M386.38,196.428c0,3.556-2.495,4.994-5.572,3.219a12.32,12.32,0,0,1-5.572-9.654c0-3.554,2.5-4.994,5.572-3.216A12.319,12.319,0,0,1,386.38,196.428Z" transform="translate(-375.236 -183.693)" fill="url(#c)"/><path d="M382.7,193.365c0,2.045-1.434,2.875-3.205,1.852a7.085,7.085,0,0,1-3.205-5.554c0-2.043,1.434-2.873,3.205-1.85A7.085,7.085,0,0,1,382.7,193.365Z" transform="translate(-373.922 -181.996)" fill="#3f21d3"/></g><g transform="translate(1.93 93.104)"><path d="M337.18,163.283a12.32,12.32,0,0,0-5.574-9.654,3.907,3.907,0,0,0-3.958-.378l0,0L323.7,155.56l2.441.083a6.292,6.292,0,0,0-.11,1.2,12.316,12.316,0,0,0,5.572,9.652,6.12,6.12,0,0,0,1.194.537l-1.137,2.124,3.864-2.259h0A3.9,3.9,0,0,0,337.18,163.283Z" transform="translate(-322.062 -152.87)" fill="url(#b)"/><path d="M334.117,164.318c0,3.554-2.495,4.994-5.572,3.216a12.32,12.32,0,0,1-5.572-9.652c0-3.554,2.5-4.994,5.572-3.219A12.323,12.323,0,0,1,334.117,164.318Z" transform="translate(-322.973 -151.581)" fill="url(#c)"/><path d="M330.436,161.255c0,2.043-1.434,2.873-3.205,1.85a7.085,7.085,0,0,1-3.205-5.552c0-2.045,1.434-2.875,3.205-1.852A7.086,7.086,0,0,1,330.436,161.255Z" transform="translate(-321.659 -149.885)" fill="#3f21d3"/></g><g transform="translate(119.402 443.281)"><path d="M389.443,319.076a12.32,12.32,0,0,0-5.574-9.654,3.906,3.906,0,0,0-3.958-.378v0l-3.945,2.308,2.441.085a6.272,6.272,0,0,0-.11,1.2,12.32,12.32,0,0,0,5.572,9.652,6.4,6.4,0,0,0,1.194.537l-1.137,2.124,3.864-2.259h0A3.9,3.9,0,0,0,389.443,319.076Z" transform="translate(-374.325 -308.663)" fill="url(#b)"/><path d="M386.38,320.111c0,3.554-2.495,4.994-5.572,3.216a12.319,12.319,0,0,1-5.572-9.652c0-3.556,2.5-4.995,5.572-3.219A12.32,12.32,0,0,1,386.38,320.111Z" transform="translate(-375.236 -307.374)" fill="url(#c)"/><path d="M382.7,317.048c0,2.043-1.434,2.873-3.205,1.85a7.085,7.085,0,0,1-3.205-5.552c0-2.045,1.434-2.875,3.205-1.852A7.085,7.085,0,0,1,382.7,317.048Z" transform="translate(-373.922 -305.678)" fill="#3f21d3"/></g><g transform="translate(1.93 371.103)"><path d="M337.18,286.964a12.312,12.312,0,0,0-5.574-9.652,3.9,3.9,0,0,0-3.958-.38l0,0-3.947,2.311,2.441.083a6.29,6.29,0,0,0-.11,1.2,12.316,12.316,0,0,0,5.572,9.652,6.116,6.116,0,0,0,1.194.537l-1.137,2.126,3.864-2.261h0A3.9,3.9,0,0,0,337.18,286.964Z" transform="translate(-322.062 -276.551)" fill="url(#b)"/><path d="M334.117,288c0,3.554-2.495,4.994-5.572,3.216a12.316,12.316,0,0,1-5.572-9.652c0-3.554,2.5-4.994,5.572-3.219A12.323,12.323,0,0,1,334.117,288Z" transform="translate(-322.973 -275.262)" fill="url(#c)"/><path d="M330.436,284.936c0,2.043-1.434,2.873-3.205,1.85a7.082,7.082,0,0,1-3.205-5.552c0-2.045,1.434-2.873,3.205-1.852A7.085,7.085,0,0,1,330.436,284.936Z" transform="translate(-321.659 -273.565)" fill="#3f21d3"/></g></g><g transform="translate(209.878)"><path d="M602.248,129.374V145.56L462.183,226.426,322.114,145.557V129.371Z" transform="translate(-322.114 -48.505)" fill="url(#j)"/><path d="M462.183,255.129,322.114,174.26,462.179,93.394l140.069,80.869Z" transform="translate(-322.114 -93.394)" fill="#bcbeff"/><path d="M462.183,208.874,323.752,128.951l-1.638.945,140.069,80.868L602.248,129.9l-1.638-.945Z" transform="translate(-322.114 -49.03)" fill="#fff"/><g transform="translate(32.335 3.003)"><path d="M444.232,226.1,336.5,163.905l107.728-62.2,107.731,62.2Z" transform="translate(-336.499 -86.024)" fill="#0f054c"/><g transform="translate(0)"><path d="M444.233,226.106,336.5,163.906l107.73-62.2,107.734,62.2Z" transform="translate(-336.5 -86.024)" opacity="0.5" fill="url(#k)"/><path d="M384.429,94.73l107.734,62.2v15.684l-107.734-62.2Z" transform="translate(-276.699 -94.73)" opacity="0.5" fill="url(#k)"/><path d="M444.233,110.414,336.5,172.612V156.928l107.73-62.2Z" transform="translate(-336.5 -94.73)" opacity="0.5" fill="url(#k)"/><path d="M444.233,219.128,336.5,156.928l107.73-62.2,107.734,62.2Z" transform="translate(-336.5 -94.73)" opacity="0.5" fill="url(#k)"/><path d="M408.326,161.052,365.278,136.2l43.047-24.853L451.373,136.2Z" transform="translate(-300.593 -73.999)" fill="#42e8e0" opacity="0.5"/><path d="M408.325,113.632l41.068,23.71,1.98-1.143-43.048-24.854L365.278,136.2l1.98,1.143Z" transform="translate(-300.593 -73.999)" fill="#42e8e0" opacity="0.5"/><path d="M384.43,184.6v15.684l107.73-62.2V122.4Z" transform="translate(-276.697 -60.203)" opacity="0.5" fill="url(#k)"/><path d="M336.5,122.4v15.684l107.733,62.2V184.6Z" transform="translate(-336.5 -60.204)" opacity="0.5" fill="url(#p)"/></g><path d="M444.234,183.365,337.983,122.021l-1.483.856,107.734,62.2,107.731-62.2-1.483-.856Z" transform="translate(-336.5 -60.679)" fill="#42e8e0" opacity="0.8"/></g></g></g><g transform="translate(706.245 540.081)"><g transform="translate(51.825 30.073)"><path d="M363.625,266.1l.008-3.73,3.226,1.872-.008,3.73Z" transform="translate(-363.494 -262.368)" fill="#42e8e0"/><path d="M363.618,269.416l.008-3.73,3.226,1.872-.008,3.73Z" transform="translate(-363.503 -258.227)" fill="#42e8e0" opacity="0.1"/><path d="M363.61,272.735l.008-3.73,3.226,1.872-.008,3.73Z" transform="translate(-363.513 -254.086)" fill="#42e8e0" opacity="0.4"/><path d="M363.6,276.054l.008-3.73,3.226,1.872-.008,3.73Z" transform="translate(-363.522 -249.945)" fill="#42e8e0"/><path d="M363.6,279.373l.008-3.73,3.226,1.872-.008,3.73Z" transform="translate(-363.531 -245.804)" fill="#42e8e0" opacity="0.4"/><path d="M363.589,282.691l.008-3.73,3.226,1.872-.008,3.73Z" transform="translate(-363.54 -241.664)" fill="#42e8e0"/><path d="M363.581,286.01l.008-3.73,3.226,1.872-.008,3.73Z" transform="translate(-363.549 -237.523)" fill="#42e8e0"/><path d="M363.574,289.329l.008-3.73,3.226,1.872-.008,3.73Z" transform="translate(-363.558 -233.382)" fill="#42e8e0"/><path d="M363.567,292.648l.008-3.73,3.226,1.872-.008,3.73Z" transform="translate(-363.567 -229.241)" fill="#42e8e0" opacity="0.1"/></g><g transform="translate(45.347 26.314)"><path d="M360.743,264.425l.008-3.73,3.226,1.872-.008,3.73Z" transform="translate(-360.612 -260.695)" fill="#42e8e0"/><path d="M360.736,267.744l.008-3.73,3.226,1.872-.008,3.73Z" transform="translate(-360.621 -256.554)" fill="#42e8e0"/><path d="M360.728,271.063l.008-3.73,3.226,1.872-.008,3.73Z" transform="translate(-360.63 -252.414)" fill="#42e8e0"/><path d="M360.721,274.381l.008-3.73,3.226,1.872-.008,3.73Z" transform="translate(-360.639 -248.273)" fill="#42e8e0"/><path d="M360.714,277.7l.008-3.73,3.226,1.872-.008,3.73Z" transform="translate(-360.649 -244.132)" fill="#42e8e0"/><path d="M360.707,281.019l.008-3.73,3.226,1.872-.008,3.73Z" transform="translate(-360.657 -239.991)" fill="#42e8e0"/><path d="M360.7,284.338l.008-3.73,3.226,1.872-.008,3.73Z" transform="translate(-360.667 -235.85)" fill="#42e8e0"/><path d="M360.692,287.657l.008-3.73,3.226,1.872-.008,3.73Z" transform="translate(-360.676 -231.709)" fill="#42e8e0"/><path d="M360.685,290.975l.008-3.73,3.226,1.872-.008,3.73Z" transform="translate(-360.685 -227.569)" fill="#42e8e0"/></g><g transform="translate(38.869 22.555)"><path d="M357.861,262.753l.008-3.73,3.226,1.872-.008,3.73Z" transform="translate(-357.73 -259.023)" fill="#42e8e0"/><path d="M357.853,266.071l.008-3.73,3.226,1.872-.008,3.73Z" transform="translate(-357.739 -254.882)" fill="#42e8e0"/><path d="M357.846,269.39l.008-3.73,3.226,1.872-.008,3.73Z" transform="translate(-357.748 -250.741)" fill="#42e8e0"/><path d="M357.839,272.709l.008-3.73,3.226,1.872-.008,3.73Z" transform="translate(-357.758 -246.6)" fill="#42e8e0" opacity="0.1"/><path d="M357.832,276.028l.008-3.73,3.226,1.872-.008,3.73Z" transform="translate(-357.766 -242.459)" fill="#42e8e0" opacity="0.4"/><path d="M357.824,279.347l.008-3.73,3.226,1.872-.008,3.73Z" transform="translate(-357.776 -238.319)" fill="#42e8e0" opacity="0.4"/><path d="M357.817,282.665l.008-3.73,3.226,1.872-.008,3.73Z" transform="translate(-357.785 -234.178)" fill="#42e8e0"/><path d="M357.81,285.984l.008-3.73,3.226,1.872-.008,3.73Z" transform="translate(-357.794 -230.037)" fill="#42e8e0"/><path d="M357.8,289.3l.008-3.73,3.226,1.872-.008,3.73Z" transform="translate(-357.803 -225.896)" fill="#42e8e0"/></g><g transform="translate(32.391 18.796)"><path d="M354.978,261.08l.008-3.73,3.226,1.872-.008,3.73Z" transform="translate(-354.848 -257.351)" fill="#42e8e0" opacity="0.4"/><path d="M354.971,264.4l.008-3.73,3.226,1.872-.008,3.73Z" transform="translate(-354.857 -253.21)" fill="#42e8e0" opacity="0.4"/><path d="M354.964,267.718l.008-3.73,3.226,1.872-.008,3.73Z" transform="translate(-354.866 -249.069)" fill="#42e8e0" opacity="0.1"/><path d="M354.957,271.037l.008-3.73,3.226,1.872-.008,3.73Z" transform="translate(-354.875 -244.928)" fill="#42e8e0"/><path d="M354.949,274.355l.008-3.73,3.226,1.872-.008,3.73Z" transform="translate(-354.884 -240.787)" fill="#42e8e0"/><path d="M354.942,277.674l.008-3.73,3.226,1.872-.008,3.73Z" transform="translate(-354.893 -236.646)" fill="#42e8e0"/><path d="M354.935,280.993l.008-3.73,3.226,1.872-.008,3.73Z" transform="translate(-354.902 -232.505)" fill="#42e8e0" opacity="0.4"/><path d="M354.928,284.312l.008-3.73,3.226,1.872-.008,3.73Z" transform="translate(-354.911 -228.364)" fill="#42e8e0"/><path d="M354.92,287.63l.008-3.73,3.226,1.872-.008,3.73Z" transform="translate(-354.92 -224.224)" fill="#42e8e0"/></g><g transform="translate(25.913 15.036)"><path d="M352.1,259.408l.008-3.73,3.226,1.872-.008,3.73Z" transform="translate(-351.966 -255.678)" fill="#42e8e0"/><path d="M352.089,262.727,352.1,259l3.226,1.872-.008,3.73Z" transform="translate(-351.975 -251.537)" fill="#42e8e0"/><path d="M352.082,266.045l.008-3.73,3.226,1.872-.008,3.73Z" transform="translate(-351.984 -247.396)" fill="#42e8e0"/><path d="M352.075,269.364l.008-3.73,3.226,1.872-.008,3.73Z" transform="translate(-351.993 -243.256)" fill="#42e8e0"/><path d="M352.067,272.683l.008-3.73,3.226,1.872-.008,3.73Z" transform="translate(-352.002 -239.115)" fill="#42e8e0"/><path d="M352.06,276l.008-3.73,3.226,1.872-.008,3.73Z" transform="translate(-352.011 -234.974)" fill="#42e8e0"/><path d="M352.053,279.321l.008-3.73,3.226,1.872-.008,3.73Z" transform="translate(-352.02 -230.833)" fill="#42e8e0"/><path d="M352.046,282.639l.008-3.73,3.226,1.872-.008,3.73Z" transform="translate(-352.029 -226.692)" fill="#42e8e0"/><path d="M352.038,285.958l.008-3.73,3.226,1.872-.008,3.73Z" transform="translate(-352.038 -222.551)" fill="#42e8e0"/></g><g transform="translate(19.435 11.277)"><path d="M349.214,257.735l.008-3.73,3.226,1.872-.008,3.73Z" transform="translate(-349.084 -254.006)" fill="#42e8e0"/><path d="M349.207,261.054l.008-3.73,3.226,1.872-.008,3.73Z" transform="translate(-349.093 -249.865)" fill="#42e8e0"/><path d="M349.2,264.373l.008-3.73,3.226,1.872-.008,3.73Z" transform="translate(-349.102 -245.724)" fill="#42e8e0" opacity="0.4"/><path d="M349.192,267.692l.008-3.73,3.226,1.872-.008,3.73Z" transform="translate(-349.111 -241.583)" fill="#42e8e0"/><path d="M349.185,271.011l.008-3.73,3.226,1.872-.008,3.73Z" transform="translate(-349.12 -237.442)" fill="#42e8e0" opacity="0.1"/><path d="M349.178,274.329l.008-3.73,3.226,1.872-.008,3.73Z" transform="translate(-349.129 -233.302)" fill="#42e8e0"/><path d="M349.171,277.648l.008-3.73,3.226,1.872-.008,3.73Z" transform="translate(-349.138 -229.161)" fill="#42e8e0"/><path d="M349.163,280.967l.008-3.73,3.226,1.872-.008,3.73Z" transform="translate(-349.147 -225.02)" fill="#42e8e0"/><path d="M349.156,284.286l.008-3.73,3.226,1.872-.008,3.73Z" transform="translate(-349.156 -220.879)" fill="#42e8e0"/></g><g transform="translate(12.956 7.518)"><path d="M346.332,256.063l.008-3.73,3.226,1.872-.008,3.73Z" transform="translate(-346.202 -252.333)" fill="#42e8e0"/><path d="M346.325,259.382l.008-3.73,3.226,1.872-.008,3.73Z" transform="translate(-346.211 -248.193)" fill="#42e8e0"/><path d="M346.318,262.7l.008-3.73,3.226,1.872-.008,3.73Z" transform="translate(-346.22 -244.052)" fill="#42e8e0" opacity="0.4"/><path d="M346.31,266.019l.008-3.73,3.226,1.872-.008,3.73Z" transform="translate(-346.229 -239.911)" fill="#42e8e0"/><path d="M346.3,269.338l.008-3.73,3.226,1.872-.008,3.73Z" transform="translate(-346.238 -235.77)" fill="#42e8e0"/><path d="M346.3,272.657l.008-3.73,3.226,1.872-.008,3.73Z" transform="translate(-346.247 -231.629)" fill="#42e8e0" opacity="0.1"/><path d="M346.289,275.976l.008-3.73,3.226,1.872-.008,3.73Z" transform="translate(-346.256 -227.488)" fill="#42e8e0" opacity="0.4"/><path d="M346.281,279.294l.008-3.73,3.226,1.872-.008,3.73Z" transform="translate(-346.265 -223.347)" fill="#42e8e0"/><path d="M346.274,282.613l.008-3.73,3.226,1.872-.008,3.73Z" transform="translate(-346.274 -219.207)" fill="#42e8e0" opacity="0.1"/></g><g transform="translate(6.478 3.759)"><path d="M343.45,254.391l.008-3.73,3.226,1.872-.008,3.73Z" transform="translate(-343.32 -250.661)" fill="#42e8e0"/><path d="M343.443,257.709l.008-3.73,3.226,1.872-.008,3.73Z" transform="translate(-343.329 -246.52)" fill="#42e8e0" opacity="0.4"/><path d="M343.435,261.028l.008-3.73,3.226,1.872-.008,3.73Z" transform="translate(-343.338 -242.379)" fill="#42e8e0"/><path d="M343.428,264.347l.008-3.73,3.226,1.872-.008,3.73Z" transform="translate(-343.347 -238.238)" fill="#42e8e0"/><path d="M343.421,267.666l.008-3.73,3.226,1.872-.008,3.73Z" transform="translate(-343.356 -234.097)" fill="#42e8e0"/><path d="M343.414,270.985l.008-3.73,3.226,1.872-.008,3.73Z" transform="translate(-343.365 -229.956)" fill="#42e8e0"/><path d="M343.406,274.3l.008-3.73,3.226,1.872-.008,3.73Z" transform="translate(-343.374 -225.816)" fill="#42e8e0"/><path d="M343.4,277.622l.008-3.73,3.226,1.872-.008,3.73Z" transform="translate(-343.383 -221.675)" fill="#42e8e0" opacity="0.4"/><path d="M343.392,280.941l.008-3.73,3.226,1.872-.008,3.73Z" transform="translate(-343.392 -217.534)" fill="#42e8e0"/></g><path d="M340.568,252.718l.008-3.73,3.226,1.872-.008,3.73Z" transform="translate(-340.437 -248.988)" fill="#42e8e0"/><path d="M340.561,256.037l.008-3.73,3.226,1.872-.008,3.73Z" transform="translate(-340.446 -244.848)" fill="#42e8e0" opacity="0.1"/><path d="M340.553,259.356l.008-3.73,3.226,1.872-.008,3.73Z" transform="translate(-340.456 -240.707)" fill="#42e8e0"/><path d="M340.546,262.675l.008-3.73,3.226,1.872-.008,3.73Z" transform="translate(-340.465 -236.566)" fill="#42e8e0"/><path d="M340.539,265.993l.008-3.73,3.226,1.872-.008,3.73Z" transform="translate(-340.474 -232.425)" fill="#42e8e0"/><path d="M340.532,269.312l.008-3.73,3.226,1.872-.008,3.73Z" transform="translate(-340.483 -228.284)" fill="#42e8e0"/><path d="M340.524,272.631l.008-3.73,3.226,1.872-.008,3.73Z" transform="translate(-340.492 -224.143)" fill="#42e8e0" opacity="0.4"/><path d="M340.517,275.95l.008-3.73,3.226,1.872-.008,3.73Z" transform="translate(-340.501 -220.002)" fill="#42e8e0"/><path d="M340.51,279.268l.008-3.73,3.226,1.872-.008,3.73Z" transform="translate(-340.51 -215.862)" fill="#42e8e0"/></g><g transform="translate(706.245 460.557)"><g transform="translate(51.825 30.073)"><path d="M363.625,230.717l.008-3.73,3.226,1.872-.008,3.73Z" transform="translate(-363.494 -226.988)" fill="#42e8e0"/><path d="M363.618,234.036l.008-3.73,3.226,1.872-.008,3.73Z" transform="translate(-363.503 -222.847)" fill="#42e8e0" opacity="0.1"/><path d="M363.61,237.355l.008-3.73,3.226,1.872-.008,3.73Z" transform="translate(-363.513 -218.706)" fill="#42e8e0" opacity="0.4"/><path d="M363.6,240.674l.008-3.73,3.226,1.872-.008,3.73Z" transform="translate(-363.522 -214.565)" fill="#42e8e0"/><path d="M363.6,243.992l.008-3.73,3.226,1.872-.008,3.73Z" transform="translate(-363.531 -210.424)" fill="#42e8e0" opacity="0.4"/><path d="M363.589,247.311l.008-3.73,3.226,1.872-.008,3.73Z" transform="translate(-363.54 -206.283)" fill="#42e8e0"/><path d="M363.581,250.63l.008-3.73,3.226,1.872-.008,3.73Z" transform="translate(-363.549 -202.142)" fill="#42e8e0"/><path d="M363.574,253.949l.008-3.73,3.226,1.872-.008,3.73Z" transform="translate(-363.558 -198.001)" fill="#42e8e0"/><path d="M363.567,257.268l.008-3.73,3.226,1.872-.008,3.73Z" transform="translate(-363.567 -193.861)" fill="#42e8e0" opacity="0.1"/></g><g transform="translate(45.347 26.313)"><path d="M360.743,229.045l.008-3.73,3.226,1.872-.008,3.73Z" transform="translate(-360.612 -225.315)" fill="#42e8e0"/><path d="M360.736,232.364l.008-3.73,3.226,1.872-.008,3.73Z" transform="translate(-360.621 -221.174)" fill="#42e8e0"/><path d="M360.728,235.682l.008-3.73,3.226,1.872-.008,3.73Z" transform="translate(-360.63 -217.033)" fill="#42e8e0"/><path d="M360.721,239l.008-3.73,3.226,1.872-.008,3.73Z" transform="translate(-360.639 -212.893)" fill="#42e8e0"/><path d="M360.714,242.32l.008-3.73,3.226,1.872-.008,3.73Z" transform="translate(-360.649 -208.752)" fill="#42e8e0"/><path d="M360.707,245.639l.008-3.73,3.226,1.872-.008,3.73Z" transform="translate(-360.657 -204.611)" fill="#42e8e0"/><path d="M360.7,248.958l.008-3.73,3.226,1.872-.008,3.73Z" transform="translate(-360.667 -200.47)" fill="#42e8e0"/><path d="M360.692,252.276l.008-3.73,3.226,1.872-.008,3.73Z" transform="translate(-360.676 -196.329)" fill="#42e8e0"/><path d="M360.685,255.595l.008-3.73,3.226,1.872-.008,3.73Z" transform="translate(-360.685 -192.188)" fill="#42e8e0"/></g><g transform="translate(38.869 22.554)"><path d="M357.861,227.373l.008-3.73,3.226,1.872-.008,3.73Z" transform="translate(-357.73 -223.643)" fill="#42e8e0"/><path d="M357.853,230.691l.008-3.73,3.226,1.872-.008,3.73Z" transform="translate(-357.739 -219.502)" fill="#42e8e0"/><path d="M357.846,234.01l.008-3.73,3.226,1.872-.008,3.73Z" transform="translate(-357.748 -215.361)" fill="#42e8e0"/><path d="M357.839,237.329l.008-3.73,3.226,1.872-.008,3.73Z" transform="translate(-357.758 -211.22)" fill="#42e8e0" opacity="0.1"/><path d="M357.832,240.648l.008-3.73,3.226,1.872-.008,3.73Z" transform="translate(-357.766 -207.079)" fill="#42e8e0" opacity="0.4"/><path d="M357.824,243.966l.008-3.73,3.226,1.872-.008,3.73Z" transform="translate(-357.776 -202.938)" fill="#42e8e0" opacity="0.4"/><path d="M357.817,247.285l.008-3.73,3.226,1.872-.008,3.73Z" transform="translate(-357.785 -198.798)" fill="#42e8e0"/><path d="M357.81,250.6l.008-3.73,3.226,1.872-.008,3.73Z" transform="translate(-357.794 -194.657)" fill="#42e8e0"/><path d="M357.8,253.923l.008-3.73,3.226,1.872-.008,3.73Z" transform="translate(-357.803 -190.516)" fill="#42e8e0"/></g><g transform="translate(32.391 18.795)"><path d="M354.978,225.7l.008-3.73,3.226,1.872-.008,3.73Z" transform="translate(-354.848 -221.97)" fill="#42e8e0" opacity="0.4"/><path d="M354.971,229.019l.008-3.73,3.226,1.872-.008,3.73Z" transform="translate(-354.857 -217.829)" fill="#42e8e0" opacity="0.4"/><path d="M354.964,232.338l.008-3.73,3.226,1.872-.008,3.73Z" transform="translate(-354.866 -213.689)" fill="#42e8e0" opacity="0.1"/><path d="M354.957,235.656l.008-3.73,3.226,1.872-.008,3.73Z" transform="translate(-354.875 -209.548)" fill="#42e8e0"/><path d="M354.949,238.975l.008-3.73,3.226,1.872-.008,3.73Z" transform="translate(-354.884 -205.407)" fill="#42e8e0"/><path d="M354.942,242.294l.008-3.73,3.226,1.872-.008,3.73Z" transform="translate(-354.893 -201.266)" fill="#42e8e0"/><path d="M354.935,245.613l.008-3.73,3.226,1.872-.008,3.73Z" transform="translate(-354.902 -197.125)" fill="#42e8e0" opacity="0.4"/><path d="M354.928,248.932l.008-3.73,3.226,1.872-.008,3.73Z" transform="translate(-354.911 -192.984)" fill="#42e8e0"/><path d="M354.92,252.25l.008-3.73,3.226,1.872-.008,3.73Z" transform="translate(-354.92 -188.844)" fill="#42e8e0"/></g><g transform="translate(25.913 15.036)"><path d="M352.1,224.028l.008-3.73,3.226,1.872-.008,3.73Z" transform="translate(-351.966 -220.298)" fill="#42e8e0"/><path d="M352.089,227.346l.008-3.73,3.226,1.872-.008,3.73Z" transform="translate(-351.975 -216.157)" fill="#42e8e0"/><path d="M352.082,230.665l.008-3.73,3.226,1.872-.008,3.73Z" transform="translate(-351.984 -212.016)" fill="#42e8e0"/><path d="M352.075,233.984l.008-3.73,3.226,1.872-.008,3.73Z" transform="translate(-351.993 -207.875)" fill="#42e8e0"/><path d="M352.067,237.3l.008-3.73,3.226,1.872-.008,3.73Z" transform="translate(-352.002 -203.734)" fill="#42e8e0"/><path d="M352.06,240.622l.008-3.73,3.226,1.872-.008,3.73Z" transform="translate(-352.011 -199.594)" fill="#42e8e0"/><path d="M352.053,243.94l.008-3.73,3.226,1.872-.008,3.73Z" transform="translate(-352.02 -195.453)" fill="#42e8e0"/><path d="M352.046,247.259l.008-3.73,3.226,1.872-.008,3.73Z" transform="translate(-352.029 -191.312)" fill="#42e8e0"/><path d="M352.038,250.578l.008-3.73,3.226,1.872-.008,3.73Z" transform="translate(-352.038 -187.171)" fill="#42e8e0"/></g><g transform="translate(19.435 11.277)"><path d="M349.214,222.355l.008-3.73,3.226,1.872-.008,3.73Z" transform="translate(-349.084 -218.625)" fill="#42e8e0"/><path d="M349.207,225.674l.008-3.73,3.226,1.872-.008,3.73Z" transform="translate(-349.093 -214.485)" fill="#42e8e0"/><path d="M349.2,228.993l.008-3.73,3.226,1.872-.008,3.73Z" transform="translate(-349.102 -210.344)" fill="#42e8e0" opacity="0.4"/><path d="M349.192,232.312l.008-3.73,3.226,1.872-.008,3.73Z" transform="translate(-349.111 -206.203)" fill="#42e8e0"/><path d="M349.185,235.63l.008-3.73,3.226,1.872-.008,3.73Z" transform="translate(-349.12 -202.062)" fill="#42e8e0" opacity="0.1"/><path d="M349.178,238.949l.008-3.73,3.226,1.872-.008,3.73Z" transform="translate(-349.129 -197.921)" fill="#42e8e0"/><path d="M349.171,242.268l.008-3.73,3.226,1.872-.008,3.73Z" transform="translate(-349.138 -193.78)" fill="#42e8e0"/><path d="M349.163,245.587l.008-3.73,3.226,1.872-.008,3.73Z" transform="translate(-349.147 -189.639)" fill="#42e8e0"/><path d="M349.156,248.905l.008-3.73,3.226,1.872-.008,3.73Z" transform="translate(-349.156 -185.499)" fill="#42e8e0"/></g><g transform="translate(12.956 7.518)"><path d="M346.332,220.683l.008-3.73,3.226,1.872-.008,3.73Z" transform="translate(-346.202 -216.953)" fill="#42e8e0"/><path d="M346.325,224l.008-3.73,3.226,1.872-.008,3.73Z" transform="translate(-346.211 -212.812)" fill="#42e8e0"/><path d="M346.318,227.32l.008-3.73,3.226,1.872-.008,3.73Z" transform="translate(-346.22 -208.671)" fill="#42e8e0" opacity="0.4"/><path d="M346.31,230.639l.008-3.73,3.226,1.872-.008,3.73Z" transform="translate(-346.229 -204.531)" fill="#42e8e0"/><path d="M346.3,233.958l.008-3.73,3.226,1.872-.008,3.73Z" transform="translate(-346.238 -200.39)" fill="#42e8e0"/><path d="M346.3,237.277l.008-3.73,3.226,1.872-.008,3.73Z" transform="translate(-346.247 -196.249)" fill="#42e8e0" opacity="0.1"/><path d="M346.289,240.6l.008-3.73,3.226,1.872-.008,3.73Z" transform="translate(-346.256 -192.108)" fill="#42e8e0" opacity="0.4"/><path d="M346.281,243.914l.008-3.73,3.226,1.872-.008,3.73Z" transform="translate(-346.265 -187.967)" fill="#42e8e0"/><path d="M346.274,247.233l.008-3.73,3.226,1.872-.008,3.73Z" transform="translate(-346.274 -183.826)" fill="#42e8e0" opacity="0.1"/></g><g transform="translate(6.478 3.759)"><path d="M343.45,219.011l.008-3.73,3.226,1.872-.008,3.73Z" transform="translate(-343.32 -215.281)" fill="#42e8e0"/><path d="M343.443,222.329l.008-3.73,3.226,1.872-.008,3.73Z" transform="translate(-343.329 -211.14)" fill="#42e8e0" opacity="0.4"/><path d="M343.435,225.648l.008-3.73,3.226,1.872-.008,3.73Z" transform="translate(-343.338 -206.999)" fill="#42e8e0"/><path d="M343.428,228.967l.008-3.73,3.226,1.872-.008,3.73Z" transform="translate(-343.347 -202.858)" fill="#42e8e0"/><path d="M343.421,232.286l.008-3.73,3.226,1.872-.008,3.73Z" transform="translate(-343.356 -198.717)" fill="#42e8e0"/><path d="M343.414,235.6l.008-3.73,3.226,1.872-.008,3.73Z" transform="translate(-343.365 -194.576)" fill="#42e8e0"/><path d="M343.406,238.923l.008-3.73,3.226,1.872-.008,3.73Z" transform="translate(-343.374 -190.436)" fill="#42e8e0"/><path d="M343.4,242.242l.008-3.73,3.226,1.872-.008,3.73Z" transform="translate(-343.383 -186.295)" fill="#42e8e0" opacity="0.4"/><path d="M343.392,245.561l.008-3.73,3.226,1.872-.008,3.73Z" transform="translate(-343.392 -182.154)" fill="#42e8e0"/></g><path d="M340.568,217.338l.008-3.73,3.226,1.872-.008,3.73Z" transform="translate(-340.437 -213.608)" fill="#42e8e0"/><path d="M340.561,220.657l.008-3.73,3.226,1.872-.008,3.73Z" transform="translate(-340.446 -209.468)" fill="#42e8e0" opacity="0.1"/><path d="M340.553,223.976l.008-3.73,3.226,1.872-.008,3.73Z" transform="translate(-340.456 -205.327)" fill="#42e8e0"/><path d="M340.546,227.294l.008-3.73,3.226,1.872-.008,3.73Z" transform="translate(-340.465 -201.186)" fill="#42e8e0"/><path d="M340.539,230.613l.008-3.73,3.226,1.872-.008,3.73Z" transform="translate(-340.474 -197.045)" fill="#42e8e0"/><path d="M340.532,233.932l.008-3.73,3.226,1.872-.008,3.73Z" transform="translate(-340.483 -192.904)" fill="#42e8e0"/><path d="M340.524,237.251l.008-3.73,3.226,1.872-.008,3.73Z" transform="translate(-340.492 -188.763)" fill="#42e8e0" opacity="0.4"/><path d="M340.517,240.569l.008-3.73,3.226,1.872-.008,3.73Z" transform="translate(-340.501 -184.622)" fill="#42e8e0"/><path d="M340.51,243.888l.008-3.73,3.226,1.872-.008,3.73Z" transform="translate(-340.51 -180.482)" fill="#42e8e0"/></g><g transform="translate(706.245 381.033)"><g transform="translate(51.825 30.073)"><path d="M363.625,195.337l.008-3.73,3.226,1.872-.008,3.73Z" transform="translate(-363.494 -191.607)" fill="#42e8e0"/><path d="M363.618,198.656l.008-3.73,3.226,1.872-.008,3.73Z" transform="translate(-363.503 -187.467)" fill="#42e8e0" opacity="0.1"/><path d="M363.61,201.975l.008-3.73,3.226,1.872-.008,3.73Z" transform="translate(-363.513 -183.326)" fill="#42e8e0" opacity="0.4"/><path d="M363.6,205.293l.008-3.73,3.226,1.872-.008,3.73Z" transform="translate(-363.522 -179.185)" fill="#42e8e0"/><path d="M363.6,208.612l.008-3.73,3.226,1.872-.008,3.73Z" transform="translate(-363.531 -175.044)" fill="#42e8e0" opacity="0.4"/><path d="M363.589,211.931l.008-3.73,3.226,1.872-.008,3.73Z" transform="translate(-363.54 -170.903)" fill="#42e8e0"/><path d="M363.581,215.25l.008-3.73,3.226,1.872-.008,3.73Z" transform="translate(-363.549 -166.762)" fill="#42e8e0"/><path d="M363.574,218.569l.008-3.73,3.226,1.872-.008,3.73Z" transform="translate(-363.558 -162.622)" fill="#42e8e0"/><path d="M363.567,221.887l.008-3.73,3.226,1.872-.008,3.73Z" transform="translate(-363.567 -158.481)" fill="#42e8e0" opacity="0.1"/></g><g transform="translate(45.347 26.313)"><path d="M360.743,193.665l.008-3.73,3.226,1.872-.008,3.73Z" transform="translate(-360.612 -189.935)" fill="#42e8e0"/><path d="M360.736,196.984l.008-3.73,3.226,1.872-.008,3.73Z" transform="translate(-360.621 -185.794)" fill="#42e8e0"/><path d="M360.728,200.3l.008-3.73,3.226,1.872-.008,3.73Z" transform="translate(-360.63 -181.653)" fill="#42e8e0"/><path d="M360.721,203.621l.008-3.73,3.226,1.872-.008,3.73Z" transform="translate(-360.639 -177.512)" fill="#42e8e0"/><path d="M360.714,206.94l.008-3.73,3.226,1.872-.008,3.73Z" transform="translate(-360.649 -173.371)" fill="#42e8e0"/><path d="M360.707,210.259l.008-3.73,3.226,1.872-.008,3.73Z" transform="translate(-360.657 -169.231)" fill="#42e8e0"/><path d="M360.7,213.577l.008-3.73,3.226,1.872-.008,3.73Z" transform="translate(-360.667 -165.09)" fill="#42e8e0"/><path d="M360.692,216.9l.008-3.73,3.226,1.872-.008,3.73Z" transform="translate(-360.676 -160.949)" fill="#42e8e0"/><path d="M360.685,220.215l.008-3.73,3.226,1.872-.008,3.73Z" transform="translate(-360.685 -156.808)" fill="#42e8e0"/></g><g transform="translate(38.869 22.554)"><path d="M357.861,191.992l.008-3.73,3.226,1.872-.008,3.73Z" transform="translate(-357.73 -188.262)" fill="#42e8e0"/><path d="M357.853,195.311l.008-3.73,3.226,1.872-.008,3.73Z" transform="translate(-357.739 -184.122)" fill="#42e8e0"/><path d="M357.846,198.63l.008-3.73,3.226,1.872-.008,3.73Z" transform="translate(-357.748 -179.981)" fill="#42e8e0"/><path d="M357.839,201.949l.008-3.73,3.226,1.872-.008,3.73Z" transform="translate(-357.758 -175.84)" fill="#42e8e0" opacity="0.1"/><path d="M357.832,205.267l.008-3.73,3.226,1.872-.008,3.73Z" transform="translate(-357.766 -171.699)" fill="#42e8e0" opacity="0.4"/><path d="M357.824,208.586l.008-3.73,3.226,1.872-.008,3.73Z" transform="translate(-357.776 -167.558)" fill="#42e8e0" opacity="0.4"/><path d="M357.817,211.9l.008-3.73,3.226,1.872-.008,3.73Z" transform="translate(-357.785 -163.417)" fill="#42e8e0"/><path d="M357.81,215.224l.008-3.73,3.226,1.872-.008,3.73Z" transform="translate(-357.794 -159.277)" fill="#42e8e0"/><path d="M357.8,218.543l.008-3.73,3.226,1.872-.008,3.73Z" transform="translate(-357.803 -155.136)" fill="#42e8e0"/></g><g transform="translate(32.391 18.795)"><path d="M354.978,190.32l.008-3.73,3.226,1.872-.008,3.73Z" transform="translate(-354.848 -186.59)" fill="#42e8e0" opacity="0.4"/><path d="M354.971,193.639l.008-3.73,3.226,1.872-.008,3.73Z" transform="translate(-354.857 -182.449)" fill="#42e8e0" opacity="0.4"/><path d="M354.964,196.957l.008-3.73L358.2,195.1l-.008,3.73Z" transform="translate(-354.866 -178.308)" fill="#42e8e0" opacity="0.1"/><path d="M354.957,200.276l.008-3.73,3.226,1.872-.008,3.73Z" transform="translate(-354.875 -174.168)" fill="#42e8e0"/><path d="M354.949,203.6l.008-3.73,3.226,1.872-.008,3.73Z" transform="translate(-354.884 -170.027)" fill="#42e8e0"/><path d="M354.942,206.914l.008-3.73,3.226,1.872-.008,3.73Z" transform="translate(-354.893 -165.886)" fill="#42e8e0"/><path d="M354.935,210.233l.008-3.73,3.226,1.872-.008,3.73Z" transform="translate(-354.902 -161.745)" fill="#42e8e0" opacity="0.4"/><path d="M354.928,213.551l.008-3.73,3.226,1.872-.008,3.73Z" transform="translate(-354.911 -157.604)" fill="#42e8e0"/><path d="M354.92,216.87l.008-3.73,3.226,1.872-.008,3.73Z" transform="translate(-354.92 -153.463)" fill="#42e8e0"/></g><g transform="translate(25.913 15.036)"><path d="M352.1,188.648l.008-3.73,3.226,1.872-.008,3.73Z" transform="translate(-351.966 -184.918)" fill="#42e8e0"/><path d="M352.089,191.966l.008-3.73,3.226,1.872-.008,3.73Z" transform="translate(-351.975 -180.777)" fill="#42e8e0"/><path d="M352.082,195.285l.008-3.73,3.226,1.872-.008,3.73Z" transform="translate(-351.984 -176.636)" fill="#42e8e0"/><path d="M352.075,198.6l.008-3.73,3.226,1.872-.008,3.73Z" transform="translate(-351.993 -172.495)" fill="#42e8e0"/><path d="M352.067,201.923l.008-3.73,3.226,1.872-.008,3.73Z" transform="translate(-352.002 -168.354)" fill="#42e8e0"/><path d="M352.06,205.241l.008-3.73,3.226,1.872-.008,3.73Z" transform="translate(-352.011 -164.213)" fill="#42e8e0"/><path d="M352.053,208.56l.008-3.73,3.226,1.872-.008,3.73Z" transform="translate(-352.02 -160.073)" fill="#42e8e0"/><path d="M352.046,211.879l.008-3.73,3.226,1.872-.008,3.73Z" transform="translate(-352.029 -155.932)" fill="#42e8e0"/><path d="M352.038,215.2l.008-3.73,3.226,1.872-.008,3.73Z" transform="translate(-352.038 -151.791)" fill="#42e8e0"/></g><g transform="translate(19.435 11.277)"><path d="M349.214,186.975l.008-3.73,3.226,1.872-.008,3.73Z" transform="translate(-349.084 -183.245)" fill="#42e8e0"/><path d="M349.207,190.294l.008-3.73,3.226,1.872-.008,3.73Z" transform="translate(-349.093 -179.104)" fill="#42e8e0"/><path d="M349.2,193.613l.008-3.73,3.226,1.872-.008,3.73Z" transform="translate(-349.102 -174.964)" fill="#42e8e0" opacity="0.4"/><path d="M349.192,196.931l.008-3.73,3.226,1.872-.008,3.73Z" transform="translate(-349.111 -170.823)" fill="#42e8e0"/><path d="M349.185,200.25l.008-3.73,3.226,1.872-.008,3.73Z" transform="translate(-349.12 -166.682)" fill="#42e8e0" opacity="0.1"/><path d="M349.178,203.569l.008-3.73,3.226,1.872-.008,3.73Z" transform="translate(-349.129 -162.541)" fill="#42e8e0"/><path d="M349.171,206.888l.008-3.73,3.226,1.872-.008,3.73Z" transform="translate(-349.138 -158.4)" fill="#42e8e0"/><path d="M349.163,210.207l.008-3.73,3.226,1.872-.008,3.73Z" transform="translate(-349.147 -154.259)" fill="#42e8e0"/><path d="M349.156,213.525l.008-3.73,3.226,1.872-.008,3.73Z" transform="translate(-349.156 -150.118)" fill="#42e8e0"/></g><g transform="translate(12.956 7.518)"><path d="M346.332,185.3l.008-3.73,3.226,1.872-.008,3.73Z" transform="translate(-346.202 -181.573)" fill="#42e8e0"/><path d="M346.325,188.622l.008-3.73,3.226,1.872-.008,3.73Z" transform="translate(-346.211 -177.432)" fill="#42e8e0"/><path d="M346.318,191.94l.008-3.73,3.226,1.872-.008,3.73Z" transform="translate(-346.22 -173.291)" fill="#42e8e0" opacity="0.4"/><path d="M346.31,195.259l.008-3.73,3.226,1.872-.008,3.73Z" transform="translate(-346.229 -169.15)" fill="#42e8e0"/><path d="M346.3,198.578l.008-3.73,3.226,1.872-.008,3.73Z" transform="translate(-346.238 -165.009)" fill="#42e8e0"/><path d="M346.3,201.9l.008-3.73,3.226,1.872-.008,3.73Z" transform="translate(-346.247 -160.869)" fill="#42e8e0" opacity="0.1"/><path d="M346.289,205.215l.008-3.73,3.226,1.872-.008,3.73Z" transform="translate(-346.256 -156.728)" fill="#42e8e0" opacity="0.4"/><path d="M346.281,208.534l.008-3.73,3.226,1.872-.008,3.73Z" transform="translate(-346.265 -152.587)" fill="#42e8e0"/><path d="M346.274,211.853l.008-3.73L349.508,210l-.008,3.73Z" transform="translate(-346.274 -148.446)" fill="#42e8e0" opacity="0.1"/></g><g transform="translate(6.478 3.759)"><path d="M343.45,183.63l.008-3.73,3.226,1.872-.008,3.73Z" transform="translate(-343.32 -179.9)" fill="#42e8e0"/><path d="M343.443,186.949l.008-3.73,3.226,1.872-.008,3.73Z" transform="translate(-343.329 -175.76)" fill="#42e8e0" opacity="0.4"/><path d="M343.435,190.268l.008-3.73,3.226,1.872-.008,3.73Z" transform="translate(-343.338 -171.619)" fill="#42e8e0"/><path d="M343.428,193.587l.008-3.73,3.226,1.872-.008,3.73Z" transform="translate(-343.347 -167.478)" fill="#42e8e0"/><path d="M343.421,196.905l.008-3.73,3.226,1.872-.008,3.73Z" transform="translate(-343.356 -163.337)" fill="#42e8e0"/><path d="M343.414,200.224l.008-3.73,3.226,1.872-.008,3.73Z" transform="translate(-343.365 -159.196)" fill="#42e8e0"/><path d="M343.406,203.543l.008-3.73,3.226,1.872-.008,3.73Z" transform="translate(-343.374 -155.055)" fill="#42e8e0"/><path d="M343.4,206.862l.008-3.73L346.633,205l-.008,3.73Z" transform="translate(-343.383 -150.915)" fill="#42e8e0" opacity="0.4"/><path d="M343.392,210.18l.008-3.73,3.226,1.872-.008,3.73Z" transform="translate(-343.392 -146.774)" fill="#42e8e0"/></g><path d="M340.568,181.958l.008-3.73L343.8,180.1l-.008,3.73Z" transform="translate(-340.437 -178.228)" fill="#42e8e0"/><path d="M340.561,185.277l.008-3.73,3.226,1.872-.008,3.73Z" transform="translate(-340.446 -174.087)" fill="#42e8e0" opacity="0.1"/><path d="M340.553,188.6l.008-3.73,3.226,1.872-.008,3.73Z" transform="translate(-340.456 -169.946)" fill="#42e8e0"/><path d="M340.546,191.914l.008-3.73,3.226,1.872-.008,3.73Z" transform="translate(-340.465 -165.806)" fill="#42e8e0"/><path d="M340.539,195.233l.008-3.73,3.226,1.872-.008,3.73Z" transform="translate(-340.474 -161.665)" fill="#42e8e0"/><path d="M340.532,198.552l.008-3.73,3.226,1.872-.008,3.73Z" transform="translate(-340.483 -157.524)" fill="#42e8e0"/><path d="M340.524,201.871l.008-3.73,3.226,1.872-.008,3.73Z" transform="translate(-340.492 -153.383)" fill="#42e8e0" opacity="0.4"/><path d="M340.517,205.189l.008-3.73,3.226,1.872-.008,3.73Z" transform="translate(-340.501 -149.242)" fill="#42e8e0"/><path d="M340.51,208.508l.008-3.73,3.226,1.872-.008,3.73Z" transform="translate(-340.51 -145.101)" fill="#42e8e0"/></g></g></svg>