<svg xmlns="http://www.w3.org/2000/svg" width="48.992" height="48.991" viewBox="0 0 48.992 48.991"><g transform="translate(7.859 7.655)"><path d="M279.171,121.742l4.7-8.676h-2.347l-4.185,7.757A3.167,3.167,0,0,1,279.171,121.742Z" transform="translate(-258.656 -109.902)" fill="#e8eae9"/><path d="M317.106,259.2a7.073,7.073,0,0,1-.306,2.041l8.267,1.735v-2.041Z" transform="translate(-294.345 -242.053)" fill="#e8eae9"/><path d="M112.245,280.533l-8.778,5.307a6.319,6.319,0,0,1,.714,1.939l8.982-5.409A7.727,7.727,0,0,1,112.245,280.533Z" transform="translate(-101.426 -261.345)" fill="#e8eae9"/><path d="M246.354,322.235a3.472,3.472,0,0,1-1.021-.1v8.574h2.041v-8.574C247.068,322.133,246.66,322.235,246.354,322.235Z" transform="translate(-229.717 -298.964)" fill="#e8eae9"/><path d="M94.993,91.636,83.358,80a9.033,9.033,0,0,1-1.225,1.735L93.666,93.166A4.805,4.805,0,0,1,94.993,91.636Z" transform="translate(-82.133 -80)" fill="#e8eae9"/></g><circle cx="7.451" cy="7.451" r="7.451" transform="translate(17.045 17.045)" fill="#415a6b"/><circle cx="4.491" cy="4.491" r="4.491" transform="translate(20.005 20.005)" fill="#344a5e"/><circle cx="5.614" cy="5.614" r="5.614" transform="translate(0 0)" fill="#8ad7f8"/><circle cx="3.47" cy="3.47" r="3.47" transform="translate(2.143 2.143)" fill="#55c0eb"/><circle cx="5.614" cy="5.614" r="5.614" transform="translate(27.966 2.245)" fill="#ffd15c"/><circle cx="3.47" cy="3.47" r="3.47" transform="translate(30.109 4.389)" fill="#f7b64c"/><circle cx="5.614" cy="5.614" r="5.614" transform="translate(18.882 37.764)" fill="#ced6e0"/><circle cx="3.47" cy="3.47" r="3.47" transform="translate(21.026 39.908)" fill="#adb3ba"/><circle cx="5.614" cy="5.614" r="5.614" transform="translate(1.225 29.497)" fill="#f3705a"/><circle cx="3.47" cy="3.47" r="3.47" transform="translate(3.368 31.64)" fill="#f05540"/><circle cx="5.614" cy="5.614" r="5.614" transform="translate(37.764 22.965)" fill="#66c6b9"/><circle cx="3.47" cy="3.47" r="3.47" transform="translate(39.908 25.108)" fill="#4abaa5"/></svg>