<svg xmlns="http://www.w3.org/2000/svg" width="699.889" height="407.044" viewBox="0 0 699.889 407.044"><g transform="translate(-455.02 -508.708)"><g transform="translate(455.02 508.708)" opacity="0.28"><g transform="translate(0 104.851)"><g transform="translate(161.501)"><path d="M308.61,275.892l-10.053-5.8,10.053-5.8,10.053,5.8Z" transform="translate(-298.556 -264.284)" fill="#322bff"/><path d="M317.772,281.182l-10.053-5.8,10.053-5.8,10.053,5.8Z" transform="translate(-287.613 -257.965)" fill="#322bff" opacity="0.1"/><path d="M326.934,286.471l-10.053-5.8,10.053-5.8,10.053,5.8Z" transform="translate(-276.669 -251.647)" fill="#322bff" opacity="0.4"/><path d="M336.1,291.761l-10.053-5.8,10.053-5.8,10.053,5.8Z" transform="translate(-265.725 -245.328)" fill="#322bff"/><path d="M345.259,297.051l-10.053-5.8,10.053-5.8,10.053,5.8Z" transform="translate(-254.781 -239.01)" fill="#322bff" opacity="0.4"/><path d="M354.421,302.341l-10.053-5.8,10.053-5.8,10.053,5.8Z" transform="translate(-243.837 -232.691)" fill="#322bff"/><path d="M363.584,307.631l-10.053-5.8,10.053-5.8,10.053,5.8Z" transform="translate(-232.893 -226.373)" fill="#322bff"/><path d="M372.746,312.921l-10.053-5.8,10.053-5.8,10.053,5.8Z" transform="translate(-221.949 -220.054)" fill="#322bff"/><path d="M381.909,318.211l-10.053-5.8,10.053-5.8,10.053,5.8Z" transform="translate(-211.005 -213.736)" fill="#322bff" opacity="0.1"/></g><g transform="translate(141.314 11.655)"><path d="M299.41,281.2l-10.053-5.8,10.053-5.8,10.053,5.8Z" transform="translate(-289.357 -269.595)" fill="#322bff"/><path d="M308.572,286.493l-10.053-5.8,10.053-5.8,10.053,5.8Z" transform="translate(-278.413 -263.276)" fill="#322bff"/><path d="M317.735,291.783l-10.053-5.8,10.053-5.8,10.053,5.8Z" transform="translate(-267.469 -256.958)" fill="#322bff"/><path d="M326.9,297.073l-10.053-5.8,10.053-5.8,10.053,5.8Z" transform="translate(-256.525 -250.64)" fill="#322bff"/><path d="M336.06,302.363l-10.053-5.8,10.053-5.8,10.053,5.8Z" transform="translate(-245.581 -244.321)" fill="#322bff"/><path d="M345.222,307.653l-10.053-5.8,10.053-5.8,10.053,5.8Z" transform="translate(-234.638 -238.003)" fill="#322bff"/><path d="M354.384,312.943l-10.053-5.8,10.053-5.8,10.053,5.8Z" transform="translate(-223.694 -231.684)" fill="#322bff"/><path d="M363.547,318.233l-10.053-5.8,10.053-5.8,10.053,5.8Z" transform="translate(-212.75 -225.366)" fill="#322bff"/><path d="M372.709,323.522l-10.053-5.8,10.053-5.8,10.053,5.8Z" transform="translate(-201.806 -219.047)" fill="#322bff"/></g><g transform="translate(121.126 23.311)"><path d="M290.211,286.515l-10.053-5.8,10.053-5.8,10.053,5.8Z" transform="translate(-280.157 -274.906)" fill="#322bff"/><path d="M299.373,291.8,289.32,286l10.053-5.8,10.053,5.8Z" transform="translate(-269.214 -268.588)" fill="#322bff"/><path d="M308.535,297.094l-10.053-5.8,10.053-5.8,10.053,5.8Z" transform="translate(-258.27 -262.269)" fill="#322bff"/><path d="M317.7,302.384l-10.053-5.8,10.053-5.8,10.053,5.8Z" transform="translate(-247.326 -255.951)" fill="#322bff" opacity="0.1"/><path d="M326.86,307.674l-10.053-5.8,10.053-5.8,10.053,5.8Z" transform="translate(-236.382 -249.632)" fill="#322bff" opacity="0.4"/><path d="M336.022,312.964l-10.053-5.8,10.053-5.8,10.053,5.8Z" transform="translate(-225.438 -243.314)" fill="#322bff" opacity="0.4"/><path d="M345.185,318.254l-10.053-5.8,10.053-5.8,10.053,5.8Z" transform="translate(-214.494 -236.995)" fill="#322bff"/><path d="M354.347,323.544l-10.053-5.8,10.053-5.8,10.053,5.8Z" transform="translate(-203.55 -230.677)" fill="#322bff"/><path d="M363.51,328.834l-10.053-5.8,10.053-5.8,10.053,5.8Z" transform="translate(-192.606 -224.359)" fill="#322bff"/></g><g transform="translate(100.938 34.966)"><path d="M281.011,291.826l-10.053-5.8,10.053-5.8,10.053,5.8Z" transform="translate(-270.958 -280.217)" fill="#322bff" opacity="0.4"/><path d="M290.173,297.116l-10.053-5.8,10.053-5.8,10.053,5.8Z" transform="translate(-260.014 -273.899)" fill="#322bff" opacity="0.4"/><path d="M299.336,302.406l-10.053-5.8,10.053-5.8,10.053,5.8Z" transform="translate(-249.07 -267.581)" fill="#322bff" opacity="0.1"/><path d="M308.5,307.7l-10.053-5.8,10.053-5.8,10.053,5.8Z" transform="translate(-238.126 -261.262)" fill="#322bff"/><path d="M317.661,312.985l-10.053-5.8,10.053-5.8,10.053,5.8Z" transform="translate(-227.183 -254.944)" fill="#322bff"/><path d="M326.823,318.275l-10.053-5.8,10.053-5.8,10.053,5.8Z" transform="translate(-216.239 -248.625)" fill="#322bff"/><path d="M335.985,323.565l-10.053-5.8,10.053-5.8,10.053,5.8Z" transform="translate(-205.295 -242.307)" fill="#322bff" opacity="0.4"/><path d="M345.148,328.855l-10.053-5.8,10.053-5.8,10.053,5.8Z" transform="translate(-194.351 -235.988)" fill="#322bff"/><path d="M354.31,334.145l-10.053-5.8,10.053-5.8,10.053,5.8Z" transform="translate(-183.407 -229.67)" fill="#322bff"/></g><g transform="translate(80.751 46.621)"><path d="M271.812,297.137l-10.053-5.8,10.053-5.8,10.053,5.8Z" transform="translate(-261.759 -285.529)" fill="#322bff"/><path d="M280.974,302.427l-10.053-5.8,10.053-5.8,10.053,5.8Z" transform="translate(-250.815 -279.21)" fill="#322bff"/><path d="M290.136,307.717l-10.053-5.8,10.053-5.8,10.053,5.8Z" transform="translate(-239.871 -272.892)" fill="#322bff"/><path d="M299.3,313.007l-10.053-5.8,10.053-5.8,10.053,5.8Z" transform="translate(-228.927 -266.573)" fill="#322bff"/><path d="M308.461,318.3l-10.053-5.8,10.053-5.8,10.053,5.8Z" transform="translate(-217.983 -260.255)" fill="#322bff"/><path d="M317.624,323.587l-10.053-5.8,10.053-5.8,10.053,5.8Z" transform="translate(-207.039 -253.937)" fill="#322bff"/><path d="M326.786,328.876l-10.053-5.8,10.053-5.8,10.053,5.8Z" transform="translate(-196.095 -247.618)" fill="#322bff"/><path d="M335.948,334.166l-10.053-5.8,10.053-5.8,10.053,5.8Z" transform="translate(-185.151 -241.3)" fill="#322bff"/><path d="M345.111,339.456l-10.053-5.8,10.053-5.8,10.053,5.8Z" transform="translate(-174.208 -234.981)" fill="#322bff"/></g><g transform="translate(60.563 58.277)"><path d="M262.612,302.448l-10.053-5.8,10.053-5.8,10.053,5.8Z" transform="translate(-252.559 -290.84)" fill="#322bff"/><path d="M271.775,307.738l-10.053-5.8,10.053-5.8,10.053,5.8Z" transform="translate(-241.615 -284.522)" fill="#322bff"/><path d="M280.937,313.028l-10.053-5.8,10.053-5.8,10.053,5.8Z" transform="translate(-230.671 -278.203)" fill="#322bff" opacity="0.4"/><path d="M290.1,318.318l-10.053-5.8,10.053-5.8,10.053,5.8Z" transform="translate(-219.727 -271.885)" fill="#322bff"/><path d="M299.262,323.608l-10.053-5.8,10.053-5.8,10.053,5.8Z" transform="translate(-208.784 -265.566)" fill="#322bff" opacity="0.1"/><path d="M308.424,328.9l-10.053-5.8,10.053-5.8,10.053,5.8Z" transform="translate(-197.84 -259.248)" fill="#322bff"/><path d="M317.586,334.188l-10.053-5.8,10.053-5.8,10.053,5.8Z" transform="translate(-186.896 -252.93)" fill="#322bff"/><path d="M326.749,339.478l-10.053-5.8,10.053-5.8,10.053,5.8Z" transform="translate(-175.952 -246.611)" fill="#322bff"/><path d="M335.911,344.768l-10.053-5.8,10.053-5.8,10.053,5.8Z" transform="translate(-165.008 -240.293)" fill="#322bff"/></g><g transform="translate(40.375 69.932)"><path d="M253.413,307.76l-10.053-5.8,10.053-5.8,10.053,5.8Z" transform="translate(-243.36 -296.151)" fill="#322bff"/><path d="M262.575,313.049l-10.053-5.8,10.053-5.8,10.053,5.8Z" transform="translate(-232.416 -289.833)" fill="#322bff"/><path d="M271.737,318.339l-10.053-5.8,10.053-5.8,10.053,5.8Z" transform="translate(-221.472 -283.515)" fill="#322bff" opacity="0.4"/><path d="M280.9,323.629l-10.053-5.8,10.053-5.8,10.053,5.8Z" transform="translate(-210.528 -277.196)" fill="#322bff"/><path d="M290.062,328.919l-10.053-5.8,10.053-5.8,10.053,5.8Z" transform="translate(-199.584 -270.878)" fill="#322bff"/><path d="M299.225,334.209l-10.053-5.8,10.053-5.8,10.053,5.8Z" transform="translate(-188.64 -264.559)" fill="#322bff" opacity="0.1"/><path d="M308.387,339.5l-10.053-5.8,10.053-5.8,10.053,5.8Z" transform="translate(-177.696 -258.241)" fill="#322bff" opacity="0.4"/><path d="M317.549,344.789l-10.053-5.8,10.053-5.8,10.053,5.8Z" transform="translate(-166.752 -251.922)" fill="#322bff"/><path d="M326.712,350.079l-10.053-5.8,10.053-5.8,10.053,5.8Z" transform="translate(-155.808 -245.604)" fill="#322bff" opacity="0.1"/></g><g transform="translate(20.188 81.587)"><path d="M244.213,313.071l-10.053-5.8,10.053-5.8,10.053,5.8Z" transform="translate(-234.16 -301.463)" fill="#322bff"/><path d="M253.376,318.361l-10.053-5.8,10.053-5.8,10.053,5.8Z" transform="translate(-223.216 -295.144)" fill="#322bff" opacity="0.4"/><path d="M262.538,323.651l-10.053-5.8,10.053-5.8,10.053,5.8Z" transform="translate(-212.272 -288.826)" fill="#322bff"/><path d="M271.7,328.941l-10.053-5.8,10.053-5.8,10.053,5.8Z" transform="translate(-201.329 -282.507)" fill="#322bff"/><path d="M280.863,334.231l-10.053-5.8,10.053-5.8,10.053,5.8Z" transform="translate(-190.385 -276.189)" fill="#322bff"/><path d="M290.025,339.521l-10.053-5.8,10.053-5.8,10.053,5.8Z" transform="translate(-179.441 -269.87)" fill="#322bff"/><path d="M299.188,344.81l-10.053-5.8,10.053-5.8,10.053,5.8Z" transform="translate(-168.497 -263.552)" fill="#322bff"/><path d="M308.35,350.1,298.3,344.3l10.053-5.8,10.053,5.8Z" transform="translate(-157.553 -257.234)" fill="#322bff" opacity="0.4"/><path d="M317.512,355.39l-10.053-5.8,10.053-5.8,10.053,5.8Z" transform="translate(-146.609 -250.915)" fill="#322bff"/></g><g transform="translate(0 93.243)"><path d="M235.014,318.382l-10.053-5.8,10.053-5.8,10.053,5.8Z" transform="translate(-224.961 -306.774)" fill="#322bff"/><path d="M244.176,323.672l-10.053-5.8,10.053-5.8,10.053,5.8Z" transform="translate(-214.017 -300.456)" fill="#322bff" opacity="0.1"/><path d="M253.338,328.962l-10.053-5.8,10.053-5.8,10.053,5.8Z" transform="translate(-203.073 -294.137)" fill="#322bff"/><path d="M262.5,334.252l-10.053-5.8,10.053-5.8,10.053,5.8Z" transform="translate(-192.129 -287.819)" fill="#322bff"/><path d="M271.663,339.542l-10.053-5.8,10.053-5.8,10.053,5.8Z" transform="translate(-181.185 -281.5)" fill="#322bff"/><path d="M280.826,344.832l-10.053-5.8,10.053-5.8,10.053,5.8Z" transform="translate(-170.241 -275.182)" fill="#322bff"/><path d="M289.988,350.122l-10.053-5.8,10.053-5.8,10.053,5.8Z" transform="translate(-159.297 -268.863)" fill="#322bff" opacity="0.4"/><path d="M299.15,355.412l-10.053-5.8,10.053-5.8,10.053,5.8Z" transform="translate(-148.354 -262.545)" fill="#322bff"/><path d="M308.313,360.7l-10.053-5.8,10.053-5.8,10.053,5.8Z" transform="translate(-137.41 -256.226)" fill="#322bff"/></g></g><g transform="translate(357.432 104.851)"><g transform="translate(161.501)"><path d="M471.491,275.892l-10.053-5.8,10.053-5.8,10.053,5.8Z" transform="translate(-461.437 -264.284)" fill="#322bff"/><path d="M480.653,281.182l-10.053-5.8,10.053-5.8,10.053,5.8Z" transform="translate(-450.494 -257.965)" fill="#322bff" opacity="0.1"/><path d="M489.815,286.471l-10.053-5.8,10.053-5.8,10.053,5.8Z" transform="translate(-439.55 -251.647)" fill="#322bff" opacity="0.4"/><path d="M498.978,291.761l-10.053-5.8,10.053-5.8,10.053,5.8Z" transform="translate(-428.606 -245.328)" fill="#322bff"/><path d="M508.14,297.051l-10.053-5.8,10.053-5.8,10.053,5.8Z" transform="translate(-417.662 -239.01)" fill="#322bff" opacity="0.4"/><path d="M517.3,302.341l-10.053-5.8,10.053-5.8,10.053,5.8Z" transform="translate(-406.718 -232.691)" fill="#322bff"/><path d="M526.465,307.631l-10.053-5.8,10.053-5.8,10.053,5.8Z" transform="translate(-395.774 -226.373)" fill="#322bff"/><path d="M535.627,312.921l-10.053-5.8,10.053-5.8,10.053,5.8Z" transform="translate(-384.83 -220.054)" fill="#322bff"/><path d="M544.79,318.211l-10.053-5.8,10.053-5.8,10.053,5.8Z" transform="translate(-373.886 -213.736)" fill="#322bff" opacity="0.1"/></g><g transform="translate(141.314 11.655)"><path d="M462.291,281.2l-10.053-5.8,10.053-5.8,10.053,5.8Z" transform="translate(-452.238 -269.595)" fill="#322bff"/><path d="M471.453,286.493l-10.053-5.8,10.053-5.8,10.053,5.8Z" transform="translate(-441.294 -263.276)" fill="#322bff"/><path d="M480.616,291.783l-10.053-5.8,10.053-5.8,10.053,5.8Z" transform="translate(-430.35 -256.958)" fill="#322bff"/><path d="M489.778,297.073l-10.053-5.8,10.053-5.8,10.053,5.8Z" transform="translate(-419.406 -250.64)" fill="#322bff"/><path d="M498.941,302.363l-10.053-5.8,10.053-5.8,10.053,5.8Z" transform="translate(-408.462 -244.321)" fill="#322bff"/><path d="M508.1,307.653l-10.053-5.8,10.053-5.8,10.053,5.8Z" transform="translate(-397.518 -238.003)" fill="#322bff"/><path d="M517.265,312.943l-10.053-5.8,10.053-5.8,10.053,5.8Z" transform="translate(-386.575 -231.684)" fill="#322bff"/><path d="M526.428,318.233l-10.053-5.8,10.053-5.8,10.053,5.8Z" transform="translate(-375.631 -225.366)" fill="#322bff"/><path d="M535.59,323.522l-10.053-5.8,10.053-5.8,10.053,5.8Z" transform="translate(-364.687 -219.047)" fill="#322bff"/></g><g transform="translate(121.126 23.311)"><path d="M453.092,286.515l-10.053-5.8,10.053-5.8,10.053,5.8Z" transform="translate(-443.039 -274.906)" fill="#322bff"/><path d="M462.254,291.8,452.2,286l10.053-5.8,10.053,5.8Z" transform="translate(-432.095 -268.588)" fill="#322bff"/><path d="M471.416,297.094l-10.053-5.8,10.053-5.8,10.053,5.8Z" transform="translate(-421.151 -262.269)" fill="#322bff"/><path d="M480.579,302.384l-10.053-5.8,10.053-5.8,10.053,5.8Z" transform="translate(-410.207 -255.951)" fill="#322bff" opacity="0.1"/><path d="M489.741,307.674l-10.053-5.8,10.053-5.8,10.053,5.8Z" transform="translate(-399.263 -249.632)" fill="#322bff" opacity="0.4"/><path d="M498.9,312.964l-10.053-5.8,10.053-5.8,10.053,5.8Z" transform="translate(-388.319 -243.314)" fill="#322bff" opacity="0.4"/><path d="M508.066,318.254l-10.053-5.8,10.053-5.8,10.053,5.8Z" transform="translate(-377.375 -236.995)" fill="#322bff"/><path d="M517.228,323.544l-10.053-5.8,10.053-5.8,10.053,5.8Z" transform="translate(-366.431 -230.677)" fill="#322bff"/><path d="M526.391,328.834l-10.053-5.8,10.053-5.8,10.053,5.8Z" transform="translate(-355.488 -224.359)" fill="#322bff"/></g><g transform="translate(100.938 34.966)"><path d="M443.892,291.826l-10.053-5.8,10.053-5.8,10.053,5.8Z" transform="translate(-433.839 -280.217)" fill="#322bff" opacity="0.4"/><path d="M453.055,297.116,443,291.311l10.053-5.8,10.053,5.8Z" transform="translate(-422.895 -273.899)" fill="#322bff" opacity="0.4"/><path d="M462.217,302.406l-10.053-5.8,10.053-5.8,10.053,5.8Z" transform="translate(-411.951 -267.581)" fill="#322bff" opacity="0.1"/><path d="M471.379,307.7l-10.053-5.8,10.053-5.8,10.053,5.8Z" transform="translate(-401.007 -261.262)" fill="#322bff"/><path d="M480.542,312.985l-10.053-5.8,10.053-5.8,10.053,5.8Z" transform="translate(-390.064 -254.944)" fill="#322bff"/><path d="M489.7,318.275l-10.053-5.8,10.053-5.8,10.053,5.8Z" transform="translate(-379.12 -248.625)" fill="#322bff"/><path d="M498.867,323.565l-10.053-5.8,10.053-5.8,10.053,5.8Z" transform="translate(-368.176 -242.307)" fill="#322bff" opacity="0.4"/><path d="M508.029,328.855l-10.053-5.8,10.053-5.8,10.053,5.8Z" transform="translate(-357.232 -235.988)" fill="#322bff"/><path d="M517.191,334.145l-10.053-5.8,10.053-5.8,10.053,5.8Z" transform="translate(-346.288 -229.67)" fill="#322bff"/></g><g transform="translate(80.751 46.621)"><path d="M434.693,297.137l-10.053-5.8,10.053-5.8,10.053,5.8Z" transform="translate(-424.639 -285.529)" fill="#322bff"/><path d="M443.855,302.427l-10.053-5.8,10.053-5.8,10.053,5.8Z" transform="translate(-413.696 -279.21)" fill="#322bff"/><path d="M453.017,307.717l-10.053-5.8,10.053-5.8,10.053,5.8Z" transform="translate(-402.752 -272.892)" fill="#322bff"/><path d="M462.18,313.007l-10.053-5.8,10.053-5.8,10.053,5.8Z" transform="translate(-391.808 -266.573)" fill="#322bff"/><path d="M471.342,318.3l-10.053-5.8,10.053-5.8,10.053,5.8Z" transform="translate(-380.864 -260.255)" fill="#322bff"/><path d="M480.5,323.587l-10.053-5.8,10.053-5.8,10.053,5.8Z" transform="translate(-369.92 -253.937)" fill="#322bff"/><path d="M489.667,328.876l-10.053-5.8,10.053-5.8,10.053,5.8Z" transform="translate(-358.976 -247.618)" fill="#322bff"/><path d="M498.829,334.166l-10.053-5.8,10.053-5.8,10.053,5.8Z" transform="translate(-348.032 -241.3)" fill="#322bff"/><path d="M507.992,339.456l-10.053-5.8,10.053-5.8,10.053,5.8Z" transform="translate(-337.089 -234.981)" fill="#322bff"/></g><g transform="translate(60.563 58.277)"><path d="M425.493,302.448l-10.053-5.8,10.053-5.8,10.053,5.8Z" transform="translate(-415.44 -290.84)" fill="#322bff"/><path d="M434.656,307.738l-10.053-5.8,10.053-5.8,10.053,5.8Z" transform="translate(-404.496 -284.522)" fill="#322bff"/><path d="M443.818,313.028l-10.053-5.8,10.053-5.8,10.053,5.8Z" transform="translate(-393.552 -278.203)" fill="#322bff" opacity="0.4"/><path d="M452.98,318.318l-10.053-5.8,10.053-5.8,10.053,5.8Z" transform="translate(-382.608 -271.885)" fill="#322bff"/><path d="M462.143,323.608l-10.053-5.8,10.053-5.8,10.053,5.8Z" transform="translate(-371.664 -265.566)" fill="#322bff" opacity="0.1"/><path d="M471.305,328.9l-10.053-5.8,10.053-5.8,10.053,5.8Z" transform="translate(-360.721 -259.248)" fill="#322bff"/><path d="M480.468,334.188l-10.053-5.8,10.053-5.8,10.053,5.8Z" transform="translate(-349.777 -252.93)" fill="#322bff"/><path d="M489.63,339.478l-10.053-5.8,10.053-5.8,10.053,5.8Z" transform="translate(-338.833 -246.611)" fill="#322bff"/><path d="M498.792,344.768l-10.053-5.8,10.053-5.8,10.053,5.8Z" transform="translate(-327.889 -240.293)" fill="#322bff"/></g><g transform="translate(40.375 69.932)"><path d="M416.294,307.76l-10.053-5.8,10.053-5.8,10.053,5.8Z" transform="translate(-406.241 -296.151)" fill="#322bff"/><path d="M425.456,313.049l-10.053-5.8,10.053-5.8,10.053,5.8Z" transform="translate(-395.297 -289.833)" fill="#322bff"/><path d="M434.618,318.339l-10.053-5.8,10.053-5.8,10.053,5.8Z" transform="translate(-384.353 -283.515)" fill="#322bff" opacity="0.4"/><path d="M443.781,323.629l-10.053-5.8,10.053-5.8,10.053,5.8Z" transform="translate(-373.409 -277.196)" fill="#322bff"/><path d="M452.943,328.919l-10.053-5.8,10.053-5.8,10.053,5.8Z" transform="translate(-362.465 -270.878)" fill="#322bff"/><path d="M462.106,334.209l-10.053-5.8,10.053-5.8,10.053,5.8Z" transform="translate(-351.521 -264.559)" fill="#322bff" opacity="0.1"/><path d="M471.268,339.5l-10.053-5.8,10.053-5.8,10.053,5.8Z" transform="translate(-340.577 -258.241)" fill="#322bff" opacity="0.4"/><path d="M480.431,344.789l-10.053-5.8,10.053-5.8,10.053,5.8Z" transform="translate(-329.633 -251.922)" fill="#322bff"/><path d="M489.593,350.079l-10.053-5.8,10.053-5.8,10.053,5.8Z" transform="translate(-318.69 -245.604)" fill="#322bff" opacity="0.1"/></g><g transform="translate(20.188 81.587)"><path d="M407.094,313.071l-10.053-5.8,10.053-5.8,10.053,5.8Z" transform="translate(-397.041 -301.463)" fill="#322bff"/><path d="M416.257,318.361l-10.053-5.8,10.053-5.8,10.053,5.8Z" transform="translate(-386.097 -295.144)" fill="#322bff" opacity="0.4"/><path d="M425.419,323.651l-10.053-5.8,10.053-5.8,10.053,5.8Z" transform="translate(-375.153 -288.826)" fill="#322bff"/><path d="M434.581,328.941l-10.053-5.8,10.053-5.8,10.053,5.8Z" transform="translate(-364.209 -282.507)" fill="#322bff"/><path d="M443.744,334.231l-10.053-5.8,10.053-5.8,10.053,5.8Z" transform="translate(-353.266 -276.189)" fill="#322bff"/><path d="M452.906,339.521l-10.053-5.8,10.053-5.8,10.053,5.8Z" transform="translate(-342.322 -269.87)" fill="#322bff"/><path d="M462.069,344.81l-10.053-5.8,10.053-5.8,10.053,5.8Z" transform="translate(-331.378 -263.552)" fill="#322bff"/><path d="M471.231,350.1l-10.053-5.8,10.053-5.8,10.053,5.8Z" transform="translate(-320.434 -257.234)" fill="#322bff" opacity="0.4"/><path d="M480.393,355.39l-10.053-5.8,10.053-5.8,10.053,5.8Z" transform="translate(-309.49 -250.915)" fill="#322bff"/></g><g transform="translate(0 93.243)"><path d="M397.895,318.382l-10.053-5.8,10.053-5.8,10.053,5.8Z" transform="translate(-387.842 -306.774)" fill="#322bff"/><path d="M407.057,323.672,397,317.868l10.053-5.8,10.053,5.8Z" transform="translate(-376.898 -300.456)" fill="#322bff" opacity="0.1"/><path d="M416.22,328.962l-10.053-5.8,10.053-5.8,10.053,5.8Z" transform="translate(-365.954 -294.137)" fill="#322bff"/><path d="M425.382,334.252l-10.053-5.8,10.053-5.8,10.053,5.8Z" transform="translate(-355.01 -287.819)" fill="#322bff"/><path d="M434.544,339.542l-10.053-5.8,10.053-5.8,10.053,5.8Z" transform="translate(-344.066 -281.5)" fill="#322bff"/><path d="M443.707,344.832l-10.053-5.8,10.053-5.8,10.053,5.8Z" transform="translate(-333.122 -275.182)" fill="#322bff"/><path d="M452.869,350.122l-10.053-5.8,10.053-5.8,10.053,5.8Z" transform="translate(-322.178 -268.863)" fill="#322bff" opacity="0.4"/><path d="M462.031,355.412l-10.053-5.8,10.053-5.8,10.053,5.8Z" transform="translate(-311.234 -262.545)" fill="#322bff"/><path d="M471.194,360.7l-10.053-5.8,10.053-5.8,10.053,5.8Z" transform="translate(-300.291 -256.226)" fill="#322bff"/></g></g><g transform="translate(179.155 0)"><g transform="translate(161.501)"><path d="M390.25,228.111l-10.053-5.8,10.053-5.8,10.053,5.8Z" transform="translate(-380.197 -216.503)" fill="#322bff"/><path d="M399.412,233.4l-10.053-5.8,10.053-5.8,10.053,5.8Z" transform="translate(-369.253 -210.185)" fill="#322bff" opacity="0.1"/><path d="M408.575,238.691l-10.053-5.8,10.053-5.8,10.053,5.8Z" transform="translate(-358.309 -203.866)" fill="#322bff" opacity="0.4"/><path d="M417.737,243.981l-10.053-5.8,10.053-5.8,10.053,5.8Z" transform="translate(-347.365 -197.548)" fill="#322bff"/><path d="M426.9,249.271l-10.053-5.8,10.053-5.8,10.053,5.8Z" transform="translate(-336.421 -191.229)" fill="#322bff" opacity="0.4"/><path d="M436.062,254.561l-10.053-5.8,10.053-5.8,10.053,5.8Z" transform="translate(-325.478 -184.911)" fill="#322bff"/><path d="M445.224,259.851l-10.053-5.8,10.053-5.8,10.053,5.8Z" transform="translate(-314.534 -178.592)" fill="#322bff"/><path d="M454.387,265.141l-10.053-5.8,10.053-5.8,10.053,5.8Z" transform="translate(-303.59 -172.274)" fill="#322bff"/><path d="M463.549,270.431l-10.053-5.8,10.053-5.8,10.053,5.8Z" transform="translate(-292.646 -165.955)" fill="#322bff" opacity="0.1"/></g><g transform="translate(141.314 11.655)"><path d="M381.051,233.423,371,227.618l10.053-5.8,10.053,5.8Z" transform="translate(-370.997 -221.814)" fill="#322bff"/><path d="M390.213,238.713l-10.053-5.8,10.053-5.8,10.053,5.8Z" transform="translate(-360.054 -215.496)" fill="#322bff"/><path d="M399.375,244l-10.053-5.8,10.053-5.8,10.053,5.8Z" transform="translate(-349.11 -209.177)" fill="#322bff"/><path d="M408.538,249.292l-10.053-5.8,10.053-5.8,10.053,5.8Z" transform="translate(-338.166 -202.859)" fill="#322bff"/><path d="M417.7,254.582l-10.053-5.8,10.053-5.8,10.053,5.8Z" transform="translate(-327.222 -196.541)" fill="#322bff"/><path d="M426.863,259.872l-10.053-5.8,10.053-5.8,10.053,5.8Z" transform="translate(-316.278 -190.222)" fill="#322bff"/><path d="M436.025,265.162l-10.053-5.8,10.053-5.8,10.053,5.8Z" transform="translate(-305.334 -183.904)" fill="#322bff"/><path d="M445.187,270.452l-10.053-5.8,10.053-5.8,10.053,5.8Z" transform="translate(-294.39 -177.585)" fill="#322bff"/><path d="M454.35,275.742l-10.053-5.8,10.053-5.8,10.053,5.8Z" transform="translate(-283.446 -171.267)" fill="#322bff"/></g><g transform="translate(121.126 23.311)"><path d="M371.851,238.734l-10.053-5.8,10.053-5.8,10.053,5.8Z" transform="translate(-361.798 -227.126)" fill="#322bff"/><path d="M381.013,244.024l-10.053-5.8,10.053-5.8,10.053,5.8Z" transform="translate(-350.854 -220.807)" fill="#322bff"/><path d="M390.176,249.314l-10.053-5.8,10.053-5.8,10.053,5.8Z" transform="translate(-339.91 -214.489)" fill="#322bff"/><path d="M399.338,254.6l-10.053-5.8,10.053-5.8,10.053,5.8Z" transform="translate(-328.966 -208.17)" fill="#322bff" opacity="0.1"/><path d="M408.5,259.894l-10.053-5.8,10.053-5.8,10.053,5.8Z" transform="translate(-318.022 -201.852)" fill="#322bff" opacity="0.4"/><path d="M417.663,265.183l-10.053-5.8,10.053-5.8,10.053,5.8Z" transform="translate(-307.078 -195.534)" fill="#322bff" opacity="0.4"/><path d="M426.825,270.473l-10.053-5.8,10.053-5.8,10.053,5.8Z" transform="translate(-296.134 -189.215)" fill="#322bff"/><path d="M435.988,275.763l-10.053-5.8,10.053-5.8,10.053,5.8Z" transform="translate(-285.191 -182.897)" fill="#322bff"/><path d="M445.15,281.053l-10.053-5.8,10.053-5.8,10.053,5.8Z" transform="translate(-274.247 -176.578)" fill="#322bff"/></g><g transform="translate(100.938 34.966)"><path d="M362.652,244.045l-10.053-5.8,10.053-5.8,10.053,5.8Z" transform="translate(-352.599 -232.437)" fill="#322bff" opacity="0.4"/><path d="M371.814,249.335l-10.053-5.8,10.053-5.8,10.053,5.8Z" transform="translate(-341.655 -226.119)" fill="#322bff" opacity="0.4"/><path d="M380.976,254.625l-10.053-5.8,10.053-5.8,10.053,5.8Z" transform="translate(-330.711 -219.8)" fill="#322bff" opacity="0.1"/><path d="M390.139,259.915l-10.053-5.8,10.053-5.8,10.053,5.8Z" transform="translate(-319.767 -213.482)" fill="#322bff"/><path d="M399.3,265.2l-10.053-5.8,10.053-5.8,10.053,5.8Z" transform="translate(-308.823 -207.163)" fill="#322bff"/><path d="M408.464,270.495l-10.053-5.8,10.053-5.8,10.053,5.8Z" transform="translate(-297.879 -200.845)" fill="#322bff"/><path d="M417.626,275.785l-10.053-5.8,10.053-5.8,10.053,5.8Z" transform="translate(-286.935 -194.526)" fill="#322bff" opacity="0.4"/><path d="M426.788,281.075l-10.053-5.8,10.053-5.8,10.053,5.8Z" transform="translate(-275.991 -188.208)" fill="#322bff"/><path d="M435.951,286.365l-10.053-5.8,10.053-5.8,10.053,5.8Z" transform="translate(-265.047 -181.889)" fill="#322bff"/></g><g transform="translate(80.751 46.621)"><path d="M353.452,249.357l-10.053-5.8,10.053-5.8,10.053,5.8Z" transform="translate(-343.399 -237.748)" fill="#322bff"/><path d="M362.615,254.646l-10.053-5.8,10.053-5.8,10.053,5.8Z" transform="translate(-332.455 -231.43)" fill="#322bff"/><path d="M371.777,259.936l-10.053-5.8,10.053-5.8,10.053,5.8Z" transform="translate(-321.511 -225.111)" fill="#322bff"/><path d="M380.939,265.226l-10.053-5.8,10.053-5.8,10.053,5.8Z" transform="translate(-310.567 -218.793)" fill="#322bff"/><path d="M390.1,270.516l-10.053-5.8,10.053-5.8,10.053,5.8Z" transform="translate(-299.624 -212.475)" fill="#322bff"/><path d="M399.264,275.806,389.211,270l10.053-5.8,10.053,5.8Z" transform="translate(-288.68 -206.156)" fill="#322bff"/><path d="M408.426,281.1l-10.053-5.8,10.053-5.8,10.053,5.8Z" transform="translate(-277.736 -199.838)" fill="#322bff"/><path d="M417.589,286.386l-10.053-5.8,10.053-5.8,10.053,5.8Z" transform="translate(-266.792 -193.519)" fill="#322bff"/><path d="M426.751,291.676l-10.053-5.8,10.053-5.8,10.053,5.8Z" transform="translate(-255.848 -187.201)" fill="#322bff"/></g><g transform="translate(60.563 58.277)"><path d="M344.253,254.668l-10.053-5.8,10.053-5.8,10.053,5.8Z" transform="translate(-334.2 -243.06)" fill="#322bff"/><path d="M353.415,259.958l-10.053-5.8,10.053-5.8,10.053,5.8Z" transform="translate(-323.256 -236.741)" fill="#322bff"/><path d="M362.577,265.248l-10.053-5.8,10.053-5.8,10.053,5.8Z" transform="translate(-312.312 -230.423)" fill="#322bff" opacity="0.4"/><path d="M371.74,270.538l-10.053-5.8,10.053-5.8,10.053,5.8Z" transform="translate(-301.368 -224.104)" fill="#322bff"/><path d="M380.9,275.828l-10.053-5.8,10.053-5.8,10.053,5.8Z" transform="translate(-290.424 -217.786)" fill="#322bff" opacity="0.1"/><path d="M390.065,281.117l-10.053-5.8,10.053-5.8,10.053,5.8Z" transform="translate(-279.48 -211.467)" fill="#322bff"/><path d="M399.227,286.407l-10.053-5.8,10.053-5.8,10.053,5.8Z" transform="translate(-268.536 -205.149)" fill="#322bff"/><path d="M408.389,291.7l-10.053-5.8,10.053-5.8,10.053,5.8Z" transform="translate(-257.592 -198.83)" fill="#322bff"/><path d="M417.552,296.987l-10.053-5.8,10.053-5.8,10.053,5.8Z" transform="translate(-246.648 -192.512)" fill="#322bff"/></g><g transform="translate(40.375 69.932)"><path d="M335.053,259.979,325,254.175l10.053-5.8,10.053,5.8Z" transform="translate(-325 -248.371)" fill="#322bff"/><path d="M344.216,265.269l-10.053-5.8,10.053-5.8,10.053,5.8Z" transform="translate(-314.056 -242.053)" fill="#322bff"/><path d="M353.378,270.559l-10.053-5.8,10.053-5.8,10.053,5.8Z" transform="translate(-303.112 -235.734)" fill="#322bff" opacity="0.4"/><path d="M362.54,275.849l-10.053-5.8,10.053-5.8,10.053,5.8Z" transform="translate(-292.168 -229.416)" fill="#322bff"/><path d="M371.7,281.139l-10.053-5.8,10.053-5.8,10.053,5.8Z" transform="translate(-281.224 -223.097)" fill="#322bff"/><path d="M380.865,286.429l-10.053-5.8,10.053-5.8,10.053,5.8Z" transform="translate(-270.28 -216.779)" fill="#322bff" opacity="0.1"/><path d="M390.028,291.719l-10.053-5.8,10.053-5.8,10.053,5.8Z" transform="translate(-259.337 -210.46)" fill="#322bff" opacity="0.4"/><path d="M399.19,297.009l-10.053-5.8,10.053-5.8,10.053,5.8Z" transform="translate(-248.393 -204.142)" fill="#322bff"/><path d="M408.352,302.3l-10.053-5.8,10.053-5.8,10.053,5.8Z" transform="translate(-237.449 -197.823)" fill="#322bff" opacity="0.1"/></g><g transform="translate(20.188 81.588)"><path d="M325.854,265.29l-10.053-5.8,10.053-5.8,10.053,5.8Z" transform="translate(-315.801 -253.682)" fill="#322bff"/><path d="M335.016,270.58l-10.053-5.8,10.053-5.8,10.053,5.8Z" transform="translate(-304.857 -247.364)" fill="#322bff" opacity="0.4"/><path d="M344.178,275.87l-10.053-5.8,10.053-5.8,10.053,5.8Z" transform="translate(-293.913 -241.046)" fill="#322bff"/><path d="M353.341,281.16l-10.053-5.8,10.053-5.8,10.053,5.8Z" transform="translate(-282.969 -234.727)" fill="#322bff"/><path d="M362.5,286.45l-10.053-5.8,10.053-5.8,10.053,5.8Z" transform="translate(-272.025 -228.409)" fill="#322bff"/><path d="M371.666,291.74l-10.053-5.8,10.053-5.8,10.053,5.8Z" transform="translate(-261.081 -222.09)" fill="#322bff"/><path d="M380.828,297.03l-10.053-5.8,10.053-5.8,10.053,5.8Z" transform="translate(-250.137 -215.772)" fill="#322bff"/><path d="M389.99,302.32l-10.053-5.8,10.053-5.8,10.053,5.8Z" transform="translate(-239.193 -209.453)" fill="#322bff" opacity="0.4"/><path d="M399.153,307.61l-10.053-5.8,10.053-5.8,10.053,5.8Z" transform="translate(-228.25 -203.135)" fill="#322bff"/></g><g transform="translate(0 93.243)"><path d="M316.654,270.6,306.6,264.8l10.053-5.8,10.053,5.8Z" transform="translate(-306.601 -258.994)" fill="#322bff"/><path d="M325.817,275.892l-10.053-5.8,10.053-5.8,10.053,5.8Z" transform="translate(-295.657 -252.675)" fill="#322bff" opacity="0.1"/><path d="M334.979,281.182l-10.053-5.8,10.053-5.8,10.053,5.8Z" transform="translate(-284.713 -246.357)" fill="#322bff"/><path d="M344.141,286.471l-10.053-5.8,10.053-5.8,10.053,5.8Z" transform="translate(-273.769 -240.038)" fill="#322bff"/><path d="M353.3,291.761l-10.053-5.8,10.053-5.8,10.053,5.8Z" transform="translate(-262.826 -233.72)" fill="#322bff"/><path d="M362.466,297.051l-10.053-5.8,10.053-5.8,10.053,5.8Z" transform="translate(-251.882 -227.401)" fill="#322bff"/><path d="M371.629,302.341l-10.053-5.8,10.053-5.8,10.053,5.8Z" transform="translate(-240.938 -221.083)" fill="#322bff" opacity="0.4"/><path d="M380.791,307.631l-10.053-5.8,10.053-5.8,10.053,5.8Z" transform="translate(-229.994 -214.765)" fill="#322bff"/><path d="M389.953,312.921l-10.053-5.8,10.053-5.8,10.053,5.8Z" transform="translate(-219.05 -208.446)" fill="#322bff"/></g></g><g transform="translate(179.155 209.326)"><g transform="translate(161.501)"><path d="M390.25,323.5,380.2,317.7l10.053-5.8,10.053,5.8Z" transform="translate(-380.197 -311.893)" fill="#322bff"/><path d="M399.412,328.791l-10.053-5.8,10.053-5.8,10.053,5.8Z" transform="translate(-369.253 -305.574)" fill="#322bff" opacity="0.1"/><path d="M408.575,334.081l-10.053-5.8,10.053-5.8,10.053,5.8Z" transform="translate(-358.309 -299.256)" fill="#322bff" opacity="0.4"/><path d="M417.737,339.371l-10.053-5.8,10.053-5.8,10.053,5.8Z" transform="translate(-347.365 -292.937)" fill="#322bff"/><path d="M426.9,344.66l-10.053-5.8,10.053-5.8,10.053,5.8Z" transform="translate(-336.421 -286.619)" fill="#322bff" opacity="0.4"/><path d="M436.062,349.95l-10.053-5.8,10.053-5.8,10.053,5.8Z" transform="translate(-325.478 -280.3)" fill="#322bff"/><path d="M445.224,355.24l-10.053-5.8,10.053-5.8,10.053,5.8Z" transform="translate(-314.534 -273.982)" fill="#322bff"/><path d="M454.387,360.53l-10.053-5.8,10.053-5.8,10.053,5.8Z" transform="translate(-303.59 -267.664)" fill="#322bff"/><path d="M463.549,365.82l-10.053-5.8,10.053-5.8,10.053,5.8Z" transform="translate(-292.646 -261.345)" fill="#322bff" opacity="0.1"/></g><g transform="translate(141.314 11.655)"><path d="M381.051,328.812,371,323.008l10.053-5.8,10.053,5.8Z" transform="translate(-370.997 -317.204)" fill="#322bff"/><path d="M390.213,334.1l-10.053-5.8,10.053-5.8,10.053,5.8Z" transform="translate(-360.054 -310.885)" fill="#322bff"/><path d="M399.375,339.392l-10.053-5.8,10.053-5.8,10.053,5.8Z" transform="translate(-349.11 -304.567)" fill="#322bff"/><path d="M408.538,344.682l-10.053-5.8,10.053-5.8,10.053,5.8Z" transform="translate(-338.166 -298.249)" fill="#322bff"/><path d="M417.7,349.972l-10.053-5.8,10.053-5.8,10.053,5.8Z" transform="translate(-327.222 -291.93)" fill="#322bff"/><path d="M426.863,355.262l-10.053-5.8,10.053-5.8,10.053,5.8Z" transform="translate(-316.278 -285.612)" fill="#322bff"/><path d="M436.025,360.551l-10.053-5.8,10.053-5.8,10.053,5.8Z" transform="translate(-305.334 -279.293)" fill="#322bff"/><path d="M445.187,365.841l-10.053-5.8,10.053-5.8,10.053,5.8Z" transform="translate(-294.39 -272.975)" fill="#322bff"/><path d="M454.35,371.132l-10.053-5.8,10.053-5.8,10.053,5.8Z" transform="translate(-283.446 -266.656)" fill="#322bff"/></g><g transform="translate(121.126 23.311)"><path d="M371.851,334.123l-10.053-5.8,10.053-5.8,10.053,5.8Z" transform="translate(-361.798 -322.515)" fill="#322bff"/><path d="M381.013,339.413l-10.053-5.8,10.053-5.8,10.053,5.8Z" transform="translate(-350.854 -316.197)" fill="#322bff"/><path d="M390.176,344.7l-10.053-5.8,10.053-5.8,10.053,5.8Z" transform="translate(-339.91 -309.878)" fill="#322bff"/><path d="M399.338,349.993l-10.053-5.8,10.053-5.8,10.053,5.8Z" transform="translate(-328.966 -303.56)" fill="#322bff" opacity="0.1"/><path d="M408.5,355.283l-10.053-5.8,10.053-5.8,10.053,5.8Z" transform="translate(-318.022 -297.242)" fill="#322bff" opacity="0.4"/><path d="M417.663,360.573l-10.053-5.8,10.053-5.8,10.053,5.8Z" transform="translate(-307.078 -290.923)" fill="#322bff" opacity="0.4"/><path d="M426.825,365.863l-10.053-5.8,10.053-5.8,10.053,5.8Z" transform="translate(-296.134 -284.605)" fill="#322bff"/><path d="M435.988,371.153l-10.053-5.8,10.053-5.8,10.053,5.8Z" transform="translate(-285.191 -278.286)" fill="#322bff"/><path d="M445.15,376.443l-10.053-5.8,10.053-5.8,10.053,5.8Z" transform="translate(-274.247 -271.968)" fill="#322bff"/></g><g transform="translate(100.938 34.966)"><path d="M362.652,339.435l-10.053-5.8,10.053-5.8,10.053,5.8Z" transform="translate(-352.599 -327.827)" fill="#322bff" opacity="0.4"/><path d="M371.814,344.725l-10.053-5.8,10.053-5.8,10.053,5.8Z" transform="translate(-341.655 -321.508)" fill="#322bff" opacity="0.4"/><path d="M380.976,350.015l-10.053-5.8,10.053-5.8,10.053,5.8Z" transform="translate(-330.711 -315.19)" fill="#322bff" opacity="0.1"/><path d="M390.139,355.3l-10.053-5.8,10.053-5.8,10.053,5.8Z" transform="translate(-319.767 -308.871)" fill="#322bff"/><path d="M399.3,360.594l-10.053-5.8,10.053-5.8,10.053,5.8Z" transform="translate(-308.823 -302.553)" fill="#322bff"/><path d="M408.464,365.884l-10.053-5.8,10.053-5.8,10.053,5.8Z" transform="translate(-297.879 -296.234)" fill="#322bff"/><path d="M417.626,371.174l-10.053-5.8,10.053-5.8,10.053,5.8Z" transform="translate(-286.935 -289.916)" fill="#322bff" opacity="0.4"/><path d="M426.788,376.464l-10.053-5.8,10.053-5.8,10.053,5.8Z" transform="translate(-275.991 -283.597)" fill="#322bff"/><path d="M435.951,381.754l-10.053-5.8,10.053-5.8L446,375.95Z" transform="translate(-265.047 -277.279)" fill="#322bff"/></g><g transform="translate(80.751 46.621)"><path d="M353.452,344.746l-10.053-5.8,10.053-5.8,10.053,5.8Z" transform="translate(-343.399 -333.138)" fill="#322bff"/><path d="M362.615,350.036l-10.053-5.8,10.053-5.8,10.053,5.8Z" transform="translate(-332.455 -326.819)" fill="#322bff"/><path d="M371.777,355.326l-10.053-5.8,10.053-5.8,10.053,5.8Z" transform="translate(-321.511 -320.501)" fill="#322bff"/><path d="M380.939,360.616l-10.053-5.8,10.053-5.8,10.053,5.8Z" transform="translate(-310.567 -314.182)" fill="#322bff"/><path d="M390.1,365.906l-10.053-5.8,10.053-5.8,10.053,5.8Z" transform="translate(-299.624 -307.864)" fill="#322bff"/><path d="M399.264,371.2l-10.053-5.8,10.053-5.8,10.053,5.8Z" transform="translate(-288.68 -301.546)" fill="#322bff"/><path d="M408.426,376.486l-10.053-5.8,10.053-5.8,10.053,5.8Z" transform="translate(-277.736 -295.227)" fill="#322bff"/><path d="M417.589,381.775l-10.053-5.8,10.053-5.8,10.053,5.8Z" transform="translate(-266.792 -288.909)" fill="#322bff"/><path d="M426.751,387.065l-10.053-5.8,10.053-5.8,10.053,5.8Z" transform="translate(-255.848 -282.59)" fill="#322bff"/></g><g transform="translate(60.563 58.277)"><path d="M344.253,350.057l-10.053-5.8,10.053-5.8,10.053,5.8Z" transform="translate(-334.2 -338.449)" fill="#322bff"/><path d="M353.415,355.347l-10.053-5.8,10.053-5.8,10.053,5.8Z" transform="translate(-323.256 -332.131)" fill="#322bff"/><path d="M362.577,360.637l-10.053-5.8,10.053-5.8,10.053,5.8Z" transform="translate(-312.312 -325.812)" fill="#322bff" opacity="0.4"/><path d="M371.74,365.927l-10.053-5.8,10.053-5.8,10.053,5.8Z" transform="translate(-301.368 -319.494)" fill="#322bff"/><path d="M380.9,371.217l-10.053-5.8,10.053-5.8,10.053,5.8Z" transform="translate(-290.424 -313.176)" fill="#322bff" opacity="0.1"/><path d="M390.065,376.507l-10.053-5.8,10.053-5.8,10.053,5.8Z" transform="translate(-279.48 -306.857)" fill="#322bff"/><path d="M399.227,381.8l-10.053-5.8,10.053-5.8,10.053,5.8Z" transform="translate(-268.536 -300.539)" fill="#322bff"/><path d="M408.389,387.087l-10.053-5.8,10.053-5.8,10.053,5.8Z" transform="translate(-257.592 -294.22)" fill="#322bff"/><path d="M417.552,392.377l-10.053-5.8,10.053-5.8,10.053,5.8Z" transform="translate(-246.648 -287.902)" fill="#322bff"/></g><g transform="translate(40.375 69.932)"><path d="M335.053,355.369,325,349.565l10.053-5.8,10.053,5.8Z" transform="translate(-325 -343.761)" fill="#322bff"/><path d="M344.216,360.659l-10.053-5.8,10.053-5.8,10.053,5.8Z" transform="translate(-314.056 -337.442)" fill="#322bff"/><path d="M353.378,365.948l-10.053-5.8,10.053-5.8,10.053,5.8Z" transform="translate(-303.112 -331.124)" fill="#322bff" opacity="0.4"/><path d="M362.54,371.238l-10.053-5.8,10.053-5.8,10.053,5.8Z" transform="translate(-292.168 -324.805)" fill="#322bff"/><path d="M371.7,376.528l-10.053-5.8,10.053-5.8,10.053,5.8Z" transform="translate(-281.224 -318.487)" fill="#322bff"/><path d="M380.865,381.818l-10.053-5.8,10.053-5.8,10.053,5.8Z" transform="translate(-270.28 -312.168)" fill="#322bff" opacity="0.1"/><path d="M390.028,387.108l-10.053-5.8,10.053-5.8,10.053,5.8Z" transform="translate(-259.337 -305.85)" fill="#322bff" opacity="0.4"/><path d="M399.19,392.4l-10.053-5.8,10.053-5.8,10.053,5.8Z" transform="translate(-248.393 -299.531)" fill="#322bff"/><path d="M408.352,397.688l-10.053-5.8,10.053-5.8,10.053,5.8Z" transform="translate(-237.449 -293.213)" fill="#322bff" opacity="0.1"/></g><g transform="translate(20.188 81.587)"><path d="M325.854,360.68l-10.053-5.8,10.053-5.8,10.053,5.8Z" transform="translate(-315.801 -349.072)" fill="#322bff"/><path d="M335.016,365.97l-10.053-5.8,10.053-5.8,10.053,5.8Z" transform="translate(-304.857 -342.753)" fill="#322bff" opacity="0.4"/><path d="M344.178,371.26l-10.053-5.8,10.053-5.8,10.053,5.8Z" transform="translate(-293.913 -336.435)" fill="#322bff"/><path d="M353.341,376.55l-10.053-5.8,10.053-5.8,10.053,5.8Z" transform="translate(-282.969 -330.117)" fill="#322bff"/><path d="M362.5,381.84l-10.053-5.8,10.053-5.8,10.053,5.8Z" transform="translate(-272.025 -323.798)" fill="#322bff"/><path d="M371.666,387.13l-10.053-5.8,10.053-5.8,10.053,5.8Z" transform="translate(-261.081 -317.48)" fill="#322bff"/><path d="M380.828,392.42l-10.053-5.8,10.053-5.8,10.053,5.8Z" transform="translate(-250.137 -311.161)" fill="#322bff"/><path d="M389.99,397.71l-10.053-5.8,10.053-5.8,10.053,5.8Z" transform="translate(-239.193 -304.843)" fill="#322bff" opacity="0.4"/><path d="M399.153,403,389.1,397.2l10.053-5.8,10.053,5.8Z" transform="translate(-228.25 -298.524)" fill="#322bff"/></g><g transform="translate(0 93.243)"><path d="M316.654,365.991l-10.053-5.8,10.053-5.8,10.053,5.8Z" transform="translate(-306.601 -354.383)" fill="#322bff"/><path d="M325.817,371.281l-10.053-5.8,10.053-5.8,10.053,5.8Z" transform="translate(-295.657 -348.065)" fill="#322bff" opacity="0.1"/><path d="M334.979,376.571l-10.053-5.8,10.053-5.8,10.053,5.8Z" transform="translate(-284.713 -341.746)" fill="#322bff"/><path d="M344.141,381.861l-10.053-5.8,10.053-5.8,10.053,5.8Z" transform="translate(-273.769 -335.428)" fill="#322bff"/><path d="M353.3,387.151l-10.053-5.8,10.053-5.8,10.053,5.8Z" transform="translate(-262.826 -329.109)" fill="#322bff"/><path d="M362.466,392.441l-10.053-5.8,10.053-5.8,10.053,5.8Z" transform="translate(-251.882 -322.791)" fill="#322bff"/><path d="M371.629,397.731l-10.053-5.8,10.053-5.8,10.053,5.8Z" transform="translate(-240.938 -316.472)" fill="#322bff" opacity="0.4"/><path d="M380.791,403.021l-10.053-5.8,10.053-5.8,10.053,5.8Z" transform="translate(-229.994 -310.154)" fill="#322bff"/><path d="M389.953,408.311l-10.053-5.8,10.053-5.8,10.053,5.8Z" transform="translate(-219.05 -303.835)" fill="#322bff"/></g></g></g><g transform="translate(717.823 662.836)"><g transform="translate(0 0)"><g opacity="0.2"><path d="M438.6,288.53a13.365,13.365,0,0,0-13.351-.009L345.66,334.363a1.88,1.88,0,0,0,0,3.257l80.248,46.331a11.782,11.782,0,0,0,11.782,0l80.371-46.287a1.881,1.881,0,0,0,0-3.257Z" transform="translate(-344.72 -286.739)" fill="#160a5b"/></g><g transform="translate(26.128 14.737)" opacity="0.5"><path d="M422.123,294.645a8.9,8.9,0,0,0-8.883,0l-55.956,32.232a1.316,1.316,0,0,0,0,2.28l56.186,32.438a8.247,8.247,0,0,0,8.251,0L478,329.183a1.318,1.318,0,0,0,0-2.28Z" transform="translate(-356.626 -293.454)" fill="#42e8e0"/></g><path d="M357.275,328.894l55.956-32.232a8.9,8.9,0,0,1,8.883,0l55.872,32.258c.055.033.077.09.127.129a1.3,1.3,0,0,0-.127-2.151l-55.872-32.258a8.89,8.89,0,0,0-8.883,0l-55.956,32.232a1.294,1.294,0,0,0-.127,2.151C357.2,328.984,357.218,328.927,357.275,328.894Z" transform="translate(-330.489 -278.718)" fill="#42e8e0"/></g></g></g></svg>