<svg xmlns="http://www.w3.org/2000/svg" width="72" height="72" viewBox="0 0 72 72"><g transform="translate(5.116 1.717)"><circle cx="36" cy="36" r="36" transform="translate(-5.116 -1.717)" fill="#fcfcfc"/><path d="M55.943,104.894a.724.724,0,1,1,.041,0h-.041Zm-2.877-.108a.743.743,0,0,1-.085,0h0a.715.715,0,0,1,.147-1.423l.022,0a.716.716,0,0,1-.082,1.426Zm5.748-.221a.716.716,0,0,1-.137-1.418l.013,0a.716.716,0,0,1,.269,1.406h-.005A.734.734,0,0,1,58.813,104.566Zm-8.587-.324a.727.727,0,0,1-.189-.025h0a.716.716,0,0,1,.366-1.384l.015,0a.716.716,0,0,1-.188,1.406ZM61.6,103.8a.716.716,0,0,1-.245-1.388l.012,0a.715.715,0,1,1,.484,1.347l-.006,0A.717.717,0,0,1,61.6,103.8Zm-14.1-.536a.706.706,0,0,1-.292-.063l-.01,0a.711.711,0,1,1,.3.068Zm16.736-.646a.723.723,0,1,1,.352-.093l-.016.009A.713.713,0,0,1,64.237,102.619Zm6.5-6.4,0,0-.076-.054ZM37.707,93.1a.717.717,0,0,1-.663-.446l0-.005a.715.715,0,0,1,1.322-.546l.005.013a.716.716,0,0,1-.662.985Zm35.516-1.373a.721.721,0,1,1,.688-.518l-.009.028A.716.716,0,0,1,73.223,91.731ZM36.832,90.349a.716.716,0,0,1-.7-.549l0-.009a.716.716,0,1,1,1.392-.332l0,.009a.717.717,0,0,1-.7.882Zm37.049-1.433a.707.707,0,0,1-.125-.011.72.72,0,1,1,.834-.61l0,.03A.716.716,0,0,1,73.881,88.917ZM36.39,87.492a.715.715,0,0,1-.712-.652l0-.03a.716.716,0,1,1,.776.679ZM74.1,86.035a.715.715,0,0,1-.716-.715v-.052a.715.715,0,1,1,1.431,0v.009c0,.005,0,.01,0,.015s0,.012,0,.019v.009A.715.715,0,0,1,74.1,86.035ZM36.388,84.6l-.063,0a.72.72,0,1,1,.777-.68l0,.03A.715.715,0,0,1,36.388,84.6Zm37.487-1.492a.715.715,0,0,1-.7-.591l-.005-.03A.716.716,0,1,1,74,83.1.7.7,0,0,1,73.875,83.111Zm.12-.743-.121.018Zm-37.173-.621a.721.721,0,1,1,.7-.579l-.007.029A.715.715,0,0,1,36.822,81.746Zm36.4-1.445a.721.721,0,0,1-.682-.493l-.008-.025a.715.715,0,0,1,1.368-.421h0a.712.712,0,0,1-.454.9A.7.7,0,0,1,73.219,80.3ZM37.69,78.987A.716.716,0,0,1,37.027,78l0-.009a.715.715,0,1,1,1.326.538l0,.009a.716.716,0,0,1-.663.446Zm34.444-1.367a.72.72,0,0,1-.64-.39l-.011-.021a.716.716,0,0,1,1.284-.632h0a.715.715,0,0,1-.634,1.041ZM38.971,76.4a.722.722,0,1,1,.628-.371l-.017.028a.714.714,0,0,1-.611.343Zm31.677-1.257A.72.72,0,1,1,71.224,74l.015.022a.715.715,0,0,1-.591,1.117ZM40.634,74.03a.715.715,0,0,1-.55-1.173l.006-.007a.716.716,0,1,1,1.1.914l-.006.007A.713.713,0,0,1,40.634,74.03ZM68.8,72.912a.718.718,0,1,1,.5-1.223l.012.012a.715.715,0,0,1-.516,1.211Zm-26.168-.968a.715.715,0,0,1-.475-1.251l0,0a.716.716,0,0,1,.957,1.064l-.012.01a.714.714,0,0,1-.474.179Zm24.008-.953a.712.712,0,0,1-.422-.138l-.024-.018a.716.716,0,1,1,.446.157Zm.064-.813-.072.092Zm-21.777.01a.723.723,0,1,1,.409-.129l-.025.017a.711.711,0,0,1-.384.112Zm19.284-.767a.71.71,0,0,1-.334-.084l-.017-.009a.715.715,0,0,1,.689-1.254h0a.716.716,0,0,1-.34,1.346ZM47.466,68.8a.716.716,0,0,1-.3-1.367l.017-.007a.715.715,0,1,1,.279,1.375Zm0,0" transform="translate(-25.191 -51.04)" fill="#a7c7d3"/><path d="M192.72,177.912,181.947,167.14a1.725,1.725,0,1,1,2.439-2.439l-2.774-2.774a1.724,1.724,0,0,1,2.275-2.582l-1.056-1.056a1.725,1.725,0,0,1-.507-1.222,1.617,1.617,0,0,1,.023-.28,1.725,1.725,0,0,1,2.923-.938l1.209,1.209a1.725,1.725,0,0,1-.484-1.5,1.707,1.707,0,0,1,.483-.945,1.727,1.727,0,0,1,2.441,0l7,7,.02-.028a3.155,3.155,0,0,1,4.465,0l3.264,3.264a3.349,3.349,0,0,1,.981,2.364l0,2.042a3.6,3.6,0,0,0,1.057,2.546l.728.728-8.326,8.326-.93-.93a3.607,3.607,0,0,0-2.314-1.048,3.347,3.347,0,0,1-2.148-.974Zm0,0" transform="translate(-157.158 -129.752)" fill="#fecbaa"/><path d="M356.616,353.959l9.451-9.451a.8.8,0,0,1,1.127,0l3.365,3.366a.8.8,0,0,1,0,1.128l-9.45,9.451a.8.8,0,0,1-1.128,0l-3.366-3.366A.8.8,0,0,1,356.616,353.959Zm0,0" transform="translate(-316.203 -302.304)" fill="#fdd559"/><path d="M461.618,380.651a.714.714,0,1,0,0-1.011A.715.715,0,0,0,461.618,380.651Zm0,0" transform="translate(-411.503 -334.205)" fill="#ff8812"/><path d="M343.5,229.9l-2.411-2.41.02-.028a3.138,3.138,0,0,1,1.219-.757l2.184,2.184A.715.715,0,0,1,343.5,229.9Zm0,0" transform="translate(-302.33 -195.62)" fill="#ffae85"/><path d="M71.061,177.921l10.773-10.773a1.725,1.725,0,1,0-2.439-2.44l2.774-2.774a1.724,1.724,0,0,0-2.275-2.582l1.056-1.056a1.723,1.723,0,0,0,.507-1.222,1.617,1.617,0,0,0-.023-.281,1.725,1.725,0,0,0-2.923-.938L77.3,157.067a1.725,1.725,0,1,0-2.439-2.439l-7,7-.02-.027a3.155,3.155,0,0,0-4.465,0l-3.264,3.265a3.349,3.349,0,0,0-.981,2.364l0,2.042a3.6,3.6,0,0,1-1.056,2.546l-.728.728,8.326,8.326.93-.93a3.607,3.607,0,0,1,2.314-1.048,3.347,3.347,0,0,0,2.148-.974Zm0,0" transform="translate(-44.855 -129.759)" fill="#fecbaa"/><path d="M14.178,353.969l-9.45-9.45a.8.8,0,0,0-1.128,0L.235,347.885a.8.8,0,0,0,0,1.128l9.45,9.45a.8.8,0,0,0,1.128,0l3.366-3.365a.8.8,0,0,0,0-1.128Zm0,0" transform="translate(7.177 -302.314)" fill="#ff84a7"/><path d="M106.312,450.59a.714.714,0,1,0-1.011,0A.715.715,0,0,0,106.312,450.59Zm0,0" transform="translate(-88.183 -397.667)" fill="#ef6085"/><path d="M132.909,229.911l2.41-2.411-.02-.027a3.138,3.138,0,0,0-1.219-.757L131.9,228.9a.716.716,0,0,0,1.012,1.012Zm0,0" transform="translate(-112.315 -195.631)" fill="#ffae85"/><path d="M164.086,74.518V89.753a1.725,1.725,0,1,1-3.45,0v3.923a1.722,1.722,0,0,1-.5,1.221,1.722,1.722,0,0,1-2.219.187,1.724,1.724,0,0,1-.71-1.192v1.493a1.725,1.725,0,0,1-.506,1.222,1.636,1.636,0,0,1-.215.182,1.726,1.726,0,0,1-2.731-1.4v-1.71a1.725,1.725,0,1,1-3.45,0v-9.9l-.033.006a3.154,3.154,0,0,1-3.155-3.16V76a3.35,3.35,0,0,1,.978-2.365l1.443-1.445a3.6,3.6,0,0,0,1.053-2.547V68.618h11.774v1.316a3.608,3.608,0,0,0,.895,2.377,3.347,3.347,0,0,1,.83,2.208Zm0,0" transform="translate(-126.312 -52.174)" fill="#fedfc5"/><path d="M156.7,164.706a1.727,1.727,0,0,0-2.442,0l2.774-2.774a1.724,1.724,0,0,0-2.275-2.582l1.056-1.056a1.724,1.724,0,0,0,.506-1.222,1.623,1.623,0,0,0-.023-.281,1.726,1.726,0,0,0-2.924-.938l-1.209,1.209a1.725,1.725,0,1,0-2.439-2.439l-7,7-.02-.027a3.138,3.138,0,0,0-1.219-.757,3.171,3.171,0,0,0-1.638-.1,4.621,4.621,0,0,0,2.431,1.838v8.681a3.159,3.159,0,0,0,3.772,3.1,3.165,3.165,0,0,0,1.83,1.606l8.818-8.818a1.725,1.725,0,0,0,0-2.441Zm0,0" transform="translate(-119.716 -129.758)" fill="#ffae85"/><path d="M196.354,167.33v-6.093a3.2,3.2,0,0,0-.421.354l-.02.028-7-7a1.727,1.727,0,0,0-2.441,0,1.707,1.707,0,0,0-.483.945,1.725,1.725,0,0,0,.484,1.5l-1.209-1.209a1.724,1.724,0,0,0-2.924.938,1.656,1.656,0,0,0-.023.28,1.725,1.725,0,0,0,.507,1.222l1.056,1.056a1.722,1.722,0,0,0-2.76,1.086,1.7,1.7,0,0,0-.022.276,1.72,1.72,0,0,0,.506,1.22l2.774,2.774a1.725,1.725,0,1,0-2.439,2.439l7.217,7.216a3.169,3.169,0,0,0,.593.056,3.128,3.128,0,0,0,1.847-.6,3.191,3.191,0,0,0,.386-.328,3.136,3.136,0,0,0,.924-2.233v-.778c.1.009.2.013.294.013a3.161,3.161,0,0,0,3.156-3.159Zm0,0" transform="translate(-157.15 -129.751)" fill="#ffae85"/><path d="M164.086,74.518V89.753a1.725,1.725,0,0,1-1.725,1.728c-.026,0-.054,0-.081,0a1.707,1.707,0,0,1-.926-.324h0a1.724,1.724,0,0,1-.715-1.4v3.923a1.722,1.722,0,0,1-.5,1.221,1.722,1.722,0,0,1-2.219.187,1.724,1.724,0,0,1-.71-1.192v1.493a1.725,1.725,0,0,1-.506,1.222,1.632,1.632,0,0,1-.214.182,1.726,1.726,0,0,1-2.731-1.4v-1.71a1.725,1.725,0,1,1-3.45,0v-9.9l-.033.006a3.154,3.154,0,0,1-3.155-3.16V76a3.35,3.35,0,0,1,.978-2.365l1.443-1.445a3.615,3.615,0,0,0,1.053-2.547V68.618h11.774v1.316a3.269,3.269,0,0,0,.114.89,3.587,3.587,0,0,0,.781,1.487,3.374,3.374,0,0,1,.83,2.208Zm0,0" transform="translate(-126.312 -52.174)" fill="#fedfc5"/><path d="M196.543,74.518V89.753a1.725,1.725,0,0,1-1.725,1.728c-.026,0-.054,0-.081,0a1.707,1.707,0,0,1-.926-.324l.029-14.68a2.245,2.245,0,0,0-.057-.407,6.636,6.636,0,0,0-6.638-5.355h-4.263a3.591,3.591,0,0,0,.161-1.065V68.618h11.774v1.316a3.268,3.268,0,0,0,.114.89,3.587,3.587,0,0,0,.781,1.487,3.374,3.374,0,0,1,.83,2.208Zm0,0" transform="translate(-158.769 -52.174)" fill="#fecbaa"/><path d="M181.264,6.354H167.9a.8.8,0,0,1-.8-.8V.8a.8.8,0,0,1,.8-.8h13.365a.8.8,0,0,1,.8.8v4.76A.8.8,0,0,1,181.264,6.354Zm0,0" transform="translate(-144.45 10.09)" fill="#83d9ff"/><path d="M193.89,27.3a.714.714,0,1,0-.714.715A.715.715,0,0,0,193.89,27.3Zm0,0" transform="translate(-167.461 -14.034)" fill="#5186ff"/><g transform="translate(22.558 27.477)"><path d="M286.853,203.747v9.373a1.724,1.724,0,0,1-.716-1.4v3.923a1.72,1.72,0,0,1-.5,1.221,1.674,1.674,0,0,1-.211.179v-13.3a.716.716,0,0,1,1.431,0Zm0,0" transform="translate(-274.372 -201.617)" fill="#fecbaa"/><path d="M249.716,203.747v13.3a1.724,1.724,0,0,1-.711-1.192v1.493a1.724,1.724,0,0,1-.506,1.222,1.637,1.637,0,0,1-.215.182V203.747a.715.715,0,1,1,1.431,0Zm0,0" transform="translate(-240.674 -201.617)" fill="#fecbaa"/><path d="M212.5,203.747v15.006a1.724,1.724,0,0,1-.715-1.4v-1.71a1.725,1.725,0,0,1-.715,1.4v-13.3a.715.715,0,1,1,1.431,0Zm0,0" transform="translate(-206.905 -201.617)" fill="#fecbaa"/><path d="M167.525,188.477v3.409l-.034.005a3.139,3.139,0,0,1-1.4-.326v-3.088a.715.715,0,1,1,1.431,0Zm0,0" transform="translate(-166.094 -187.761)" fill="#fecbaa"/></g></g></svg>