<svg xmlns="http://www.w3.org/2000/svg" width="72" height="72" viewBox="0 0 72 72"><g transform="translate(13.864 15.765)"><circle cx="36" cy="36" r="36" transform="translate(-13.864 -15.765)" fill="#fcfcfc"/><path d="M302.346,0H309.7a3.679,3.679,0,0,1,3.679,3.679V7.358a3.679,3.679,0,0,1-3.679,3.679h-7.358a3.679,3.679,0,0,1-3.679-3.679V3.679A3.679,3.679,0,0,1,302.346,0Z" transform="translate(-272.913)" fill="#f2edf9"/><path d="M3.679,85.337h7.359a3.679,3.679,0,0,1,3.679,3.679v18.4a3.679,3.679,0,0,1-3.679,3.679H3.679A3.679,3.679,0,0,1,0,107.412v-18.4A3.679,3.679,0,0,1,3.679,85.337Z" transform="translate(0 -77.978)" fill="#f2edf9"/><path d="M52.785,128a.92.92,0,0,0-.92.92h0V146.4a1.84,1.84,0,0,1-1.84,1.84H43.587a.92.92,0,0,0,0,1.84h6.438A3.679,3.679,0,0,0,53.7,146.4V128.92a.92.92,0,0,0-.92-.92Z" transform="translate(-38.988 -116.963)" fill="#ddd0ef"/><path d="M302.346,341.337H309.7a3.679,3.679,0,0,1,3.679,3.679V348.7a3.679,3.679,0,0,1-3.679,3.679h-7.358a3.679,3.679,0,0,1-3.679-3.679v-3.679A3.679,3.679,0,0,1,302.346,341.337Z" transform="translate(-272.913 -311.904)" fill="#f2edf9"/><g transform="translate(29.433 3.679)"><path d="M351.451,42.667a.92.92,0,0,0-.92.92h0v2.759a1.84,1.84,0,0,1-1.84,1.84h-6.439a.92.92,0,0,0,0,1.84h6.439a3.679,3.679,0,0,0,3.679-3.679V43.587a.92.92,0,0,0-.92-.92Z" transform="translate(-341.333 -42.667)" fill="#ddd0ef"/><path d="M351.451,384a.92.92,0,0,0-.92.92h0v2.759a1.84,1.84,0,0,1-1.84,1.84h-6.439a.92.92,0,0,0,0,1.84h6.439a3.679,3.679,0,0,0,3.679-3.679V384.92a.92.92,0,0,0-.92-.92Z" transform="translate(-341.333 -354.567)" fill="#ddd0ef"/></g><g transform="translate(1.84 9.198)"><path d="M23.174,106.667a1.84,1.84,0,0,1,1.84,1.84h0a1.84,1.84,0,0,1-3.679,0h0a1.84,1.84,0,0,1,1.84-1.84Z" transform="translate(-21.334 -106.667)" fill="#5628b4"/><path d="M86.257,106.667h3.679a.92.92,0,0,1,.92.92h0a.92.92,0,0,1-.92.92H86.257a.92.92,0,0,1-.92-.92h0A.92.92,0,0,1,86.257,106.667Z" transform="translate(-79.818 -106.667)" fill="#5628b4"/><path d="M22.254,298.667h3.679a.92.92,0,0,1,.92.92h0a.92.92,0,0,1-.92.92H22.254a.92.92,0,0,1-.92-.92h0A.92.92,0,0,1,22.254,298.667Z" transform="translate(-21.334 -282.111)" fill="#5628b4"/><path d="M107.587,298.667h1.84a.92.92,0,0,1,.92.92h0a.92.92,0,0,1-.92.92h-1.84a.92.92,0,0,1-.92-.92h0A.92.92,0,0,1,107.587,298.667Z" transform="translate(-99.309 -282.111)" fill="#5628b4"/><path d="M86.257,341.337h3.679a.92.92,0,0,1,.92.92h0a.92.92,0,0,1-.92.92H86.257a.92.92,0,0,1-.92-.92h0A.92.92,0,0,1,86.257,341.337Z" transform="translate(-79.818 -321.102)" fill="#5628b4"/><path d="M23.174,170.667h7.358a1.84,1.84,0,0,1,1.84,1.84v5.519a1.84,1.84,0,0,1-1.84,1.84H23.174a1.84,1.84,0,0,1-1.84-1.84v-5.519A1.84,1.84,0,0,1,23.174,170.667Z" transform="translate(-21.334 -165.148)" fill="#5628b4"/><path d="M302.346,170.667H309.7a3.679,3.679,0,0,1,3.679,3.679v3.679A3.679,3.679,0,0,1,309.7,181.7h-7.358a3.679,3.679,0,0,1-3.679-3.679v-3.679A3.679,3.679,0,0,1,302.346,170.667Z" transform="translate(-274.753 -165.148)" fill="#5628b4"/></g><g transform="translate(5.518 5.518)"><path d="M128.917,106.667h7.358a.92.92,0,0,1,.92.92h0a.92.92,0,0,1-.92.92h-7.358a.92.92,0,0,1-.92-.92h0A.92.92,0,0,1,128.917,106.667Z" transform="translate(-122.478 -102.988)" fill="#f7b236"/><path d="M214.257,64h0a.92.92,0,0,1,.92.92V68.6a.92.92,0,0,1-.92.92h0a.92.92,0,0,1-.92-.92V64.917A.92.92,0,0,1,214.257,64Z" transform="translate(-200.459 -63.997)" fill="#f7b236"/><path d="M214.257,64h3.679a.92.92,0,0,1,.92.92h0a.92.92,0,0,1-.92.92h-3.679a.92.92,0,0,1-.92-.92h0A.92.92,0,0,1,214.257,64Z" transform="translate(-200.459 -63.997)" fill="#f7b236"/><path d="M64.917,213.337H81.473a.92.92,0,0,1,.92.92h0a.92.92,0,0,1-.92.92H64.917a.92.92,0,0,1-.92-.92h0A.92.92,0,0,1,64.917,213.337Z" transform="translate(-63.997 -200.459)" fill="#f7b236"/></g><g transform="translate(5.518 9.198)"><path d="M64.917,213.337h8.278a.92.92,0,0,1,.92.92h0a.92.92,0,0,1-.92.92H64.917a.92.92,0,0,1-.92-.92h0A.92.92,0,0,1,64.917,213.337Z" transform="translate(-63.997 -204.139)" fill="#f58f00"/><path d="M128.917,106.667h4.6a.92.92,0,0,1,.92.92h0a.92.92,0,0,1-.92.92h-4.6a.92.92,0,0,1-.92-.92h0A.92.92,0,0,1,128.917,106.667Z" transform="translate(-122.478 -106.667)" fill="#f58f00"/></g><g transform="translate(11.037 29.433)"><path d="M214.257,341.337h0a.92.92,0,0,1,.92.92v3.679a.92.92,0,0,1-.92.92h0a.92.92,0,0,1-.92-.92v-3.679A.92.92,0,0,1,214.257,341.337Z" transform="translate(-205.978 -341.337)" fill="#f7b236"/><path d="M214.257,384h3.679a.92.92,0,0,1,.92.92h0a.92.92,0,0,1-.92.92h-3.679a.92.92,0,0,1-.92-.92h0A.92.92,0,0,1,214.257,384Z" transform="translate(-205.978 -380.318)" fill="#f7b236"/><path d="M128.917,341.337h7.358a.92.92,0,0,1,.92.92h0a.92.92,0,0,1-.92.92h-7.358a.92.92,0,0,1-.92-.92h0A.92.92,0,0,1,128.917,341.337Z" transform="translate(-127.997 -341.337)" fill="#f7b236"/></g><path d="M128.917,341.337h5.518a.92.92,0,0,1,.92.92h0a.92.92,0,0,1-.92.92h-5.518a.92.92,0,0,1-.92-.92h0A.92.92,0,0,1,128.917,341.337Z" transform="translate(-116.96 -311.904)" fill="#f58f00"/><g transform="translate(27.593 1.84)"><path d="M321.837,21.334h1.84a1.84,1.84,0,0,1,1.84,1.84v3.679a1.84,1.84,0,0,1-1.84,1.84h-1.84a1.84,1.84,0,0,1-1.84-1.84V23.174A1.84,1.84,0,0,1,321.837,21.334Z" transform="translate(-319.997 -21.334)" fill="#5628b4"/><path d="M406.257,21.334h1.84a.92.92,0,0,1,.92.92h0a.92.92,0,0,1-.92.92h-1.84a.92.92,0,0,1-.92-.92h0A.92.92,0,0,1,406.257,21.334Z" transform="translate(-397.978 -21.334)" fill="#5628b4"/><path d="M406.253,65.84a.92.92,0,0,1-.92-.92h0a.92.92,0,1,1,1.84,0h0a.92.92,0,0,1-.92.92Z" transform="translate(-397.975 -60.321)" fill="#5628b4"/><path d="M320.917,362.667H324.6a.92.92,0,0,1,.92.92h0a.92.92,0,0,1-.92.92h-3.679a.92.92,0,0,1-.92-.92h0A.92.92,0,0,1,320.917,362.667Z" transform="translate(-319.997 -333.234)" fill="#5628b4"/><path d="M320.917,405.337h5.518a.92.92,0,0,1,.92.92h0a.92.92,0,0,1-.92.92h-5.518a.92.92,0,0,1-.92-.92h0A.92.92,0,0,1,320.917,405.337Z" transform="translate(-319.997 -372.225)" fill="#5628b4"/><path d="M406.257,362.667h1.84a.92.92,0,0,1,.92.92h0a.92.92,0,0,1-.92.92h-1.84a.92.92,0,0,1-.92-.92h0A.92.92,0,0,1,406.257,362.667Z" transform="translate(-397.978 -333.234)" fill="#5628b4"/></g><path d="M320.917,256h9.2a.92.92,0,0,1,.92.92h0a.92.92,0,0,1-.92.92h-9.2a.92.92,0,0,1-.92-.92h0A.92.92,0,0,1,320.917,256Z" transform="translate(-292.404 -233.923)" fill="#f2edf9"/><circle cx="0.92" cy="0.92" r="0.92" transform="translate(29.433 22.075)" fill="#e7455f"/><path d="M362.667,192v3.679l3.679-1.84Z" transform="translate(-331.394 -175.444)" fill="#f7b236"/><path d="M351.451,213.334a.92.92,0,0,0-.92.92h0v2.759a1.84,1.84,0,0,1-1.84,1.84h-6.439a.92.92,0,0,0,0,1.84h6.439a3.679,3.679,0,0,0,3.679-3.679v-2.759a.92.92,0,0,0-.92-.92Z" transform="translate(-311.9 -194.938)" fill="#3a0499"/></g></svg>