<svg id="facebook" xmlns="http://www.w3.org/2000/svg" width="12.802" height="22.556" viewBox="0 0 12.802 22.556">
  <path id="facebook-2" data-name="facebook" d="M8.408,22.555H4.8A1.1,1.1,0,0,1,3.7,21.461V13.314H1.594A1.1,1.1,0,0,1,.5,12.22V8.729A1.1,1.1,0,0,1,1.594,7.634H3.7V5.886A5.952,5.952,0,0,1,5.275,1.622,5.669,5.669,0,0,1,9.455,0L12.21,0A1.1,1.1,0,0,1,13.3,1.1V4.34a1.1,1.1,0,0,1-1.094,1.094H10.354c-.566,0-.71.113-.74.148-.051.058-.111.221-.111.671V7.634h2.567a1.112,1.112,0,0,1,.541.137,1.1,1.1,0,0,1,.563.957V12.22a1.1,1.1,0,0,1-1.094,1.094H9.5v8.147a1.1,1.1,0,0,1-1.094,1.094ZM5.024,21.233H8.18V12.722a.731.731,0,0,1,.73-.73h2.94V8.957H8.91a.731.731,0,0,1-.73-.73V6.253a2.252,2.252,0,0,1,.442-1.546,2.241,2.241,0,0,1,1.731-.6H11.98V1.326l-2.526,0c-2.732,0-4.43,1.749-4.43,4.564v2.34a.731.731,0,0,1-.73.73H1.822v3.035H4.294a.731.731,0,0,1,.73.73ZM12.207,1.326h0Zm0,0" transform="translate(-0.5 0)" fill="#001f60"/>
</svg>
