<svg id="instagram" xmlns="http://www.w3.org/2000/svg" width="22.75" height="22.75" viewBox="0 0 22.75 22.75">
  <g id="instagram-2" data-name="instagram" transform="translate(0 0)">
    <path id="Path_8" data-name="Path 8" d="M16.591,0H6.157A6.165,6.165,0,0,0,0,6.158V16.592A6.165,6.165,0,0,0,6.157,22.75H16.591a6.165,6.165,0,0,0,6.158-6.158V6.158A6.165,6.165,0,0,0,16.591,0Zm4.825,16.592a4.83,4.83,0,0,1-4.825,4.824H6.157a4.83,4.83,0,0,1-4.825-4.824V6.158A4.83,4.83,0,0,1,6.157,1.334H16.591a4.83,4.83,0,0,1,4.824,4.825Zm0,0" transform="translate(0.001 0)" fill="#001f60"/>
    <path id="Path_9" data-name="Path 9" d="M122.225,116a6.221,6.221,0,1,0,6.221,6.221A6.228,6.228,0,0,0,122.225,116Zm0,11.107a4.887,4.887,0,1,1,4.887-4.887A4.892,4.892,0,0,1,122.225,127.111Zm0,0" transform="translate(-110.849 -110.849)" fill="#001f60"/>
    <path id="Path_10" data-name="Path 10" d="M359.815,66.285a1.838,1.838,0,1,0,1.838,1.838A1.84,1.84,0,0,0,359.815,66.285Zm0,2.342a.5.5,0,1,1,.5-.5A.505.505,0,0,1,359.815,68.628Zm0,0" transform="translate(-342.071 -63.34)" fill="#001f60"/>
  </g>
</svg>
