<svg id="linkedin" xmlns="http://www.w3.org/2000/svg" width="19.674" height="22.084" viewBox="0 0 19.674 22.084">
  <g id="linkedin-2" data-name="linkedin" transform="translate(0 0)">
    <path id="Path_11" data-name="Path 11" d="M4.979,151.625H1.256a.758.758,0,0,0-.757.757v14.03a.758.758,0,0,0,.757.757H4.979a.758.758,0,0,0,.757-.757v-14.03A.758.758,0,0,0,4.979,151.625ZM4.44,165.873H1.8V152.921H4.44Zm0,0" transform="translate(-0.478 -145.085)" fill="#001f60"/>
    <path id="Path_12" data-name="Path 12" d="M2.64,0A2.64,2.64,0,1,0,5.28,2.64,2.643,2.643,0,0,0,2.64,0Zm0,3.984A1.344,1.344,0,1,1,3.984,2.64,1.345,1.345,0,0,1,2.64,3.984Zm0,0" fill="#001f60"/>
    <path id="Path_13" data-name="Path 13" d="M168.356,153.274a4.83,4.83,0,0,0-3.185-1.119,4.882,4.882,0,0,0-2.068.5v-.306a.723.723,0,0,0-.723-.723H158.59a.723.723,0,0,0-.723.723v14.1a.723.723,0,0,0,.723.723h3.865a.648.648,0,0,0,.648-.648V158.12a1.341,1.341,0,0,1,1.282-1.35,1.324,1.324,0,0,1,1.362,1.322v8.447a.634.634,0,0,0,.634.634H170.1a.634.634,0,0,0,.634-.634v-8.19a6.594,6.594,0,0,0-2.376-5.074Zm1.08,12.6h-2.392v-7.786a2.618,2.618,0,0,0-5.236,0v7.786h-2.645V152.925h2.645v.942h0a.647.647,0,0,0,1.077.485,3.59,3.59,0,0,1,2.31-.9,3.531,3.531,0,0,1,2.33.818,5.3,5.3,0,0,1,1.91,4.08Zm0,0" transform="translate(-151.058 -145.089)" fill="#001f60"/>
  </g>
</svg>
