<svg xmlns="http://www.w3.org/2000/svg" width="54.56" height="56.514" viewBox="0 0 54.56 56.514">
  <g id="branding" transform="translate(0)">
    <path id="Path_157" data-name="Path 157" d="M107.89,106.927h-36.1a1.656,1.656,0,0,1-1.656-1.656V58.324a1.656,1.656,0,0,1,1.656-1.656h36.1a1.656,1.656,0,0,1,1.656,1.656v46.948A1.656,1.656,0,0,1,107.89,106.927Zm0,0" transform="translate(-62.391 -50.413)" fill="#ffded5"/>
    <path id="Path_158" data-name="Path 158" d="M107.867,56.668H105.63v46.6a1.678,1.678,0,0,1-1.678,1.678H70.132v.3a1.678,1.678,0,0,0,1.678,1.678h36.057a1.678,1.678,0,0,0,1.678-1.678v-46.9a1.678,1.678,0,0,0-1.678-1.678Zm0,0" transform="translate(-62.391 -50.413)" fill="#f7c6ba"/>
    <path id="Path_159" data-name="Path 159" d="M126.6,31.763H120.73V28.374a1.753,1.753,0,0,1,1.752-1.753h2.37a1.752,1.752,0,0,1,1.752,1.753Zm0,0" transform="translate(-107.404 -23.683)" fill="#1dc2ff"/>
    <path id="Path_160" data-name="Path 160" d="M332.031,31.763h-5.875V28.374a1.752,1.752,0,0,1,1.752-1.753h2.37a1.753,1.753,0,0,1,1.752,1.753Zm0,0" transform="translate(-290.155 -23.683)" fill="#1dc2ff"/>
    <path id="Path_161" data-name="Path 161" d="M140.581,5.178a.839.839,0,0,1-.839-.839V.839a.839.839,0,1,1,1.678,0v3.5A.839.839,0,0,1,140.581,5.178Zm0,0" transform="translate(-124.318)" fill="#00a2ff"/>
    <path id="Path_162" data-name="Path 162" d="M346,5.178a.839.839,0,0,1-.839-.839V.839a.839.839,0,1,1,1.678,0v3.5A.839.839,0,0,1,346,5.178Zm0,0" transform="translate(-307.065)" fill="#00a2ff"/>
    <path id="Path_163" data-name="Path 163" d="M332.034,115.078h-12.5a1.656,1.656,0,0,1-1.656-1.656v-5.516a1.656,1.656,0,0,1,1.656-1.656h12.5a1.656,1.656,0,0,1,1.656,1.656v5.516A1.656,1.656,0,0,1,332.034,115.078Zm0,0" transform="translate(-282.788 -94.523)" fill="#1dc2ff"/>
    <path id="Path_164" data-name="Path 164" d="M428.514,106.25h-2.163a1.678,1.678,0,0,1,1.678,1.678V113.4a1.678,1.678,0,0,1-1.678,1.678h2.163a1.678,1.678,0,0,0,1.678-1.678v-5.472A1.678,1.678,0,0,0,428.514,106.25Zm0,0" transform="translate(-379.291 -94.522)" fill="#00a2ff"/>
    <path id="Path_165" data-name="Path 165" d="M32.522,214.4H5.212L.439,212.958a.743.743,0,0,1-.008-1.35l4.781-1.495h27.31a2.146,2.146,0,1,1,0,4.291Zm0,0" transform="translate(-0.001 -186.921)" fill="#1dc2ff"/>
    <path id="Path_166" data-name="Path 166" d="M32.791,210.2c0,.042.006.083.006.125a2.146,2.146,0,0,1-2.146,2.146H.078a.732.732,0,0,0,.429.564l4.773,1.446H32.591a2.145,2.145,0,0,0,.2-4.281Zm0,0" transform="translate(-0.069 -187.001)" fill="#00a2ff"/>
    <path id="Path_167" data-name="Path 167" d="M121.063,138.7H103.831a.839.839,0,1,1,0-1.678h17.232a.839.839,0,1,1,0,1.678Zm0,0" transform="translate(-91.624 -121.899)" fill="#32e4ff"/>
    <path id="Path_168" data-name="Path 168" d="M115.472,167.08H103.83a.839.839,0,0,1,0-1.678h11.642a.839.839,0,0,1,0,1.678Zm0,0" transform="translate(-91.623 -147.145)" fill="#32e4ff"/>
    <path id="Path_169" data-name="Path 169" d="M6.129,210.113H5.213L.432,211.607a.743.743,0,0,0,.008,1.351L5.213,214.4h.917v-4.291Zm0,0" transform="translate(-0.002 -186.921)" fill="#ffded5"/>
    <path id="Path_170" data-name="Path 170" d="M.094,230.848a.73.73,0,0,0,.427.557l4.773,1.446H6.21v-2Zm0,0" transform="translate(-0.083 -205.367)" fill="#f7cdc4"/>
    <path id="Path_171" data-name="Path 171" d="M3.542,214.84l-3.112.973a.743.743,0,0,0,.008,1.351l3.1.94Zm0,0" transform="translate(0 -191.126)" fill="#00a2ff"/>
    <path id="Path_172" data-name="Path 172" d="M104.724,295.362a4.186,4.186,0,1,1-4.187-4.187A4.187,4.187,0,0,1,104.724,295.362Zm0,0" transform="translate(-85.716 -259.036)" fill="#1dc2ff"/>
    <path id="Path_173" data-name="Path 173" d="M226.978,311.229h-29.65a1.656,1.656,0,0,1-1.656-1.656V293.011a1.656,1.656,0,0,1,1.656-1.656h29.65a1.656,1.656,0,0,1,1.656,1.656v16.562A1.656,1.656,0,0,1,226.978,311.229Zm0,0" transform="translate(-174.074 -259.195)" fill="#1dc2ff"/>
    <path id="Path_174" data-name="Path 174" d="M232.024,331.444l-16-16.8-16,16.8a1.673,1.673,0,0,0,1.2.5h29.605a1.674,1.674,0,0,0,1.2-.5Zm0,0" transform="translate(-177.944 -279.915)" fill="#00a2ff"/>
    <path id="Path_175" data-name="Path 175" d="M230.827,291.355h-.912v15.481a1.678,1.678,0,0,1-1.678,1.678H202.13l-2.106,2.211.054.051.05.046.058.047.057.043.058.04c.036.024.073.047.112.068h0c.044.025.091.047.138.068l.007,0h0c.044.019.09.035.136.05l.02.007c.043.013.087.024.131.034l.028.007h0c.043.009.086.015.13.02h.005l.033,0a1.639,1.639,0,0,0,.173.009h29.605a1.678,1.678,0,0,0,1.678-1.678V293.033a1.678,1.678,0,0,0-1.678-1.678Zm0,0" transform="translate(-177.945 -259.195)" fill="#00a2ff"/>
    <path id="Path_176" data-name="Path 176" d="M231.038,445.429c.044-.006.088-.012.13-.02l.031-.008c.044-.01.088-.021.131-.035l.019-.007c.047-.015.092-.032.137-.051l.009,0a1.688,1.688,0,0,0,.529-.364l-2.588-2.717a1.672,1.672,0,0,1-1.2.506H202.13l-2.106,2.211a1.7,1.7,0,0,0,.389.3c.045.025.092.047.139.068a1.689,1.689,0,0,0,.67.14h29.605a1.633,1.633,0,0,0,.173-.009l.038-.006Zm0,0" transform="translate(-177.945 -393.41)" fill="#08f"/>
    <g id="Group_24" data-name="Group 24" transform="translate(10.635 32.14)">
      <path id="Path_177" data-name="Path 177" d="M216.976,302.227l15.883-10.477a1.669,1.669,0,0,0-1.08-.395H202.173a1.669,1.669,0,0,0-1.08.395Zm0,0" transform="translate(-189.532 -291.335)" fill="#32e4ff"/>
      <path id="Path_178" data-name="Path 178" d="M96.352,295.362a4.169,4.169,0,0,0,.411,1.811,4.188,4.188,0,0,0,5.586-5.587,4.188,4.188,0,0,0-6,3.776Zm0,0" transform="translate(-96.352 -291.175)" fill="#32e4ff"/>
    </g>
  </g>
</svg>
