<svg xmlns="http://www.w3.org/2000/svg" width="44.57" height="53.433" viewBox="0 0 44.57 53.433">
  <g id="briefing" transform="translate(0.001)">
    <path id="Path_102" data-name="Path 102" d="M34.628,90.451H1.774A1.774,1.774,0,0,1,0,88.677V43.106a1.774,1.774,0,0,1,1.774-1.774H34.628A1.774,1.774,0,0,1,36.4,43.106V88.677A1.774,1.774,0,0,1,34.628,90.451Zm0,0" transform="translate(-0.001 -37.019)" fill="#ffded5"/>
    <path id="Path_103" data-name="Path 103" d="M34.555,41.332H32.621v43.4a1.846,1.846,0,0,1-1.846,1.846H0V88.6a1.846,1.846,0,0,0,1.846,1.846H34.555A1.846,1.846,0,0,0,36.4,88.6V43.178a1.846,1.846,0,0,0-1.846-1.846Zm0,0" transform="translate(0 -37.019)" fill="#f7c6ba"/>
    <path id="Path_104" data-name="Path 104" d="M118.582,7.494H106.22a1.044,1.044,0,0,1-1.044-1.044V2.5a2.5,2.5,0,0,1,2.5-2.5h9.44a2.5,2.5,0,0,1,2.5,2.5V6.45A1.044,1.044,0,0,1,118.582,7.494Zm0,0" transform="translate(-94.2 0)" fill="#ff6914"/>
    <path id="Path_105" data-name="Path 105" d="M117.018,0h-.665a2.614,2.614,0,0,1,.083.656v3.8a1.086,1.086,0,0,1-1.086,1.086H105.175v.865a1.086,1.086,0,0,0,1.086,1.086h12.277a1.086,1.086,0,0,0,1.086-1.086v-3.8A2.607,2.607,0,0,0,117.018,0Zm0,0" transform="translate(-94.2)" fill="#ed500a"/>
    <path id="Path_106" data-name="Path 106" d="M249.925,81.373a9.451,9.451,0,1,1-9.451-9.451A9.451,9.451,0,0,1,249.925,81.373Zm0,0" transform="translate(-206.914 -64.416)" fill="#ff8900"/>
    <path id="Path_107" data-name="Path 107" d="M265.625,78.258a9.453,9.453,0,0,1-10.406,15.219,9.452,9.452,0,1,0,10.406-15.219Zm0,0" transform="translate(-228.585 -70.091)" fill="#ff6914"/>
    <path id="Path_108" data-name="Path 108" d="M262.173,87.781a1.847,1.847,0,0,1-1.305-.541l-4.521-4.521a1.846,1.846,0,1,1,2.611-2.611l3.216,3.216,8.355-8.355a1.846,1.846,0,0,1,2.611,2.611l-9.66,9.66A1.847,1.847,0,0,1,262.173,87.781Zm0,0" transform="translate(-229.11 -66.66)" fill="#0882bf"/>
    <path id="Path_109" data-name="Path 109" d="M305.818,75.607a1.837,1.837,0,0,0-.787-.466,1.846,1.846,0,0,1-.467,1.823l-9.66,9.661a1.847,1.847,0,0,1-2.611,0l1.254,1.254a1.846,1.846,0,0,0,2.611,0l9.66-9.66a1.847,1.847,0,0,0,0-2.611Zm0,0" transform="translate(-261.789 -67.299)" fill="#005ca0"/>
    <g id="Group_23" data-name="Group 23" transform="translate(3.549 11.128)">
      <path id="Path_110" data-name="Path 110" d="M111.5,188.123h-9.84a.808.808,0,0,1,0-1.615h9.84a.808.808,0,0,1,0,1.615Zm0,0" transform="translate(-93.872 -178.171)" fill="#0882bf"/>
      <path id="Path_111" data-name="Path 111" d="M40.249,108.244H34.815a.808.808,0,0,1,0-1.615h5.434a.808.808,0,0,1,0,1.615Zm0,0" transform="translate(-34.008 -106.628)" fill="#0882bf"/>
      <path id="Path_112" data-name="Path 112" d="M111.5,224.022h-9.84a.808.808,0,1,1,0-1.615h9.84a.808.808,0,1,1,0,1.615Zm0,0" transform="translate(-93.872 -210.324)" fill="#0882bf"/>
      <path id="Path_113" data-name="Path 113" d="M114.895,281.979H101.655a.808.808,0,1,1,0-1.615h13.239a.808.808,0,1,1,0,1.615Zm0,0" transform="translate(-93.872 -262.232)" fill="#0882bf"/>
      <path id="Path_114" data-name="Path 114" d="M108.276,317.88h-6.62a.807.807,0,1,1,0-1.615h6.62a.807.807,0,1,1,0,1.615Zm0,0" transform="translate(-93.873 -294.388)" fill="#0882bf"/>
      <path id="Path_115" data-name="Path 115" d="M111.5,375.936h-9.84a.808.808,0,1,1,0-1.615h9.84a.808.808,0,1,1,0,1.615Zm0,0" transform="translate(-93.872 -346.384)" fill="#0882bf"/>
      <path id="Path_116" data-name="Path 116" d="M114.895,411.834H101.655a.808.808,0,1,1,0-1.615h13.239a.808.808,0,1,1,0,1.615Zm0,0" transform="translate(-93.872 -378.536)" fill="#0882bf"/>
    </g>
    <path id="Path_117" data-name="Path 117" d="M39.558,189.994A2.455,2.455,0,1,1,37.1,187.54,2.455,2.455,0,0,1,39.558,189.994Zm0,0" transform="translate(-31.033 -167.968)" fill="#ff8900"/>
    <path id="Path_118" data-name="Path 118" d="M39.558,284.99a2.455,2.455,0,1,1-2.455-2.454A2.454,2.454,0,0,1,39.558,284.99Zm0,0" transform="translate(-31.033 -253.05)" fill="#ff8900"/>
    <path id="Path_119" data-name="Path 119" d="M39.558,378.943a2.455,2.455,0,1,1-2.455-2.454A2.455,2.455,0,0,1,39.558,378.943Zm0,0" transform="translate(-31.033 -337.198)" fill="#ff8900"/>
  </g>
</svg>
