<svg id="ideas" xmlns="http://www.w3.org/2000/svg" width="52.858" height="59.755" viewBox="0 0 52.858 59.755">
  <path id="Path_137" data-name="Path 137" d="M123.783,85.478a16.275,16.275,0,1,0-26.1,12.978,5.306,5.306,0,0,1,2.082,4.234v7.5a4.512,4.512,0,0,0,4.512,4.512h7.134a4.264,4.264,0,0,0,4.264-4.264v-8.123a5.323,5.323,0,0,1,2.013-4.143,16.242,16.242,0,0,0,6.089-12.693Zm0,0" transform="translate(-80.644 -61.126)" fill="#fbd200"/>
  <path id="Path_138" data-name="Path 138" d="M181.45,86.328a16.272,16.272,0,0,1-1.711,23.8,5.324,5.324,0,0,0-2.013,4.143v7.874a4.512,4.512,0,0,1-4.512,4.512h-6.886c-.078,0-.156,0-.234-.006a4.514,4.514,0,0,0,4.311,3.178h7.134a4.264,4.264,0,0,0,4.264-4.264v-8.122a5.322,5.322,0,0,1,2.013-4.143,16.277,16.277,0,0,0-2.367-26.97Zm0,0" transform="translate(-146.767 -76.253)" fill="#f39320"/>
  <path id="Path_139" data-name="Path 139" d="M225.81,447.368a.889.889,0,0,1-.889-.889v-6.763a.888.888,0,0,1,1.777,0v6.763A.888.888,0,0,1,225.81,447.368Zm0,0" transform="translate(-198.729 -387.613)" fill="#1dc2ff"/>
  <path id="Path_140" data-name="Path 140" d="M202.942,233.154a.889.889,0,0,0-1.256,0l-2.949,2.949-2.949-2.95a.888.888,0,1,0-1.256,1.256l3.318,3.318v12.519a.888.888,0,1,0,1.777,0V237.728l3.317-3.318a.889.889,0,0,0,0-1.256Zm0,0" transform="translate(-171.655 -205.713)" fill="#ff6914"/>
  <path id="Path_141" data-name="Path 141" d="M181.45,86.328a16.272,16.272,0,0,1-1.711,23.8,5.324,5.324,0,0,0-2.013,4.143v7.874a4.512,4.512,0,0,1-4.512,4.512h-6.886c-.078,0-.156,0-.234-.006a4.514,4.514,0,0,0,4.311,3.178h7.134a4.264,4.264,0,0,0,4.264-4.264v-8.122a5.322,5.322,0,0,1,2.013-4.143,16.277,16.277,0,0,0-2.367-26.97Zm0,0" transform="translate(-146.767 -76.253)" fill="#f39320"/>
  <path id="Path_142" data-name="Path 142" d="M340.667,8.341h-7.64a.35.35,0,0,1-.35-.35V.35a.35.35,0,0,1,.35-.35h7.64a.35.35,0,0,1,.35.35v7.64A.35.35,0,0,1,340.667,8.341Zm0,0" transform="translate(-293.908)" fill="#ff738b"/>
  <path id="Path_143" data-name="Path 143" d="M9.161,259.108l-8.136-4.7a.35.35,0,0,0-.525.3v9.395a.35.35,0,0,0,.525.3l8.136-4.7A.35.35,0,0,0,9.161,259.108Zm0,0" transform="translate(-0.5 -224.676)" fill="#0882bf"/>
  <path id="Path_144" data-name="Path 144" d="M402.06,133.411a3.392,3.392,0,1,1-3.392-3.391A3.392,3.392,0,0,1,402.06,133.411Zm0,0" transform="translate(-349.203 -114.845)" fill="#1dc2ff"/>
  <path id="Path_145" data-name="Path 145" d="M376.543,0V8.341h2.871a.35.35,0,0,0,.35-.35V.35a.35.35,0,0,0-.35-.35Zm0,0" transform="translate(-332.655)" fill="#ee4a84"/>
  <path id="Path_146" data-name="Path 146" d="M6.752,283.1.5,286.707v2.783a.35.35,0,0,0,.525.3l8.136-4.7a.35.35,0,0,0,0-.606Zm0,0" transform="translate(-0.5 -250.058)" fill="#005ca0"/>
  <path id="Path_147" data-name="Path 147" d="M416.348,130.02a3.394,3.394,0,0,0-1.055.168,3.392,3.392,0,0,1,0,6.447,3.392,3.392,0,1,0,1.055-6.615Zm0,0" transform="translate(-366.883 -114.845)" fill="#00a2ff"/>
  <path id="Path_148" data-name="Path 148" d="M181.45,86.328a16.272,16.272,0,0,1-1.711,23.8,5.324,5.324,0,0,0-2.013,4.143v7.874a4.512,4.512,0,0,1-4.512,4.512h-6.886c-.078,0-.156,0-.234-.006a4.514,4.514,0,0,0,4.311,3.178h7.134a4.264,4.264,0,0,0,4.264-4.264v-8.122a5.322,5.322,0,0,1,2.013-4.143,16.277,16.277,0,0,0-2.367-26.97Zm0,0" transform="translate(-146.767 -76.253)" fill="#fab700"/>
  <path id="Path_149" data-name="Path 149" d="M164.371,364.418v6.531a4.512,4.512,0,0,0,4.512,4.512h7.134a4.264,4.264,0,0,0,4.264-4.264v-6.78Zm0,0" transform="translate(-145.246 -321.887)" fill="#32e4ff"/>
  <path id="Path_150" data-name="Path 150" d="M177.726,364.418v3.36a4.512,4.512,0,0,1-4.512,4.512h-6.886l-.234-.005a4.514,4.514,0,0,0,4.311,3.177h7.134a4.242,4.242,0,0,0,1.938-.466,4.269,4.269,0,0,0,2.326-3.8v-6.779h-4.078Zm0,0" transform="translate(-146.768 -321.887)" fill="#1dc2ff"/>
  <path id="Path_151" data-name="Path 151" d="M164.371,364.418h15.911V369.2H164.371Zm0,0" transform="translate(-145.246 -321.887)" fill="#1dc2ff"/>
  <path id="Path_152" data-name="Path 152" d="M264.02,367.777a4.5,4.5,0,0,1-.23,1.422H268.1v-4.782H264.02Zm0,0" transform="translate(-233.061 -321.887)" fill="#00a2ff"/>
  <path id="Path_153" data-name="Path 153" d="M41.354,32.333l.287,1.17a5.918,5.918,0,0,0,3.567,4.023.285.285,0,0,1,0,.474,5.918,5.918,0,0,0-3.567,4.024l-.287,1.17a.237.237,0,0,1-.46,0l-.286-1.17A5.92,5.92,0,0,0,37.04,38a.285.285,0,0,1,0-.474A5.918,5.918,0,0,0,40.608,33.5l.286-1.17A.237.237,0,0,1,41.354,32.333Zm0,0" transform="translate(-32.663 -28.4)" fill="#fab700"/>
  <path id="Path_154" data-name="Path 154" d="M42.5,61.813a6.432,6.432,0,0,1-2.732-2.165,6.436,6.436,0,0,1-2.732,2.165.285.285,0,0,0,0,.474,6.436,6.436,0,0,1,2.732,2.165A6.432,6.432,0,0,1,42.5,62.287.285.285,0,0,0,42.5,61.813Zm0,0" transform="translate(-32.663 -52.687)" fill="#fad200"/>
  <path id="Path_155" data-name="Path 155" d="M345.362,339.243l.382,1.564a7.912,7.912,0,0,0,4.769,5.378.381.381,0,0,1,0,.633,7.911,7.911,0,0,0-4.769,5.378l-.382,1.564a.317.317,0,0,1-.615,0l-.383-1.564a7.909,7.909,0,0,0-4.769-5.378.38.38,0,0,1,0-.633,7.91,7.91,0,0,0,4.769-5.378l.383-1.564A.317.317,0,0,1,345.362,339.243Zm0,0" transform="translate(-299.87 -299.437)" fill="#fab700"/>
  <path id="Path_156" data-name="Path 156" d="M346.9,378.648a8.6,8.6,0,0,1-3.652-2.894,8.6,8.6,0,0,1-3.652,2.894.38.38,0,0,0,0,.633,8.6,8.6,0,0,1,3.652,2.894,8.6,8.6,0,0,1,3.652-2.894A.381.381,0,0,0,346.9,378.648Zm0,0" transform="translate(-299.87 -331.9)" fill="#fad200"/>
</svg>
