<svg id="share" xmlns="http://www.w3.org/2000/svg" width="54.86" height="54.86" viewBox="0 0 54.86 54.86">
  <g id="Group_29" data-name="Group 29" transform="translate(8.8 8.572)">
    <path id="Path_208" data-name="Path 208" d="M279.391,122.781l5.257-9.715H282.02l-4.686,8.686A3.546,3.546,0,0,1,279.391,122.781Z" transform="translate(-256.418 -109.523)" fill="#e8eae9"/>
    <path id="Path_209" data-name="Path 209" d="M317.143,259.2a7.919,7.919,0,0,1-.343,2.286l9.258,1.943v-2.286Z" transform="translate(-291.656 -239.999)" fill="#e8eae9"/>
    <path id="Path_210" data-name="Path 210" d="M113.3,280.533l-9.829,5.943a7.076,7.076,0,0,1,.8,2.172l10.058-6.057A8.652,8.652,0,0,1,113.3,280.533Z" transform="translate(-101.181 -259.046)" fill="#e8eae9"/>
    <path id="Path_211" data-name="Path 211" d="M246.476,322.247a3.887,3.887,0,0,1-1.143-.114v9.6h2.286v-9.6C247.276,322.133,246.819,322.247,246.476,322.247Z" transform="translate(-227.846 -296.189)" fill="#e8eae9"/>
    <path id="Path_212" data-name="Path 212" d="M96.534,93.029,83.5,80a10.115,10.115,0,0,1-1.372,1.943l12.915,12.8A5.381,5.381,0,0,1,96.534,93.029Z" transform="translate(-82.133 -80)" fill="#e8eae9"/>
  </g>
  <circle id="Ellipse_45" data-name="Ellipse 45" cx="8.343" cy="8.343" r="8.343" transform="translate(19.087 19.087)" fill="#415a6b"/>
  <circle id="Ellipse_46" data-name="Ellipse 46" cx="5.029" cy="5.029" r="5.029" transform="translate(22.401 22.401)" fill="#344a5e"/>
  <circle id="Ellipse_47" data-name="Ellipse 47" cx="6.286" cy="6.286" r="6.286" transform="translate(0 0)" fill="#8ad7f8"/>
  <circle id="Ellipse_48" data-name="Ellipse 48" cx="3.886" cy="3.886" r="3.886" transform="translate(2.4 2.4)" fill="#55c0eb"/>
  <circle id="Ellipse_49" data-name="Ellipse 49" cx="6.286" cy="6.286" r="6.286" transform="translate(31.316 2.514)" fill="#ffd15c"/>
  <circle id="Ellipse_50" data-name="Ellipse 50" cx="3.886" cy="3.886" r="3.886" transform="translate(33.716 4.915)" fill="#f7b64c"/>
  <circle id="Ellipse_51" data-name="Ellipse 51" cx="6.286" cy="6.286" r="6.286" transform="translate(21.144 42.288)" fill="#ced6e0"/>
  <circle id="Ellipse_52" data-name="Ellipse 52" cx="3.886" cy="3.886" r="3.886" transform="translate(23.544 44.688)" fill="#adb3ba"/>
  <circle id="Ellipse_53" data-name="Ellipse 53" cx="6.286" cy="6.286" r="6.286" transform="translate(1.372 33.03)" fill="#f3705a"/>
  <circle id="Ellipse_54" data-name="Ellipse 54" cx="3.886" cy="3.886" r="3.886" transform="translate(3.772 35.431)" fill="#f05540"/>
  <circle id="Ellipse_55" data-name="Ellipse 55" cx="6.286" cy="6.286" r="6.286" transform="translate(42.288 25.716)" fill="#66c6b9"/>
  <circle id="Ellipse_56" data-name="Ellipse 56" cx="3.886" cy="3.886" r="3.886" transform="translate(44.688 28.116)" fill="#4abaa5"/>
</svg>
