<svg id="animation" xmlns="http://www.w3.org/2000/svg" width="50.836" height="42.888" viewBox="0 0 50.836 42.888">
  <path id="Path_120" data-name="Path 120" d="M206.789,332.3h9.772v8.424h-9.772Zm0,0" transform="translate(-186.257 -299.353)" fill="#1dc2ff"/>
  <path id="Path_121" data-name="Path 121" d="M276.465,332.3h2.854v8.424h-2.854Zm0,0" transform="translate(-249.015 -299.353)" fill="#00a2ff"/>
  <path id="Path_122" data-name="Path 122" d="M49.3.5H1.534A1.533,1.533,0,0,0,0,2.034V33.875a1.533,1.533,0,0,0,1.534,1.534H49.3a1.533,1.533,0,0,0,1.534-1.534V2.034A1.533,1.533,0,0,0,49.3.5Zm0,0" transform="translate(-0.001 -0.5)" fill="#1dc2ff"/>
  <path id="Path_123" data-name="Path 123" d="M49.3.5h-.832V31.213a1.534,1.534,0,0,1-1.534,1.534H0v1.129a1.533,1.533,0,0,0,1.534,1.534H49.3a1.533,1.533,0,0,0,1.534-1.534V2.034A1.533,1.533,0,0,0,49.3.5Zm0,0" transform="translate(-0.001 -0.5)" fill="#00a2ff"/>
  <path id="Path_124" data-name="Path 124" d="M166.163,408.023H181.88a1.178,1.178,0,0,1,1.178,1.178v.07a1.178,1.178,0,0,1-1.178,1.178H166.163a1.178,1.178,0,0,1-1.178-1.178v-.07A1.178,1.178,0,0,1,166.163,408.023Zm0,0" transform="translate(-148.604 -367.561)" fill="#1dc2ff"/>
  <path id="Path_125" data-name="Path 125" d="M299.124,408.02h-3.972a1.178,1.178,0,0,1,1.178,1.178v.07a1.178,1.178,0,0,1-1.178,1.178h3.972a1.178,1.178,0,0,0,1.178-1.178v-.07A1.178,1.178,0,0,0,299.124,408.02Zm0,0" transform="translate(-265.847 -367.558)" fill="#00a2ff"/>
  <path id="Path_126" data-name="Path 126" d="M75.606,61.951H32.024a.5.5,0,0,1-.5-.5V35.782a.5.5,0,0,1,.5-.5H75.606a.5.5,0,0,1,.5.5V61.455A.5.5,0,0,1,75.606,61.951Zm0,0" transform="translate(-28.398 -31.832)" fill="#d2ffff"/>
  <path id="Path_127" data-name="Path 127" d="M38.615,45.885H31.527v-10.1a.5.5,0,0,1,.5-.5h6.591Zm0,0" transform="translate(-28.397 -31.831)" fill="#0470b2"/>
  <path id="Path_128" data-name="Path 128" d="M412.461,50.982h-6.507a.993.993,0,0,1-.993-.993V34.829h7a.5.5,0,0,1,.5.5Zm0,0" transform="translate(-364.753 -31.421)" fill="#0470b2"/>
  <path id="Path_129" data-name="Path 129" d="M37.622,142.791H31.527v-6.08h7.087V141.8A.993.993,0,0,1,37.622,142.791Zm0,0" transform="translate(-28.397 -123.187)" fill="#0882bf"/>
  <path id="Path_130" data-name="Path 130" d="M89.77,259.842H49.849a.767.767,0,0,1,0-1.534H89.77a.767.767,0,0,1,0,1.534Zm0,0" transform="translate(-44.209 -232.711)" fill="#0882bf"/>
  <path id="Path_131" data-name="Path 131" d="M355.846,249.048a1.872,1.872,0,1,1-1.872-1.872A1.872,1.872,0,0,1,355.846,249.048Zm0,0" transform="translate(-317.142 -222.684)" fill="#ff738b"/>
  <path id="Path_132" data-name="Path 132" d="M114.772,249.048a1.872,1.872,0,1,1-1.872-1.872A1.872,1.872,0,0,1,114.772,249.048Zm0,0" transform="translate(-100.003 -222.684)" fill="#ff738b"/>
  <path id="Path_133" data-name="Path 133" d="M89.77,222.01H49.849a.767.767,0,1,1,0-1.534H89.77a.767.767,0,1,1,0,1.534Zm0,0" transform="translate(-44.209 -198.636)" fill="#0882bf"/>
  <path id="Path_134" data-name="Path 134" d="M193.112,211.212a1.872,1.872,0,1,1-1.872-1.872A1.872,1.872,0,0,1,193.112,211.212Zm0,0" transform="translate(-170.565 -188.604)" fill="#ff738b"/>
  <path id="Path_135" data-name="Path 135" d="M223.287,65.574l-9.446-5.454a.993.993,0,0,0-1.489.86V71.888a.993.993,0,0,0,1.489.86l9.446-5.453a.993.993,0,0,0,0-1.72Zm0,0" transform="translate(-191.268 -54.08)" fill="#005ca0"/>
  <path id="Path_136" data-name="Path 136" d="M223.243,108.184l-1.5-.863a1.006,1.006,0,0,1-.484.655l-8.912,5.146v1.351a1.022,1.022,0,0,0,1.534.885l9.358-5.4A1.023,1.023,0,0,0,223.243,108.184Zm0,0" transform="translate(-191.268 -96.715)" fill="#005182"/>
</svg>
