<svg xmlns="http://www.w3.org/2000/svg" width="113.843" height="85.269" viewBox="0 0 113.843 85.269">
  <g id="Group_3863" data-name="Group 3863" transform="translate(-313.508 -386.214)" style="isolation: isolate">
    <g id="Group_3589" data-name="Group 3589" transform="translate(313.508 386.214)">
      <path id="Path_6176" data-name="Path 6176" d="M427.352,406.966,370.43,386.214l-56.922,20.752,56.922,19.877Z" transform="translate(-313.508 -386.214)" fill="#094d79"/>
      <path id="Path_6177" data-name="Path 6177" d="M348.861,438.75v15.36c13.517-.627,25.016,4.752,35.418,11.023,10.4-6.271,21.9-11.65,35.418-11.023V438.75L384.279,450.5Z" transform="translate(-327.358 -406.795)" fill="#094d79"/>
    </g>
    <path id="Path_6178" data-name="Path 6178" d="M334.17,468.816v-34.79h-2.513v34.79h-2.315V490.1h7.143V468.816Z" transform="translate(-6.202 -18.73)" fill="#f37020" style="isolation: isolate"/>
    <g id="Group_3590" data-name="Group 3590" transform="translate(342.753 444.778)">
      <path id="Path_6179" data-name="Path 6179" d="M367.709,482.5a6.084,6.084,0,0,0-6.122,6.451v19.711h1.825v-8.812h8.594v9.243h1.825V488.947A6.083,6.083,0,0,0,367.709,482.5Zm4.3,15.524h-8.594v-9.073a4.309,4.309,0,1,1,8.594,0Z" transform="translate(-361.587 -482.496)" fill="#094d79"/>
      <path id="Path_6180" data-name="Path 6180" d="M408.434,497.46a4.642,4.642,0,0,0-2.038-1.372,30.933,30.933,0,0,0,4.3-12.047l-1.807-.252a28.777,28.777,0,0,1-4.528,12.052c-1.8-.005-2.829-.042-3.407-.079V483.915h-1.825v12.03a.933.933,0,0,0-.172.648.99.99,0,0,0,.172.522v12.479h1.825v-12c.858.054,2.086.07,3.875.07a2.838,2.838,0,0,1,2.241,1c2.143,2.424,1.911,8.629,1.641,10.816l1.81.224C410.561,509.353,411.558,501,408.434,497.46Z" transform="translate(-376.223 -483.003)" fill="#094d79"/>
    </g>
    <path id="Path_6181" data-name="Path 6181" d="M440.606,507.063a4.066,4.066,0,0,1-4.2-4.381V490.554a4.207,4.207,0,1,1,8.406,0h1.825a6.03,6.03,0,1,0-12.056,0v12.128a6.03,6.03,0,1,0,12.056,0h-1.825A4.066,4.066,0,0,1,440.606,507.063Z" transform="translate(-47.428 -38.443)" fill="#094d79"/>
    <rect id="Rectangle_1816" data-name="Rectangle 1816" width="3.402" height="3.402" transform="translate(358.436 467.968)" fill="#094d79"/>
    <rect id="Rectangle_1817" data-name="Rectangle 1817" width="3.402" height="3.402" transform="translate(380.49 467.968)" fill="#094d79"/>
  </g>
</svg>
