<svg xmlns="http://www.w3.org/2000/svg" width="98" height="63.795" viewBox="0 0 98 63.795"><g transform="translate(676.59 -949.282)"><path d="M-323.313,1226.515h-2.45v8.272h-1.913v-8.272h-2.438v-1.649h6.8Z" transform="translate(-278.955 -221.879)" fill="#134074"/><path d="M-284.224,1234.94h-5.5v-9.825h5.29v1.581h-3.4v2.382h3.2v1.547h-3.2v2.734h3.6Z" transform="translate(-311.477 -222.079)" fill="#134074"/><path d="M-244.459,1234.791a4.993,4.993,0,0,1-2.12.36,4.238,4.238,0,0,1-3.32-1.334,5,5,0,0,1-1.161-3.473,5.063,5.063,0,0,1,1.4-3.783,4.512,4.512,0,0,1,3.306-1.271,4.23,4.23,0,0,1,1.989.366l-.366,1.491a3.835,3.835,0,0,0-1.533-.31,2.615,2.615,0,0,0-2.023.835,3.658,3.658,0,0,0-.835,2.575,3.628,3.628,0,0,0,.773,2.479,2.626,2.626,0,0,0,2.072.849,3.989,3.989,0,0,0,1.56-.269Z" transform="translate(-342.604 -222.22)" fill="#134074"/><path d="M-203.323,1234.988h-1.906v-4.252h-3.362v4.252h-1.9v-9.872h1.9v3.941h3.362v-3.941h1.906Z" transform="translate(-375.267 -222.079)" fill="#134074"/><path d="M-334,986.6a31.238,31.238,0,0,0-6.256-18.338c-4.2-5.291-7.7-7.96-13.364-10.2l-1.749-.691.153,62.218h2.551l-.143-58.412c4.209,1.921,7.121,4.348,10.556,8.671a28.592,28.592,0,0,1,5.667,15.483l-12.368.082,7.607,10.855a2.941,2.941,0,0,0-.253,1.2,3.116,3.116,0,0,0,3.16,3.063,3.116,3.116,0,0,0,3.16-3.063,3.116,3.116,0,0,0-3.16-3.065,3.22,3.22,0,0,0-.991.157l-4.643-6.629,10.073-.067Zm-4.439,9.082a1.84,1.84,0,0,1,1.885,1.788,1.84,1.84,0,0,1-1.885,1.787,1.84,1.84,0,0,1-1.885-1.787,1.84,1.84,0,0,1,1.885-1.788" transform="translate(-258.617 -6.517)" fill="#134074"/><path d="M-412.634,1096.47a3.117,3.117,0,0,0,3.161,3.063,3.117,3.117,0,0,0,3.16-3.063,3.117,3.117,0,0,0-3.16-3.065,3.118,3.118,0,0,0-3.161,3.065m3.161-1.788a1.84,1.84,0,0,1,1.885,1.788,1.841,1.841,0,0,1-1.885,1.788,1.841,1.841,0,0,1-1.885-1.788,1.84,1.84,0,0,1,1.885-1.788" transform="translate(-212.516 -116.036)" fill="#134074"/><path d="M-554.285,1000.51a26.647,26.647,0,0,0,19.866,10.386l.011-.171a3.158,3.158,0,0,0,3,2.109,3.117,3.117,0,0,0,3.16-3.063,3.116,3.116,0,0,0-3.16-3.065,3.173,3.173,0,0,0-2.859,1.762l.008-.119c-15.869-1.011-24.173-14.774-24.173-27.845a28.3,28.3,0,0,1,8.485-20.314,29.482,29.482,0,0,1,21.364-8.352l.038-2.553a32.036,32.036,0,0,0-23.192,9.086,30.833,30.833,0,0,0-9.247,22.132,33.071,33.071,0,0,0,6.7,20.006m22.879,7.471a1.842,1.842,0,0,1,1.885,1.79,1.841,1.841,0,0,1-1.885,1.787,1.84,1.84,0,0,1-1.885-1.787,1.841,1.841,0,0,1,1.885-1.79" transform="translate(-93.079)" fill="#134074"/><path d="M-646.536,1019.243c-.266-.235-.542-.479-.856-.73a38.964,38.964,0,0,1-15.142-30.943,38.913,38.913,0,0,1,11.906-28.385l-1.787-1.822c-.2.018-.261.025-.261.025-6.461.521-12.4,4.143-17.663,10.761-3.735,4.7-6.244,12.308-6.244,18.932h0A54.208,54.208,0,0,0-669.5,1014.3a2.989,2.989,0,0,0-.662,1.869,3.117,3.117,0,0,0,3.161,3.063,3.118,3.118,0,0,0,3.162-3.063,3.117,3.117,0,0,0-3.162-3.063c-.079,0-.157,0-.236.011-6.109-10.322-6.755-21.423-6.791-25.016h8.954a41.354,41.354,0,0,0,14.972,31.481h3.959q-.194-.166-.39-.34M-667,1014.382a1.84,1.84,0,0,1,1.885,1.788,1.84,1.84,0,0,1-1.885,1.787,1.84,1.84,0,0,1-1.885-1.787,1.84,1.84,0,0,1,1.885-1.788m-6.973-28.831c.351-5.643,2.565-11.952,5.635-15.815,4.021-5.062,8.423-8.19,13.113-9.348a41.148,41.148,0,0,0-9.811,25.163Z" transform="translate(0 -6.506)" fill="#134074"/><path d="M-475.427,1051.358l-.221-.015v.007c-.455-.037-.924-.1-1.406-.185l-.151-.029a15.238,15.238,0,0,1-12.406-14.964,15.329,15.329,0,0,1,11.966-14.88l.065-.026a27.346,27.346,0,0,1,4.243-.437l.191-.008-.006-2.424-1.269,0a17.8,17.8,0,0,0-17.729,17.772,17.791,17.791,0,0,0,17.771,17.771h1.269v-2.373l-.185-.012c-.681-.053-1.4-.119-2.132-.2" transform="translate(-148.496 -55.645)" fill="#134074"/><path d="M-439.736,1076.257c-.351-.027-.726-.062-1.117-.1l-.579-.057-.21-.034-.115-.022a7.589,7.589,0,0,1-6.18-7.454,7.634,7.634,0,0,1,5.96-7.411l.078-.019.007-.005a14.151,14.151,0,0,1,2.116-.21l.577-.025-.005-2.256-1.168,0a9.942,9.942,0,0,0-9.9,9.924,9.934,9.934,0,0,0,9.924,9.923h1.169V1076.3Z" transform="translate(-182.212 -88.063)" fill="#134074"/></g></svg>