<svg xmlns="http://www.w3.org/2000/svg" width="129.083" height="89.516" viewBox="0 0 129.083 89.516">
  <g id="logo" transform="translate(3618.17 3429.967)">
    <path id="Path_9302" data-name="Path 9302" d="M-3368.973-3294.425a13.886,13.886,0,0,0-5.274-5.661,15.192,15.192,0,0,0-7.535-1.582c-2.789,0-4.65.189-6.848,1.415a13.257,13.257,0,0,0-5.293,5.4,15.378,15.378,0,0,0-1.741,6.073c-.118,1.4-.25,2.8-.459,4.192l-.213,1.415c-.076.863-.653,4.666-3.108,4.81a.609.609,0,0,0-.118.017h-28.821v-16.076a18.378,18.378,0,0,0-1.744-8.126,13.577,13.577,0,0,0-5.114-5.74,13.687,13.687,0,0,0-7.265-1.962,13.674,13.674,0,0,0-7.26,1.962,13.58,13.58,0,0,0-5.115,5.74,18.382,18.382,0,0,0-1.744,8.126v9.159a18.373,18.373,0,0,0,1.744,8.126,13.519,13.519,0,0,0,5.117,5.737,13.57,13.57,0,0,0,7.013,1.965c.081,0,.164,0,.245,0h4s2.735,9.748-15.591,9.748v9.218s24.269,4.666,25.046-19.216h32.272a2.56,2.56,0,0,0,1.435-.417,1.854,1.854,0,0,0,.62-.68q.063.129.133.258a13.219,13.219,0,0,0,5.3,5.4,15.206,15.206,0,0,0,7.513,1.85,15.231,15.231,0,0,0,7.516-1.85,13.262,13.262,0,0,0,5.293-5.4,15.955,15.955,0,0,0,1.805-7.643v-8.615A15.963,15.963,0,0,0-3368.973-3294.425Zm-68.6,16.123h-4.935a4.579,4.579,0,0,1-2.6-.738,4.778,4.778,0,0,1-1.727-2.1,7.6,7.6,0,0,1-.609-3.142v-9.723a7.615,7.615,0,0,1,.609-3.142,4.774,4.774,0,0,1,1.727-2.1,4.6,4.6,0,0,1,2.6-.741,4.607,4.607,0,0,1,2.6.741,4.771,4.771,0,0,1,1.727,2.1,7.651,7.651,0,0,1,.608,3.142Zm60.9.285a5.988,5.988,0,0,1-.631,2.8,4.5,4.5,0,0,1-1.788,1.874,5.343,5.343,0,0,1-2.688.658,5.343,5.343,0,0,1-2.688-.658,4.494,4.494,0,0,1-1.786-1.874,5.933,5.933,0,0,1-.633-2.8v-8.664a5.946,5.946,0,0,1,.633-2.8,4.475,4.475,0,0,1,1.786-1.872,5.347,5.347,0,0,1,2.688-.66,5.347,5.347,0,0,1,2.688.66,4.477,4.477,0,0,1,1.788,1.872,6,6,0,0,1,.631,2.8Z" transform="translate(-121.919 -90.35)" fill="#fff"/>
    <g id="Group_38780" data-name="Group 38780" transform="translate(-3618.17 -3409.571)">
      <path id="Path_9303" data-name="Path 9303" d="M-3585.294-3273.567v34.669a16.247,16.247,0,0,1-2.028,8.129,14.529,14.529,0,0,1-5.956,5.737,17.942,17.942,0,0,1-8.455,1.967,17.913,17.913,0,0,1-8.45-1.967,14.488,14.488,0,0,1-5.958-5.737,16.242,16.242,0,0,1-2.029-8.129v-34.669h10.694v34.825a6.061,6.061,0,0,0,.709,2.978,4.925,4.925,0,0,0,2.011,1.994,6.292,6.292,0,0,0,3.022.7,6.307,6.307,0,0,0,3.024-.7,4.923,4.923,0,0,0,2.011-1.994,6.088,6.088,0,0,0,.709-2.978v-34.825Z" transform="translate(3618.17 3291.534)" fill="#fff"/>
      <rect id="Rectangle_315" data-name="Rectangle 315" width="10.694" height="10.694" transform="translate(11.091 0)" fill="#fff"/>
    </g>
    <g id="Group_38781" data-name="Group 38781" transform="translate(-3571.826 -3429.967)">
      <path id="Path_9304" data-name="Path 9304" d="M-3429.231-3355.232v-4.915l16.383-2.971v4.971Z" transform="translate(3429.231 3379.515)" fill="#fff"/>
      <path id="Path_9305" data-name="Path 9305" d="M-3413.375-3429.967v10.038s.04,3.995-3.956,4.125c-2.944.1-3.706-1.877-3.706-1.877s-.375,2.708-3.834,2.708a4.691,4.691,0,0,1-3.2-1.114,3.455,3.455,0,0,1-1.156-2.6v-8.111l3.611-.721v7.225a1.349,1.349,0,0,0,1.167,1.361,1.309,1.309,0,0,0,1.442-1.3v-7.808l3.415-.684v7.515a1.346,1.346,0,0,0,1.173,1.358,1.308,1.308,0,0,0,1.437-1.3v-8.094Z" transform="translate(3429.23 3429.967)" fill="#fff"/>
    </g>
  </g>
</svg>
