<svg xmlns="http://www.w3.org/2000/svg" xmlns:xlink="http://www.w3.org/1999/xlink" width="149.139" height="58.17" viewBox="0 0 149.139 58.17">
  <defs>
    <linearGradient id="linear-gradient" x1="-11.575" y1="-0.165" x2="-12.086" y2="1.126" gradientUnits="objectBoundingBox">
      <stop offset="0.003" stop-color="#016f89"/>
      <stop offset="0.999" stop-color="#7cc198"/>
    </linearGradient>
    <linearGradient id="linear-gradient-2" x1="-13.996" y1="0.5" x2="-12.996" y2="0.5" gradientUnits="objectBoundingBox">
      <stop offset="0.006" stop-color="#514494"/>
      <stop offset="0.564" stop-color="#7476b5"/>
      <stop offset="0.999" stop-color="#8d99cd"/>
    </linearGradient>
    <linearGradient id="linear-gradient-3" x1="-23.75" y1="0.273" x2="-24.719" y2="0.86" xlink:href="#linear-gradient-2"/>
    <linearGradient id="linear-gradient-4" x1="-10.436" y1="0.5" x2="-9.436" y2="0.5" gradientUnits="objectBoundingBox">
      <stop offset="0.003" stop-color="#2c53a0"/>
      <stop offset="0.528" stop-color="#1ba9d9"/>
      <stop offset="0.803" stop-color="#52bad1"/>
      <stop offset="0.999" stop-color="#75c6cc"/>
    </linearGradient>
    <linearGradient id="linear-gradient-5" x1="-29.238" y1="0.5" x2="-30.238" y2="0.5" gradientUnits="objectBoundingBox">
      <stop offset="0.006" stop-color="#514494"/>
      <stop offset="0.624" stop-color="#6f68ac"/>
      <stop offset="1" stop-color="#5a4d9a"/>
    </linearGradient>
    <linearGradient id="linear-gradient-6" x1="-11.057" y1="0.5" x2="-10.057" y2="0.5" xlink:href="#linear-gradient"/>
    <linearGradient id="linear-gradient-7" x1="-4.733" y1="0.5" x2="-5.733" y2="0.5" xlink:href="#linear-gradient-4"/>
    <linearGradient id="linear-gradient-8" x1="-7.322" y1="0.5" x2="-6.322" y2="0.5" xlink:href="#linear-gradient-2"/>
    <linearGradient id="linear-gradient-9" x1="-27.779" y1="0.5" x2="-26.779" y2="0.5" xlink:href="#linear-gradient-2"/>
    <linearGradient id="linear-gradient-10" x1="-24.223" y1="0.5" x2="-23.223" y2="0.5" xlink:href="#linear-gradient-2"/>
    <linearGradient id="linear-gradient-11" x1="-6.13" y1="0.5" x2="1.32" y2="0.5" xlink:href="#linear-gradient-2"/>
    <clipPath id="clip-path">
      <path id="Path_11" data-name="Path 11" d="M1267.2,832.69a5.767,5.767,0,0,1,3.632-.346c1.816.519,5.448,1.989,6.658,3.2s1.816,2.162,2.508,1.816,3.026-1.556,1.988-2.94a5.779,5.779,0,0,0-2.335-.519c-1.3,0-5.534-4.669-7.263-4.756S1267.547,831.393,1267.2,832.69Z" transform="translate(-1267.201 -829.143)" fill="url(#linear-gradient)"/>
    </clipPath>
    <linearGradient id="linear-gradient-19" x1="-23.058" y1="-0.087" x2="-23.512" y2="0.828" xlink:href="#linear-gradient"/>
    <linearGradient id="linear-gradient-20" x1="-15.716" y1="0.5" x2="-14.716" y2="0.5" xlink:href="#linear-gradient-2"/>
    <clipPath id="clip-path-2">
      <path id="Path_19" data-name="Path 19" d="M1301.688,1033.3a19.144,19.144,0,0,1,2.248,6.4c.519,3.545,1.124,6.917,4.67,10.117s3.977,4.842,3.977,4.842-3.459-3.978-6.745-5.188-4.15-1.3-5.015-2.421-2.335-5.707-1.9-6.658S1300.565,1032.608,1301.688,1033.3Z" transform="translate(-1298.844 -1033.251)" fill="url(#linear-gradient-2)"/>
    </clipPath>
    <linearGradient id="linear-gradient-22" x1="-26.709" y1="0.5" x2="-25.709" y2="0.5" gradientUnits="objectBoundingBox">
      <stop offset="0" stop-color="#2c53a0"/>
      <stop offset="0.528" stop-color="#1ba9d9"/>
      <stop offset="0.648" stop-color="#1ba5d6"/>
      <stop offset="0.744" stop-color="#1d9bd0"/>
      <stop offset="0.833" stop-color="#208ac5"/>
      <stop offset="0.916" stop-color="#2573b5"/>
      <stop offset="0.995" stop-color="#2b54a1"/>
      <stop offset="0.999" stop-color="#2c53a0"/>
    </linearGradient>
    <linearGradient id="linear-gradient-23" x1="-31.281" y1="0.5" x2="-30.281" y2="0.5" xlink:href="#linear-gradient-2"/>
    <linearGradient id="linear-gradient-24" x1="-16.303" y1="0.31" x2="-16.897" y2="0.551" gradientUnits="objectBoundingBox">
      <stop offset="0.003" stop-color="#2c53a0"/>
      <stop offset="0.144" stop-color="#335ea4" stop-opacity="0.902"/>
      <stop offset="0.417" stop-color="#457baf" stop-opacity="0.651"/>
      <stop offset="0.792" stop-color="#63aac1" stop-opacity="0.243"/>
      <stop offset="0.999" stop-color="#75c6cc" stop-opacity="0"/>
    </linearGradient>
    <linearGradient id="linear-gradient-25" x1="-28.714" y1="0.397" x2="-29.172" y2="0.72" gradientUnits="objectBoundingBox">
      <stop offset="0.003" stop-color="#2c53a0" stop-opacity="0"/>
      <stop offset="0.312" stop-color="#477eb0" stop-opacity="0.263"/>
      <stop offset="0.624" stop-color="#60a5bf" stop-opacity="0.498"/>
      <stop offset="0.863" stop-color="#6fbdc8" stop-opacity="0.647"/>
      <stop offset="0.999" stop-color="#75c6cc" stop-opacity="0.702"/>
    </linearGradient>
    <linearGradient id="linear-gradient-26" x1="-97.762" y1="0.291" x2="-99.113" y2="0.825" xlink:href="#linear-gradient-25"/>
    <clipPath id="clip-path-3">
      <path id="Path_23" data-name="Path 23" d="M1273.142,980.1s4.583,1.124,3.286,7.35-3.113,10.2-1.557,12.8c0,0-5.447-6.917-5.534-11.933S1271.845,979.493,1273.142,980.1Z" transform="translate(-1269.336 -980.035)" fill="url(#linear-gradient-3)"/>
    </clipPath>
    <linearGradient id="linear-gradient-28" x1="-21.647" y1="0.349" x2="-22.085" y2="0.807" xlink:href="#linear-gradient-2"/>
    <linearGradient id="linear-gradient-29" x1="-21.559" y1="0.349" x2="-21.997" y2="0.807" xlink:href="#linear-gradient-2"/>
    <clipPath id="clip-path-4">
      <path id="Path_30" data-name="Path 30" d="M1144.4,1063.283s4.5-3.113,8.474,1.9,4.929,3.372,4.929,3.372,1.9,2.508-.778,3.026c0,0-6.053-3.978-10.809-5.188S1144.4,1063.283,1144.4,1063.283Z" transform="translate(-1143.505 -1062.328)" fill="url(#linear-gradient-4)"/>
    </clipPath>
    <linearGradient id="linear-gradient-31" x1="-15.227" y1="0.5" x2="-14.227" y2="0.5" xlink:href="#linear-gradient-4"/>
    <clipPath id="clip-path-5">
      <path id="Path_29" data-name="Path 29" d="M1227.186,1093.532a20.338,20.338,0,0,1,2.531,3.463,3.727,3.727,0,0,0,1.313,1.347c1.057.652,2.15.623,1.454-1-1.038-2.421-1.556-1.47-2.334-1.9A21.335,21.335,0,0,1,1227.186,1093.532Z" transform="translate(-1227.186 -1093.532)" fill="url(#linear-gradient-5)"/>
    </clipPath>
    <linearGradient id="linear-gradient-33" x1="-24.126" y1="0.5" x2="-25.126" y2="0.5" xlink:href="#linear-gradient-24"/>
    <clipPath id="clip-path-6">
      <path id="Path_34" data-name="Path 34" d="M1054.75,892.236s-4.928-1.3-7.263-3.459-.605-2.335-1.989-3.459a1.406,1.406,0,0,0-1.643,0c-.865.605-.778,2.508,0,2.853s2.508,1.816,5.793,5.62C1049.649,893.792,1055.788,896.041,1054.75,892.236Z" transform="translate(-1043.239 -885.049)" fill="url(#linear-gradient-6)"/>
    </clipPath>
    <linearGradient id="linear-gradient-35" x1="-35.417" y1="0.5" x2="-34.417" y2="0.5" xlink:href="#linear-gradient"/>
    <linearGradient id="linear-gradient-36" x1="-13.7" y1="0.5" x2="-12.7" y2="0.5" xlink:href="#linear-gradient-4"/>
    <linearGradient id="linear-gradient-37" x1="-41.147" y1="0.605" x2="-40.2" y2="0.35" gradientUnits="objectBoundingBox">
      <stop offset="0.004" stop-color="#bfd24c"/>
      <stop offset="0.999" stop-color="#7cc198"/>
    </linearGradient>
    <clipPath id="clip-path-7">
      <path id="Path_48" data-name="Path 48" d="M1097.939,798.267c1.038-1.47,5.015-2.421,6.918,0s-.173,3.8.692,5.188a1.309,1.309,0,0,0,1.989.519c2.681-4.15,7-2.248,11.328-3.8s6.225,1.383,6.225,1.383c-1.989-.865-3.026.778-4.41,1.989-1.077.942-3.2,1.622-5.393,2.2.54,1.85,2.107,6.125,7.295,13.188,0,0,2.335,4.756-1.556,5.62s-5.1-3.286-5.1-3.286.605-1.211-2.508-2.94c-2.4-1.333-3.926-2.153-4.737-3.291-4.159-.345-4.6-4.483-4.6-6.48a4.5,4.5,0,0,0-1.3-3.286,11.18,11.18,0,0,1-3.026,1.384C1098.977,806.655,1096.9,799.737,1097.939,798.267Z" transform="translate(-1097.654 -796.787)" fill="url(#linear-gradient-7)"/>
    </clipPath>
    <linearGradient id="linear-gradient-39" x1="-15.418" y1="-0.135" x2="-15.394" y2="0.887" xlink:href="#linear-gradient-24"/>
    <linearGradient id="linear-gradient-40" x1="-15.417" y1="-0.077" x2="-15.396" y2="0.789" xlink:href="#linear-gradient-24"/>
    <linearGradient id="linear-gradient-41" x1="-24.864" y1="-0.083" x2="-24.848" y2="0.791" xlink:href="#linear-gradient-24"/>
    <linearGradient id="linear-gradient-42" x1="-12.754" y1="1.061" x2="-12.835" y2="0.233" xlink:href="#linear-gradient-24"/>
    <linearGradient id="linear-gradient-43" x1="-10.534" y1="1.061" x2="-10.597" y2="0.43" xlink:href="#linear-gradient-24"/>
    <linearGradient id="linear-gradient-44" x1="-7.903" y1="1.061" x2="-7.965" y2="0.43" xlink:href="#linear-gradient-24"/>
    <linearGradient id="linear-gradient-45" x1="-23.078" y1="0.291" x2="-23.764" y2="0.524" xlink:href="#linear-gradient-24"/>
    <linearGradient id="linear-gradient-46" x1="-45.234" y1="0.515" x2="-44.42" y2="0.493" xlink:href="#linear-gradient-24"/>
    <linearGradient id="linear-gradient-47" x1="-18.781" y1="0.5" x2="-19.631" y2="0.5" xlink:href="#linear-gradient-24"/>
    <clipPath id="clip-path-8">
      <path id="Path_54" data-name="Path 54" d="M1151.942,983.474s2.528,5.961-1.623,8.469-13.057.086-15.219,1.9,0,3.2,0,3.2-4.151-.692-4.237-3.8,6.485-8.3,14.267-7.782S1151.942,983.474,1151.942,983.474Z" transform="translate(-1130.863 -983.474)" fill="url(#linear-gradient-8)"/>
    </clipPath>
    <linearGradient id="linear-gradient-49" x1="-13.313" y1="0.21" x2="-12.771" y2="1.211" xlink:href="#linear-gradient-25"/>
    <linearGradient id="linear-gradient-50" x1="-26.512" y1="-0.275" x2="-25.978" y2="1.089" xlink:href="#linear-gradient-25"/>
    <linearGradient id="linear-gradient-51" x1="-12.643" y1="0.306" x2="-12.037" y2="0.609" xlink:href="#linear-gradient-24"/>
    <linearGradient id="linear-gradient-52" x1="-12.643" y1="0.306" x2="-12.424" y2="0.416" gradientUnits="objectBoundingBox">
      <stop offset="0.003" stop-color="#4c4595"/>
      <stop offset="0.152" stop-color="#50529a" stop-opacity="0.894"/>
      <stop offset="0.442" stop-color="#5b75a9" stop-opacity="0.624"/>
      <stop offset="0.84" stop-color="#6dadc1" stop-opacity="0.188"/>
      <stop offset="0.999" stop-color="#75c6cc" stop-opacity="0"/>
    </linearGradient>
    <clipPath id="clip-path-9">
      <path id="Path_60" data-name="Path 60" d="M1250.4,1109.469s-.705-.082-.273-.514a4.362,4.362,0,0,1,2.94-.173c.259.259.692,1.124.346,3.459,0,0-.259.432.432,1.3a5.261,5.261,0,0,1,.865,5.015c-.865,1.989-2.335,1.038-2.335.259a6.2,6.2,0,0,0-1.47-4.063s-2.248-.951-2.075-1.643,1.431-1.45,1.753-1.331S1250.85,1109.81,1250.4,1109.469Z" transform="translate(-1248.825 -1108.605)" fill="url(#linear-gradient-9)"/>
    </clipPath>
    <linearGradient id="linear-gradient-54" x1="-56.095" y1="0.632" x2="-55.395" y2="0.413" xlink:href="#linear-gradient-24"/>
    <linearGradient id="linear-gradient-55" x1="-47.696" y1="0.625" x2="-48.101" y2="0.199" xlink:href="#linear-gradient-24"/>
    <linearGradient id="linear-gradient-56" x1="-62.069" y1="0.043" x2="-62.069" y2="1.032" xlink:href="#linear-gradient-25"/>
    <linearGradient id="linear-gradient-57" x1="-106.832" y1="-0.014" x2="-106.832" y2="1" xlink:href="#linear-gradient-25"/>
    <clipPath id="clip-path-10">
      <path id="Path_65" data-name="Path 65" d="M1395.53,1199.027a3.23,3.23,0,0,1,1.3.349c.692.346,2.248-.173,2.162,1.038a6.1,6.1,0,0,1-2.335,3.8c-1.038.605-.519,3.632-2.767,4.237a5.2,5.2,0,0,1-3.459,0s-.432-1.383.778-1.47,2.162-2.335,1.556-3.372-.951-2.075-.692-2.335a1.508,1.508,0,0,1,1.556-.432C1394.318,1201.1,1395.617,1201.272,1395.53,1199.027Z" transform="translate(-1390.352 -1199.027)" fill="url(#linear-gradient-10)"/>
    </clipPath>
    <linearGradient id="linear-gradient-59" x1="-54.365" y1="0.546" x2="-55.13" y2="0.37" xlink:href="#linear-gradient-24"/>
    <linearGradient id="linear-gradient-60" x1="-99.492" y1="0.549" x2="-100.214" y2="0.423" xlink:href="#linear-gradient-24"/>
    <linearGradient id="linear-gradient-61" x1="-55.546" y1="0.945" x2="-55.189" y2="1.593" xlink:href="#linear-gradient-25"/>
  </defs>
  <g id="logo" transform="translate(-509.37 -796.787)">
    <g id="Group_1" data-name="Group 1" transform="translate(509.37 805.777)">
      <path id="Path_2" data-name="Path 2" d="M679.4,1235.976a2.08,2.08,0,1,0,1.485.609A2.021,2.021,0,0,0,679.4,1235.976Z" transform="translate(-666.26 -1200.33)" fill="url(#linear-gradient-11)"/>
      <path id="Path_3" data-name="Path 3" d="M650.361,1150.99a1.841,1.841,0,0,1-.552-1.276,1.45,1.45,0,0,1,.438-1.028,1.909,1.909,0,0,1,1.428-.457,5.68,5.68,0,0,1,1.694.267q.856.266,1.39.495l1.828-3.617a8.048,8.048,0,0,0-2.589-1.314,9.958,9.958,0,0,0-2.894-.438,9.036,9.036,0,0,0-2.494.343,6.433,6.433,0,0,0-2.113,1.028,5.018,5.018,0,0,0-2.018,4.15,4.928,4.928,0,0,0,.685,2.513h-3.732v-6.473a.781.781,0,0,0-.762-.762h-3.807a.781.781,0,0,0-.762.762v6.473h-15.61v-6.473a.781.781,0,0,0-.761-.762h-3.807a.781.781,0,0,0-.762.762v8.757a3.055,3.055,0,0,0,3.046,3.046h38.075l1.142-5.33H651.9A2.264,2.264,0,0,1,650.361,1150.99Z" transform="translate(-615.161 -1124.386)" fill="url(#linear-gradient-11)"/>
      <path id="Path_4" data-name="Path 4" d="M873.691,1128.447a.966.966,0,0,0,.571.19h4.417l-1.9-16.181a.881.881,0,0,0-.343-.571.964.964,0,0,0-.571-.19h-4.417l1.9,16.181A.882.882,0,0,0,873.691,1128.447Z" transform="translate(-825.907 -1098.131)" fill="url(#linear-gradient-11)"/>
      <path id="Path_5" data-name="Path 5" d="M920.251,1100.98h-4.018a.793.793,0,0,0-.562.228.713.713,0,0,0-.241.533v14.849h-3.215v-.381a5.142,5.142,0,0,0-.663-2.722,5.434,5.434,0,0,0-1.688-1.751,6.958,6.958,0,0,0-2.331-.952,11.939,11.939,0,0,0-2.552-.286,12.518,12.518,0,0,0-2.391.247,8.177,8.177,0,0,0-2.35.838,5.074,5.074,0,0,0-1.788,1.618,4.413,4.413,0,0,0-.7,2.551v.838h-3.215v-14.849a.713.713,0,0,0-.241-.533.793.793,0,0,0-.562-.228h-4.018a.792.792,0,0,0-.562.228.713.713,0,0,0-.241.533v17.895a1.641,1.641,0,0,1-1,1.656,5.684,5.684,0,0,1-2.29.438,10.1,10.1,0,0,1-1.848-.171,16.232,16.232,0,0,1-1.688-.4l-1.205,3.807a22.862,22.862,0,0,0,3.214.838,17.455,17.455,0,0,0,3.174.3,9.418,9.418,0,0,0,4.3-.952,5.172,5.172,0,0,0,2.612-3.236h3.978a7.773,7.773,0,0,0,3.074,1.428,16.309,16.309,0,0,0,3.958.476,15.3,15.3,0,0,0,3.8-.457,6.3,6.3,0,0,0,2.833-1.447h6.028a3.184,3.184,0,0,0,2.27-.895,2.858,2.858,0,0,0,.944-2.151v-17.133a.713.713,0,0,0-.241-.533A.793.793,0,0,0,920.251,1100.98Zm-13.662,16.943q0,.3-.5.438a4.643,4.643,0,0,1-2.21,0q-.5-.133-.5-.438V1116.9a.857.857,0,0,1,.5-.8,2.424,2.424,0,0,1,2.21,0,.856.856,0,0,1,.5.8Z" transform="translate(-833.659 -1089.321)" fill="url(#linear-gradient-11)"/>
      <path id="Path_6" data-name="Path 6" d="M1129.927,1100.98h-4.018a.793.793,0,0,0-.563.228.714.714,0,0,0-.241.533v19.418a.713.713,0,0,0,.241.533.793.793,0,0,0,.563.229h4.018a.791.791,0,0,0,.562-.229.712.712,0,0,0,.241-.533v-19.418a.713.713,0,0,0-.241-.533A.791.791,0,0,0,1129.927,1100.98Z" transform="translate(-1034.495 -1089.321)" fill="url(#linear-gradient-11)"/>
      <path id="Path_7" data-name="Path 7" d="M628.34,1042.29H625.5v-1.06a1.394,1.394,0,0,1,.517-1.226,2.094,2.094,0,0,1,1.24-.365,5.151,5.151,0,0,1,.9.083,6.619,6.619,0,0,1,.956.249l.775-3.977a7.646,7.646,0,0,0-1.537-.48,7.729,7.729,0,0,0-1.486-.149,5.35,5.35,0,0,0-1.938.348,4.346,4.346,0,0,0-1.589,1.061,4.912,4.912,0,0,0-1.073,1.839,8.281,8.281,0,0,0-.388,2.684v3.645a2.221,2.221,0,0,0,.452,1.408,1.352,1.352,0,0,0,1.1.58h3.359a1.486,1.486,0,0,1-.3.944.9.9,0,0,1-.736.381h-5.944a.9.9,0,0,1-.736-.381,1.486,1.486,0,0,1-.3-.944v-4.308a.733.733,0,0,0-.155-.464.451.451,0,0,0-.362-.2h-2.584a.451.451,0,0,0-.362.2.733.733,0,0,0-.155.464v4.308a7.333,7.333,0,0,0,.362,2.319,6.262,6.262,0,0,0,.995,1.905A4.762,4.762,0,0,0,618,1052.43a3.735,3.735,0,0,0,1.809.464h5.944a3.733,3.733,0,0,0,1.809-.464,4.76,4.76,0,0,0,1.486-1.276,6.262,6.262,0,0,0,.995-1.905,7.333,7.333,0,0,0,.362-2.319v-1.988a2.953,2.953,0,0,0-.607-1.872A1.8,1.8,0,0,0,628.34,1042.29Z" transform="translate(-615.161 -1035.365)" fill="url(#linear-gradient-11)"/>
      <path id="Path_8" data-name="Path 8" d="M736.547,1042.878a1.8,1.8,0,0,0-1.46-.778h-4.135a2.138,2.138,0,0,0-1.047.248,3.4,3.4,0,0,0-.891.745l-2.2,2.651v-2.982a.732.732,0,0,0-.155-.464.451.451,0,0,0-.362-.2h-2.584a.452.452,0,0,0-.362.2.733.733,0,0,0-.155.464v5.633h-2.068v-1.69a8.025,8.025,0,0,0-.4-2.683,5.158,5.158,0,0,0-1.072-1.839,4.227,4.227,0,0,0-1.576-1.06,5.351,5.351,0,0,0-1.938-.348,7.918,7.918,0,0,0-1.5.149,7.028,7.028,0,0,0-1.524.48l.775,3.976a6.682,6.682,0,0,1,.956-.248,5.014,5.014,0,0,1,.879-.083,2.143,2.143,0,0,1,1.266.364,1.474,1.474,0,0,1,.517,1.292v1.69H712.6v4.639h22.483a1.8,1.8,0,0,0,1.46-.778,2.954,2.954,0,0,0,.607-1.873v-5.633A2.954,2.954,0,0,0,736.547,1042.878Zm-3.01,5.517h-4.419l1.576-1.657h2.843Z" transform="translate(-695.29 -1039.813)" fill="url(#linear-gradient-11)"/>
    </g>
    <g id="Group_25" data-name="Group 25" transform="translate(608.008 796.787)">
      <g id="Group_3" data-name="Group 3" transform="translate(27.02 3.899)">
        <path id="Path_9" data-name="Path 9" d="M1267.2,832.69a5.767,5.767,0,0,1,3.632-.346c1.816.519,5.448,1.989,6.658,3.2s1.816,2.162,2.508,1.816,3.026-1.556,1.988-2.94a5.779,5.779,0,0,0-2.335-.519c-1.3,0-5.534-4.669-7.263-4.756S1267.547,831.393,1267.2,832.69Z" transform="translate(-1267.201 -829.143)" fill="url(#linear-gradient)"/>
        <g id="Group_2" data-name="Group 2" clip-path="url(#clip-path)">
          <path id="Path_10" data-name="Path 10" d="M1275.082,830.818a2.02,2.02,0,0,0-2.681.778c-1.3,1.643,0,3.718,0,3.718l-4.842-3.113,3.486-1.8S1273.958,829.521,1275.082,830.818Z" transform="translate(-1267.516 -829.994)" opacity="0.49" fill="url(#linear-gradient-19)" style="mix-blend-mode: multiply;isolation: isolate"/>
        </g>
      </g>
      <path id="Path_12" data-name="Path 12" d="M1330.143,1093.213s.865,3.373,3.286,4.151,2.94,1.816,5.015,5.015,3.718,3.631,3.718,3.631-.346,3.632-2.594,1.384a43.478,43.478,0,0,0-8.042-6.745C1328.067,1098.488,1330.143,1093.213,1330.143,1093.213Z" transform="translate(-1294.994 -1057.491)" fill="url(#linear-gradient-20)"/>
      <g id="Group_6" data-name="Group 6" transform="translate(30.834 28.496)">
        <path id="Path_13" data-name="Path 13" d="M1301.688,1033.3a19.144,19.144,0,0,1,2.248,6.4c.519,3.545,1.124,6.917,4.67,10.117s3.977,4.842,3.977,4.842-3.459-3.978-6.745-5.188-4.15-1.3-5.015-2.421-2.335-5.707-1.9-6.658S1300.565,1032.608,1301.688,1033.3Z" transform="translate(-1298.844 -1033.251)" fill="url(#linear-gradient-2)"/>
        <g id="Group_5" data-name="Group 5" clip-path="url(#clip-path-2)">
          <path id="Path_14" data-name="Path 14" d="M1300.51,1037.006s-1.729-2.508.26-6.658,5.534-6.139,4.064-8.214-6.139-1.211-6.485,4.15S1298.435,1036.228,1300.51,1037.006Z" transform="translate(-1298.314 -1022.56)" opacity="0.44" fill="url(#linear-gradient-22)" style="mix-blend-mode: multiply;isolation: isolate"/>
          <path id="Path_15" data-name="Path 15" d="M1300.128,1012.86s-1.124,3.545-2.335,6.485-2.215,7.076-1.54,9.418-1.832-2.5-1.832-2.5-.346-6.139,0-6.226,2.637-4.67,2.637-4.67S1298.053,1010.785,1300.128,1012.86Z" transform="translate(-1294.819 -1014.843)" opacity="0.26" fill="url(#linear-gradient-23)" style="mix-blend-mode: multiply;isolation: isolate"/>
          <path id="Path_16" data-name="Path 16" d="M1325.68,1158.149s6.139,1.384,8.993,3.2,3.372,5.966,0,4.756S1325.68,1158.149,1325.68,1158.149Z" transform="translate(-1322.446 -1143.098)" opacity="0.82" fill="url(#linear-gradient-24)" style="mix-blend-mode: multiply;isolation: isolate"/>
          <path id="Path_17" data-name="Path 17" d="M1289.606,1093.222s2.032.886,1.772-1.621-2.248-4.755-2.161-6.312-4.842.432-3.891,3.286S1288.179,1093.373,1289.606,1093.222Z" transform="translate(-1286.848 -1078.538)" opacity="0.3" fill="url(#linear-gradient-25)" style="mix-blend-mode: screen;isolation: isolate"/>
          <g id="Group_4" data-name="Group 4" transform="translate(2.724 10.24)" opacity="0.3" style="mix-blend-mode: screen;isolation: isolate">
            <path id="Path_18" data-name="Path 18" d="M1321.446,1122.749a2.188,2.188,0,0,0,.382.111,1.9,1.9,0,0,0,.4.038,1.271,1.271,0,0,0,.4-.067.934.934,0,0,0,.346-.214,1.077,1.077,0,0,0,.224-.335,1.662,1.662,0,0,0,.1-.381,3.048,3.048,0,0,0,.007-.773,6.671,6.671,0,0,0-.341-1.492,13.084,13.084,0,0,0-.59-1.408,13.036,13.036,0,0,1,.549,1.421,6.618,6.618,0,0,1,.3,1.486,2.964,2.964,0,0,1-.027.748,1.539,1.539,0,0,1-.106.351.939.939,0,0,1-.205.289.917.917,0,0,1-.654.224,1.95,1.95,0,0,1-.708-.155Z" transform="translate(-1321.446 -1118.227)" fill="url(#linear-gradient-26)"/>
          </g>
        </g>
      </g>
      <g id="Group_8" data-name="Group 8" transform="translate(27.278 22.083)">
        <path id="Path_20" data-name="Path 20" d="M1273.142,980.1s4.583,1.124,3.286,7.35-3.113,10.2-1.557,12.8c0,0-5.447-6.917-5.534-11.933S1271.845,979.493,1273.142,980.1Z" transform="translate(-1269.336 -980.035)" fill="url(#linear-gradient-3)"/>
        <g id="Group_7" data-name="Group 7" clip-path="url(#clip-path-3)">
          <path id="Path_21" data-name="Path 21" d="M1259.348,980.155s2.665,2.513,1.332,7.093-6.953,5.358-6.953,5.358l-.519-6.485S1257.878,979.117,1259.348,980.155Z" transform="translate(-1255.152 -980.048)" opacity="0.4" fill="url(#linear-gradient-28)" style="mix-blend-mode: multiply;isolation: isolate"/>
          <path id="Path_22" data-name="Path 22" d="M1256.478,975.849s2.665,2.513,1.332,7.093-6.953,5.358-6.953,5.358l-.519-6.485S1255.008,974.811,1256.478,975.849Z" transform="translate(-1252.628 -976.261)" opacity="0.4" fill="url(#linear-gradient-29)" style="mix-blend-mode: multiply;isolation: isolate"/>
        </g>
      </g>
      <g id="Group_12" data-name="Group 12" transform="translate(12.114 32)">
        <path id="Path_24" data-name="Path 24" d="M1144.4,1063.283s4.5-3.113,8.474,1.9,4.929,3.372,4.929,3.372,1.9,2.508-.778,3.026c0,0-6.053-3.978-10.809-5.188S1144.4,1063.283,1144.4,1063.283Z" transform="translate(-1143.505 -1062.328)" fill="url(#linear-gradient-4)"/>
        <g id="Group_11" data-name="Group 11" clip-path="url(#clip-path-4)">
          <path id="Path_25" data-name="Path 25" d="M1149.7,1049.648s-3.372-1.989-6.139-.778.605,4.41.605,4.41l-3.113-.778-1.211-4.756,3.978-2.248,2.162.432S1149.7,1048.351,1149.7,1049.648Z" transform="translate(-1140.281 -1047.526)" fill="url(#linear-gradient-31)" style="mix-blend-mode: multiply;isolation: isolate"/>
          <path id="Path_26" data-name="Path 26" d="M1157.891,1058.275s-5.275-1.038-5.75,1.946l-.822-1.081,2.162-1.556,2.421-.605A3.716,3.716,0,0,1,1157.891,1058.275Z" transform="translate(-1150.378 -1057.623)" fill="#253063" opacity="0.26" style="mix-blend-mode: multiply;isolation: isolate"/>
          <g id="Group_10" data-name="Group 10" transform="translate(10.084 3.76)">
            <path id="Path_27" data-name="Path 27" d="M1227.186,1093.532a20.338,20.338,0,0,1,2.531,3.463,3.727,3.727,0,0,0,1.313,1.347c1.057.652,2.15.623,1.454-1-1.038-2.421-1.556-1.47-2.334-1.9A21.335,21.335,0,0,1,1227.186,1093.532Z" transform="translate(-1227.186 -1093.532)" fill="url(#linear-gradient-5)"/>
            <g id="Group_9" data-name="Group 9" clip-path="url(#clip-path-5)">
              <path id="Path_28" data-name="Path 28" d="M1223.131,1093.742a4.308,4.308,0,0,1-2.8-2.94c-.746-2.421-1.438-3.286-2.13-3.372s-2.161-.259-1.47,1.211S1221.488,1094.434,1223.131,1093.742Z" transform="translate(-1217.833 -1088.117)" opacity="0.82" fill="url(#linear-gradient-33)" style="mix-blend-mode: multiply;isolation: isolate"/>
            </g>
          </g>
        </g>
      </g>
      <g id="Group_14" data-name="Group 14" transform="translate(0.031 10.636)">
        <path id="Path_31" data-name="Path 31" d="M1054.75,892.236s-4.928-1.3-7.263-3.459-.605-2.335-1.989-3.459a1.406,1.406,0,0,0-1.643,0c-.865.605-.778,2.508,0,2.853s2.508,1.816,5.793,5.62C1049.649,893.792,1055.788,896.041,1054.75,892.236Z" transform="translate(-1043.239 -885.049)" fill="url(#linear-gradient-6)"/>
        <g id="Group_13" data-name="Group 13" clip-path="url(#clip-path-6)">
          <path id="Path_32" data-name="Path 32" d="M1095.148,937.15s-1.986,3.335-4.063,2.316,2.032,2.136,2.032,2.136l2.982-2.55S1096.618,937.15,1095.148,937.15Z" transform="translate(-1084.804 -930.871)" fill="#253063" opacity="0.26" style="mix-blend-mode: multiply;isolation: isolate"/>
          <path id="Path_33" data-name="Path 33" d="M1046.179,891.566s-.951,2.075-1.643,1.729-1.3-.086-1.081.389-.931.359-.617-.75,1.092-1.2,1.092-1.2l.519.346S1045.227,890.788,1046.179,891.566Z" transform="translate(-1042.838 -890.562)" opacity="0.42" fill="url(#linear-gradient-35)" style="mix-blend-mode: multiply;isolation: isolate"/>
        </g>
      </g>
      <path id="Path_35" data-name="Path 35" d="M1103.952,901.138c-.562-1.773-1.384,1.038-2.507,3.286s-3.373,3.8-5.015,3.026c0,0,2.335,3.632,5.1,2.594s5.707-5.188,5.015-7.263S1104.257,902.1,1103.952,901.138Z" transform="translate(-1089.988 -888.071)" fill="url(#linear-gradient-36)"/>
      <path id="Path_36" data-name="Path 36" d="M1044,885.939s-.628-.551-.368-.9.778.346,1.211,0,1.556-1.816.778-2.421a1.526,1.526,0,0,0-2.482.967C1042.764,885.043,1043.069,885.712,1044,885.939Z" transform="translate(-1042.981 -871.976)" fill="url(#linear-gradient-37)"/>
      <g id="Group_16" data-name="Group 16" transform="translate(6.589)">
        <path id="Path_37" data-name="Path 37" d="M1097.939,798.267c1.038-1.47,5.015-2.421,6.918,0s-.173,3.8.692,5.188a1.309,1.309,0,0,0,1.989.519c2.681-4.15,7-2.248,11.328-3.8s6.225,1.383,6.225,1.383c-1.989-.865-3.026.778-4.41,1.989-1.077.942-3.2,1.622-5.393,2.2.54,1.85,2.107,6.125,7.295,13.188,0,0,2.335,4.756-1.556,5.62s-5.1-3.286-5.1-3.286.605-1.211-2.508-2.94c-2.4-1.333-3.926-2.153-4.737-3.291-4.159-.345-4.6-4.483-4.6-6.48a4.5,4.5,0,0,0-1.3-3.286,11.18,11.18,0,0,1-3.026,1.384C1098.977,806.655,1096.9,799.737,1097.939,798.267Z" transform="translate(-1097.654 -796.787)" fill="url(#linear-gradient-7)"/>
        <g id="Group_15" data-name="Group 15" clip-path="url(#clip-path-7)">
          <path id="Path_38" data-name="Path 38" d="M1204.479,872.435l-2.248-1.3s-4.15,1.729-4.583,5.274-1.124,3.545-1.124,3.545,11.673-1.038,10.2-4.756S1204.479,872.435,1204.479,872.435Z" transform="translate(-1184.609 -862.178)" opacity="0.4" fill="url(#linear-gradient-39)" style="mix-blend-mode: multiply;isolation: isolate"/>
          <path id="Path_39" data-name="Path 39" d="M1204.479,872.435l-2.248-1.3s-4.15,1.729-4.583,5.274-1.124,3.545-1.124,3.545,11.673-1.038,10.2-4.756S1204.479,872.435,1204.479,872.435Z" transform="translate(-1184.609 -862.178)" opacity="0.4" fill="url(#linear-gradient-40)" style="mix-blend-mode: multiply;isolation: isolate"/>
          <path id="Path_40" data-name="Path 40" d="M1207.4,875.548a6.607,6.607,0,0,1,6.428-3.067l-2.032-1.342S1208.279,872.435,1207.4,875.548Z" transform="translate(-1194.175 -862.178)" opacity="0.41" fill="url(#linear-gradient-41)" style="mix-blend-mode: multiply;isolation: isolate"/>
          <path id="Path_41" data-name="Path 41" d="M1219.9,959.281a6.629,6.629,0,0,1-5.794-1.816c-2.94-2.594-6.917-.26-6.831,1.729s3.2,3.718,6.917,3.286S1220.506,960.837,1219.9,959.281Z" transform="translate(-1194.065 -937.092)" opacity="0.5" fill="url(#linear-gradient-42)" style="mix-blend-mode: multiply;isolation: isolate"/>
          <path id="Path_42" data-name="Path 42" d="M1213.876,952.463s-3.435.937-6.975-2.186-8.327-.312-8.223,2.082,3.851,4.476,8.328,3.956S1214.6,954.337,1213.876,952.463Z" transform="translate(-1186.503 -930.564)" opacity="0.82" fill="url(#linear-gradient-43)" style="mix-blend-mode: multiply;isolation: isolate"/>
          <path id="Path_43" data-name="Path 43" d="M1201.464,934.417s-4.522,1.233-9.181-2.877-10.962-.411-10.825,2.74,5.07,5.892,10.962,5.207S1202.423,936.884,1201.464,934.417Z" transform="translate(-1171.357 -913.7)" opacity="0.82" fill="url(#linear-gradient-44)" style="mix-blend-mode: multiply;isolation: isolate"/>
          <path id="Path_44" data-name="Path 44" d="M1238.7,982.528s.346,1.47-2.508,1.556-6.658-1.729-6.658-1.729l.865,3.113S1239.907,986.246,1238.7,982.528Z" transform="translate(-1213.639 -959.993)" fill="#253063" opacity="0.26" style="mix-blend-mode: multiply;isolation: isolate"/>
          <path id="Path_45" data-name="Path 45" d="M1139.208,836.424a3.394,3.394,0,0,0,1.706-2.958.973.973,0,0,0,1.075-.5,1.1,1.1,0,0,0,.15-.557c1.294-.22,3.035-.335,3.035.643,0,1.556-4.669,10.982-6.053,3.891Z" transform="translate(-1134.125 -827.983)" opacity="0.82" fill="url(#linear-gradient-45)" style="mix-blend-mode: multiply;isolation: isolate"/>
          <path id="Path_46" data-name="Path 46" d="M1159.768,843.943s-.692.087-.692,2.94-1.816,2.421-2.421,1.47S1157.26,841.522,1159.768,843.943Z" transform="translate(-1149.41 -837.75)" opacity="0.4" fill="url(#linear-gradient-46)" style="mix-blend-mode: multiply;isolation: isolate"/>
          <path id="Path_47" data-name="Path 47" d="M1220.718,812.747a8.284,8.284,0,0,1,4.175.484c2.335.865,5.967-1.989,3.372-3.026S1220.718,812.747,1220.718,812.747Z" transform="translate(-1205.888 -808.423)" fill="url(#linear-gradient-47)"/>
        </g>
      </g>
      <g id="Group_19" data-name="Group 19" transform="translate(10.59 22.497)">
        <path id="Path_49" data-name="Path 49" d="M1151.942,983.474s2.528,5.961-1.623,8.469-13.057.086-15.219,1.9,0,3.2,0,3.2-4.151-.692-4.237-3.8,6.485-8.3,14.267-7.782S1151.942,983.474,1151.942,983.474Z" transform="translate(-1130.863 -983.474)" fill="url(#linear-gradient-8)"/>
        <g id="Group_18" data-name="Group 18" clip-path="url(#clip-path-8)">
          <path id="Path_50" data-name="Path 50" d="M1127.508,996.979s.692,1.989,3.458-.778,4.842-4.323,6.572-4.41.259-4.928-4.323-2.594S1126.9,996.028,1127.508,996.979Z" transform="translate(-1127.81 -987.948)" opacity="0.3" fill="url(#linear-gradient-49)" style="mix-blend-mode: screen;isolation: isolate"/>
          <g id="Group_17" data-name="Group 17" transform="translate(-0.465 6.628)" opacity="0.3" style="mix-blend-mode: screen;isolation: isolate">
            <path id="Path_51" data-name="Path 51" d="M1127,1040.937a.937.937,0,0,0,.054.115c.019.035.039.068.06.1a1.244,1.244,0,0,0,.145.183,1.177,1.177,0,0,0,.382.273,1.341,1.341,0,0,0,.9.047,2.781,2.781,0,0,0,.779-.354,5.876,5.876,0,0,0,.668-.5c.421-.362.788-.773,1.17-1.164s.77-.779,1.168-1.156c-.417.355-.826.722-1.228,1.094s-.791.761-1.22,1.092a5.8,5.8,0,0,1-.669.451,2.575,2.575,0,0,1-.727.287,1.061,1.061,0,0,1-.71-.068.86.86,0,0,1-.271-.216.964.964,0,0,1-.1-.144c-.015-.025-.029-.051-.041-.078a.679.679,0,0,1-.031-.073Z" transform="translate(-1127.004 -1038.478)" fill="url(#linear-gradient-50)"/>
          </g>
          <path id="Path_52" data-name="Path 52" d="M1189.4,1042.031a3.2,3.2,0,0,1-3.93-2.275s-12.192-.086-7.7,3.891S1189.4,1042.031,1189.4,1042.031Z" transform="translate(-1171.249 -1032.973)" opacity="0.17" fill="url(#linear-gradient-51)" style="mix-blend-mode: multiply;isolation: isolate"/>
          <path id="Path_53" data-name="Path 53" d="M1189.4,1042.031a3.2,3.2,0,0,1-3.93-2.275s-12.192-.086-7.7,3.891S1189.4,1042.031,1189.4,1042.031Z" transform="translate(-1171.249 -1032.973)" opacity="0.35" fill="url(#linear-gradient-52)" style="mix-blend-mode: multiply;isolation: isolate"/>
        </g>
      </g>
      <g id="Group_22" data-name="Group 22" transform="translate(24.806 37.577)">
        <path id="Path_55" data-name="Path 55" d="M1250.4,1109.469s-.705-.082-.273-.514a4.362,4.362,0,0,1,2.94-.173c.259.259.692,1.124.346,3.459,0,0-.259.432.432,1.3a5.261,5.261,0,0,1,.865,5.015c-.865,1.989-2.335,1.038-2.335.259a6.2,6.2,0,0,0-1.47-4.063s-2.248-.951-2.075-1.643,1.431-1.45,1.753-1.331S1250.85,1109.81,1250.4,1109.469Z" transform="translate(-1248.825 -1108.605)" fill="url(#linear-gradient-9)"/>
        <g id="Group_21" data-name="Group 21" clip-path="url(#clip-path-9)">
          <path id="Path_56" data-name="Path 56" d="M1270.64,1107.257a6.224,6.224,0,0,1-1.557-3c-.346-1.816-.432-2.421-1.211-2.854s1.643-.087,1.816.173,1.037,3.891,1.124,4.15A6.789,6.789,0,0,1,1270.64,1107.257Z" transform="translate(-1265.442 -1102.091)" opacity="0.82" fill="url(#linear-gradient-54)" style="mix-blend-mode: multiply;isolation: isolate"/>
          <path id="Path_57" data-name="Path 57" d="M1251.865,1126.79s1.15.22,1.755,2.3,1.556-2.421-1.47-3.113S1251.865,1126.79,1251.865,1126.79Z" transform="translate(-1250.498 -1123.719)" opacity="0.42" fill="url(#linear-gradient-55)" style="mix-blend-mode: multiply;isolation: isolate"/>
          <path id="Path_58" data-name="Path 58" d="M1268.041,1161.286s2.335-.432,1.3-3.2-2.94.433-2.421,1.9S1268.041,1161.286,1268.041,1161.286Z" transform="translate(-1264.66 -1151.165)" opacity="0.3" fill="url(#linear-gradient-56)" style="mix-blend-mode: screen;isolation: isolate"/>
          <g id="Group_20" data-name="Group 20" transform="translate(3.358 6.922)" opacity="0.3" style="mix-blend-mode: screen;isolation: isolate">
            <path id="Path_59" data-name="Path 59" d="M1276.739,1169.369a2.243,2.243,0,0,0,.5-.191,2.187,2.187,0,0,0,.434-.293,1.852,1.852,0,0,0,.566-.864,2.35,2.35,0,0,0,.054-1.014,4.151,4.151,0,0,0-.278-.964,4.1,4.1,0,0,1,.213.972,2.251,2.251,0,0,1-.113.965,1.689,1.689,0,0,1-.566.754,1.98,1.98,0,0,1-.41.24,2.039,2.039,0,0,1-.445.141Z" transform="translate(-1276.692 -1166.042)" fill="url(#linear-gradient-57)"/>
          </g>
        </g>
      </g>
      <g id="Group_24" data-name="Group 24" transform="translate(41.861 48.473)">
        <path id="Path_61" data-name="Path 61" d="M1395.53,1199.027a3.23,3.23,0,0,1,1.3.349c.692.346,2.248-.173,2.162,1.038a6.1,6.1,0,0,1-2.335,3.8c-1.038.605-.519,3.632-2.767,4.237a5.2,5.2,0,0,1-3.459,0s-.432-1.383.778-1.47,2.162-2.335,1.556-3.372-.951-2.075-.692-2.335a1.508,1.508,0,0,1,1.556-.432C1394.318,1201.1,1395.617,1201.272,1395.53,1199.027Z" transform="translate(-1390.352 -1199.027)" fill="url(#linear-gradient-10)"/>
        <g id="Group_23" data-name="Group 23" clip-path="url(#clip-path-10)">
          <path id="Path_62" data-name="Path 62" d="M1437.614,1203.029a9.838,9.838,0,0,1,.691-3.113c.605-1.3,1.3-2.767,0-3.8s3.2.259,3.2.259a8.567,8.567,0,0,1-1.557,3.978C1438.652,1201.905,1437.614,1203.029,1437.614,1203.029Z" transform="translate(-1431.919 -1196.109)" opacity="0.82" fill="url(#linear-gradient-59)" style="mix-blend-mode: multiply;isolation: isolate"/>
          <path id="Path_63" data-name="Path 63" d="M1418.342,1201.677s.778.951,0,3.026,3.372-2.335,1.124-4.064S1418.342,1201.677,1418.342,1201.677Z" transform="translate(-1414.722 -1199.945)" opacity="0.37" fill="url(#linear-gradient-60)" style="mix-blend-mode: multiply;isolation: isolate"/>
          <path id="Path_64" data-name="Path 64" d="M1392.5,1250.232s-.778.951.865.692,2.94-1.47,2.507-2.421S1392.5,1250.232,1392.5,1250.232Z" transform="translate(-1392.08 -1242.36)" opacity="0.64" fill="url(#linear-gradient-61)" style="mix-blend-mode: screen;isolation: isolate"/>
        </g>
      </g>
    </g>
  </g>
</svg>
