<svg xmlns="http://www.w3.org/2000/svg" width="1152.878" height="773.542" viewBox="0 0 1152.878 773.542">
  <g id="About_icons" data-name="About icons" transform="translate(-394.831 -3149)">
    <g id="briefing" transform="translate(697.979 3151)">
      <path id="Path_102" data-name="Path 102" d="M34.628,90.451H1.774A1.774,1.774,0,0,1,0,88.677V43.106a1.774,1.774,0,0,1,1.774-1.774H34.628A1.774,1.774,0,0,1,36.4,43.106V88.677A1.774,1.774,0,0,1,34.628,90.451Zm0,0" transform="translate(-0.001 -37.019)" fill="#ffded5"/>
      <path id="Path_103" data-name="Path 103" d="M34.555,41.332H32.621v43.4a1.846,1.846,0,0,1-1.846,1.846H0V88.6a1.846,1.846,0,0,0,1.846,1.846H34.555A1.846,1.846,0,0,0,36.4,88.6V43.178a1.846,1.846,0,0,0-1.846-1.846Zm0,0" transform="translate(0 -37.019)" fill="#f7c6ba"/>
      <path id="Path_104" data-name="Path 104" d="M118.582,7.494H106.22a1.044,1.044,0,0,1-1.044-1.044V2.5a2.5,2.5,0,0,1,2.5-2.5h9.44a2.5,2.5,0,0,1,2.5,2.5V6.45A1.044,1.044,0,0,1,118.582,7.494Zm0,0" transform="translate(-94.2 0)" fill="#ff6914"/>
      <path id="Path_105" data-name="Path 105" d="M117.018,0h-.665a2.614,2.614,0,0,1,.083.656v3.8a1.086,1.086,0,0,1-1.086,1.086H105.175v.865a1.086,1.086,0,0,0,1.086,1.086h12.277a1.086,1.086,0,0,0,1.086-1.086v-3.8A2.607,2.607,0,0,0,117.018,0Zm0,0" transform="translate(-94.2)" fill="#ed500a"/>
      <path id="Path_106" data-name="Path 106" d="M249.925,81.373a9.451,9.451,0,1,1-9.451-9.451A9.451,9.451,0,0,1,249.925,81.373Zm0,0" transform="translate(-206.914 -64.416)" fill="#ff8900"/>
      <path id="Path_107" data-name="Path 107" d="M265.625,78.258a9.453,9.453,0,0,1-10.406,15.219,9.452,9.452,0,1,0,10.406-15.219Zm0,0" transform="translate(-228.585 -70.091)" fill="#ff6914"/>
      <path id="Path_108" data-name="Path 108" d="M262.173,87.781a1.847,1.847,0,0,1-1.305-.541l-4.521-4.521a1.846,1.846,0,1,1,2.611-2.611l3.216,3.216,8.355-8.355a1.846,1.846,0,0,1,2.611,2.611l-9.66,9.66A1.847,1.847,0,0,1,262.173,87.781Zm0,0" transform="translate(-229.11 -66.66)" fill="#0882bf"/>
      <path id="Path_109" data-name="Path 109" d="M305.818,75.607a1.837,1.837,0,0,0-.787-.466,1.846,1.846,0,0,1-.467,1.823l-9.66,9.661a1.847,1.847,0,0,1-2.611,0l1.254,1.254a1.846,1.846,0,0,0,2.611,0l9.66-9.66a1.847,1.847,0,0,0,0-2.611Zm0,0" transform="translate(-261.789 -67.299)" fill="#005ca0"/>
      <g id="Group_23" data-name="Group 23" transform="translate(3.549 11.128)">
        <path id="Path_110" data-name="Path 110" d="M111.5,188.123h-9.84a.808.808,0,0,1,0-1.615h9.84a.808.808,0,0,1,0,1.615Zm0,0" transform="translate(-93.872 -178.171)" fill="#0882bf"/>
        <path id="Path_111" data-name="Path 111" d="M40.249,108.244H34.815a.808.808,0,0,1,0-1.615h5.434a.808.808,0,0,1,0,1.615Zm0,0" transform="translate(-34.008 -106.628)" fill="#0882bf"/>
        <path id="Path_112" data-name="Path 112" d="M111.5,224.022h-9.84a.808.808,0,1,1,0-1.615h9.84a.808.808,0,1,1,0,1.615Zm0,0" transform="translate(-93.872 -210.324)" fill="#0882bf"/>
        <path id="Path_113" data-name="Path 113" d="M114.895,281.979H101.655a.808.808,0,1,1,0-1.615h13.239a.808.808,0,1,1,0,1.615Zm0,0" transform="translate(-93.872 -262.232)" fill="#0882bf"/>
        <path id="Path_114" data-name="Path 114" d="M108.276,317.88h-6.62a.807.807,0,1,1,0-1.615h6.62a.807.807,0,1,1,0,1.615Zm0,0" transform="translate(-93.873 -294.388)" fill="#0882bf"/>
        <path id="Path_115" data-name="Path 115" d="M111.5,375.936h-9.84a.808.808,0,1,1,0-1.615h9.84a.808.808,0,1,1,0,1.615Zm0,0" transform="translate(-93.872 -346.384)" fill="#0882bf"/>
        <path id="Path_116" data-name="Path 116" d="M114.895,411.834H101.655a.808.808,0,1,1,0-1.615h13.239a.808.808,0,1,1,0,1.615Zm0,0" transform="translate(-93.872 -378.536)" fill="#0882bf"/>
      </g>
      <path id="Path_117" data-name="Path 117" d="M39.558,189.994A2.455,2.455,0,1,1,37.1,187.54,2.455,2.455,0,0,1,39.558,189.994Zm0,0" transform="translate(-31.033 -167.968)" fill="#ff8900"/>
      <path id="Path_118" data-name="Path 118" d="M39.558,284.99a2.455,2.455,0,1,1-2.455-2.454A2.454,2.454,0,0,1,39.558,284.99Zm0,0" transform="translate(-31.033 -253.05)" fill="#ff8900"/>
      <path id="Path_119" data-name="Path 119" d="M39.558,378.943a2.455,2.455,0,1,1-2.455-2.454A2.455,2.455,0,0,1,39.558,378.943Zm0,0" transform="translate(-31.033 -337.198)" fill="#ff8900"/>
    </g>
    <g id="animation" transform="translate(1190.703 3876)">
      <path id="Path_120" data-name="Path 120" d="M206.789,332.3h9.772v8.424h-9.772Zm0,0" transform="translate(-186.257 -299.353)" fill="#1dc2ff"/>
      <path id="Path_121" data-name="Path 121" d="M276.465,332.3h2.854v8.424h-2.854Zm0,0" transform="translate(-249.015 -299.353)" fill="#00a2ff"/>
      <path id="Path_122" data-name="Path 122" d="M49.3.5H1.534A1.533,1.533,0,0,0,0,2.034V33.875a1.533,1.533,0,0,0,1.534,1.534H49.3a1.533,1.533,0,0,0,1.534-1.534V2.034A1.533,1.533,0,0,0,49.3.5Zm0,0" transform="translate(-0.001 -0.5)" fill="#1dc2ff"/>
      <path id="Path_123" data-name="Path 123" d="M49.3.5h-.832V31.213a1.534,1.534,0,0,1-1.534,1.534H0v1.129a1.533,1.533,0,0,0,1.534,1.534H49.3a1.533,1.533,0,0,0,1.534-1.534V2.034A1.533,1.533,0,0,0,49.3.5Zm0,0" transform="translate(-0.001 -0.5)" fill="#00a2ff"/>
      <path id="Path_124" data-name="Path 124" d="M166.163,408.023H181.88a1.178,1.178,0,0,1,1.178,1.178v.07a1.178,1.178,0,0,1-1.178,1.178H166.163a1.178,1.178,0,0,1-1.178-1.178v-.07A1.178,1.178,0,0,1,166.163,408.023Zm0,0" transform="translate(-148.604 -367.561)" fill="#1dc2ff"/>
      <path id="Path_125" data-name="Path 125" d="M299.124,408.02h-3.972a1.178,1.178,0,0,1,1.178,1.178v.07a1.178,1.178,0,0,1-1.178,1.178h3.972a1.178,1.178,0,0,0,1.178-1.178v-.07A1.178,1.178,0,0,0,299.124,408.02Zm0,0" transform="translate(-265.847 -367.558)" fill="#00a2ff"/>
      <path id="Path_126" data-name="Path 126" d="M75.606,61.951H32.024a.5.5,0,0,1-.5-.5V35.782a.5.5,0,0,1,.5-.5H75.606a.5.5,0,0,1,.5.5V61.455A.5.5,0,0,1,75.606,61.951Zm0,0" transform="translate(-28.398 -31.832)" fill="#d2ffff"/>
      <path id="Path_127" data-name="Path 127" d="M38.615,45.885H31.527v-10.1a.5.5,0,0,1,.5-.5h6.591Zm0,0" transform="translate(-28.397 -31.831)" fill="#0470b2"/>
      <path id="Path_128" data-name="Path 128" d="M412.461,50.982h-6.507a.993.993,0,0,1-.993-.993V34.829h7a.5.5,0,0,1,.5.5Zm0,0" transform="translate(-364.753 -31.421)" fill="#0470b2"/>
      <path id="Path_129" data-name="Path 129" d="M37.622,142.791H31.527v-6.08h7.087V141.8A.993.993,0,0,1,37.622,142.791Zm0,0" transform="translate(-28.397 -123.187)" fill="#0882bf"/>
      <path id="Path_130" data-name="Path 130" d="M89.77,259.842H49.849a.767.767,0,0,1,0-1.534H89.77a.767.767,0,0,1,0,1.534Zm0,0" transform="translate(-44.209 -232.711)" fill="#0882bf"/>
      <path id="Path_131" data-name="Path 131" d="M355.846,249.048a1.872,1.872,0,1,1-1.872-1.872A1.872,1.872,0,0,1,355.846,249.048Zm0,0" transform="translate(-317.142 -222.684)" fill="#ff738b"/>
      <path id="Path_132" data-name="Path 132" d="M114.772,249.048a1.872,1.872,0,1,1-1.872-1.872A1.872,1.872,0,0,1,114.772,249.048Zm0,0" transform="translate(-100.003 -222.684)" fill="#ff738b"/>
      <path id="Path_133" data-name="Path 133" d="M89.77,222.01H49.849a.767.767,0,1,1,0-1.534H89.77a.767.767,0,1,1,0,1.534Zm0,0" transform="translate(-44.209 -198.636)" fill="#0882bf"/>
      <path id="Path_134" data-name="Path 134" d="M193.112,211.212a1.872,1.872,0,1,1-1.872-1.872A1.872,1.872,0,0,1,193.112,211.212Zm0,0" transform="translate(-170.565 -188.604)" fill="#ff738b"/>
      <path id="Path_135" data-name="Path 135" d="M223.287,65.574l-9.446-5.454a.993.993,0,0,0-1.489.86V71.888a.993.993,0,0,0,1.489.86l9.446-5.453a.993.993,0,0,0,0-1.72Zm0,0" transform="translate(-191.268 -54.08)" fill="#005ca0"/>
      <path id="Path_136" data-name="Path 136" d="M223.243,108.184l-1.5-.863a1.006,1.006,0,0,1-.484.655l-8.912,5.146v1.351a1.022,1.022,0,0,0,1.534.885l9.358-5.4A1.023,1.023,0,0,0,223.243,108.184Zm0,0" transform="translate(-191.268 -96.715)" fill="#005182"/>
    </g>
    <g id="ideas" transform="translate(1189.692 3149)">
      <path id="Path_137" data-name="Path 137" d="M123.783,85.478a16.275,16.275,0,1,0-26.1,12.978,5.306,5.306,0,0,1,2.082,4.234v7.5a4.512,4.512,0,0,0,4.512,4.512h7.134a4.264,4.264,0,0,0,4.264-4.264v-8.123a5.323,5.323,0,0,1,2.013-4.143,16.242,16.242,0,0,0,6.089-12.693Zm0,0" transform="translate(-80.644 -61.126)" fill="#fbd200"/>
      <path id="Path_138" data-name="Path 138" d="M181.45,86.328a16.272,16.272,0,0,1-1.711,23.8,5.324,5.324,0,0,0-2.013,4.143v7.874a4.512,4.512,0,0,1-4.512,4.512h-6.886c-.078,0-.156,0-.234-.006a4.514,4.514,0,0,0,4.311,3.178h7.134a4.264,4.264,0,0,0,4.264-4.264v-8.122a5.322,5.322,0,0,1,2.013-4.143,16.277,16.277,0,0,0-2.367-26.97Zm0,0" transform="translate(-146.767 -76.253)" fill="#f39320"/>
      <path id="Path_139" data-name="Path 139" d="M225.81,447.368a.889.889,0,0,1-.889-.889v-6.763a.888.888,0,0,1,1.777,0v6.763A.888.888,0,0,1,225.81,447.368Zm0,0" transform="translate(-198.729 -387.613)" fill="#1dc2ff"/>
      <path id="Path_140" data-name="Path 140" d="M202.942,233.154a.889.889,0,0,0-1.256,0l-2.949,2.949-2.949-2.95a.888.888,0,1,0-1.256,1.256l3.318,3.318v12.519a.888.888,0,1,0,1.777,0V237.728l3.317-3.318a.889.889,0,0,0,0-1.256Zm0,0" transform="translate(-171.655 -205.713)" fill="#ff6914"/>
      <path id="Path_141" data-name="Path 141" d="M181.45,86.328a16.272,16.272,0,0,1-1.711,23.8,5.324,5.324,0,0,0-2.013,4.143v7.874a4.512,4.512,0,0,1-4.512,4.512h-6.886c-.078,0-.156,0-.234-.006a4.514,4.514,0,0,0,4.311,3.178h7.134a4.264,4.264,0,0,0,4.264-4.264v-8.122a5.322,5.322,0,0,1,2.013-4.143,16.277,16.277,0,0,0-2.367-26.97Zm0,0" transform="translate(-146.767 -76.253)" fill="#f39320"/>
      <path id="Path_142" data-name="Path 142" d="M340.667,8.341h-7.64a.35.35,0,0,1-.35-.35V.35a.35.35,0,0,1,.35-.35h7.64a.35.35,0,0,1,.35.35v7.64A.35.35,0,0,1,340.667,8.341Zm0,0" transform="translate(-293.908)" fill="#ff738b"/>
      <path id="Path_143" data-name="Path 143" d="M9.161,259.108l-8.136-4.7a.35.35,0,0,0-.525.3v9.395a.35.35,0,0,0,.525.3l8.136-4.7A.35.35,0,0,0,9.161,259.108Zm0,0" transform="translate(-0.5 -224.676)" fill="#0882bf"/>
      <path id="Path_144" data-name="Path 144" d="M402.06,133.411a3.392,3.392,0,1,1-3.392-3.391A3.392,3.392,0,0,1,402.06,133.411Zm0,0" transform="translate(-349.203 -114.845)" fill="#1dc2ff"/>
      <path id="Path_145" data-name="Path 145" d="M376.543,0V8.341h2.871a.35.35,0,0,0,.35-.35V.35a.35.35,0,0,0-.35-.35Zm0,0" transform="translate(-332.655)" fill="#ee4a84"/>
      <path id="Path_146" data-name="Path 146" d="M6.752,283.1.5,286.707v2.783a.35.35,0,0,0,.525.3l8.136-4.7a.35.35,0,0,0,0-.606Zm0,0" transform="translate(-0.5 -250.058)" fill="#005ca0"/>
      <path id="Path_147" data-name="Path 147" d="M416.348,130.02a3.394,3.394,0,0,0-1.055.168,3.392,3.392,0,0,1,0,6.447,3.392,3.392,0,1,0,1.055-6.615Zm0,0" transform="translate(-366.883 -114.845)" fill="#00a2ff"/>
      <path id="Path_148" data-name="Path 148" d="M181.45,86.328a16.272,16.272,0,0,1-1.711,23.8,5.324,5.324,0,0,0-2.013,4.143v7.874a4.512,4.512,0,0,1-4.512,4.512h-6.886c-.078,0-.156,0-.234-.006a4.514,4.514,0,0,0,4.311,3.178h7.134a4.264,4.264,0,0,0,4.264-4.264v-8.122a5.322,5.322,0,0,1,2.013-4.143,16.277,16.277,0,0,0-2.367-26.97Zm0,0" transform="translate(-146.767 -76.253)" fill="#fab700"/>
      <path id="Path_149" data-name="Path 149" d="M164.371,364.418v6.531a4.512,4.512,0,0,0,4.512,4.512h7.134a4.264,4.264,0,0,0,4.264-4.264v-6.78Zm0,0" transform="translate(-145.246 -321.887)" fill="#32e4ff"/>
      <path id="Path_150" data-name="Path 150" d="M177.726,364.418v3.36a4.512,4.512,0,0,1-4.512,4.512h-6.886l-.234-.005a4.514,4.514,0,0,0,4.311,3.177h7.134a4.242,4.242,0,0,0,1.938-.466,4.269,4.269,0,0,0,2.326-3.8v-6.779h-4.078Zm0,0" transform="translate(-146.768 -321.887)" fill="#1dc2ff"/>
      <path id="Path_151" data-name="Path 151" d="M164.371,364.418h15.911V369.2H164.371Zm0,0" transform="translate(-145.246 -321.887)" fill="#1dc2ff"/>
      <path id="Path_152" data-name="Path 152" d="M264.02,367.777a4.5,4.5,0,0,1-.23,1.422H268.1v-4.782H264.02Zm0,0" transform="translate(-233.061 -321.887)" fill="#00a2ff"/>
      <path id="Path_153" data-name="Path 153" d="M41.354,32.333l.287,1.17a5.918,5.918,0,0,0,3.567,4.023.285.285,0,0,1,0,.474,5.918,5.918,0,0,0-3.567,4.024l-.287,1.17a.237.237,0,0,1-.46,0l-.286-1.17A5.92,5.92,0,0,0,37.04,38a.285.285,0,0,1,0-.474A5.918,5.918,0,0,0,40.608,33.5l.286-1.17A.237.237,0,0,1,41.354,32.333Zm0,0" transform="translate(-32.663 -28.4)" fill="#fab700"/>
      <path id="Path_154" data-name="Path 154" d="M42.5,61.813a6.432,6.432,0,0,1-2.732-2.165,6.436,6.436,0,0,1-2.732,2.165.285.285,0,0,0,0,.474,6.436,6.436,0,0,1,2.732,2.165A6.432,6.432,0,0,1,42.5,62.287.285.285,0,0,0,42.5,61.813Zm0,0" transform="translate(-32.663 -52.687)" fill="#fad200"/>
      <path id="Path_155" data-name="Path 155" d="M345.362,339.243l.382,1.564a7.912,7.912,0,0,0,4.769,5.378.381.381,0,0,1,0,.633,7.911,7.911,0,0,0-4.769,5.378l-.382,1.564a.317.317,0,0,1-.615,0l-.383-1.564a7.909,7.909,0,0,0-4.769-5.378.38.38,0,0,1,0-.633,7.91,7.91,0,0,0,4.769-5.378l.383-1.564A.317.317,0,0,1,345.362,339.243Zm0,0" transform="translate(-299.87 -299.437)" fill="#fab700"/>
      <path id="Path_156" data-name="Path 156" d="M346.9,378.648a8.6,8.6,0,0,1-3.652-2.894,8.6,8.6,0,0,1-3.652,2.894.38.38,0,0,0,0,.633,8.6,8.6,0,0,1,3.652,2.894,8.6,8.6,0,0,1,3.652-2.894A.381.381,0,0,0,346.9,378.648Zm0,0" transform="translate(-299.87 -331.9)" fill="#fad200"/>
    </g>
    <g id="branding" transform="translate(1493.149 3325)">
      <path id="Path_157" data-name="Path 157" d="M107.89,106.927h-36.1a1.656,1.656,0,0,1-1.656-1.656V58.324a1.656,1.656,0,0,1,1.656-1.656h36.1a1.656,1.656,0,0,1,1.656,1.656v46.948A1.656,1.656,0,0,1,107.89,106.927Zm0,0" transform="translate(-62.391 -50.413)" fill="#ffded5"/>
      <path id="Path_158" data-name="Path 158" d="M107.867,56.668H105.63v46.6a1.678,1.678,0,0,1-1.678,1.678H70.132v.3a1.678,1.678,0,0,0,1.678,1.678h36.057a1.678,1.678,0,0,0,1.678-1.678v-46.9a1.678,1.678,0,0,0-1.678-1.678Zm0,0" transform="translate(-62.391 -50.413)" fill="#f7c6ba"/>
      <path id="Path_159" data-name="Path 159" d="M126.6,31.763H120.73V28.374a1.753,1.753,0,0,1,1.752-1.753h2.37a1.752,1.752,0,0,1,1.752,1.753Zm0,0" transform="translate(-107.404 -23.683)" fill="#1dc2ff"/>
      <path id="Path_160" data-name="Path 160" d="M332.031,31.763h-5.875V28.374a1.752,1.752,0,0,1,1.752-1.753h2.37a1.753,1.753,0,0,1,1.752,1.753Zm0,0" transform="translate(-290.155 -23.683)" fill="#1dc2ff"/>
      <path id="Path_161" data-name="Path 161" d="M140.581,5.178a.839.839,0,0,1-.839-.839V.839a.839.839,0,1,1,1.678,0v3.5A.839.839,0,0,1,140.581,5.178Zm0,0" transform="translate(-124.318)" fill="#00a2ff"/>
      <path id="Path_162" data-name="Path 162" d="M346,5.178a.839.839,0,0,1-.839-.839V.839a.839.839,0,1,1,1.678,0v3.5A.839.839,0,0,1,346,5.178Zm0,0" transform="translate(-307.065)" fill="#00a2ff"/>
      <path id="Path_163" data-name="Path 163" d="M332.034,115.078h-12.5a1.656,1.656,0,0,1-1.656-1.656v-5.516a1.656,1.656,0,0,1,1.656-1.656h12.5a1.656,1.656,0,0,1,1.656,1.656v5.516A1.656,1.656,0,0,1,332.034,115.078Zm0,0" transform="translate(-282.788 -94.523)" fill="#1dc2ff"/>
      <path id="Path_164" data-name="Path 164" d="M428.514,106.25h-2.163a1.678,1.678,0,0,1,1.678,1.678V113.4a1.678,1.678,0,0,1-1.678,1.678h2.163a1.678,1.678,0,0,0,1.678-1.678v-5.472A1.678,1.678,0,0,0,428.514,106.25Zm0,0" transform="translate(-379.291 -94.522)" fill="#00a2ff"/>
      <path id="Path_165" data-name="Path 165" d="M32.522,214.4H5.212L.439,212.958a.743.743,0,0,1-.008-1.35l4.781-1.495h27.31a2.146,2.146,0,1,1,0,4.291Zm0,0" transform="translate(-0.001 -186.921)" fill="#1dc2ff"/>
      <path id="Path_166" data-name="Path 166" d="M32.791,210.2c0,.042.006.083.006.125a2.146,2.146,0,0,1-2.146,2.146H.078a.732.732,0,0,0,.429.564l4.773,1.446H32.591a2.145,2.145,0,0,0,.2-4.281Zm0,0" transform="translate(-0.069 -187.001)" fill="#00a2ff"/>
      <path id="Path_167" data-name="Path 167" d="M121.063,138.7H103.831a.839.839,0,1,1,0-1.678h17.232a.839.839,0,1,1,0,1.678Zm0,0" transform="translate(-91.624 -121.899)" fill="#32e4ff"/>
      <path id="Path_168" data-name="Path 168" d="M115.472,167.08H103.83a.839.839,0,0,1,0-1.678h11.642a.839.839,0,0,1,0,1.678Zm0,0" transform="translate(-91.623 -147.145)" fill="#32e4ff"/>
      <path id="Path_169" data-name="Path 169" d="M6.129,210.113H5.213L.432,211.607a.743.743,0,0,0,.008,1.351L5.213,214.4h.917v-4.291Zm0,0" transform="translate(-0.002 -186.921)" fill="#ffded5"/>
      <path id="Path_170" data-name="Path 170" d="M.094,230.848a.73.73,0,0,0,.427.557l4.773,1.446H6.21v-2Zm0,0" transform="translate(-0.083 -205.367)" fill="#f7cdc4"/>
      <path id="Path_171" data-name="Path 171" d="M3.542,214.84l-3.112.973a.743.743,0,0,0,.008,1.351l3.1.94Zm0,0" transform="translate(0 -191.126)" fill="#00a2ff"/>
      <path id="Path_172" data-name="Path 172" d="M104.724,295.362a4.186,4.186,0,1,1-4.187-4.187A4.187,4.187,0,0,1,104.724,295.362Zm0,0" transform="translate(-85.716 -259.036)" fill="#1dc2ff"/>
      <path id="Path_173" data-name="Path 173" d="M226.978,311.229h-29.65a1.656,1.656,0,0,1-1.656-1.656V293.011a1.656,1.656,0,0,1,1.656-1.656h29.65a1.656,1.656,0,0,1,1.656,1.656v16.562A1.656,1.656,0,0,1,226.978,311.229Zm0,0" transform="translate(-174.074 -259.195)" fill="#1dc2ff"/>
      <path id="Path_174" data-name="Path 174" d="M232.024,331.444l-16-16.8-16,16.8a1.673,1.673,0,0,0,1.2.5h29.605a1.674,1.674,0,0,0,1.2-.5Zm0,0" transform="translate(-177.944 -279.915)" fill="#00a2ff"/>
      <path id="Path_175" data-name="Path 175" d="M230.827,291.355h-.912v15.481a1.678,1.678,0,0,1-1.678,1.678H202.13l-2.106,2.211.054.051.05.046.058.047.057.043.058.04c.036.024.073.047.112.068h0c.044.025.091.047.138.068l.007,0h0c.044.019.09.035.136.05l.02.007c.043.013.087.024.131.034l.028.007h0c.043.009.086.015.13.02h.005l.033,0a1.639,1.639,0,0,0,.173.009h29.605a1.678,1.678,0,0,0,1.678-1.678V293.033a1.678,1.678,0,0,0-1.678-1.678Zm0,0" transform="translate(-177.945 -259.195)" fill="#00a2ff"/>
      <path id="Path_176" data-name="Path 176" d="M231.038,445.429c.044-.006.088-.012.13-.02l.031-.008c.044-.01.088-.021.131-.035l.019-.007c.047-.015.092-.032.137-.051l.009,0a1.688,1.688,0,0,0,.529-.364l-2.588-2.717a1.672,1.672,0,0,1-1.2.506H202.13l-2.106,2.211a1.7,1.7,0,0,0,.389.3c.045.025.092.047.139.068a1.689,1.689,0,0,0,.67.14h29.605a1.633,1.633,0,0,0,.173-.009l.038-.006Zm0,0" transform="translate(-177.945 -393.41)" fill="#08f"/>
      <g id="Group_24" data-name="Group 24" transform="translate(10.635 32.14)">
        <path id="Path_177" data-name="Path 177" d="M216.976,302.227l15.883-10.477a1.669,1.669,0,0,0-1.08-.395H202.173a1.669,1.669,0,0,0-1.08.395Zm0,0" transform="translate(-189.532 -291.335)" fill="#32e4ff"/>
        <path id="Path_178" data-name="Path 178" d="M96.352,295.362a4.169,4.169,0,0,0,.411,1.811,4.188,4.188,0,0,0,5.586-5.587,4.188,4.188,0,0,0-6,3.776Zm0,0" transform="translate(-96.352 -291.175)" fill="#32e4ff"/>
      </g>
    </g>
    <g id="branding-2" data-name="branding" transform="translate(394.831 3632)">
      <path id="Path_157-2" data-name="Path 157" d="M107.89,106.927h-36.1a1.656,1.656,0,0,1-1.656-1.656V58.324a1.656,1.656,0,0,1,1.656-1.656h36.1a1.656,1.656,0,0,1,1.656,1.656v46.948A1.656,1.656,0,0,1,107.89,106.927Zm0,0" transform="translate(-62.391 -50.413)" fill="#ffded5"/>
      <path id="Path_158-2" data-name="Path 158" d="M107.867,56.668H105.63v46.6a1.678,1.678,0,0,1-1.678,1.678H70.132v.3a1.678,1.678,0,0,0,1.678,1.678h36.057a1.678,1.678,0,0,0,1.678-1.678v-46.9a1.678,1.678,0,0,0-1.678-1.678Zm0,0" transform="translate(-62.391 -50.413)" fill="#f7c6ba"/>
      <path id="Path_159-2" data-name="Path 159" d="M126.6,31.763H120.73V28.374a1.753,1.753,0,0,1,1.752-1.753h2.37a1.752,1.752,0,0,1,1.752,1.753Zm0,0" transform="translate(-107.404 -23.683)" fill="#1dc2ff"/>
      <path id="Path_160-2" data-name="Path 160" d="M332.031,31.763h-5.875V28.374a1.752,1.752,0,0,1,1.752-1.753h2.37a1.753,1.753,0,0,1,1.752,1.753Zm0,0" transform="translate(-290.155 -23.683)" fill="#1dc2ff"/>
      <path id="Path_161-2" data-name="Path 161" d="M140.581,5.178a.839.839,0,0,1-.839-.839V.839a.839.839,0,1,1,1.678,0v3.5A.839.839,0,0,1,140.581,5.178Zm0,0" transform="translate(-124.318)" fill="#00a2ff"/>
      <path id="Path_162-2" data-name="Path 162" d="M346,5.178a.839.839,0,0,1-.839-.839V.839a.839.839,0,1,1,1.678,0v3.5A.839.839,0,0,1,346,5.178Zm0,0" transform="translate(-307.065)" fill="#00a2ff"/>
      <path id="Path_163-2" data-name="Path 163" d="M332.034,115.078h-12.5a1.656,1.656,0,0,1-1.656-1.656v-5.516a1.656,1.656,0,0,1,1.656-1.656h12.5a1.656,1.656,0,0,1,1.656,1.656v5.516A1.656,1.656,0,0,1,332.034,115.078Zm0,0" transform="translate(-282.788 -94.523)" fill="#1dc2ff"/>
      <path id="Path_164-2" data-name="Path 164" d="M428.514,106.25h-2.163a1.678,1.678,0,0,1,1.678,1.678V113.4a1.678,1.678,0,0,1-1.678,1.678h2.163a1.678,1.678,0,0,0,1.678-1.678v-5.472A1.678,1.678,0,0,0,428.514,106.25Zm0,0" transform="translate(-379.291 -94.522)" fill="#00a2ff"/>
      <path id="Path_165-2" data-name="Path 165" d="M32.522,214.4H5.212L.439,212.958a.743.743,0,0,1-.008-1.35l4.781-1.495h27.31a2.146,2.146,0,1,1,0,4.291Zm0,0" transform="translate(-0.001 -186.921)" fill="#1dc2ff"/>
      <path id="Path_166-2" data-name="Path 166" d="M32.791,210.2c0,.042.006.083.006.125a2.146,2.146,0,0,1-2.146,2.146H.078a.732.732,0,0,0,.429.564l4.773,1.446H32.591a2.145,2.145,0,0,0,.2-4.281Zm0,0" transform="translate(-0.069 -187.001)" fill="#00a2ff"/>
      <path id="Path_167-2" data-name="Path 167" d="M121.063,138.7H103.831a.839.839,0,1,1,0-1.678h17.232a.839.839,0,1,1,0,1.678Zm0,0" transform="translate(-91.624 -121.899)" fill="#32e4ff"/>
      <path id="Path_168-2" data-name="Path 168" d="M115.472,167.08H103.83a.839.839,0,0,1,0-1.678h11.642a.839.839,0,0,1,0,1.678Zm0,0" transform="translate(-91.623 -147.145)" fill="#32e4ff"/>
      <path id="Path_169-2" data-name="Path 169" d="M6.129,210.113H5.213L.432,211.607a.743.743,0,0,0,.008,1.351L5.213,214.4h.917v-4.291Zm0,0" transform="translate(-0.002 -186.921)" fill="#ffded5"/>
      <path id="Path_170-2" data-name="Path 170" d="M.094,230.848a.73.73,0,0,0,.427.557l4.773,1.446H6.21v-2Zm0,0" transform="translate(-0.083 -205.367)" fill="#f7cdc4"/>
      <path id="Path_171-2" data-name="Path 171" d="M3.542,214.84l-3.112.973a.743.743,0,0,0,.008,1.351l3.1.94Zm0,0" transform="translate(0 -191.126)" fill="#00a2ff"/>
      <path id="Path_172-2" data-name="Path 172" d="M104.724,295.362a4.186,4.186,0,1,1-4.187-4.187A4.187,4.187,0,0,1,104.724,295.362Zm0,0" transform="translate(-85.716 -259.036)" fill="#1dc2ff"/>
      <path id="Path_173-2" data-name="Path 173" d="M226.978,311.229h-29.65a1.656,1.656,0,0,1-1.656-1.656V293.011a1.656,1.656,0,0,1,1.656-1.656h29.65a1.656,1.656,0,0,1,1.656,1.656v16.562A1.656,1.656,0,0,1,226.978,311.229Zm0,0" transform="translate(-174.074 -259.195)" fill="#1dc2ff"/>
      <path id="Path_174-2" data-name="Path 174" d="M232.024,331.444l-16-16.8-16,16.8a1.673,1.673,0,0,0,1.2.5h29.605a1.674,1.674,0,0,0,1.2-.5Zm0,0" transform="translate(-177.944 -279.915)" fill="#00a2ff"/>
      <path id="Path_175-2" data-name="Path 175" d="M230.827,291.355h-.912v15.481a1.678,1.678,0,0,1-1.678,1.678H202.13l-2.106,2.211.054.051.05.046.058.047.057.043.058.04c.036.024.073.047.112.068h0c.044.025.091.047.138.068l.007,0h0c.044.019.09.035.136.05l.02.007c.043.013.087.024.131.034l.028.007h0c.043.009.086.015.13.02h.005l.033,0a1.639,1.639,0,0,0,.173.009h29.605a1.678,1.678,0,0,0,1.678-1.678V293.033a1.678,1.678,0,0,0-1.678-1.678Zm0,0" transform="translate(-177.945 -259.195)" fill="#00a2ff"/>
      <path id="Path_176-2" data-name="Path 176" d="M231.038,445.429c.044-.006.088-.012.13-.02l.031-.008c.044-.01.088-.021.131-.035l.019-.007c.047-.015.092-.032.137-.051l.009,0a1.688,1.688,0,0,0,.529-.364l-2.588-2.717a1.672,1.672,0,0,1-1.2.506H202.13l-2.106,2.211a1.7,1.7,0,0,0,.389.3c.045.025.092.047.139.068a1.689,1.689,0,0,0,.67.14h29.605a1.633,1.633,0,0,0,.173-.009l.038-.006Zm0,0" transform="translate(-177.945 -393.41)" fill="#08f"/>
      <g id="Group_24-2" data-name="Group 24" transform="translate(10.635 32.14)">
        <path id="Path_177-2" data-name="Path 177" d="M216.976,302.227l15.883-10.477a1.669,1.669,0,0,0-1.08-.395H202.173a1.669,1.669,0,0,0-1.08.395Zm0,0" transform="translate(-189.532 -291.335)" fill="#32e4ff"/>
        <path id="Path_178-2" data-name="Path 178" d="M96.352,295.362a4.169,4.169,0,0,0,.411,1.811,4.188,4.188,0,0,0,5.586-5.587,4.188,4.188,0,0,0-6,3.776Zm0,0" transform="translate(-96.352 -291.175)" fill="#32e4ff"/>
      </g>
    </g>
    <g id="coding" transform="translate(395.073 3322.609)">
      <path id="Path_179" data-name="Path 179" d="M149.407,471.551H125.43a1.844,1.844,0,0,1-1.844-1.844h0a1.844,1.844,0,0,1,1.844-1.844h23.977a1.844,1.844,0,0,1,1.844,1.844h0A1.844,1.844,0,0,1,149.407,471.551Z" transform="translate(-110.675 -411.081)" fill="#e7eced"/>
      <path id="Path_180" data-name="Path 180" d="M173.651,381.43v-1.844h-9.222v1.844c0,4.078-1.455,7.378-5.533,7.378h20.288C175.106,388.808,173.651,385.508,173.651,381.43Z" transform="translate(-142.297 -332.027)" fill="#afb6bb"/>
      <path id="Path_181" data-name="Path 181" d="M50.719,326.093H2.768A2.768,2.768,0,0,1,0,323.325v-5.532H53.487v5.532A2.768,2.768,0,0,1,50.719,326.093Z" transform="translate(0 -276.689)" fill="#e7eced"/>
      <path id="Path_182" data-name="Path 182" d="M227.144,354.947h-5.533a.922.922,0,1,1,0-1.844h5.533a.922.922,0,1,1,0,1.844Z" transform="translate(-197.634 -308.311)" fill="#afb6bb"/>
      <path id="Path_183" data-name="Path 183" d="M46.109,8.827H2.768A2.768,2.768,0,0,0,0,11.595V42.026H53.487V11.595a2.768,2.768,0,0,0-2.768-2.768h-4.61Z" fill="#495d72"/>
      <rect id="Rectangle_50" data-name="Rectangle 50" width="24.899" height="29.51" transform="translate(24.899 12.516)" fill="#28384c"/>
      <rect id="Rectangle_51" data-name="Rectangle 51" width="23.055" height="29.51" transform="translate(3.689 12.516)" fill="#ebba16"/>
      <g id="Group_25" data-name="Group 25" transform="translate(6.455 15.282)">
        <path id="Path_184" data-name="Path 184" d="M124.5,236.9a.921.921,0,0,1-.824-1.334l2.767-5.533a.922.922,0,0,1,1.65.825l-2.767,5.533A.921.921,0,0,1,124.5,236.9Z" transform="translate(-117.124 -212.919)" fill="#fff"/>
        <path id="Path_185" data-name="Path 185" d="M62.713,234.126a.922.922,0,0,1-.652-1.574l2.767-2.767a.922.922,0,0,1,1.3,1.3l-2.767,2.767A.92.92,0,0,1,62.713,234.126Z" transform="translate(-61.791 -212.916)" fill="#fff"/>
        <path id="Path_186" data-name="Path 186" d="M65.48,260.609a.92.92,0,0,1-.652-.27l-2.766-2.767a.922.922,0,1,1,1.3-1.3l2.767,2.767a.922.922,0,0,1-.652,1.574Z" transform="translate(-61.791 -236.632)" fill="#fff"/>
        <path id="Path_187" data-name="Path 187" d="M189.066,234.126a.92.92,0,0,1-.652-.27l-2.767-2.767a.922.922,0,0,1,1.3-1.3l2.767,2.767a.922.922,0,0,1-.652,1.574Z" transform="translate(-172.466 -212.916)" fill="#fff"/>
        <path id="Path_188" data-name="Path 188" d="M186.3,260.609a.922.922,0,0,1-.652-1.574l2.767-2.767a.922.922,0,1,1,1.3,1.3l-2.767,2.767A.92.92,0,0,1,186.3,260.609Z" transform="translate(-172.466 -236.632)" fill="#fff"/>
        <path id="Path_189" data-name="Path 189" d="M142.163,78.92a.923.923,0,0,1-.922-.922V71.542a.922.922,0,1,1,1.844,0V78A.923.923,0,0,1,142.163,78.92Z" transform="translate(-132.941 -70.62)" fill="#fff"/>
        <path id="Path_190" data-name="Path 190" d="M142.163,171.412a.923.923,0,0,1-.922-.922v-1.844a.922.922,0,0,1,1.844,0v1.844A.923.923,0,0,1,142.163,171.412Z" transform="translate(-132.941 -157.579)" fill="#fff"/>
      </g>
      <path id="Path_191" data-name="Path 191" d="M292.626,72.464H283.4a.922.922,0,1,1,0-1.844h9.222a.922.922,0,0,1,0,1.844Z" transform="translate(-252.972 -55.338)" fill="#dd352e"/>
      <path id="Path_192" data-name="Path 192" d="M409.757,72.464H406.99a.922.922,0,1,1,0-1.844h2.767a.922.922,0,1,1,0,1.844Z" transform="translate(-363.648 -55.338)" fill="#366db6"/>
      <path id="Path_193" data-name="Path 193" d="M354.419,107.774H345.2a.922.922,0,1,1,0-1.844h9.222a.922.922,0,1,1,0,1.844Z" transform="translate(-308.31 -86.959)" fill="#75348b"/>
      <path id="Path_194" data-name="Path 194" d="M286.171,107.774H283.4a.922.922,0,1,1,0-1.844h2.767a.922.922,0,1,1,0,1.844Z" transform="translate(-252.972 -86.959)" fill="#57abc1"/>
      <path id="Path_195" data-name="Path 195" d="M292.626,143.085H283.4a.922.922,0,1,1,0-1.844h9.222a.922.922,0,0,1,0,1.844Z" transform="translate(-252.972 -118.581)" fill="#25ae88"/>
      <path id="Path_196" data-name="Path 196" d="M409.757,143.085H406.99a.922.922,0,1,1,0-1.844h2.767a.922.922,0,1,1,0,1.844Z" transform="translate(-363.648 -118.581)" fill="#f76363"/>
      <path id="Path_197" data-name="Path 197" d="M354.419,178.4H345.2a.922.922,0,1,1,0-1.844h9.222a.922.922,0,1,1,0,1.844Z" transform="translate(-308.31 -150.202)" fill="#bf5a45"/>
      <path id="Path_198" data-name="Path 198" d="M286.171,178.4H283.4a.922.922,0,1,1,0-1.844h2.767a.922.922,0,1,1,0,1.844Z" transform="translate(-252.972 -150.202)" fill="#f2ecbf"/>
      <path id="Path_199" data-name="Path 199" d="M354.419,284.326H345.2a.922.922,0,1,1,0-1.844h9.222a.922.922,0,1,1,0,1.844Z" transform="translate(-308.31 -245.067)" fill="#25ae88"/>
      <path id="Path_200" data-name="Path 200" d="M286.171,284.326H283.4a.922.922,0,1,1,0-1.844h2.767a.922.922,0,1,1,0,1.844Z" transform="translate(-252.972 -245.067)" fill="#dd352e"/>
      <path id="Path_201" data-name="Path 201" d="M292.626,213.705H283.4a.922.922,0,1,1,0-1.844h9.222a.922.922,0,0,1,0,1.844Z" transform="translate(-252.972 -181.824)" fill="#75348b"/>
      <path id="Path_202" data-name="Path 202" d="M409.757,213.705H406.99a.922.922,0,1,1,0-1.844h2.767a.922.922,0,1,1,0,1.844Z" transform="translate(-363.648 -181.824)" fill="#ebba16"/>
      <path id="Path_203" data-name="Path 203" d="M354.419,249.016H345.2a.922.922,0,1,1,0-1.844h9.222a.922.922,0,1,1,0,1.844Z" transform="translate(-308.31 -213.446)" fill="#ed8a19"/>
      <path id="Path_204" data-name="Path 204" d="M286.171,249.016H283.4a.922.922,0,1,1,0-1.844h2.767a.922.922,0,1,1,0,1.844Z" transform="translate(-252.972 -213.446)" fill="#c5411e"/>
    </g>
    <g id="chat" transform="translate(1485.12 3631.518)">
      <path id="Path_205" data-name="Path 205" d="M31.392,2.72V19.492a2.758,2.758,0,0,1-2.72,2.72H14.279L3.626,27.765V22.212H2.72A2.758,2.758,0,0,1,0,19.492V2.72A2.758,2.758,0,0,1,2.72,0H28.785A2.661,2.661,0,0,1,31.392,2.72Z" fill="#f3705a"/>
      <g id="Group_26" data-name="Group 26" transform="translate(4.42 8.16)">
        <circle id="Ellipse_36" data-name="Ellipse 36" cx="2.946" cy="2.946" r="2.946" fill="#fff"/>
        <circle id="Ellipse_37" data-name="Ellipse 37" cx="2.946" cy="2.946" r="2.946" transform="translate(8.386)" fill="#fff"/>
        <circle id="Ellipse_38" data-name="Ellipse 38" cx="2.946" cy="2.946" r="2.946" transform="translate(16.772)" fill="#fff"/>
      </g>
      <path id="Path_206" data-name="Path 206" d="M216.533,65.653V82.312a2.758,2.758,0,0,0,2.72,2.72h14.506l10.653,5.553V85.032h.793a2.758,2.758,0,0,0,2.72-2.72V65.653a2.758,2.758,0,0,0-2.72-2.72H219.14A2.662,2.662,0,0,0,216.533,65.653Z" transform="translate(-193.528 -56.247)" fill="#ffd15c"/>
      <g id="Group_27" data-name="Group 27" transform="translate(27.312 14.846)">
        <circle id="Ellipse_39" data-name="Ellipse 39" cx="2.946" cy="2.946" r="2.946" transform="translate(16.772)" fill="#fff"/>
        <circle id="Ellipse_40" data-name="Ellipse 40" cx="2.946" cy="2.946" r="2.946" transform="translate(8.386)" fill="#fff"/>
        <circle id="Ellipse_41" data-name="Ellipse 41" cx="2.946" cy="2.946" r="2.946" fill="#fff"/>
      </g>
      <path id="Path_207" data-name="Path 207" d="M107.125,254.453v16.772a2.758,2.758,0,0,1-2.72,2.72H95.452l-4.08,5.44-4.08-5.553h-8.84a2.758,2.758,0,0,1-2.72-2.72V254.453a2.758,2.758,0,0,1,2.72-2.72h26.065A2.662,2.662,0,0,1,107.125,254.453Z" transform="translate(-67.687 -224.988)" fill="#66c6b9"/>
      <g id="Group_28" data-name="Group 28" transform="translate(12.466 34.905)">
        <circle id="Ellipse_42" data-name="Ellipse 42" cx="2.946" cy="2.946" r="2.946" transform="translate(16.659)" fill="#fff"/>
        <circle id="Ellipse_43" data-name="Ellipse 43" cx="2.946" cy="2.946" r="2.946" transform="translate(8.386)" fill="#fff"/>
        <circle id="Ellipse_44" data-name="Ellipse 44" cx="2.946" cy="2.946" r="2.946" fill="#fff"/>
      </g>
    </g>
    <g id="share" transform="translate(670.548 3867.682)">
      <g id="Group_29" data-name="Group 29" transform="translate(8.8 8.572)">
        <path id="Path_208" data-name="Path 208" d="M279.391,122.781l5.257-9.715H282.02l-4.686,8.686A3.546,3.546,0,0,1,279.391,122.781Z" transform="translate(-256.418 -109.523)" fill="#e8eae9"/>
        <path id="Path_209" data-name="Path 209" d="M317.143,259.2a7.919,7.919,0,0,1-.343,2.286l9.258,1.943v-2.286Z" transform="translate(-291.656 -239.999)" fill="#e8eae9"/>
        <path id="Path_210" data-name="Path 210" d="M113.3,280.533l-9.829,5.943a7.076,7.076,0,0,1,.8,2.172l10.058-6.057A8.652,8.652,0,0,1,113.3,280.533Z" transform="translate(-101.181 -259.046)" fill="#e8eae9"/>
        <path id="Path_211" data-name="Path 211" d="M246.476,322.247a3.887,3.887,0,0,1-1.143-.114v9.6h2.286v-9.6C247.276,322.133,246.819,322.247,246.476,322.247Z" transform="translate(-227.846 -296.189)" fill="#e8eae9"/>
        <path id="Path_212" data-name="Path 212" d="M96.534,93.029,83.5,80a10.115,10.115,0,0,1-1.372,1.943l12.915,12.8A5.381,5.381,0,0,1,96.534,93.029Z" transform="translate(-82.133 -80)" fill="#e8eae9"/>
      </g>
      <circle id="Ellipse_45" data-name="Ellipse 45" cx="8.343" cy="8.343" r="8.343" transform="translate(19.087 19.087)" fill="#415a6b"/>
      <circle id="Ellipse_46" data-name="Ellipse 46" cx="5.029" cy="5.029" r="5.029" transform="translate(22.401 22.401)" fill="#344a5e"/>
      <circle id="Ellipse_47" data-name="Ellipse 47" cx="6.286" cy="6.286" r="6.286" transform="translate(0 0)" fill="#8ad7f8"/>
      <circle id="Ellipse_48" data-name="Ellipse 48" cx="3.886" cy="3.886" r="3.886" transform="translate(2.4 2.4)" fill="#55c0eb"/>
      <circle id="Ellipse_49" data-name="Ellipse 49" cx="6.286" cy="6.286" r="6.286" transform="translate(31.316 2.514)" fill="#ffd15c"/>
      <circle id="Ellipse_50" data-name="Ellipse 50" cx="3.886" cy="3.886" r="3.886" transform="translate(33.716 4.915)" fill="#f7b64c"/>
      <circle id="Ellipse_51" data-name="Ellipse 51" cx="6.286" cy="6.286" r="6.286" transform="translate(21.144 42.288)" fill="#ced6e0"/>
      <circle id="Ellipse_52" data-name="Ellipse 52" cx="3.886" cy="3.886" r="3.886" transform="translate(23.544 44.688)" fill="#adb3ba"/>
      <circle id="Ellipse_53" data-name="Ellipse 53" cx="6.286" cy="6.286" r="6.286" transform="translate(1.372 33.03)" fill="#f3705a"/>
      <circle id="Ellipse_54" data-name="Ellipse 54" cx="3.886" cy="3.886" r="3.886" transform="translate(3.772 35.431)" fill="#f05540"/>
      <circle id="Ellipse_55" data-name="Ellipse 55" cx="6.286" cy="6.286" r="6.286" transform="translate(42.288 25.716)" fill="#66c6b9"/>
      <circle id="Ellipse_56" data-name="Ellipse 56" cx="3.886" cy="3.886" r="3.886" transform="translate(44.688 28.116)" fill="#4abaa5"/>
    </g>
  </g>
</svg>
