<svg xmlns="http://www.w3.org/2000/svg" width="72" height="72" viewBox="0 0 72 72"><g transform="translate(16.148 7.229)"><circle cx="36" cy="36" r="36" transform="translate(-16.148 -7.229)" fill="#fcfcfc"/><path d="M28.547,81.825H1.463A1.462,1.462,0,0,1,0,80.363V42.795a1.462,1.462,0,0,1,1.463-1.463H28.547a1.462,1.462,0,0,1,1.463,1.463V80.363A1.462,1.462,0,0,1,28.547,81.825Zm0,0" transform="translate(3.913 -31.03)" fill="#ffded5"/><path d="M28.486,41.332H26.892v35.78a1.522,1.522,0,0,1-1.522,1.522H0V80.3a1.522,1.522,0,0,0,1.522,1.522H28.486A1.522,1.522,0,0,0,30.008,80.3V42.854a1.522,1.522,0,0,0-1.522-1.522Zm0,0" transform="translate(3.914 -31.03)" fill="#f7c6ba"/><path d="M116.228,6.178H106.036a.86.86,0,0,1-.86-.86V2.065A2.065,2.065,0,0,1,107.241,0h7.782a2.065,2.065,0,0,1,2.065,2.065V5.317A.86.86,0,0,1,116.228,6.178Zm0,0" transform="translate(-92.214 6.747)" fill="#ff6914"/><path d="M114.938,0h-.548a2.155,2.155,0,0,1,.069.54V3.674a.9.9,0,0,1-.9.9h-8.388v.713a.9.9,0,0,0,.9.9h10.121a.9.9,0,0,0,.9-.9V2.149A2.149,2.149,0,0,0,114.938,0Zm0,0" transform="translate(-92.214 6.747)" fill="#ed500a"/><path d="M246.606,79.713a7.791,7.791,0,1,1-7.791-7.791A7.791,7.791,0,0,1,246.606,79.713Zm0,0" transform="translate(-207.234 -58.987)" fill="#ff8900"/><path d="M263.8,78.258A7.793,7.793,0,0,1,255.219,90.8,7.792,7.792,0,1,0,263.8,78.258Zm0,0" transform="translate(-229.349 -64.778)" fill="#ff6914"/><path d="M261.055,85.436a1.522,1.522,0,0,1-1.076-.446l-3.727-3.727a1.522,1.522,0,1,1,2.152-2.153l2.651,2.651,6.888-6.887a1.522,1.522,0,0,1,2.152,2.153l-7.964,7.964A1.522,1.522,0,0,1,261.055,85.436Zm0,0" transform="translate(-229.885 -61.278)" fill="#0882bf"/><path d="M303.443,75.525a1.514,1.514,0,0,0-.649-.384,1.522,1.522,0,0,1-.385,1.5l-7.964,7.964a1.523,1.523,0,0,1-2.153,0l1.034,1.034a1.522,1.522,0,0,0,2.153,0l7.964-7.964a1.522,1.522,0,0,0,0-2.153Zm0,0" transform="translate(-263.233 -61.929)" fill="#005ca0"/><g transform="translate(6.839 15.921)"><path d="M109.626,187.839h-8.112a.666.666,0,1,1,0-1.331h8.112a.666.666,0,1,1,0,1.331Zm0,0" transform="translate(-95.097 -179.636)" fill="#0882bf"/><path d="M39.153,107.96h-4.48a.666.666,0,0,1,0-1.332h4.48a.666.666,0,1,1,0,1.332Zm0,0" transform="translate(-34.008 -106.629)" fill="#0882bf"/><path d="M109.626,223.738h-8.112a.666.666,0,0,1,0-1.332h8.112a.666.666,0,0,1,0,1.332Zm0,0" transform="translate(-95.097 -212.446)" fill="#0882bf"/><path d="M112.428,281.695H101.513a.666.666,0,0,1,0-1.332h10.914a.666.666,0,0,1,0,1.332Zm0,0" transform="translate(-95.097 -265.417)" fill="#0882bf"/><path d="M106.971,317.6h-5.457a.666.666,0,1,1,0-1.331h5.457a.666.666,0,1,1,0,1.331Zm0,0" transform="translate(-95.098 -298.23)" fill="#0882bf"/><path d="M109.626,375.652h-8.112a.666.666,0,0,1,0-1.332h8.112a.666.666,0,0,1,0,1.332Zm0,0" transform="translate(-95.097 -351.29)" fill="#0882bf"/><path d="M112.428,411.55H101.513a.666.666,0,0,1,0-1.331h10.914a.666.666,0,0,1,0,1.331Zm0,0" transform="translate(-95.097 -384.1)" fill="#0882bf"/></g><path d="M38.7,189.563a2.023,2.023,0,1,1-2.023-2.023A2.024,2.024,0,0,1,38.7,189.563Zm0,0" transform="translate(-27.755 -164.658)" fill="#ff8900"/><path d="M38.7,284.559a2.023,2.023,0,1,1-2.023-2.023A2.023,2.023,0,0,1,38.7,284.559Zm0,0" transform="translate(-27.755 -251.482)" fill="#ff8900"/><path d="M38.7,378.512a2.023,2.023,0,1,1-2.023-2.023A2.024,2.024,0,0,1,38.7,378.512Zm0,0" transform="translate(-27.755 -337.352)" fill="#ff8900"/></g></svg>