<svg xmlns="http://www.w3.org/2000/svg" width="636.625" height="289.073" viewBox="0 0 636.625 289.073"><g opacity="0.5"><path d="M346.35,369.806V351.375q5.539,2.967,11.322,5.786v18.433q-5.782-2.819-11.322-5.788Zm-36.3-23.03V312.811q4.6,3.466,9.481,6.8V353.58q-4.879-3.334-9.481-6.8Zm17.3,11.953V318.669q5.088,3.227,10.438,6.316v40.063q-5.351-3.088-10.438-6.318Zm-46.42-38.256V276.025q3.533,3.888,7.377,7.662v44.448q-3.844-3.776-7.377-7.662ZM294.54,334V285.85q4.086,3.685,8.465,7.253v48.155q-4.38-3.567-8.465-7.256Zm-34.689-42.6V239.2q2.35,4.241,5.044,8.391v52.208q-2.694-4.15-5.044-8.391Zm9.479,14.844V238.331q2.957,4.076,6.244,8.049V314.3q-3.287-3.975-6.244-8.049ZM252.6,276V199.293q1.709,4.39,3.781,8.7V284.7q-2.07-4.309-3.781-8.7ZM380.96,293.02c-72.981-29.4-123.4-75.849-133.963-129.061V273.045c10.56,53.214,60.983,99.659,133.963,129.061V293.02Z" transform="translate(-246.997 -146.207)" fill="#322bff" opacity="0.502"/><path d="M483.848,336.161V311.553q18.837-1.028,37-3.286v24.608q-18.149,2.249-37,3.286Zm-59.014.115V291.429q11.285.57,22.792.688,7.859.081,15.637-.058V336.9q-7.775.138-15.637.061-11.5-.115-22.792-.688Zm-56.883-5.885V261.825q17.846,2.825,36.492,4.475v68.566q-18.628-1.639-36.492-4.475ZM540.29,330.1V257.685q17.714-2.876,34.559-6.867v72.414q-16.824,3.978-34.559,6.867Zm63.662-103.6c-46.494,14.307-99.823,22.192-156.326,21.625a531.4,531.4,0,0,1-111.581-12.688V344.527a531.7,531.7,0,0,0,111.581,12.688c56.5.566,109.832-7.321,156.326-21.627V226.5Z" transform="translate(-135.891 -68.171)" fill="#322bff" opacity="0.502"/><path d="M499.626,345.592V324.466c50.908-30.056,84.046-70.135,89.463-114.721v21.124c-5.417,44.586-38.555,84.664-89.463,114.723Zm90.2-80.443V156.061c-1.623,53.358-42.864,100.987-107.357,133.826V398.973c64.494-32.839,105.734-80.468,107.357-133.824Z" transform="translate(46.801 -156.061)" fill="#322bff" opacity="0.502"/><path d="M579.564,179.945c-5.417,44.586-38.555,84.664-89.463,114.721v21.126c50.908-30.059,84.046-70.137,89.463-114.723V179.945Z" transform="translate(56.326 -126.261)" fill="#322bff" opacity="0.753"/><path d="M386.732,246.692q-18.628-1.635-36.492-4.475v68.566q17.846,2.825,36.492,4.475V246.692Z" transform="translate(-118.18 -48.563)" fill="#322bff"/><path d="M438.806,262.879q-18.149,2.249-37,3.286v24.608q18.837-1.025,37-3.286V262.879Z" transform="translate(-53.846 -22.783)" fill="#322bff"/><path d="M461.471,237.32q-16.824,3.982-34.558,6.867V316.6q17.714-2.876,34.558-6.867V237.32Z" transform="translate(-22.514 -54.673)" fill="#322bff"/><path d="M413.976,256.017q-7.775.138-15.637.058-11.5-.115-22.792-.688v44.846q11.285.57,22.792.688,7.859.077,15.637-.061V256.017Z" transform="translate(-86.604 -32.13)" fill="#322bff" opacity="0.753"/><path d="M253.272,188.378q-2.07-4.309-3.781-8.7v76.705q1.709,4.39,3.781,8.7V188.378Z" transform="translate(-243.885 -126.593)" fill="#322bff"/><path d="M257.76,205.823q-2.694-4.15-5.044-8.391v52.207q2.35,4.242,5.044,8.391V205.823Z" transform="translate(-239.861 -104.442)" fill="#322bff"/><path d="M263.177,205.1q-3.287-3.972-6.244-8.049v67.917q2.957,4.073,6.244,8.049V205.1Z" transform="translate(-234.6 -104.922)" fill="#322bff" opacity="0.753"/><path d="M269.472,221.479q-3.844-3.776-7.377-7.662v44.448q3.533,3.887,7.377,7.662V221.479Z" transform="translate(-228.159 -83.998)" fill="#322bff"/><path d="M276.614,225.441q-4.38-3.567-8.465-7.253v48.153q4.086,3.689,8.465,7.256V225.441Z" transform="translate(-220.605 -78.545)" fill="#322bff" opacity="0.753"/><path d="M284.53,236.987q-4.879-3.338-9.481-6.8v33.965q4.6,3.466,9.481,6.8V236.987Z" transform="translate(-211.996 -63.578)" fill="#322bff" opacity="0.753"/><path d="M293.185,239.105q-5.351-3.088-10.438-6.316V272.85q5.088,3.23,10.438,6.318V239.105Z" transform="translate(-202.391 -60.327)" fill="#322bff" opacity="0.753"/><path d="M302.521,253.126q-5.782-2.815-11.322-5.786v18.431q5.54,2.97,11.322,5.788V253.126Z" transform="translate(-191.846 -42.171)" fill="#322bff" opacity="0.753"/></g></svg>