<svg xmlns="http://www.w3.org/2000/svg" width="1770" height="802" viewBox="0 0 1770 802">
  <g id="How_we_work_bubbles" data-name="How we work bubbles" transform="translate(-74 -4206)">
    <g id="buble_2" data-name="buble 2" transform="translate(-16.836 636.164)">
      <ellipse id="Ellipse_175" data-name="Ellipse 175" cx="9.5" cy="10" rx="9.5" ry="10" transform="translate(218.836 4285.836)" fill="#322bff" opacity="0.24"/>
      <circle id="Ellipse_174" data-name="Ellipse 174" cx="13" cy="13" r="13" transform="translate(211.836 4279.836)" fill="#322bff"/>
    </g>
    <g id="buble_2-2" data-name="buble 2" transform="translate(1550.406 -11.594)" opacity="0.24">
      <ellipse id="Ellipse_175-2" data-name="Ellipse 175" cx="5.5" cy="6" rx="5.5" ry="6" transform="translate(216.594 4283.594)" fill="#322bff" opacity="0.24"/>
      <circle id="Ellipse_174-2" data-name="Ellipse 174" cx="8" cy="8" r="8" transform="translate(211.594 4279.594)" fill="#322bff"/>
    </g>
    <g id="buble_2-3" data-name="buble 2" transform="translate(665.164 478.164)">
      <ellipse id="Ellipse_175-3" data-name="Ellipse 175" cx="9.5" cy="10" rx="9.5" ry="10" transform="translate(218.836 4285.836)" fill="#322bff" opacity="0.24"/>
      <circle id="Ellipse_174-3" data-name="Ellipse 174" cx="13" cy="13" r="13" transform="translate(211.836 4279.836)" fill="#322bff"/>
    </g>
    <g id="buble_2-4" data-name="buble 2" transform="translate(-75.651 139.349)">
      <ellipse id="Ellipse_175-4" data-name="Ellipse 175" cx="5" cy="5.5" rx="5" ry="5.5" transform="translate(215.651 4282.651)" fill="#322bff" opacity="0.24"/>
      <circle id="Ellipse_174-4" data-name="Ellipse 174" cx="7" cy="7" r="7" transform="translate(211.651 4279.651)" fill="#322bff"/>
    </g>
    <g id="buble_2-5" data-name="buble 2" transform="translate(658.349 45.349)">
      <ellipse id="Ellipse_175-5" data-name="Ellipse 175" cx="5" cy="5.5" rx="5" ry="5.5" transform="translate(215.651 4282.651)" fill="#322bff" opacity="0.24"/>
      <circle id="Ellipse_174-5" data-name="Ellipse 174" cx="7" cy="7" r="7" transform="translate(211.651 4279.651)" fill="#322bff"/>
    </g>
    <g id="buble_1" data-name="buble 1" transform="translate(32.419 23.419)">
      <ellipse id="Ellipse_175-6" data-name="Ellipse 175" cx="23" cy="23.5" rx="23" ry="23.5" transform="translate(226.581 4294.581)" fill="#322bff" opacity="0.24"/>
      <circle id="Ellipse_174-6" data-name="Ellipse 174" cx="31" cy="31" r="31" transform="translate(216.581 4281.581)" fill="#fcfcfc"/>
    </g>
  </g>
</svg>
