<svg xmlns="http://www.w3.org/2000/svg" width="72" height="72" viewBox="0 0 72 72"><g transform="translate(4.861 6.229)"><circle cx="36" cy="36" r="36" transform="translate(-4.861 -6.229)" fill="#fcfcfc"/><path d="M115.745,81.459a12.256,12.256,0,1,0-19.652,9.774,4,4,0,0,1,1.568,3.188v5.647a3.4,3.4,0,0,0,3.4,3.4h5.373a3.211,3.211,0,0,0,3.211-3.211V94.138a4.009,4.009,0,0,1,1.516-3.12,12.231,12.231,0,0,0,4.586-9.559Zm0,0" transform="translate(-73.733 -56.744)" fill="#fbd200"/><path d="M177.658,86.328a12.254,12.254,0,0,1-1.288,17.922,4.009,4.009,0,0,0-1.516,3.12v5.93a3.4,3.4,0,0,1-3.4,3.4H166.27c-.059,0-.118,0-.176,0a3.4,3.4,0,0,0,3.247,2.393h5.373a3.211,3.211,0,0,0,3.211-3.211v-6.117a4.008,4.008,0,0,1,1.516-3.12,12.258,12.258,0,0,0-1.782-20.31Zm0,0" transform="translate(-142.014 -72.363)" fill="#f39320"/><path d="M225.591,445.259a.669.669,0,0,1-.669-.669V439.5a.669.669,0,0,1,1.338,0v5.093A.669.669,0,0,1,225.591,445.259Zm0,0" transform="translate(-195.671 -393.881)" fill="#1dc2ff"/><path d="M200.8,233.09a.669.669,0,0,0-.946,0l-2.221,2.221-2.221-2.221a.669.669,0,1,0-.946.946l2.5,2.5v9.428a.669.669,0,1,0,1.338,0v-9.428l2.5-2.5A.669.669,0,0,0,200.8,233.09Zm0,0" transform="translate(-167.714 -206.047)" fill="#ff6914"/><path d="M177.658,86.328a12.254,12.254,0,0,1-1.288,17.922,4.009,4.009,0,0,0-1.516,3.12v5.93a3.4,3.4,0,0,1-3.4,3.4H166.27c-.059,0-.118,0-.176,0a3.4,3.4,0,0,0,3.247,2.393h5.373a3.211,3.211,0,0,0,3.211-3.211v-6.117a4.008,4.008,0,0,1,1.516-3.12,12.258,12.258,0,0,0-1.782-20.31Zm0,0" transform="translate(-142.014 -72.363)" fill="#f39320"/><path d="M338.694,6.281H332.94a.264.264,0,0,1-.264-.264V.264A.264.264,0,0,1,332.94,0h5.754a.264.264,0,0,1,.264.264V6.017A.264.264,0,0,1,338.694,6.281Zm0,0" transform="translate(-293.955 6.378)" fill="#ff738b"/><path d="M7.022,257.936.9,254.4a.264.264,0,0,0-.4.228V261.7a.264.264,0,0,0,.4.229l6.127-3.538A.264.264,0,0,0,7.022,257.936Zm0,0" transform="translate(9.026 -225.629)" fill="#0882bf"/><path d="M400.385,132.573a2.554,2.554,0,1,1-2.554-2.554A2.554,2.554,0,0,1,400.385,132.573Zm0,0" transform="translate(-351.053 -112.214)" fill="#1dc2ff"/><path d="M376.543,0V6.281H378.7a.264.264,0,0,0,.264-.264V.264A.264.264,0,0,0,378.7,0Zm0,0" transform="translate(-333.966 6.378)" fill="#ee4a84"/><path d="M5.208,283.1.5,285.816v2.1a.264.264,0,0,0,.4.228L7.022,284.6a.264.264,0,0,0,0-.457Zm0,0" transform="translate(9.026 -251.838)" fill="#005ca0"/><path d="M416.088,130.02a2.556,2.556,0,0,0-.795.127,2.554,2.554,0,0,1,0,4.855,2.554,2.554,0,1,0,.795-4.982Zm0,0" transform="translate(-369.31 -112.215)" fill="#00a2ff"/><path d="M177.658,86.328a12.254,12.254,0,0,1-1.288,17.922,4.009,4.009,0,0,0-1.516,3.12v5.93a3.4,3.4,0,0,1-3.4,3.4H166.27c-.059,0-.118,0-.176,0a3.4,3.4,0,0,0,3.247,2.393h5.373a3.211,3.211,0,0,0,3.211-3.211v-6.117a4.008,4.008,0,0,1,1.516-3.12,12.258,12.258,0,0,0-1.782-20.31Zm0,0" transform="translate(-142.014 -72.363)" fill="#fab700"/><path d="M164.371,364.418v4.919a3.4,3.4,0,0,0,3.4,3.4h5.373a3.211,3.211,0,0,0,3.211-3.211v-5.106Zm0,0" transform="translate(-140.442 -326.011)" fill="#32e4ff"/><path d="M174.854,364.418v2.53a3.4,3.4,0,0,1-3.4,3.4H166.27l-.176,0a3.4,3.4,0,0,0,3.247,2.392h5.373a3.194,3.194,0,0,0,1.459-.351,3.215,3.215,0,0,0,1.752-2.86v-5.105h-3.071Zm0,0" transform="translate(-142.014 -326.011)" fill="#1dc2ff"/><path d="M164.371,364.418h11.982v3.6H164.371Zm0,0" transform="translate(-140.442 -326.011)" fill="#1dc2ff"/><path d="M263.963,366.948a3.389,3.389,0,0,1-.173,1.071h3.244v-3.6h-3.071Zm0,0" transform="translate(-231.123 -326.011)" fill="#00a2ff"/><path d="M40.257,32.288l.216.881A4.456,4.456,0,0,0,43.16,36.2a.214.214,0,0,1,0,.357,4.457,4.457,0,0,0-2.687,3.03l-.216.881a.178.178,0,0,1-.346,0l-.216-.881a4.458,4.458,0,0,0-2.687-3.03.214.214,0,0,1,0-.357A4.457,4.457,0,0,0,39.7,33.17l.216-.881A.178.178,0,0,1,40.257,32.288Zm0,0" transform="translate(-24.187 -22.949)" fill="#fab700"/><path d="M41.123,61.279a4.844,4.844,0,0,1-2.057-1.63,4.847,4.847,0,0,1-2.058,1.63.214.214,0,0,0,0,.357,4.847,4.847,0,0,1,2.058,1.63,4.843,4.843,0,0,1,2.057-1.63A.214.214,0,0,0,41.123,61.279Zm0,0" transform="translate(-24.187 -48.028)" fill="#fad200"/><path d="M343.9,339.183l.288,1.178a5.958,5.958,0,0,0,3.592,4.05.287.287,0,0,1,0,.477,5.957,5.957,0,0,0-3.592,4.05l-.288,1.178a.238.238,0,0,1-.463,0l-.288-1.178a5.956,5.956,0,0,0-3.591-4.05.286.286,0,0,1,0-.477,5.957,5.957,0,0,0,3.591-4.05l.288-1.178A.238.238,0,0,1,343.9,339.183Zm0,0" transform="translate(-300.111 -302.828)" fill="#fab700"/><path d="M345.053,377.933a6.477,6.477,0,0,1-2.75-2.179,6.477,6.477,0,0,1-2.75,2.179.286.286,0,0,0,0,.477,6.478,6.478,0,0,1,2.75,2.179,6.475,6.475,0,0,1,2.75-2.179A.287.287,0,0,0,345.053,377.933Zm0,0" transform="translate(-300.111 -336.351)" fill="#fad200"/></g></svg>