<svg xmlns="http://www.w3.org/2000/svg" width="56.645" height="49.444" viewBox="0 0 56.645 49.444">
  <g id="layout" transform="matrix(0.985, 0.174, -0.174, 0.985, 17.18, -61.389)" opacity="0.77">
    <g id="Group_4" data-name="Group 4" transform="translate(0 62.336)">
      <g id="Group_2" data-name="Group 2">
        <path id="Path_39" data-name="Path 39" d="M48.379,63.309V97.961a.974.974,0,0,1-.973.973H.973A.974.974,0,0,1,0,97.961V63.309a.974.974,0,0,1,.973-.973H47.406A.974.974,0,0,1,48.379,63.309Z" transform="translate(3.473 -57.871)" fill="#322bff" opacity="0.3"/>
        <path id="Path_21" data-name="Path 21" d="M48.379,63.309V97.961a.974.974,0,0,1-.973.973H.973A.974.974,0,0,1,0,97.961V63.309a.974.974,0,0,1,.973-.973H47.406A.974.974,0,0,1,48.379,63.309Z" transform="translate(0 -62.336)" fill="#e8e6ed"/>
        <path id="Path_22" data-name="Path 22" d="M390.936,63.31V97.962a.974.974,0,0,1-.973.973H378.3c10.77-9.322,10.53-31,10.276-36.6h1.383A.974.974,0,0,1,390.936,63.31Z" transform="translate(-342.557 -62.337)" fill="#d1d0d8"/>
        <path id="Path_23" data-name="Path 23" d="M48.379,63.309v5.162H0V63.309a.974.974,0,0,1,.973-.973H47.406A.974.974,0,0,1,48.379,63.309Z" transform="translate(0 -62.336)" fill="#d1d0d8"/>
        <path id="Path_24" data-name="Path 24" d="M489.417,63.31v5.162H487.1c.08-2.673.022-4.837-.037-6.135h1.383A.974.974,0,0,1,489.417,63.31Z" transform="translate(-441.037 -62.337)" fill="#aaaab2"/>
        <g id="Group_1" data-name="Group 1" transform="translate(3.157 2.338)">
          <path id="Path_25" data-name="Path 25" d="M34.153,88.539h-.011a.73.73,0,0,1,0-1.46h.011a.73.73,0,0,1,0,1.46Z" transform="translate(-33.412 -87.079)" fill="#717177"/>
          <path id="Path_26" data-name="Path 26" d="M57.479,88.539h-.011a.73.73,0,0,1,0-1.46h.011a.73.73,0,1,1,0,1.46Z" transform="translate(-54.534 -87.079)" fill="#717177"/>
          <path id="Path_27" data-name="Path 27" d="M80.806,88.539H80.8a.73.73,0,0,1,0-1.46h.011a.73.73,0,0,1,0,1.46Z" transform="translate(-75.657 -87.079)" fill="#717177"/>
          <path id="Path_28" data-name="Path 28" d="M450.848,88.539h-1.358a.73.73,0,1,1,0-1.46h1.358a.73.73,0,1,1,0,1.46Z" transform="translate(-409.513 -87.079)" fill="#717177"/>
        </g>
      </g>
      <path id="Path_29" data-name="Path 29" d="M61.854,170.489v12.478a.973.973,0,0,1-.973.973H48.4a.973.973,0,0,1-.973-.973V170.489a.973.973,0,0,1,.973-.973H60.881A.973.973,0,0,1,61.854,170.489Z" transform="translate(-42.947 -159.389)" fill="#26e4ff"/>
      <path id="Path_30" data-name="Path 30" d="M109.159,170.49v12.478a.973.973,0,0,1-.973.973H99.67c6.537-3.95,6.527-11.422,6.226-14.425h2.29A.973.973,0,0,1,109.159,170.49Z" transform="translate(-90.252 -159.389)" fill="#22d0ff"/>
      <path id="Path_31" data-name="Path 31" d="M61.854,346.887v4.023a.973.973,0,0,1-.973.973H48.4a.973.973,0,0,1-.973-.973v-4.023a.973.973,0,0,1,.973-.973H60.881A.973.973,0,0,1,61.854,346.887Z" transform="translate(-42.947 -319.119)" fill="#ffb800"/>
      <path id="Path_32" data-name="Path 32" d="M147.209,346.887v4.023a.973.973,0,0,1-.973.973h-4.545a12.767,12.767,0,0,0,3.632-5.97h.913A.973.973,0,0,1,147.209,346.887Z" transform="translate(-128.303 -319.119)" fill="#ff9700"/>
      <path id="Path_33" data-name="Path 33" d="M346.189,170.489v3.2a.973.973,0,0,1-.973.973H335.9a.973.973,0,0,1-.973-.973v-3.2a.973.973,0,0,1,.973-.973h9.321A.973.973,0,0,1,346.189,170.489Z" transform="translate(-303.275 -159.388)" fill="#ab8eff"/>
      <path id="Path_34" data-name="Path 34" d="M407.878,170.489v3.2a.973.973,0,0,1-.973.973h-3.857a12.458,12.458,0,0,0,3.52-5.151h.337A.974.974,0,0,1,407.878,170.489Z" transform="translate(-364.964 -159.388)" fill="#8f67ff"/>
      <path id="Path_35" data-name="Path 35" d="M346.189,249.051v13.268a.973.973,0,0,1-.973.974H335.9a.973.973,0,0,1-.973-.974V249.051a.973.973,0,0,1,.973-.973h9.321A.973.973,0,0,1,346.189,249.051Z" transform="translate(-303.275 -230.527)" fill="#2fd92d"/>
      <path id="Path_36" data-name="Path 36" d="M378.5,249.052V262.32a.973.973,0,0,1-.973.973h-6.922c4.971-4.175,5.206-11.575,4.979-15.215h1.943A.973.973,0,0,1,378.5,249.052Z" transform="translate(-335.589 -230.528)" fill="#1fbf33"/>
      <g id="Group_3" data-name="Group 3" transform="translate(21.262 10.128)">
        <path id="Path_37" data-name="Path 37" d="M233.106,170.489v20.691a.973.973,0,0,1-.973.973h-6.147a.973.973,0,0,1-.973-.973V170.489a.973.973,0,0,1,.973-.973h6.147A.973.973,0,0,1,233.106,170.489Z" transform="translate(-225.012 -169.516)" fill="#ff5677"/>
        <path id="Path_38" data-name="Path 38" d="M250.755,170.489v20.691a.973.973,0,0,1-.973.973H244.5c4.791-6.588,4.857-18.778,4.747-22.638h.531A.973.973,0,0,1,250.755,170.489Z" transform="translate(-242.661 -169.516)" fill="#ff2953"/>
      </g>
    </g>
  </g>
</svg>
