<svg xmlns="http://www.w3.org/2000/svg" width="25.31" height="25.311" viewBox="0 0 25.31 25.311"><path d="M23.5,2.25H1.8A1.816,1.816,0,0,0,0,4.075v21.66A1.816,1.816,0,0,0,1.8,27.56H23.5a1.82,1.82,0,0,0,1.808-1.825V4.075A1.82,1.82,0,0,0,23.5,2.25ZM7.65,23.944H3.9V11.866H7.655V23.944ZM5.774,10.216A2.175,2.175,0,1,1,7.949,8.041a2.176,2.176,0,0,1-2.175,2.175ZM21.711,23.944H17.96V18.069c0-1.4-.028-3.2-1.949-3.2-1.955,0-2.254,1.525-2.254,3.1v5.977H10.005V11.866h3.6v1.65h.051a3.951,3.951,0,0,1,3.554-1.949c3.8,0,4.5,2.5,4.5,5.757Z" transform="translate(0 -2.25)" fill="#322bff"/></svg>