<svg xmlns="http://www.w3.org/2000/svg" width="187.143" height="121.825" viewBox="0 0 187.143 121.825"><g transform="translate(676.59 -949.282)"><path d="M-317.127,1228.016h-4.679v15.8h-3.652v-15.8h-4.656v-3.149h12.987Z" transform="translate(-217.537 -173.027)" fill="#322bff"/><path d="M-279.224,1243.876h-10.5v-18.762h10.1v3.019h-6.488v4.549h6.118v2.953h-6.118v5.221h6.882Z" transform="translate(-242.899 -173.183)" fill="#322bff"/><path d="M-238.455,1243.431a9.532,9.532,0,0,1-4.049.688,8.094,8.094,0,0,1-6.339-2.547,9.539,9.539,0,0,1-2.216-6.631,9.668,9.668,0,0,1,2.664-7.224,8.616,8.616,0,0,1,6.314-2.427,8.078,8.078,0,0,1,3.8.7l-.7,2.847a7.324,7.324,0,0,0-2.927-.592,4.992,4.992,0,0,0-3.864,1.6,6.985,6.985,0,0,0-1.6,4.917,6.928,6.928,0,0,0,1.475,4.733,5.014,5.014,0,0,0,3.957,1.622,7.623,7.623,0,0,0,2.979-.513Z" transform="translate(-267.172 -173.293)" fill="#322bff"/><path d="M-196.8,1243.968h-3.639v-8.12h-6.421v8.12h-3.626v-18.852h3.626v7.526h6.421v-7.526h3.639Z" transform="translate(-292.643 -173.183)" fill="#322bff"/><path d="M-314.566,1013.189c0-12.14-4.687-25.886-11.947-35.018-8.029-10.1-14.705-15.2-25.521-19.476l-3.34-1.319.292,118.811h4.872l-.274-111.543c8.037,3.668,13.6,8.3,20.159,16.558,6.137,7.724,10.261,19.093,10.821,29.567l-23.618.157,14.526,20.73a5.617,5.617,0,0,0-.482,2.292,5.951,5.951,0,0,0,6.035,5.85,5.951,5.951,0,0,0,6.035-5.85,5.951,5.951,0,0,0-6.035-5.852,6.147,6.147,0,0,0-1.892.3l-8.866-12.659,19.236-.128Zm-8.477,17.343a3.513,3.513,0,0,1,3.6,3.415,3.514,3.514,0,0,1-3.6,3.412,3.514,3.514,0,0,1-3.6-3.412,3.513,3.513,0,0,1,3.6-3.415" transform="translate(-201.677 -5.082)" fill="#322bff"/><path d="M-412.634,1099.257a5.953,5.953,0,0,0,6.037,5.85,5.953,5.953,0,0,0,6.035-5.85,5.953,5.953,0,0,0-6.035-5.852,5.953,5.953,0,0,0-6.037,5.852m6.037-3.414a3.514,3.514,0,0,1,3.6,3.414,3.516,3.516,0,0,1-3.6,3.415,3.515,3.515,0,0,1-3.6-3.415,3.513,3.513,0,0,1,3.6-3.414" transform="translate(-165.726 -90.488)" fill="#322bff"/><path d="M-548.194,1047.108c9.345,11.988,22.463,18.845,37.937,19.833l.021-.326a6.031,6.031,0,0,0,5.732,4.028,5.953,5.953,0,0,0,6.035-5.85,5.951,5.951,0,0,0-6.035-5.852,6.06,6.06,0,0,0-5.459,3.365l.016-.227c-30.3-1.932-46.162-28.214-46.162-53.174a54.039,54.039,0,0,1,16.2-38.792,56.3,56.3,0,0,1,40.8-15.949l.073-4.875a61.177,61.177,0,0,0-44.287,17.351,58.88,58.88,0,0,0-17.659,42.264,63.151,63.151,0,0,0,12.786,38.2m43.69,14.267a3.517,3.517,0,0,1,3.6,3.418,3.516,3.516,0,0,1-3.6,3.412,3.514,3.514,0,0,1-3.6-3.412,3.515,3.515,0,0,1,3.6-3.418" transform="translate(-72.586 0)" fill="#322bff"/><path d="M-619.2,1075.531c-.509-.449-1.035-.915-1.635-1.394-18.646-14.854-28.915-35.839-28.915-59.09a74.31,74.31,0,0,1,22.737-54.2l-3.412-3.48c-.389.034-.5.047-.5.047-12.338,1-23.689,7.912-33.73,20.55-7.132,8.975-11.923,23.5-11.923,36.152h.008c-.122,4.142-.209,28.644,13.511,51.983a5.709,5.709,0,0,0-1.264,3.569,5.953,5.953,0,0,0,6.037,5.85,5.953,5.953,0,0,0,6.037-5.85,5.951,5.951,0,0,0-6.037-5.85c-.151,0-.3.008-.451.021-11.666-19.71-12.9-40.909-12.969-47.771h17.1c.284,23.449,10.386,44.663,28.592,60.117h7.56c-.248-.211-.5-.428-.745-.649m-39.084-9.283a3.513,3.513,0,0,1,3.6,3.415,3.513,3.513,0,0,1-3.6,3.413,3.514,3.514,0,0,1-3.6-3.413,3.515,3.515,0,0,1,3.6-3.415m-13.316-55.057c.67-10.776,4.9-22.823,10.761-30.2,7.679-9.665,16.084-15.64,25.041-17.851a78.577,78.577,0,0,0-18.736,48.052Z" transform="translate(0 -5.073)" fill="#322bff"/><path d="M-460.216,1081.34l-.423-.029v.013c-.868-.07-1.765-.19-2.685-.354l-.289-.055a29.1,29.1,0,0,1-23.691-28.576,29.272,29.272,0,0,1,22.852-28.414l.125-.05a52.222,52.222,0,0,1,8.1-.834l.365-.015-.011-4.63-2.424.005a33.993,33.993,0,0,0-33.855,33.938,33.974,33.974,0,0,0,33.936,33.935h2.424v-4.53l-.354-.024c-1.3-.1-2.673-.226-4.072-.381" transform="translate(-115.802 -43.393)" fill="#322bff"/><path d="M-430.151,1092.263c-.67-.053-1.387-.118-2.132-.2l-1.105-.11c-.133-.021-.266-.041-.4-.065l-.219-.042a14.493,14.493,0,0,1-11.8-14.234,14.579,14.579,0,0,1,11.381-14.152l.148-.037.013-.01a27,27,0,0,1,4.041-.4l1.1-.047-.01-4.309-2.231,0a18.985,18.985,0,0,0-18.908,18.951,18.97,18.97,0,0,0,18.952,18.949h2.232v-4.223Z" transform="translate(-142.094 -68.674)" fill="#322bff"/></g></svg>