<svg id="Component_40_1" data-name="Component 40 – 1" xmlns="http://www.w3.org/2000/svg" width="38.307" height="37.688" viewBox="0 0 38.307 37.688">
  <path id="Subtraction_2" data-name="Subtraction 2" d="M-7343.308,15243a20.227,20.227,0,0,1-7.666-1.488,19.687,19.687,0,0,1-6.259-4.059,18.851,18.851,0,0,1-4.22-6.021,18.2,18.2,0,0,1-1.547-7.371,18.236,18.236,0,0,1,1.3-6.771,18.754,18.754,0,0,1,3.567-5.691,19.9,19.9,0,0,1,12.021-6.285,15.869,15.869,0,0,0-6.72,12.945c0,8.926,7.551,16.189,16.832,16.189a17.175,17.175,0,0,0,11.311-4.2,18.64,18.64,0,0,1-2.82,5.125,19.43,19.43,0,0,1-4.253,4.035A20.065,20.065,0,0,1-7343.308,15243Z" transform="translate(7363 -15205.313)" fill="#0f0f0f"/>
</svg>
