<svg xmlns="http://www.w3.org/2000/svg" width="116.624" height="175.353" viewBox="0 0 116.624 175.353"><g transform="translate(0 149.003)"><path d="M70.165,173.9q-4.234,4.358-7.713,4.359a3.51,3.51,0,0,1-3.223-1.954,10.6,10.6,0,0,1-1.106-5.226,31.3,31.3,0,0,1,1.087-6.964,29.081,29.081,0,0,1,2.808-7.45l1.1-1.882a20.954,20.954,0,0,0-3.685,4.911Q57.99,162.363,56,167.156a61.862,61.862,0,0,1-3.015,6.529,19.887,19.887,0,0,1-1.956,2.83,5.258,5.258,0,0,1-1.665,1.419,6.886,6.886,0,0,1-2.542.326q-.7,0-.7-.362c0-.024.083-.4.251-1.139a34.11,34.11,0,0,0,.51-3.536q.261-2.433.374-8.266a28.4,28.4,0,0,1,1.777-9.992Q47.25,156.9,45.4,163.973l-.473,1.772q-1.95,7.36-4.467,9.938t-4.939,2.577a4.109,4.109,0,0,1-2.631-.9,2.625,2.625,0,0,1-1.136-2.081q0-.9,1.363-2.025a4.776,4.776,0,0,1,1.721-1.121.547.547,0,0,1,.547.272,7.793,7.793,0,0,1,.341,1.492,2.775,2.775,0,0,0,.635,1.591,1.574,1.574,0,0,0,1.071.371q1.46,0,3.223-2.795a31.04,31.04,0,0,0,3.223-8.635l.549-2.189a32.671,32.671,0,0,1,1.307-4.267,17.807,17.807,0,0,1,1.706-3.184,11.094,11.094,0,0,1,1.885-2.431,5.014,5.014,0,0,1,1.315-.254,18.731,18.731,0,0,1,1.929-.1c.251,0,.378.139.378.415a5.449,5.449,0,0,1-.12.815,33.1,33.1,0,0,0-.353,5.081l.037,4.848a37.929,37.929,0,0,1-1.059,10.218,25.947,25.947,0,0,0,2.911-5.969,60.271,60.271,0,0,1,5.029-10.236,19.5,19.5,0,0,1,2.6-3.156A6.015,6.015,0,0,1,64.1,152.4a19.625,19.625,0,0,1,3.384-.362c.34,0,.51.09.51.272a5.734,5.734,0,0,1-.622,1.7,46.668,46.668,0,0,0-2.743,8.611,40.862,40.862,0,0,0-1.285,8.642q0,3.636,2.325,3.635,1.89,0,4.5-3.074Z" transform="translate(-31.751 -152)" fill="#322bff"/><path d="M71.922,170.49a23.25,23.25,0,0,1-4.31,3.337A8.453,8.453,0,0,1,63.4,174.9a5.411,5.411,0,0,1-5.727-5.715,10.145,10.145,0,0,1,2.778-6.936,8.173,8.173,0,0,1,6.162-3.1,4.307,4.307,0,0,1,2.817.867,2.806,2.806,0,0,1,1.059,2.279q0,3.744-8.317,6.077.756,3.527,3.951,3.527a4.761,4.761,0,0,0,2.381-.643,20.537,20.537,0,0,0,3.422-2.848Zm-9.907-3.346q4.841-1.3,4.84-4.811,0-1.737-1.323-1.737-1.247,0-2.382,1.818A8.817,8.817,0,0,0,62.016,167.145Z" transform="translate(-19.387 -148.589)" fill="#322bff"/><path d="M87.557,173.849a32.094,32.094,0,0,1-4.149,3.5,4.864,4.864,0,0,1-2.524.913,2.4,2.4,0,0,1-2.127-1.247,7.047,7.047,0,0,1-.8-3.654,12.608,12.608,0,0,1-3.374,3.654,6.027,6.027,0,0,1-3.3,1.247,3.633,3.633,0,0,1-2.834-1.455,5.12,5.12,0,0,1-1.229-3.409,11.032,11.032,0,0,1,3.071-7.478q3.073-3.445,6.608-3.446a3.573,3.573,0,0,1,1.541.272,4.847,4.847,0,0,1,1.219.922l2.7-10.815a25.444,25.444,0,0,1,4.467-.741c.253,0,.378.1.378.29q0,.2-.944,3.746-3.778,14.177-3.778,17.107a1.842,1.842,0,0,0,.3,1.1.936.936,0,0,0,.792.415q1.21,0,3.982-3Zm-13.667.959q1.852,0,3.459-3a12,12,0,0,0,1.607-5.625,2.64,2.64,0,0,0-.523-1.725,1.649,1.649,0,0,1-1.292-.607q-1.757,0-3.4,3.137a12.439,12.439,0,0,0-1.644,5.67,2.378,2.378,0,0,0,.482,1.573A1.622,1.622,0,0,0,73.89,174.808Z" transform="translate(-14.832 -151.948)" fill="#322bff"/><path d="M90.338,170.49q-4.424,4.449-6.617,4.449a2.44,2.44,0,0,1-2.041-1.185,5.047,5.047,0,0,1-.832-2.975q0-3.853,2.722-10.672l4.8-.957H88.6l-1.891,5.66a18.536,18.536,0,0,0-1.171,5.01,1.575,1.575,0,0,0,.275.967.827.827,0,0,0,.69.371,2.61,2.61,0,0,0,1.483-.516,17.927,17.927,0,0,0,2.354-2.233Z" transform="translate(-8.33 -148.589)" fill="#322bff"/><path d="M107.535,170.514a39.5,39.5,0,0,1-4.328,3.58,4.659,4.659,0,0,1-2.5.832q-2.987,0-2.817-5.046a18.919,18.919,0,0,1-3.487,3.817,5.353,5.353,0,0,1-3.3,1.229,3.476,3.476,0,0,1-2.826-1.492,5.773,5.773,0,0,1-1.162-3.662,9.507,9.507,0,0,1,1.56-5.173,12.515,12.515,0,0,1,4-3.979,8.451,8.451,0,0,1,4.31-1.518,3.35,3.35,0,0,1,3.309,2.08l3.864-2.044h1.061l-1.668,5.3a22.041,22.041,0,0,0-1.289,5.48q0,1.555,1.154,1.555a2.638,2.638,0,0,0,1.625-.75q.888-.751,2.493-2.288Zm-13.737.993q1.834-.08,3.462-3.081a12.06,12.06,0,0,0,1.673-5.688,2.413,2.413,0,0,0-.473-1.583,1.561,1.561,0,0,0-1.267-.569q-1.89,0-3.582,3.074a11.892,11.892,0,0,0-1.691,5.662,2.369,2.369,0,0,0,.551,1.641A1.653,1.653,0,0,1,93.8,171.506Z" transform="translate(-5.338 -148.612)" fill="#322bff"/></g><path d="M119.164,122.678a116.79,116.79,0,0,1-9.415,15.627c-3.089,4.449-6.434,8.942-9.791,13.567a64.556,64.556,0,0,0-5.78-10.419,21.44,21.44,0,0,0,.044-3.577c-1.052-14.407-8.02-23.362-15.094-34.439A21.3,21.3,0,0,1,81.5,95.568c1.969,2.922,4.063,5.7,6.091,8.339,2.478,6.608,7.737,17.011,13.028,21.367.425-.653.833-1.291,1.226-1.929a51.875,51.875,0,0,0,6.706-15.5c4.366-19.253-10.478-28.6-22.3-29.321a46.6,46.6,0,0,1-3.019-7.254c-.189-.594-.409-1.4-.629-2.35s-.443-2.032-.64-3.195a15.351,15.351,0,0,1-.3-1.623c.929-.1,1.877-.151,2.837-.182,27.076-.741,40.094,19.645,39.778,39.106A46.84,46.84,0,0,1,119.164,122.678Z" transform="translate(-9.15 -45.026)" fill="#322bff"/><path d="M84.416,80.788c-9.842,5.768-12.94,18.007-11.056,24.517-4.21,4.6-7.716,9.6-11.416,12.686a68.6,68.6,0,0,1-3.227-9.274c-4.4-16.8,5.721-37.289,24.933-43.531q-.137.41-.257.829a26.928,26.928,0,0,0-.533,3.038,24,24,0,0,0-.1,5A39.221,39.221,0,0,0,84.416,80.788Z" transform="translate(-19.374 -44.411)" fill="#322bff"/><path d="M104.223,145.209a21.887,21.887,0,0,1-5.7,2.353,19.643,19.643,0,0,1-6.381.477c-5.446-10.565-15.63-19.9-23.81-29.891,1.137-4.489,4.447-9.478,8.181-14.979,1.744,2.725,3.475,5.205,4.976,7.261,2.029,2.787,3.631,4.79,4.245,5.532l.01.01c.055.074.111.148.164.229,1.511,2.1,3.2,4.272,4.929,6.534,2.022,2.639,4.115,5.4,6.077,8.32A59.633,59.633,0,0,1,104.223,145.209Z" transform="translate(-14.302 -26.292)" fill="#322bff"/><path d="M96.732,142.956c-.052.145-.1.289-.162.433-.3.78-.626,1.551-.985,2.3-2.795,5.865-7.031,11.813-10.754,16.921.3-.479.9-1.889,1.227-2.651,1.61-4.947,3.182-10.112,2.916-15.276A37.3,37.3,0,0,0,96.732,142.956Z" transform="translate(-6.43 -7.312)" fill="#322bff"/><path d="M104,129.441c-1.725-2.684-3.434-5.128-4.916-7.158-2.037-2.789-3.638-4.793-4.247-5.53l-.01-.01c-.055-.075-.108-.155-.168-.232-1.505-2.086-3.183-4.254-4.913-6.508-2.028-2.642-4.122-5.418-6.091-8.339A59.784,59.784,0,0,1,76.347,87.5a39.22,39.22,0,0,1-1.654-6.735,23.994,23.994,0,0,1,.1-5,26.931,26.931,0,0,1,.533-3.038q.12-.419.257-.829c.167-.521.354-1.041.551-1.551.3-.781.626-1.551.982-2.31,2.8-5.858,7.031-11.813,10.757-16.914a26.264,26.264,0,0,0-1.227,2.653c-1.674,5.142-3.31,10.528-2.885,15.893.019.177.037.354.064.529a15.347,15.347,0,0,0,.3,1.623c.2,1.162.419,2.248.64,3.195s.44,1.756.629,2.35a46.591,46.591,0,0,0,3.019,7.254c5.325,10.372,14.234,19.547,22.3,29.321A51.875,51.875,0,0,1,104,129.441Z" transform="translate(-11.305 -51.121)" fill="#322bff"/><path d="M113.1,171.118a37.294,37.294,0,0,1-7.759,1.73c-1.1.123-2.226.2-3.371.235-19.352.536-30.158-11.227-36.8-23.718-2.966-5.574-6.506-14.543-14.666-26.69C68.847,108.255,77.058,95.087,87.52,83.921c1.86,3.6,3.848,6.862,5.825,9.964,7.074,11.076,13.478,20.032,14.53,34.439a21.444,21.444,0,0,1-.044,3.577,21.733,21.733,0,0,1-2.419,8.336c-1.962-2.919-4.054-5.681-6.077-8.32-2.478-6.608-7.752-17.03-13.039-21.392-.448.617-.87,1.224-1.285,1.826-3.734,5.5-7.044,10.49-8.181,14.979-4.837,18.989,11.742,28.978,23.81,29.891a19.643,19.643,0,0,0,6.381-.477,21.888,21.888,0,0,0,5.7-2.353c10.232-6,13.172-18.974,10.822-25.257-.049-.127-.093-.251-.143-.38a116.788,116.788,0,0,0,9.415-15.627,54.307,54.307,0,0,1,5.61,13.336C142.826,143.257,132.4,164.612,113.1,171.118Z" transform="translate(-22.802 -35.474)" fill="#322bff" opacity="0.28"/></svg>